<?xml version="1.0" standalone="no"?>
<!DOCTYPE svg PUBLIC "-//W3C//DTD SVG 1.1//EN" "http://www.w3.org/Graphics/SVG/1.1/DTD/svg11.dtd" >
<svg xmlns="http://www.w3.org/2000/svg">
<metadata>
Created by FontPrep 20130207 at Wed Feb  4 11:07:20 2015
 By Sang Noh
 The digitally encoded machine readable software for producing the  Typefaces licensed to you is copyrighted (c) 1989 Adobe Systems.  All rights reserved. This software is the property of Adobe Systems  Incorporated and its licensors, and may not be reproduced, used,  displayed, modified, disclosed, or transferred  without the express  written approval of Adobe.   The digitally encoded machine readable outline data for producing  the Typefaces licensed to you is copyrighted (c) 1981 Linotype AG  and/or its subsidiaries. All Rights Reserved.  This data is the property of Linotype AG and/or its subsidiaries  and may not be reproduced, used, displayed, modified, disclosed or  transferred without the express written approval of Linotype AG  and/or its subsidiaries. 
</metadata>
<defs>
<font id="2d25787d0bda030ec2b41031029202b6" horiz-adv-x='1024' >
  <font-face 
    font-family="Cochin-BoldItalic"
    font-weight="700"
    font-style="italic"
    font-stretch="normal"
    units-per-em="2048"
    panose-1="0 0 0 0 0 0 0 0 0 0"
    ascent="1536"
    descent="-512"
    x-height="778"
    cap-height="1339"
    bbox="-496 -479 2109 1874"
    underline-thickness="102"
    underline-position="-102"
    slope="-20"
    unicode-range="U+000D-FB02"
  />
<missing-glyph horiz-adv-x="512" 
 />
    <glyph glyph-name=".notdef" horiz-adv-x="512" 
 />
    <glyph glyph-name=".null" horiz-adv-x="0" 
 />
    <glyph glyph-name=".null" horiz-adv-x="0" 
 />
    <glyph glyph-name="nonmarkingreturn" unicode="&#xd;" horiz-adv-x="512" 
 />
    <glyph glyph-name="space" unicode=" " horiz-adv-x="512" 
 />
    <glyph glyph-name="exclam" unicode="!" horiz-adv-x="681" 
d="M131 -8q-47 0 -86 29.5t-39 98.5t40 126t110 57t105.5 -36t35.5 -83t-11.5 -78.5t-30.5 -57t-48 -41t-76 -15.5zM176 445q0 53 22.5 144t51.5 182t56.5 171t53.5 194t29 195h270q-16 -164 -78.5 -291.5t-143.5 -243.5t-133 -217.5t-75 -222.5h-49q-4 36 -4 89z" />
    <glyph glyph-name="quotedbl" unicode="&#x22;" horiz-adv-x="681" 
d="M569 1260q0 113 84 112.5t84 -112.5q0 -55 -8 -123l-31 -349q-6 -63 -45 -63t-45 63l-30 349q-9 79 -9 123zM240 1260q0 113 84 112.5t84 -112.5q0 -46 -9 -123l-30 -349q-6 -63 -45 -63t-45 63l-31 349q-8 70 -8 123z" />
    <glyph glyph-name="numbersign" unicode="#" 
d="M479 797l-37 -262h226l39 262h-228zM979 408h-191l-57 -408h-137l57 408h-227l-57 -408h-136l56 408h-189v127h207l37 262h-188v127h206l56 407h137l-55 -407h225l55 407h140l-58 -407h172v-127h-188l-39 -262h174v-127z" />
    <glyph glyph-name="dollar" unicode="$" 
d="M295 981q0 173 127.5 276t306.5 103q14 0 21 -2l57 168l72 -15l-56 -151q121 -31 215 -82q-42 -129 -100 -354l-61 20l12 121q0 59 -24.5 114.5t-71.5 84.5l-150 -433q97 -125 151 -223.5t54 -205.5q0 -190 -135.5 -300t-315.5 -110q-25 0 -45 4l-67 -193l-74 17l65 188
q-72 18 -132 45t-142 37l100 397l41 -8q0 -332 158 -403l184 526q-33 45 -111.5 150.5t-78.5 228.5zM683 1294q-71 0 -119 -59.5t-48 -123.5q0 -109 74 -208l135 387q-10 4 -42 4zM397 57q111 0 162 72.5t51 154.5q0 130 -73 242l-162 -467q6 -2 22 -2z" />
    <glyph glyph-name="percent" unicode="%" horiz-adv-x="1820" 
d="M1147 133q0 -121 84 -121q72 0 141.5 109.5t118.5 258t49 220.5q0 127 -79 127t-170 -142.5t-117.5 -280.5t-26.5 -171zM1520 776q100 0 158.5 -51t58.5 -153t-51.5 -211t-135.5 -197t-189.5 -144.5t-205.5 -56.5t-158.5 49.5t-58.5 149.5t51 210.5t135 200t190 146.5
t206 57zM410 725q0 -121 84 -121q70 0 158 135.5t119.5 277.5t31.5 175q0 127 -79 127t-169.5 -139.5t-117.5 -280.5t-27 -174zM782 1368q100 0 158.5 -51t58.5 -153t-51 -211t-135 -197t-189.5 -144.5t-205.5 -56.5t-158.5 49.5t-58.5 149.5t51 210.5t135 199.5
t189.5 146.5t205.5 57.5zM1409 1368h119l-1004 -1405h-114z" />
    <glyph glyph-name="ampersand" unicode="&#x26;" horiz-adv-x="1781" 
d="M582 688q0 70 -60 70q-71 0 -112 -89t-56.5 -141.5t-23.5 -78.5q252 90 252 239zM1421 1163q-45 0 -75.5 25.5t-30.5 73.5q0 87 79.5 133.5t148.5 46.5q123 0 187 -48t64 -129q0 -82 -31.5 -132t-82 -85.5t-113 -60t-124 -43t-115.5 -35t-99 -43.5q-131 -79 -131 -110
q0 -8 5 -8t16 10t51 33.5t111 23.5q126 0 205 -58.5t79 -159.5t-46 -183t-156 -179.5t-337.5 -176t-443.5 -78.5t-368.5 62.5t-152.5 260.5q0 109 58.5 206t149.5 172t200 119t189 44t126.5 -25.5t46.5 -96.5q0 -122 -152.5 -197.5t-363.5 -137.5q-4 -33 -4 -83t32 -102
t107.5 -98.5t214.5 -46.5q138 0 254.5 30t210 88t151.5 145.5t58 187.5q0 205 -176 205q-70 0 -110.5 -61t-40.5 -111q-4 -41 -9.5 -50.5t-15.5 -9.5q-20 0 -20 23q0 221 118.5 312t200.5 129t153.5 77t119 88.5t47.5 113.5t-32 106t-86 42t-54 -43q0 -35 17 -72.5t48 -56.5
q-33 -37 -78 -37z" />
    <glyph glyph-name="quotesingle" unicode="'" horiz-adv-x="454" 
d="M299 1260q0 113 84 112.5t84 -112.5q0 -55 -8 -123l-31 -349q-6 -63 -45 -63t-45 63l-31 349q-8 70 -8 123z" />
    <glyph glyph-name="parenleft" unicode="(" horiz-adv-x="909" 
d="M378.5 -153.5q40.5 -121.5 145.5 -245.5l-22 -23q-160 141 -258.5 324.5t-98.5 391.5t87 395.5t225.5 339t310.5 252.5t342 128l10 -37q-244 -50 -421.5 -261.5t-269 -481t-91.5 -465.5t40.5 -317.5z" />
    <glyph glyph-name="parenright" unicode=")" horiz-adv-x="909" 
d="M682 693q0 -208 -87 -395t-225.5 -339t-310.5 -253t-342 -128l-10 37q244 50 421.5 261.5t269 481t91.5 465.5t-40.5 317.5t-145.5 245.5l23 23q160 -141 258 -324.5t98 -391.5z" />
    <glyph glyph-name="asterisk" unicode="*" horiz-adv-x="909" 
d="M473 1302q0 22 18.5 46t65.5 24t65.5 -24t18.5 -46q0 -40 -26.5 -105t-36.5 -75h-41q-12 12 -31 58.5t-26 73t-7 48.5zM526 830q0 -179 -84 -179q-31 0 -64.5 21.5t-33.5 52.5q0 51 47 98t94 74l37 -18q4 -21 4 -49zM242 1177.5q0 32.5 28.5 60.5t57.5 28
q47 0 89.5 -68.5t53.5 -107.5l-25 -33q-52 0 -101.5 20.5t-76 44t-26.5 56zM262 852q-27 0 -47 28.5t-20 68.5q0 71 94 71q41 0 86 -8t61 -17l8 -39q-35 -52 -95 -78t-87 -26zM825 1020q95 0 95 -76q0 -35 -21 -63.5t-47 -28.5q-43 0 -102.5 37.5t-79.5 66.5l8 39
q16 8 61 16.5t86 8.5zM778 1266q28 0 57 -28t29 -73t-76 -76.5t-129 -31.5l-24 33q11 37 39 84t52 69.5t52 22.5zM770 725q0 -31 -34 -52.5t-62 -21.5q-49 0 -67.5 54t-18.5 103t4 71l37 18q40 -20 74 -54t50.5 -60.5t16.5 -57.5z" />
    <glyph glyph-name="plus" unicode="+" horiz-adv-x="1228" 
d="M516 778h156v-311h311v-156h-311v-311h-156v311h-311v156h311v311z" />
    <glyph glyph-name="comma" unicode="," horiz-adv-x="512" 
d="M49 105q0 60 -63 110q35 35 75.5 61.5t96.5 26.5t94.5 -31.5t38.5 -99.5t-51.5 -133.5t-124 -121.5t-150.5 -102t-131 -81l-33 33q248 159 248 338z" />
    <glyph glyph-name="hyphen" unicode="-" horiz-adv-x="681" 
d="M165 496q46 0 85 -10.5t122 -10.5t191 37l-55 -225q-70 -25 -143 -25q-74 0 -129.5 10.5t-104.5 10.5t-75.5 -8.5t-65.5 -18.5l80 231q12 2 30.5 5.5t64.5 3.5z" />
    <glyph glyph-name="period" unicode="." horiz-adv-x="512" 
d="M115 -8q-47 0 -86 29.5t-39 98.5t40 126t110 57t105.5 -36t35.5 -83t-11.5 -78.5t-31 -57t-48 -41t-75.5 -15.5z" />
    <glyph glyph-name="slash" unicode="/" horiz-adv-x="569" 
d="M555 1372h158l-656 -1413h-157z" />
    <glyph glyph-name="zero" unicode="0" 
d="M291 226q0 -186 100 -185q96 0 196 201t174.5 466.5t74.5 392.5q0 126 -30 157.5t-74 31.5t-98 -60.5t-104.5 -155.5t-93.5 -216t-94 -310.5t-51 -321.5zM855 1368q126 0 188.5 -86t62.5 -200t-29.5 -232.5t-118 -314.5t-278.5 -384t-399 -188q-137 0 -199 82.5
t-62 198.5t30 235t84 242t129 239.5t166 206.5t195.5 145.5t230.5 55.5z" />
    <glyph glyph-name="one" unicode="1" 
d="M621 1192q0 29 -89 29h-124l14 53q237 20 463 94l43 -43l-371 -1053q-14 -41 -27.5 -80.5t-13.5 -68.5t22.5 -41t52.5 -19.5t59.5 -9.5t45.5 -4l-20 -53l-373 4q-72 0 -142.5 -2t-142.5 -2l11 53q74 4 117.5 12.5t72.5 32t48.5 65.5t43.5 111l281 822q12 35 20.5 59.5
t8.5 40.5z" />
    <glyph glyph-name="two" unicode="2" 
d="M786 1159q0 156 -114 156q-134 0 -160.5 -141.5t-38.5 -182.5q-102 8 -156 29q-53 20 -62 38.5t-9 53.5t33.5 84t128 110.5t254.5 61.5q159 0 262.5 -83.5t103.5 -240.5q0 -288 -212 -414t-362 -209t-302 -200l4 -4h288q153 0 213 27.5t101 69.5t73 112l48 -16
q-59 -109 -99.5 -207.5t-83.5 -202.5h-813l-8 45v4q72 68 168 146.5t276 235.5t323.5 344.5t143.5 383.5z" />
    <glyph glyph-name="three" unicode="3" 
d="M803 1331q58 0 256 12l22 -65l-467 -369q133 -12 200 -93t67 -208t-49.5 -221t-214 -234t-748.5 -190v53q323 25 534 176t211 402q0 108 -55 138t-95 30t-82 -26.5t-75 -43.5l-18 37l497 391v6h-294q-91 0 -127.5 -21t-98.5 -101l-37 22l168 305h406z" />
    <glyph glyph-name="four" unicode="4" 
d="M1102 1393q31 0 38 -13.5t7 -30.5q0 -34 -19 -87t-30 -99q-154 0 -281 -78t-224 -157.5t-140 -122.5l-252 -248h479l135 418l252 76l-356 -1051h-238l139 365h-600l-22 45l504 522q167 172 301.5 274.5t205 144.5t101.5 42z" />
    <glyph glyph-name="five" unicode="5" 
d="M631 554q1 216 -175 216q-88 0 -138 -37t-97 -86l-26 19l221 591q-10 18 -20.5 34t-10.5 40h352q10 -53 35.5 -71.5t87.5 -18.5t117 40t86 99l45 -47q-74 -92 -175.5 -155.5t-202.5 -63.5t-153.5 19.5t-115.5 70.5l-103 -272q74 31 156 31q164 0 273.5 -104t109.5 -267
q0 -162 -93 -278.5t-236.5 -193.5t-317.5 -115t-334 -42v45q141 -2 271 39t228.5 115t157 178t58.5 214z" />
    <glyph glyph-name="six" unicode="6" 
d="M668 844q117 0 181 -83t64 -193q0 -111 -35.5 -214.5t-100 -190.5t-153 -143.5t-180.5 -56.5q-172 0 -255 105t-83 266q0 215 80 407.5t218.5 338t326 235.5t402.5 102l-7 -53q-222 -15 -383.5 -168.5t-240.5 -378.5q106 27 166 27zM676 596q0 158 -154 158q-23 0 -51 -6
q-94 -236 -118.5 -383t-24.5 -205t15 -96.5t65 -38.5t85 34.5t77.5 114t74 223t31.5 199.5z" />
    <glyph glyph-name="seven" unicode="7" 
d="M573 1118q-79 0 -121.5 -40.5t-93.5 -188.5l-51 8l125 434h729v-43q0 -23 -45 -73.5t-100 -118.5q-119 -146 -277 -472t-237 -624h-287q73 220 266.5 508t384.5 502l97 108h-390z" />
    <glyph glyph-name="eight" unicode="8" 
d="M674 807q170 136 170 336q0 108 -41 140t-78 32q-68 0 -116 -75.5t-48 -165.5t46 -166.5t67 -100.5zM270 266q0 -161 53.5 -205.5t123 -44.5t118.5 88t49 194t-42 188.5t-95 172.5q-104 -61 -155.5 -168.5t-51.5 -224.5zM975 913q-90 -65 -153.5 -92.5t-119.5 -50.5
q78 -128 114 -219.5t36 -192.5q0 -187 -124.5 -291t-293.5 -104t-277 83.5t-108 236.5t132.5 263.5t271.5 151.5q-20 33 -44 72t-54.5 108t-30.5 147q0 155 111.5 249t262.5 94q150 0 258.5 -70.5t108.5 -194.5q0 -125 -90 -190z" />
    <glyph glyph-name="nine" unicode="9" 
d="M436 475q-129 0 -192.5 79.5t-63.5 193.5t38 223.5t106.5 197.5t165 143.5t198.5 55.5q182 0 265 -129t83 -301q0 -287 -187 -518t-437 -327.5t-478 -129.5l-8 53q526 103 707 498q-115 -39 -197 -39zM799 1132q0 176 -90 175q-51 0 -102.5 -68t-88.5 -160t-58.5 -187.5
t-21.5 -163.5t24.5 -115.5t115.5 -47.5q47 0 90 19q84 192 107.5 336t23.5 212z" />
    <glyph glyph-name="colon" unicode=":" horiz-adv-x="512" 
d="M127 -8q-47 0 -86 29.5t-39 98.5t40 126t110 57t105.5 -36t35.5 -83t-11.5 -78.5t-31 -57t-48 -41t-75.5 -15.5zM297 492q-47 0 -86 30t-39 98t40 125.5t110 57.5t105.5 -36t35.5 -83t-11.5 -79t-31 -57.5t-48 -40.5t-75.5 -15z" />
    <glyph glyph-name="semicolon" unicode=";" horiz-adv-x="512" 
d="M303 492q-47 0 -86 30t-39 98t40 125.5t110 57.5t105.5 -36t35.5 -83t-11.5 -79t-30.5 -57.5t-48 -40.5t-76 -15zM-178 -233q248 159 248 339q0 61 -64 109q88 88 158 88q146 0 147 -125q0 -170 -201.5 -289.5t-254.5 -154.5z" />
    <glyph glyph-name="less" unicode="&#x3c;" horiz-adv-x="1228" 
d="M983 119v-158l-778 340v176l778 340v-158l-618 -270z" />
    <glyph glyph-name="equal" unicode="=" horiz-adv-x="1228" 
d="M983 160h-778v155h778v-155zM983 463h-778v155h778v-155z" />
    <glyph glyph-name="greater" unicode="&#x3e;" horiz-adv-x="1228" 
d="M823 389l-618 270v158l778 -340v-176l-778 -340v158z" />
    <glyph glyph-name="question" unicode="?" horiz-adv-x="985" 
d="M279 -8q-47 0 -86 29.5t-39 98.5t40 126t110 57t105 -36t35 -83t-11 -78.5t-30.5 -57t-48 -41t-75.5 -15.5zM737 1212.5q0 36.5 -11 65.5t-53 29t-71 -31t-50.5 -73t-37.5 -86t-33 -73q-71 41 -108 90.5t-37 73.5t30.5 54t102.5 70t160 40q137 0 223 -80t86 -206
t-99.5 -243t-207.5 -187q-107 -70 -161 -133.5t-83 -170.5h-51q15 208 122.5 360t137.5 194t53 77t42.5 74t32.5 79t13 76.5z" />
    <glyph glyph-name="at" unicode="@" horiz-adv-x="1638" 
d="M1114 446q0 -86 72 -86q100 0 172 131.5t72 276.5q0 86 -38 177t-157.5 214t-361.5 123t-404 -170.5t-162 -476.5q0 -239 166 -406.5t408 -167.5q137 0 227 29t178 68l25 -78q-98 -47 -202.5 -84t-225.5 -37q-201 0 -346.5 66.5t-238.5 168t-138 219t-45 253.5t59 270.5
t161.5 232t239 150.5t282.5 53q285 0 480 -170.5t195 -431.5q0 -178 -105 -332.5t-274 -154.5q-70 0 -126 46t-56 99h-4q-39 -59 -109 -102t-125 -43q-96 0 -149.5 67t-53.5 160q0 94 31 189.5t86 169t130 118.5t159 45t108.5 -42t34.5 -60l23 74h143l-115 -463
q-4 -23 -10 -47.5t-6 -47.5zM1042 844q0 86 -86 86q-35 0 -81 -26.5t-113.5 -111t-67.5 -239.5q0 -88 34 -128t82 -40t90 41t74 105.5t50 145.5t18 167z" />
    <glyph glyph-name="A" unicode="A" horiz-adv-x="1214" 
d="M696 631v463h-4q-223 -280 -350 -463h354zM231 -8q-80 8 -252 8t-282 -8l14 45q84 14 134.5 43t100.5 90t115.5 164.5t180.5 266.5q377 535 645 771l59 -29v-1191q0 -80 76 -94.5t100 -20.5l-14 -45q-439 16 -649 0l14 45q132 18 173.5 54t41.5 116v350l-385 8
q-56 -76 -132.5 -227.5t-76.5 -204.5t50.5 -74.5t101.5 -21.5z" />
    <glyph glyph-name="B" unicode="B" horiz-adv-x="1327" 
d="M621 760q51 0 116.5 23.5t141 92.5t75.5 224q0 86 -44 130t-96 44t-87 -8l-180 -502q23 -4 74 -4zM782 653.5q-90 61.5 -250 61.5l-200 -619q63 -39 152 -39q90 0 159.5 30t149 112.5t79.5 237.5t-90 216.5zM1233 1062q0 -258 -342 -312v-5q280 -66 280 -296
q0 -179 -158.5 -318t-512.5 -139l-377 8q-139 0 -283 -8l15 45q169 20 203 97.5t56 141.5t60.5 172.5t144 405t105.5 342.5q0 22 -11 41.5t-169 56.5l12 45q114 -8 272 -8l303 8q272 0 337 -99t65 -178z" />
    <glyph glyph-name="C" unicode="C" horiz-adv-x="1327" 
d="M1163 827q0 476 -270 476q-106 0 -202.5 -77t-170.5 -200t-117 -273.5t-43 -260.5t17.5 -173t75 -140t207.5 -77t242.5 81t144 142.5t102.5 120.5l39 -38q-245 -350 -420.5 -399.5t-271.5 -49.5q-205 0 -317.5 120.5t-112.5 318.5t74.5 370t200.5 306t293 216t369 82
t326 -76l-121 -469h-45z" />
    <glyph glyph-name="D" unicode="D" horiz-adv-x="1478" 
d="M429 1237.5q-11 19.5 -169 56.5l16 45q122 -8 217 -8t200.5 10.5t214.5 10.5q240 0 372.5 -99t132.5 -354q0 -180 -62.5 -345t-179 -290t-283.5 -198.5t-376 -73.5l-231 8h-424l14 45q167 10 203.5 90t95.5 251t164.5 467t105.5 331q0 34 -11 53.5zM524 66
q158 0 271.5 85t187.5 213t108.5 276t34.5 252t-23.5 245t-266.5 141q-43 0 -86 -12l-408 -1176q103 -24 182 -24z" />
    <glyph glyph-name="E" unicode="E" horiz-adv-x="1290" 
d="M1012 -8q-244 8 -673 8t-527 -8l12 45q171 20 207.5 105.5t93.5 250t162.5 460.5t105.5 353q0 27 -36.5 45t-143.5 43l14 37h1010q-10 -82 -10 -193q0 -112 10 -190l-37 -12q-120 125 -168 342h-323l-191 -553q174 0 231.5 20.5t110 60.5t133.5 167l37 -23
q-86 -183 -203 -567l-36 8q0 57 -5.5 107.5t-7.5 103.5t-45 61.5t-115 8.5t-116 -4l-195 -557l309 -48q117 -18 149 -18t49 16.5t64 86.5t120 132t141 115l28 -28q-108 -179 -155 -375z" />
    <glyph glyph-name="F" unicode="F" horiz-adv-x="1214" 
d="M426 1175q0 39 -92.5 72.5t-143.5 38.5l15 45h1063q-8 -111 -8 -209t8 -188l-37 -10q-125 156 -162 354h-321l-189 -553q129 0 207 11t145.5 80t114.5 167l43 -22q-63 -141 -109.5 -287t-99.5 -293l-41 8l4 103q0 96 -22.5 135t-86.5 42t-74 3h-99l-129 -367
q-16 -49 -33 -88t-17 -82q0 -32 99.5 -58t216.5 -40l-14 -45q-391 16 -818 0l15 45q167 27 199.5 72.5t145.5 389t159 472.5t53.5 154.5t7.5 49.5z" />
    <glyph glyph-name="G" unicode="G" horiz-adv-x="1441" 
d="M590 -41q-528 0 -527 467q0 180 78 351t209 303t300 212t363 80t435 -110l-141 -394l-45 15q-6 197 -35 271.5t-80 115.5t-150 41t-213 -78t-208.5 -207t-156 -295t-61.5 -340q0 -241 106 -297.5t172 -56.5q110 0 167.5 58.5t95.5 170.5q8 25 31.5 91t23.5 116
q0 70 -211 100l13 45q66 -4 132 -12t132 -8h389l-12 -45q-94 -12 -132 -34.5t-55 -82.5l-82 -280h101l-6 -37q-330 -160 -633 -160z" />
    <glyph glyph-name="H" unicode="H" horiz-adv-x="1554" 
d="M1323 -8q-192 8 -360 8t-312 -8l8 45q170 20 204 97t46 112l142 405h-545l-131 -397q-31 -102 -31 -122q0 -34 34.5 -51.5t135.5 -43.5l-8 -45q-192 8 -360 8t-312 -8l8 45q170 20 204 97.5t56 141.5t60.5 172.5t144 405t105.5 342.5q0 22 -12 41.5t-169 56.5l13 45
l311 -8q194 0 358 8l-14 -45q-176 -21 -206.5 -97.5t-43.5 -111.5l-119 -360h547l121 352q31 102 31 122q0 35 -36.5 52.5t-143.5 42.5l12 45l311 -8q195 0 359 8l-15 -45q-171 -20 -217 -127.5t-132.5 -379t-146.5 -450.5t-59 -202q0 -37 34 -54.5t136 -43.5z" />
    <glyph glyph-name="I" unicode="I" horiz-adv-x="796" 
d="M375 135q0 -22 11 -41.5t159 -56.5l-8 -45q-192 8 -360 8t-312 -8l8 45q170 20 205 99t94 250t164.5 467t105.5 331q0 34 -11 53.5t-169 56.5l12 45l312 -8q194 0 358 8l-14 -45q-170 -20 -214 -120t-133 -379t-149 -458q-60 -180 -59 -202z" />
    <glyph glyph-name="J" unicode="J" horiz-adv-x="1099" 
d="M508 1339q212 -8 402 -8t358 8l-15 -45q-145 -7 -183 -52.5t-53.5 -92.5t-37.5 -113l-215 -647q-97 -280 -256.5 -355t-243.5 -75q-148 0 -241 61.5t-93 169.5q0 76 55 129.5t119 53.5t105 -31t41 -85t-32 -91t-81 -43q4 -37 25.5 -67.5t66.5 -30.5q83 0 135 66.5
t82 162.5l259 774q23 70 38 108t15 72.5t-64.5 58t-199.5 27.5z" />
    <glyph glyph-name="K" unicode="K" horiz-adv-x="1441" 
d="M1343 -8q-147 8 -309 8t-346 -8l14 45q12 4 83 23t71 61q0 51 -81.5 281.5t-104.5 302.5l-195 -123l-106 -328q-31 -102 -31 -122q0 -34 34.5 -51.5t135.5 -43.5l-8 -45q-192 8 -360 8t-312 -8l8 45q170 20 204 97.5t56 141.5t60.5 172.5t144 408.5t105.5 331
q0 30 -12 49.5t-169 56.5l13 45l311 -8q194 0 358 8l-14 -45q-174 -21 -206 -97.5t-44 -111.5l-139 -415l4 -4q33 23 95.5 65.5t206.5 153t250.5 203t106.5 129.5q0 43 -71.5 60t-83.5 17l14 45q156 -8 308 -8t298 8l-14 -36q-66 -11 -151 -55t-111 -62l-467 -328l231 -651
q31 -88 87.5 -126t150.5 -44z" />
    <glyph glyph-name="L" unicode="L" horiz-adv-x="1251" 
d="M418 1196q0 22 -11 41.5t-169 56.5l14 45q204 -8 410 -8q205 0 413 8l-12 -45q-234 -17 -286 -54.5t-76.5 -88.5t-52.5 -120t-64.5 -176t-73.5 -219t-70.5 -214.5t-65.5 -189.5t-32 -124.5t82 -37.5q172 0 259 17t95 28q23 27 128.5 166t289.5 280l29 -29
q-159 -220 -199 -540q-485 16 -1194 0l16 45q170 20 204 97.5t56 141.5t60.5 172.5t144 405t105.5 342.5z" />
    <glyph glyph-name="M" unicode="M" horiz-adv-x="1630" 
d="M336 1339q172 -8 305 -8t227 8q-39 -120 -51 -203q-16 -111 -65.5 -352.5t-67.5 -351.5l4 -4l303 414q72 100 143.5 192t118.5 161t54.5 94.5t15.5 49.5q114 -8 225 -8t217 8l-14 -45q-95 -4 -135.5 -49.5t-89.5 -195.5l-271 -795q-26 -75 -26 -109q0 -53 46.5 -74.5
t119.5 -33.5l-15 -45q-144 8 -298 8t-314 -8l14 45q106 26 139 67t72 152l336 932l-4 4l-872 -1174q-13 -18 -35 -18t-28.5 7t-6.5 21t4 42t10 65t13.5 79t31.5 196q80 507 156 776l-4 6q-256 -430 -440 -801q-12 -27 -28.5 -58.5t-40.5 -88t-24 -95.5t21.5 -54t51.5 -26.5
t59.5 -18.5t44.5 -13l-15 -45q-116 8 -119 8h-319l16 61q110 122 205.5 266t154 238t110 180t91 155t70.5 120t59.5 98t28.5 80t-46 64.5t-152 31.5z" />
    <glyph glyph-name="N" unicode="N" horiz-adv-x="1517" 
d="M497 1331q120 0 218 8l383 -972h4l184 604q16 53 34.5 105t18.5 84t-23.5 52.5t-59 35t-77.5 24.5t-77 22l14 45q152 -8 297 -8t289 8l-14 -45q-55 -10 -115.5 -29.5t-98.5 -74.5t-59.5 -125t-150.5 -435t-213 -653h-97q-106 299 -224 589t-238 581h-5
q-59 -221 -128.5 -441.5t-104.5 -361.5t-35 -179t25.5 -60.5t61.5 -35t76 -18.5t69 -14l-15 -45q-156 8 -308 8t-304 -8l14 45q190 12 234 109q43 94 153.5 423t156.5 463t46 156q0 23 -25.5 41t-60.5 30.5t-69.5 20.5t-53.5 14l14 45q144 -8 264 -8z" />
    <glyph glyph-name="O" unicode="O" horiz-adv-x="1402" 
d="M338 332q0 -291 180 -291q158 0 288 178t204.5 417.5t74.5 387.5q0 227 -66.5 255t-103.5 28q-88 0 -189 -80t-187 -215t-143.5 -311t-57.5 -369zM43 334q0 226 126.5 470.5t334.5 406t442 161.5q195 0 304.5 -99t109.5 -287t-76 -369t-203 -327.5t-296 -238.5t-351 -92
t-286.5 95.5t-104.5 279.5z" />
    <glyph glyph-name="P" unicode="P" horiz-adv-x="1251" 
d="M1004 1068q0 98 -42 150t-153 52q-23 0 -42 -3t-42 -5l-229 -648q385 -22 446.5 167t61.5 287zM418 1196q0 22 -11 41.5t-169 56.5l14 45q156 -8 269.5 -8t192.5 10.5t203.5 10.5t242.5 -81t118 -249q0 -219 -164.5 -335.5t-396.5 -125.5q-55 -2 -93 -4t-66 -3t-47 -1
h-38l-84 -262q-10 -31 -24.5 -73t-14.5 -71q0 -49 73 -70.5t220 -39.5l-14 -45q-431 16 -795 0l14 45q170 20 204 97.5t56 141.5t60.5 172.5t144 405t105.5 342.5z" />
    <glyph glyph-name="Q" unicode="Q" horiz-adv-x="1402" 
d="M338 332q0 -291 180 -291q158 0 288 178t204.5 417.5t74.5 387.5q0 227 -66.5 255t-103.5 28q-88 0 -189 -80t-187 -215t-143.5 -311t-57.5 -369zM43 334q0 226 126.5 470.5t334.5 406t442 161.5q195 0 304.5 -99t109.5 -287t-76 -369t-203 -327.5t-296 -238.5t-351 -92
t-286.5 95.5t-104.5 279.5zM9 -147q-67 0 -140 -25l-21 49q133 57 249 57t213.5 -24.5t194.5 -53t192 -53t201 -24.5t198 35.5t194 103.5l33 -35q-207 -192 -358.5 -242.5t-235.5 -50.5t-178 41t-189.5 90.5t-190.5 90.5t-162 41z" />
    <glyph glyph-name="R" unicode="R" horiz-adv-x="1327" 
d="M973 1070q0 99 -47 151.5t-131 52.5q-37 0 -78 -6l-205 -576q303 15 382 147t79 231zM905 1331q248 0 297 -98t49 -192t-52 -166t-155 -129.5t-331 -86.5v-4q172 -17 223 -113t63.5 -161.5t23.5 -125.5t28.5 -108.5t55.5 -66.5q74 -35 169 -35l-10 -45q-51 -4 -102.5 -12
t-106.5 -8q-276 0 -297 233q-28 276 -88 344q-33 39 -76 53.5t-102 20.5l-86 -258q-72 -213 -72 -237t17.5 -39t45 -26.5t64.5 -18.5t74 -15l-15 -45q-335 16 -702 0l14 45q170 20 204 97.5t56 141.5t60.5 172.5t143.5 407t105 330.5t-11 51.5t-169 56.5l15 45
q236 -8 667 -8z" />
    <glyph glyph-name="S" unicode="S" horiz-adv-x="1138" 
d="M90 395q0 -55 24.5 -128.5t91.5 -153.5t200 -80t217 71.5t84 193.5t-85 198.5t-145.5 119.5t-145.5 123t-85 219q0 92 48 168t162.5 161t298.5 85t392 -106q-59 -139 -107 -392l-36 11q-13 219 -67.5 316t-211.5 97q-90 0 -159.5 -64t-69.5 -146q0 -83 33.5 -138t85 -102
t111.5 -89t145 -125.5t85 -227.5q0 -203 -165.5 -325t-380.5 -122q-100 0 -247.5 53t-221.5 68q34 113 112 471l43 -14q-6 -87 -6 -142z" />
    <glyph glyph-name="T" unicode="T" horiz-adv-x="1327" 
d="M285 1339q286 -8 582 -8t616 8q-8 -43 -14.5 -76.5t-11.5 -73.5t-5 -124t6 -125l-43 -18q-53 78 -88 165t-67 175l-242 8q-214 -578 -356 -1020q-10 -29 -20.5 -57.5t-10.5 -50.5t24.5 -38t63.5 -27t89 -20.5t99 -19.5l-14 -45q-102 8 -201 8h-635l15 37q241 35 272 98
t197 551t196 586l-245 -4q-194 -199 -357 -301l-33 28q124 170 183 344z" />
    <glyph glyph-name="U" unicode="U" horiz-adv-x="1478" 
d="M238 1339q160 -8 329 -8q168 0 348 8l-14 -45q-98 -6 -158.5 -47t-80.5 -100l-234 -682q-39 -115 -39 -197q0 -119 71.5 -175t185.5 -56t190.5 47t131 123t92.5 168.5t60 152.5t41 117t40.5 127t44 142.5t52 169t29.5 115.5q0 20 -29.5 37t-69.5 28.5t-80 18.5t-58 11
l14 45q160 -8 304 -8q143 0 261 8l-14 -45q-88 -12 -127 -41.5t-70 -90.5q-31 -60 -65.5 -146t-73.5 -188.5t-79 -208t-82 -199.5q-104 -232 -225.5 -346.5t-363.5 -114.5q-296 0 -371 121t-75 210t33 179l217 623q10 33 20 61.5t10 58.5q0 59 -180 82z" />
    <glyph glyph-name="V" unicode="V" horiz-adv-x="1251" 
d="M1202 1331q118 0 213 8v-45l-211 -276q-86 -113 -195.5 -254t-274.5 -353.5t-365 -451.5l-58 16l-10 1057q0 134 -4 166t-18.5 47t-37 24t-51 14t-57.5 11l12 45q156 -8 316 -8t332 8l-15 -45q-20 -6 -52 -15t-83 -34t-58 -57q-7 -31 -7 -91.5t-5 -146.5l-22 -680l2 -4
q25 37 78 111t172.5 242t231.5 342t112 237t-94.5 76.5t-114.5 19.5l14 45q132 -8 250 -8z" />
    <glyph glyph-name="W" unicode="W" horiz-adv-x="1896" 
d="M1352 1212q0 70 -124 70q-52 0 -89 -21.5t-37 -86.5l-15 -334l9 -2q18 29 60 79t119 148.5t77 146.5zM1665 1339q132 -8 241 -8t203 8l-12 -45q-102 -111 -248.5 -273.5t-454.5 -504t-517 -557.5l-66 41l18 459l-4 4l-454 -504l-66 41l-8 1026v78q0 78 -9 99
q-26 62 -159 91l12 45q148 -8 293 -8t289 8l-14 -45q-100 -24 -125 -63t-25 -68q0 -229 -2 -455.5t-2 -455.5l279 313q4 150 13 297.5t9 259.5t-19.5 140t-64.5 32l14 45q218 -8 328 -8t161.5 1t159.5 3t156 4l-14 -45l-487 -536v-496l4 -4q67 73 279 328.5t335 416
t123 211.5q0 39 -75 55.5t-105 24.5z" />
    <glyph glyph-name="X" unicode="X" horiz-adv-x="1366" 
d="M168 1339q196 -8 376 -8t351 8l-14 -45q-104 -11 -152.5 -33t-48.5 -83q0 -36 13.5 -87t20.5 -80.5t11 -43.5l55 -199q70 56 239 232t169 223q0 41 -54.5 51t-132.5 20l15 45q140 -8 265 -8t267 8l-18 -45l-735 -571l137 -430q25 -74 44 -120t58.5 -81t186.5 -55l-15 -45
q-64 8 -196 8q-371 0 -510 -8l14 45q178 28 178 98q0 16 -16.5 77.5t-35.5 134.5t-38.5 138.5t-26.5 89.5q-67 -52 -167.5 -158t-161 -179.5t-60.5 -104.5t19.5 -47t47.5 -26.5t57.5 -14.5t47.5 -8l-14 -45q-56 8 -245 8t-361 -8l14 45q104 10 184 65.5t210 166.5t415 352
l-141 462q-23 81 -44 111q-31 45 -87.5 66t-134.5 34z" />
    <glyph glyph-name="Y" unicode="Y" horiz-adv-x="1290" 
d="M129 1339q188 -8 366 -8t336 8l-14 -45q-18 -6 -100 -16t-82 -76q0 -28 35 -127l102 -342q31 37 211 228t180 247t-92 68t-127 18l14 45q152 -8 289 -8t262 8l-12 -45q-218 -149 -414 -334.5t-282 -277.5l-117 -369q-16 -49 -28.5 -89t-12.5 -82t70.5 -65.5t212.5 -39.5
l-13 -45q-233 8 -443 8t-402 -8l8 45q111 16 186.5 41.5t97.5 91.5l166 481q-20 59 -45.5 137t-68.5 209.5t-80 202.5q-24 54 -106.5 73t-110.5 21z" />
    <glyph glyph-name="Z" unicode="Z" horiz-adv-x="1327" 
d="M875 1331q279 0 563 8l10 -36q-892 -881 -1239 -1237l274 8q297 11 320 28q70 55 237 188t234 165l31 -31q-160 -206 -261 -432q-294 8 -590 8t-599 -8l-9 45q177 191 594.5 608.5t622.5 632.5l-256 -8q-86 0 -162 -10.5t-88 -14.5t-48 -43t-128 -138.5t-225 -195.5
l-37 37q154 263 203 434q274 -8 553 -8z" />
    <glyph glyph-name="bracketleft" unicode="[" 
d="M1096 1372l-27 -82h-324l-538 -1597h317l-28 -82h-539l594 1761h545z" />
    <glyph glyph-name="backslash" unicode="\" horiz-adv-x="569" 
d="M18 1372l701 -1413h-168l-701 1413h168z" />
    <glyph glyph-name="bracketright" unicode="]" 
d="M-166 -389l27 82h323l539 1597h-317l28 82h539l-594 -1761h-545z" />
    <glyph glyph-name="asciicircum" unicode="^" horiz-adv-x="1228" 
d="M135 584l369 747h180l369 -747h-187l-272 567l-275 -567h-184z" />
    <glyph glyph-name="underscore" unicode="_" 
d="M0 -256v102h1024v-102h-1024z" />
    <glyph glyph-name="grave" unicode="`" horiz-adv-x="606" 
d="M186 1191q0 34 31 59.5t62 25.5q57 0 98 -53l244 -316h-105l-260 183q-70 47 -70 101z" />
    <glyph glyph-name="a" unicode="a" horiz-adv-x="1099" 
d="M213 221q0 -53 16.5 -79.5t74.5 -26.5q104 0 197.5 152.5t143.5 314.5q-14 59 -70.5 80.5t-113.5 21.5q-154 -161 -201 -285.5t-47 -177.5zM741 154q1 -56 91 -56q72 0 120.5 50.5t55.5 50.5q16 0 16 -19q0 -12 -34 -48q-67 -69 -183.5 -129.5t-209.5 -24.5t-140 83
l102 207l-4 2q-75 -99 -200 -197t-213 -98q-87 0 -143 38t-56 125t40 170t130.5 190.5t250 206t218.5 98.5q35 0 70.5 -23.5t49.5 -54.5h5l10 53h237l-170 -436q-43 -111 -43 -188z" />
    <glyph glyph-name="b" unicode="b" horiz-adv-x="948" 
d="M682 803q104 0 149.5 -43.5t45.5 -145.5t-60.5 -216.5t-155 -209t-210 -154t-219.5 -59.5t-167 40t-102 128l465 1315h254l-236 -614q-60 -156 -127 -264l7 -2q61 94 156.5 159.5t199.5 65.5zM623 598q0 98 -82 98q-136 0 -236 -227t-100 -272q0 -68 69.5 -145.5
t180.5 92.5t139.5 298.5t28.5 155.5z" />
    <glyph glyph-name="c" unicode="c" horiz-adv-x="720" 
d="M571 492q-110 0 -110 88q0 29 12 54t23 50q-6 12 -28 28.5t-36 16.5q-57 0 -136 -196t-79 -304q0 -66 45.5 -96.5t99.5 -30.5q104 0 179 74q14 14 27.5 28.5t21.5 14.5q18 0 18 -18q0 -12 -33.5 -49t-135 -107t-221.5 -70t-187.5 58.5t-67.5 164.5t54.5 210t138.5 192
t186 145.5t188 57.5q174 0 175 -164q0 -55 -37 -101t-97 -46z" />
    <glyph glyph-name="d" unicode="d" horiz-adv-x="948" 
d="M217 174q0 -125 83 -125q85 0 188 184.5t173 422t70 393.5q0 224 -90 279.5t-159 55.5t-130 -36.5t-110 -80.5t-81 -81t-38 -37q-12 1 -12 21t41 68t157.5 134t285.5 86q168 0 279 -117t111 -314q0 -196 -107.5 -448.5t-287 -428t-379.5 -175.5q-117 0 -182.5 49.5
t-65.5 179.5t68.5 240.5t167 190.5t209 124t192.5 44q16 0 31.5 -7.5t15.5 -15.5q0 -18 -22 -22q-154 -39 -281 -204t-127 -380z" />
    <glyph glyph-name="e" unicode="e" horiz-adv-x="796" 
d="M217 246q1 -152 163 -152q140 0 219 69.5t87 69.5t8 -12t-36.5 -52t-152 -117t-290.5 -77q-106 0 -179 48t-73 162t64.5 223.5t161 197.5t208 142.5t203.5 54.5q141 0 141 -129q0 -70 -58 -126t-175.5 -114t-276.5 -80q-4 -27 -9 -54.5t-5 -53.5zM516 657q0 39 -43 39
t-77 -35.5t-62.5 -84t-50 -97.5t-33.5 -76q154 49 210 117.5t56 136.5z" />
    <glyph glyph-name="f" unicode="f" horiz-adv-x="606" 
d="M664 1079q45 127 45 174q0 48 -11.5 83.5t-52.5 35.5t-66.5 -53t-44 -125t-29.5 -143.5t-21 -110.5t-16.5 -80t-16.5 -82h190l-27 -86h-186q-28 -107 -51.5 -173t-46.5 -140t-50.5 -147.5t-97.5 -229.5t-189 -318.5t-239 -162.5q-82 0 -133 21.5t-51 92.5q0 43 29.5 71
t73.5 28t61.5 -21.5t25 -46t14 -46t38.5 -21.5t63 42t53.5 97t37 108.5t30.5 97.5q16 45 79.5 316.5t114.5 431.5h-159l26 86h156q46 195 175.5 391.5t214.5 248.5t139 52t90 -24.5t36 -72.5t-14 -86t-36.5 -73.5t-49.5 -68.5t-51 -66h-53z" />
    <glyph glyph-name="g" unicode="g" horiz-adv-x="948" 
d="M209 192q0 -49 12 -67.5t47 -18.5q122 0 209.5 159.5t138.5 330.5q-23 47 -67.5 73.5t-91.5 26.5t-90 -60.5t-79 -142t-57.5 -167t-21.5 -134.5zM113 -25q-170 0 -170 150q0 156 117 310t270.5 261t217 107t106 -29t53.5 -29t75 23l140 47q-61 -174 -139.5 -411.5
t-123.5 -346.5q-98 -237 -266 -386.5t-401 -149.5q-133 0 -179 36.5t-46 92.5t29.5 90.5t67.5 34.5q65 0 83 -22t23 -68q5 -47 17.5 -81t62.5 -34t95 41t89.5 104.5t85 141t75.5 152.5t64.5 138.5t50.5 96.5l-6 2q-131 -173 -233.5 -222t-157.5 -49z" />
    <glyph glyph-name="h" unicode="h" 
d="M782 803q168 0 168 -190q0 -92 -52 -208t-132 -211.5t-176 -157t-182 -61.5q-95 0 -95 91q0 117 121 194.5t176.5 103t58.5 31.5q7 15 17 78.5t10 79.5q0 102 -82 102q-163 0 -280 -268.5t-154 -386.5h-237l510 1458h243l-370 -1014h4q39 55 150.5 207t301.5 152zM494 49
q26 0 33 6q15 13 68.5 130t57.5 155q-73 -20 -136.5 -94.5t-63.5 -135.5t41 -61z" />
    <glyph glyph-name="i" unicode="i" horiz-adv-x="606" 
d="M474 1069q-128 0 -128 121q0 59 46 110.5t110 51.5q128 0 127 -122q0 -60 -45.5 -110.5t-109.5 -50.5zM242 173q0 -32 26.5 -51.5t67.5 -19.5t72.5 15.5t53 35t35 35t24.5 15.5q11 1 11 -11t-30.5 -45.5t-119.5 -102.5t-192 -69q-72 0 -135 35.5t-63 110.5q0 38 57 205
l162 452h248l-178 -473q-14 -35 -26.5 -67.5t-12.5 -64.5z" />
    <glyph glyph-name="j" unicode="j" horiz-adv-x="530" 
d="M496 1069q-126 0 -127 121q0 59 46 110.5t109 51.5q127 0 127 -122q0 -60 -45.5 -110.5t-109.5 -50.5zM-338 -463q-59 0 -108.5 26.5t-49.5 82.5q0 108 97 108q39 0 56 -21.5t28.5 -46t23.5 -46t62 -21.5t161 318q82 211 150 420.5t141 420.5h248q-186 -568 -305 -815.5
t-253 -336.5t-251 -89z" />
    <glyph glyph-name="k" unicode="k" horiz-adv-x="1138" 
d="M766 528q0 140 -86 140q-63 0 -123 -54q90 -276 144.5 -368t100.5 -136t128 -44q41 0 74.5 13t43.5 13t9.5 -17.5t-107.5 -58.5t-192 -41t-172.5 32t-147.5 226q-16 49 -35.5 97.5t-29.5 107.5q-14 -14 -31.5 -28t-25.5 -44t-24 -78t-32 -98.5t-33.5 -99.5t-29.5 -90
h-244l512 1458h254q-96 -256 -189.5 -506t-199.5 -495l4 -4q132 143 218.5 210.5t160 103.5t146.5 36t117 -39t44 -113q0 -20 -4 -40.5t-8 -41.5z" />
    <glyph glyph-name="l" unicode="l" horiz-adv-x="606" 
d="M246 168q0 -35 30.5 -52.5t66.5 -17.5t68.5 17.5t56.5 39t39 39t23 17.5q14 0 14.5 -14.5t-32.5 -50t-126 -103.5t-204 -68q-69 0 -125.5 39.5t-56.5 106.5q0 44 31 131q221 632 430 1206h252q-109 -291 -211 -571.5t-166 -442.5t-77 -201.5t-13 -74.5z" />
    <glyph glyph-name="m" unicode="m" horiz-adv-x="1593" 
d="M641 618q1 54 -59 54q-98 0 -182.5 -131.5t-127.5 -261.5l-92 -279h-237l254 778h239l-145 -332h6q98 159 202.5 258t221.5 99t145.5 -41t28.5 -71t-9 -61.5t-22.5 -65.5t-27 -66.5t-21.5 -59.5l4 -4q110 163 214.5 266t222.5 103q171 0 171 -124q0 -51 -58 -189
t-85 -205.5t-27 -102.5q0 -76 89 -76t127 49.5t50.5 49.5t12.5 -14.5t-28.5 -50.5t-114 -100.5t-201.5 -64.5q-74 0 -131 37t-57 107q0 30 51 173.5t74.5 212t23.5 93.5q0 53 -71.5 53t-178.5 -157q-80 -119 -123 -237t-88 -257h-239q13 53 100.5 305.5t87.5 312.5z" />
    <glyph glyph-name="n" unicode="n" horiz-adv-x="1099" 
d="M768 164q0 -74 84 -74q45 0 84 28.5t54.5 41t24.5 12.5t9 -10t-27.5 -40t-110.5 -88.5t-202 -58.5q-120 0 -151 40t-31 75q0 47 90 253.5t90 242.5q0 61 -64 61q-97 0 -174 -116.5t-117 -179.5t-145 -351h-231l266 778h246l-148 -370l4 -2q118 176 226 286.5t241 110.5
q66 0 116 -35t50 -99t-92 -271.5t-92 -233.5z" />
    <glyph glyph-name="o" unicode="o" horiz-adv-x="909" 
d="M209 196q0 -156 92 -155q51 0 102.5 68.5t90 160.5t61.5 184.5t23 126.5q0 63 -20.5 109.5t-70.5 46.5q-49 0 -98 -66.5t-89 -156.5t-65.5 -186t-25.5 -132zM592 803q239 0 239 -219q0 -113 -63 -222.5t-156.5 -195.5t-199.5 -138.5t-208 -52.5t-175.5 42.5t-73.5 150.5
t57.5 222t148.5 206t204.5 149.5t226.5 57.5z" />
    <glyph glyph-name="p" unicode="p" horiz-adv-x="985" 
d="M335 -25q-97 0 -159 48q-20 -61 -82.5 -229t-83.5 -273h-231l420 1257h231l-86 -211l4 -4q35 43 115 141.5t225 98.5q106 0 163.5 -56.5t57.5 -157.5t-52 -209t-135 -198t-186.5 -148.5t-200.5 -58.5zM291.5 96.5q45.5 -63.5 107.5 -63.5q100 0 184.5 225.5t84.5 345.5
q0 35 -30 63.5t-80 28.5t-106.5 -57t-102.5 -136t-74.5 -159t-28.5 -132t45.5 -115.5z" />
    <glyph glyph-name="q" unicode="q" horiz-adv-x="948" 
d="M160 -25q-201 0 -201 193q0 121 70.5 235.5t178 203.5t235.5 142.5t215 53.5q142 0 255 -72l-413 -1210h-240q66 174 122 346t136 334l-4 4q-110 -148 -205.5 -189t-148.5 -41zM213 182q0 -100 66 -100q128 0 233 191t147 368q-23 37 -49 62.5t-78 25.5t-111 -66.5
t-105 -157.5t-74.5 -182.5t-28.5 -140.5z" />
    <glyph glyph-name="r" unicode="r" horiz-adv-x="833" 
d="M542 627q-36 0 -72 -35t-64.5 -82t-50 -94.5t-33.5 -69.5q-57 -112 -129 -346h-236l260 778h254l-129 -305l4 -4q96 149 180 241.5t170 92.5q57 0 94 -39t37 -82q0 -78 -37.5 -132t-97.5 -54q-59 0 -81.5 32.5t-22.5 87.5q-10 11 -46 11z" />
    <glyph glyph-name="s" unicode="s" horiz-adv-x="796" 
d="M131 150q0 -121 86 -121q100 0 144 82.5t49 191.5q4 47 6 92t6 92q-53 -43 -102.5 -88t-106.5 -82q8 -43 -13.5 -86t-64.5 -53q-4 -16 -4 -28zM715 844q0 -28 -15.5 -59t-24.5 -75t-11 -114t-8 -148t-54.5 -161.5t-119 -153.5t-155.5 -114t-149 -44q-118 0 -189 53.5
t-71 145.5t46.5 155.5t131.5 63.5q35 0 55.5 -9t45.5 -32q94 78 234 215.5t202 223.5q4 6 13 19t25 37.5t23 24.5q21 0 21 -28z" />
    <glyph glyph-name="t" unicode="t" horiz-adv-x="645" 
d="M240 158q0 -30 24.5 -47t64.5 -17t74.5 17.5t60 39t43 39t25.5 17.5t8 -12t-26.5 -47t-109.5 -104t-216 -69t-164.5 54.5t-31.5 92.5t55 191l252 742l264 55l-121 -332h275l-27 -86h-272l-121 -352q-16 -47 -36.5 -99.5t-20.5 -82.5z" />
    <glyph glyph-name="u" unicode="u" horiz-adv-x="1062" 
d="M225 156q0 -50 64 -50t142 93.5t124 216.5l141 362h224l-166 -454q-33 -82 -33 -135q0 -52 27.5 -67.5t66.5 -15.5t71 16.5t55.5 37t38.5 37t24 16.5t10 -23t-127.5 -119t-212.5 -96q-114 0 -154.5 58.5t-52.5 72.5l92 220l-4 6q-97 -169 -165 -232t-135 -94t-133 -31
t-106.5 22.5t-40.5 82.5t20.5 104.5t37.5 87.5l194 506h234l-182 -461q-23 -55 -38.5 -94t-15.5 -67z" />
    <glyph glyph-name="v" unicode="v" horiz-adv-x="796" 
d="M492 700q0 103 126 103q60 0 96 -47.5t36 -105.5q0 -166 -232 -361l-250 -213q-16 -14 -35.5 -31.5t-50.5 -43.5t-46 -26t-15 35q0 50 -40 219.5t-40 225.5q0 57 29.5 121.5t106.5 145.5t185 81q6 0 6 -9t-49 -52t-49 -169q0 -57 26 -201t26 -202q112 106 165.5 171
t53.5 161q0 45 -16.5 90t-24.5 66.5t-8 41.5z" />
    <glyph glyph-name="w" unicode="w" horiz-adv-x="1175" 
d="M870 700q0 103 126 103q60 0 96 -47.5t36 -105.5q0 -100 -58 -185t-148 -162l-275 -227q-16 -14 -35.5 -31.5t-50.5 -43.5t-46 -26t-15 55t-37 236l-209 -190q-16 -14 -35.5 -31.5t-50.5 -43.5t-46 -26q-16 0 -16 35q-1 45 -35 220t-34 228q0 54 29.5 118.5t105.5 145.5
t186 81q6 0 6 -9t-49 -52t-49 -157t21.5 -215.5t27.5 -187.5l140 121q-25 64 -25 139q0 137 100.5 249t210.5 112q7 0 7 -9t-46.5 -52.5t-46.5 -158.5q0 -116 22.5 -213.5t22.5 -199.5q37 35 128.5 120.5t91.5 211.5q0 52 -25 115t-25 83z" />
    <glyph glyph-name="x" unicode="x" horiz-adv-x="1138" 
d="M824 111q52 0 81 16t49.5 34.5t35 35t25.5 16.5t11 -15t-32.5 -53.5t-123 -104t-189.5 -65.5t-150.5 51.5t-67.5 194.5q-56 -85 -169.5 -165.5t-197.5 -80.5t-134 40t-50 115t34 128t111 53q105 0 105 -90q0 -51 -43 -88q0 -29 25.5 -46t61.5 -17t77 23.5t72.5 57
t55 69.5t40.5 59l-68 268q-16 66 -40 89t-78 23t-87 -14t-56.5 -31.5t-38.5 -32t-23 -14.5q-8 1 -9 17q0 16 32 53t119 101.5t177 64.5t148.5 -38t70.5 -106l27 -153h4q25 43 91 170t202 127q63 0 107 -37t44 -94t-28.5 -101.5t-78.5 -44.5t-78 23.5t-28 53.5t12 54l-34 2
q-35 0 -57.5 -13t-47.5 -50l-98 -147l47 -181q23 -86 56.5 -121.5t85.5 -35.5z" />
    <glyph glyph-name="y" unicode="y" horiz-adv-x="1062" 
d="M414 670l-21 -419q0 -81 8.5 -96.5t35.5 -15.5q68 0 165 170q56 113 101 261.5t69 207.5h248q-51 -129 -126.5 -386t-196 -461.5t-294.5 -299t-303 -94.5q-128 0 -159 50.5t-31 88.5q0 131 92 131t111.5 -28.5t30 -63t23.5 -63.5t73 -29q121 0 201.5 192.5t124.5 301.5
t61 145h-4q-18 -20 -119 -147t-148 -127q-86 0 -137 28.5t-51 75.5v490q0 86 -68 86q-34 0 -73 -28t-55.5 -40t-27.5 -12q-12 0 -12 13t30 46t112.5 94.5t187.5 61.5q61 0 106.5 -34t45.5 -99z" />
    <glyph glyph-name="z" unicode="z" horiz-adv-x="948" 
d="M809 803q53 0 53 -49q0 -27 -19.5 -45.5t-50 -36t-69.5 -39t-80 -53.5l-367 -295q70 -6 119 -30t89 -49.5t78 -46t81 -20.5t77 14.5t61.5 33t48 32.5t30.5 14t10 -13t-30.5 -53t-125 -116t-228.5 -76t-197.5 55.5t-88 80t-48.5 24.5t-38 -24.5t-27 -55t-32 -55.5t-41 -25
q-43 0 -80.5 23t-37.5 50q0 28 31.5 47.5t107.5 68.5t219 162l299 247l-4 5q-27 -8 -83 -8t-106.5 14t-101.5 14t-89 -19.5t-65.5 -42t-46 -42t-30.5 -19.5q-13 -1 -13 17t36 69t135 146.5t210 95.5q62 0 122.5 -23.5t88 -35t56.5 -11.5t46 11.5t33.5 23.5t33 23.5
t34.5 11.5z" />
    <glyph glyph-name="braceleft" unicode="{" horiz-adv-x="909" 
d="M209 379q0 82 -90 113q96 29 143 82t80 151l123 362q82 244 207 264.5t194 20.5l-8 -41q-63 -10 -102 -68.5t-76 -164.5l-119 -344q-41 -121 -97 -179.5t-173 -80.5v-5q78 -16 102.5 -45.5t24.5 -70.5t-35 -144l-119 -344q-35 -90 -35 -135q0 -89 66 -98l-12 -41
q-123 0 -193 25.5t-70 115.5q0 38 37 144l123 362q29 89 29 121z" />
    <glyph glyph-name="bar" unicode="|" horiz-adv-x="454" 
d="M150 1458h155v-1458h-155v1458z" />
    <glyph glyph-name="braceright" unicode="}" horiz-adv-x="909" 
d="M618 604q0 -83 91 -112q-96 -27 -142.5 -81.5t-81.5 -152.5l-123 -362q-82 -243 -205.5 -264t-195.5 -21l8 41q104 23 178 233l119 344q40 119 95.5 178.5t175.5 81.5v5q-78 16 -102.5 45.5t-24.5 72.5t34 142l119 344q35 90 35 135q0 89 -66 98l13 41q123 0 192.5 -25.5
t69.5 -115.5q0 -38 -37 -144l-123 -362q-29 -89 -29 -121z" />
    <glyph glyph-name="asciitilde" unicode="~" horiz-adv-x="1228" 
d="M133 377q85 176 272 176q67 0 211 -66q57 -25 112.5 -49t106.5 -24t93.5 47t77.5 100l73 -160q-59 -84 -115 -130t-142 -46t-208 68q-122 72 -235 72q-68 0 -108 -47.5t-64 -100.5z" />
    <glyph glyph-name="exclamdown" unicode="&#xa1;" horiz-adv-x="681" 
d="M414 901q70 0 105.5 -36t35.5 -83q0 -79 -42 -135.5t-107 -56.5q-142 0 -142 125q0 72 40 129t110 57zM397 450q0 -52 -22.5 -144.5t-51 -183.5t-81 -250t-58.5 -310h-270q16 164 78.5 292t143.5 244t133.5 217t74.5 222h49q4 -35 4 -87z" />
    <glyph glyph-name="cent" unicode="&#xa2;" 
d="M303 326q0 -98 55 -160l189 561l-25 2q-87 0 -153 -118t-66 -285zM795 236q16 0 16 -21t-42 -59.5t-150.5 -99t-245.5 -64.5l-70 -205l-67 16l61 189q-118 23 -185 104t-67 185q0 196 162.5 342.5t357.5 179.5l66 178l71 -12l-55 -166q102 0 155.5 -31t76 -64.5t22.5 -85
t-37 -93.5t-87 -42t-84 26t-34 67t10.5 56.5t10.5 29.5q0 35 -64 49l-200 -598q44 -23 96 -23q51 0 102.5 22.5t88 48t60 48.5t32.5 23z" />
    <glyph glyph-name="sterling" unicode="&#xa3;" 
d="M518 217q142 0 195 28.5t85.5 65.5t69.5 97l39 -37q-59 -78 -105 -177.5t-93 -193.5h-811v45q172 84 261 240.5t97 345.5h-152l15 74h153l31 174q61 334 224 411.5t242 77.5q144 0 223 -48.5t79 -156.5t-52 -142t-87 -34t-66.5 23.5t-31.5 71t8 56.5l35 34q26 26 26 59
t-31.5 64.5t-68.5 31.5q-74 0 -118.5 -66t-80.5 -235l-67 -321h231q-8 -36 -27 -74h-225q-71 -248 -307 -410l4 -4h305z" />
    <glyph glyph-name="currency" unicode="&#xa4;" 
d="M565.5 381q57.5 0 107.5 22.5t88 60.5t59.5 90t21.5 111.5t-21.5 111.5t-59.5 91t-88 61.5t-107.5 22.5t-107.5 -22.5t-88 -61.5t-59.5 -91t-21.5 -111.5t21.5 -111.5t59.5 -90t88 -60.5t107.5 -22.5zM117 672q0 170 92 258l-105 100l89 88l104 -98q114 92 272 92
q72 0 142.5 -24.5t119.5 -65.5l101 98l94 -90l-100 -98q88 -95 88 -261.5t-88 -271.5l98 -98l-86 -84l-100 102q-111 -98 -273 -98t-274 96l-101 -102l-86 86l101 102q-88 99 -88 269z" />
    <glyph glyph-name="yen" unicode="&#xa5;" 
d="M791 1339q106 -8 203 -8q98 0 184 8l-9 -45q-157 -146 -286 -348l-86 -135h188l-12 -74h-230l-57 -86l-22 -86h268l-17 -73h-266l-41 -179q-10 -49 -19 -89t-9 -82t50 -65.5t150 -39.5l-10 -45q-184 8 -326 8t-297 -8l7 45q80 16 133 41.5t69 91.5l76 322h-276l16 73h279
l14 84l-16 88h-238l14 74h209l-33 176q-20 112 -55 213q-14 35 -62 62.5t-89 31.5l12 45q132 -8 255 -8q124 0 238 8l-10 -45q-14 -6 -71.5 -16.5t-57.5 -75.5q0 -23 9.5 -59.5t15.5 -67.5l71 -342q6 10 29 45t134.5 210.5t111.5 219.5q0 56 -63.5 68t-88.5 18z" />
    <glyph glyph-name="brokenbar" unicode="&#xa6;" horiz-adv-x="454" 
d="M150 1458h155v-563h-155v563zM150 563h155v-563h-155v563z" />
    <glyph glyph-name="section" unicode="&#xa7;" 
d="M274 664q0 -39 30 -105.5t110 -179.5t170 -113q68 0 102.5 42t34.5 88q0 86 -110 244.5t-189 158.5q-148 0 -148 -135zM406 1057q0 164 95 239.5t254 75.5t210 -77.5t51 -131t-33 -85t-82 -31.5t-79.5 27.5t-30.5 63.5t11 52t25.5 28.5t25.5 21.5t11 27t-37 29t-74 11
q-81 0 -138.5 -39t-57.5 -109t52.5 -146.5t115.5 -161.5t115.5 -178t52.5 -171q0 -134 -88 -217.5t-203 -83.5q-39 0 -77 15l-3 -3q92 -129 92 -215q0 -152 -107.5 -232.5t-234.5 -80.5t-190.5 31.5t-93 69.5t-29.5 93q0 129 123 129q41 0 71.5 -24.5t30.5 -61.5t-12 -56.5
t-26.5 -32.5t-27 -21.5t-12.5 -19.5q0 -24 56 -33t88 -9q80 0 136 37t56 109t-50 144.5t-109.5 156.5t-109.5 182t-50 213t79.5 193.5t180.5 78.5q52 0 100 -24l4 4q-81 109 -81 213z" />
    <glyph glyph-name="dieresis" unicode="&#xa8;" horiz-adv-x="606" 
d="M678 1192q55 0 94 -39t39 -94t-39 -94t-94 -39t-94 39t-39 94t39 94t94 39zM270.5 1192q55.5 0 94 -39t38.5 -94t-38.5 -94t-94 -39t-94.5 39t-39 94t39 94t94.5 39z" />
    <glyph glyph-name="copyright" unicode="&#xa9;" horiz-adv-x="1638" 
d="M877 330q160 0 239 180h41l-29 -150q-4 -16 -18 -24t-41 -19q-27 -6 -84 -21t-127 -15q-195 0 -314.5 100t-119.5 305q0 153 109.5 274t340.5 121q76 0 121 -11.5t87 -25.5t42 -43v-143h-41q-30 118 -94.5 146t-114.5 28q-119 0 -175 -93t-58 -243q0 -366 236 -366z
M819 70q117 0 216.5 47t172 128t113.5 188.5t41 230t-41 231.5t-113.5 190.5t-172 129t-216.5 47.5t-216 -48.5t-172 -129t-114 -189.5t-41 -231.5t41 -230t114 -188.5t172 -128t216 -47zM819.5 -41q-147.5 0 -274.5 54.5t-219.5 149.5t-144.5 224t-52 278t52 277.5
t144.5 224t219.5 150.5t274.5 55t274.5 -55t271 -204.5t144 -448.5q0 -147 -52 -276.5t-144 -224.5t-219 -149.5t-274.5 -54.5z" />
    <glyph glyph-name="ordfeminine" unicode="&#xaa;" horiz-adv-x="659" 
d="M324 1019q0 -32 10 -47.5t48 -15.5q71 0 133 97.5t89 181.5q-17 61 -121 61q-104 -104 -131.5 -174.5t-27.5 -102.5zM686 981q0 -35 53 -35t85 30t39 30t7 -8t-13 -21t-22 -23q-26 -27 -86 -54.5t-105 -27.5q-91 0 -142 52l63 120l-4 5q-39 -54 -122 -115.5t-140 -61.5
q-131 0 -131 97q0 78 55.5 150.5t127 128t139 88t92.5 32.5t47 -14.5t33 -32.5h2l8 33h153l-110 -262q-29 -63 -29 -111z" />
    <glyph glyph-name="guillemotleft" unicode="&#xab;" horiz-adv-x="909" 
d="M412 420q0 35 26.5 54.5t55.5 35.5l315 197l37 -33l-246 -271l82 -301l-31 -30l-192 254q-47 59 -47 94zM113 420q0 35 26.5 54.5t55.5 35.5l315 197l37 -33l-246 -271l82 -301l-31 -30l-192 254q-47 59 -47 94z" />
    <glyph glyph-name="logicalnot" unicode="&#xac;" horiz-adv-x="1228" 
d="M827 463h-622v155h778v-458h-156v303z" />
    <glyph glyph-name="registered" unicode="&#xae;" horiz-adv-x="1638" 
d="M819 70q117 0 216.5 47t172 128t113.5 188.5t41 230t-41 231.5t-113.5 190.5t-172 129t-216.5 47.5t-216 -48.5t-172 -129t-114 -189.5t-41 -231.5t41 -230t114 -188.5t172 -128t216 -47zM819.5 -41q-147.5 0 -274.5 54.5t-219.5 149.5t-144.5 224t-52 278t52 277.5
t144.5 224t219.5 150.5t274.5 55t274.5 -55t271 -204.5t144 -448.5q0 -147 -52 -276.5t-144 -224.5t-219 -149.5t-274.5 -54.5zM745 682h62q117 0 117 172q0 88 -30 122t-83 34h-66v-328zM487 1059h394q92 0 157.5 -47.5t65.5 -133.5t-42 -142t-114 -79l115 -165
q99 -133 131 -166v-23h-168q-23 0 -46.5 31t-49 78t-55 106.5t-66.5 114.5h-64v-209q0 -54 12.5 -67t78.5 -17v-37h-349v37q63 4 75.5 15.5t14 26.5t1.5 42v512q0 54 -12.5 67t-78.5 17v39z" />
    <glyph glyph-name="macron" unicode="&#xaf;" horiz-adv-x="606" 
d="M145 983l33 135h608l-32 -135h-609z" />
    <glyph glyph-name="degree" unicode="&#xb0;" horiz-adv-x="819" 
d="M785.5 1281.5q88.5 -86.5 88.5 -212.5t-88.5 -212.5t-212.5 -86.5t-212.5 86.5t-88.5 212.5t88.5 212.5t212.5 86.5t212.5 -86.5zM399 1069q0 -78 48.5 -131t126 -53t126 53t48.5 131t-48.5 131t-126 53t-126 -53t-48.5 -131z" />
    <glyph glyph-name="plusminus" unicode="&#xb1;" horiz-adv-x="1228" 
d="M205 156h778v-156h-778v156zM516 778h156v-192h311v-156h-311v-188h-156v188h-311v156h311v192z" />
    <glyph glyph-name="twosuperior" unicode="&#xb2;" horiz-adv-x="614" 
d="M556 1051.5q67 93.5 67 184.5t-72 91q-91 0 -108 -81t-25 -105q-40 5 -113 22q-35 12 -35 41q0 63 83.5 113.5t185.5 50.5t170.5 -48t68.5 -132t-29.5 -138.5t-83 -104.5t-158.5 -104q-105 -53 -162 -87t-126 -73v-7h180q84 0 137.5 22.5t98.5 106.5l47 -10
q-39 -66 -64.5 -124.5t-54.5 -121.5h-528l-6 26v5q72 61 173 135.5t194 159.5t160 178.5z" />
    <glyph glyph-name="threesuperior" unicode="&#xb3;" horiz-adv-x="614" 
d="M522 1092q178 -8 178 -196q0 -96 -69.5 -167.5t-192 -123.5t-401.5 -79v37q211 13 349 103t138 239q0 35 -23.5 68t-62.5 33t-66.5 -15.5t-47.5 -25.5l-13 22l324 230v4h-193q-60 0 -83 -13t-62 -57l-25 14l109 183h264q84 0 166 8l14 -45l-303 -215v-4z" />
    <glyph glyph-name="acute" unicode="&#xb4;" horiz-adv-x="606" 
d="M702 1276q36 0 58 -32t22 -70t-31.5 -59t-56.5 -36l-299 -172h-96l281 303q61 66 122 66z" />
    <glyph glyph-name="mu" unicode="&#xb5;" horiz-adv-x="1062" 
d="M225 156q0 -50 64 -50t142 93.5t124 216.5l141 362h224l-166 -454q-33 -82 -33 -135q0 -52 27.5 -67.5t66.5 -15.5t71 16.5t55.5 37t38.5 37t24 16.5t10 -23t-127.5 -119t-212.5 -96q-114 0 -154.5 58.5t-52.5 72.5l92 220l-4 6q-102 -173 -165.5 -234t-128 -92
t-148.5 -31q-35 -86 -51.5 -164.5t-29.5 -141.5t-51.5 -105.5t-88.5 -42.5t-77.5 31.5t-27.5 69.5t16.5 85t41 103.5t51 117t44.5 107.5t41 106.5t50.5 130t57.5 147.5t73 187.5t65 171.5h234l-182 -461q-23 -55 -38.5 -94t-15.5 -67z" />
    <glyph glyph-name="paragraph" unicode="&#xb6;" horiz-adv-x="1228" 
d="M143 743q0 125 45 236t168 231.5t394 120.5h559l-19 -49q-95 -4 -128.5 -30.5t-55 -66.5t-45.5 -110l-516 -1509h-168l581 1700h-120l-582 -1700h-168l315 926q-135 0 -197.5 63t-62.5 188z" />
    <glyph glyph-name="periodcentered" unicode="&#xb7;" horiz-adv-x="512" 
d="M229.5 545q71.5 0 113.5 -46t42 -109.5t-42 -110t-113.5 -46.5t-113.5 46.5t-42 110t42 109.5t113.5 46z" />
    <glyph glyph-name="cedilla" unicode="&#xb8;" horiz-adv-x="606" 
d="M211.5 -169.5q58.5 -34.5 58.5 -94.5q0 -108 -79.5 -151.5t-188.5 -43.5q-47 0 -108.5 14.5t-104.5 36.5l45 66q66 -39 137 -39t95 29.5t24 52.5q0 86 -98 86q-35 0 -66 -12l-24 26l137 199h84l-92 -139q32 4 77 4t103.5 -34.5z" />
    <glyph glyph-name="onesuperior" unicode="&#xb9;" horiz-adv-x="614" 
d="M475 1265.5q0 14.5 -57 14.5h-82l10 41q186 19 301 47l27 -27l-240 -630q-26 -65 -26 -95q0 -23 53 -25.5t63 -4.5l-12 -41l-244 2q-47 0 -92 -1t-92 -1l6 41q101 8 123.5 22.5t34.5 38t26 62.5l183 493q8 23 13 36t5 27.5z" />
    <glyph glyph-name="ordmasculine" unicode="&#xba;" horiz-adv-x="544" 
d="M373 1000q0 -74 57 -74q68 0 126 123t58 194.5t-58 71.5t-120.5 -120.5t-62.5 -194.5zM381 872q-172 0 -172 113q0 68 37 136.5t134 157.5t248 89q150 0 150 -131q0 -68 -41 -133.5t-141 -148.5t-215 -83z" />
    <glyph glyph-name="guillemotright" unicode="&#xbb;" horiz-adv-x="909" 
d="M424 358q0 -35 -26.5 -54t-55.5 -36l-315 -196l-37 32l246 271l-82 301l30 31l193 -254q47 -60 47 -95zM723 358q0 -35 -26.5 -54t-55.5 -36l-315 -196l-37 32l246 271l-82 301l30 31l193 -254q47 -60 47 -95z" />
    <glyph glyph-name="onequarter" unicode="&#xbc;" horiz-adv-x="1536" 
d="M496 1265.5q0 14.5 -58 14.5h-82l11 41q186 19 301 47l26 -27l-239 -630q-27 -68 -27 -85q0 -18 14.5 -24t34 -9t39 -4t29.5 -3l-13 -41l-243 2q-47 0 -92 -1t-93 -1l7 41q100 8 122.5 22.5t35 38t26.5 62.5l182 493q8 23 13.5 36t5.5 27.5zM1474 836q24 0 25 -29
q0 -16 -14.5 -53t-18.5 -56q-99 0 -213 -64t-204 -151l-164 -149h311l88 252l164 45l-231 -631h-156l90 219h-389l-14 27l327 313q165 158 270 217.5t129 59.5zM1200 1368h121l-909 -1405h-117z" />
    <glyph glyph-name="onehalf" unicode="&#xbd;" horiz-adv-x="1536" 
d="M496 1265.5q0 14.5 -58 14.5h-82l11 41q186 19 301 47l26 -27l-239 -630q-27 -68 -27 -85q0 -18 14.5 -24t34 -9t39 -4t29.5 -3l-13 -41l-243 2q-47 0 -92 -1t-93 -1l7 41q100 8 122.5 22.5t35 38t26.5 62.5l182 493q8 23 13.5 36t5.5 27.5zM1200 1368h121l-909 -1405
h-117zM1285.5 505q66.5 93 66.5 184t-72 91q-91 0 -108 -81t-25 -105q-40 5 -113 22q-35 12 -35 41t22.5 60t82.5 67.5t163 36.5t171.5 -48t68.5 -132t-29.5 -138t-83 -104.5t-158.5 -103.5q-105 -54 -162 -88t-126 -73v-7h180q84 0 137.5 22.5t98.5 106.5l47 -10
q-39 -66 -64.5 -124.5t-54.5 -121.5h-528l-6 27v4q72 61 173 136t194.5 160t160 178z" />
    <glyph glyph-name="threequarters" unicode="&#xbe;" horiz-adv-x="1536" 
d="M1474 836q24 0 25 -29q0 -16 -14.5 -53t-18.5 -56q-99 0 -213 -64t-204 -151l-164 -149h311l88 252l164 45l-231 -631h-156l90 219h-389l-14 27l327 313q165 158 270 217.5t129 59.5zM1200 1368h121l-909 -1405h-117zM518 1092q178 -8 178 -196q0 -96 -69.5 -167.5
t-192 -123.5t-401.5 -79v37q211 13 349 103t138 239q0 35 -23.5 68t-62.5 33t-66.5 -15.5t-48.5 -25.5l-12 22l324 230v4h-193q-60 0 -83 -13t-62 -57l-25 14l109 183h264q84 0 166 8l14 -45l-303 -215v-4z" />
    <glyph glyph-name="questiondown" unicode="&#xbf;" horiz-adv-x="985" 
d="M643 901q47 0 86 -29.5t39 -98.5t-40 -126t-110 -57t-105.5 36t-35.5 83t11.5 78.5t31 57t48 41t75.5 15.5zM184 -319.5q0 -36.5 11.5 -65.5t53.5 -29t70.5 31t50 73t39 86t31.5 72q68 -34 107 -86t39 -76t-31 -54.5t-101.5 -70.5t-160.5 -40q-137 0 -223 80t-86 206
t97.5 241t206.5 187t164.5 135.5t82.5 170.5h51q-15 -210 -122.5 -361.5t-137.5 -193.5t-53 -76.5t-42.5 -73.5t-33 -79t-13.5 -76.5z" />
    <glyph glyph-name="Agrave" unicode="&#xc0;" horiz-adv-x="1214" 
d="M696 631v463h-4q-214 -269 -350 -463h354zM231 -8q-80 8 -252 8t-282 -8l14 45q84 14 134 43t101 90q50 60 116 164t180 267q394 559 645 771l59 -29v-1191q0 -76 122 -102q30 -6 54 -13l-14 -45q-439 16 -649 0l14 45q135 19 175 54t40 116v350l-385 8
q-57 -77 -133 -229t-76 -207q0 -71 108 -88q26 -4 44 -4zM645 1701q0 33 31 59q32 26 62 26q60 0 98 -53l243 -316h-104l-260 182q-70 47 -70 102z" />
    <glyph glyph-name="Aacute" unicode="&#xc1;" horiz-adv-x="1214" 
d="M696 631v463h-4q-214 -269 -350 -463h354zM231 -8q-80 8 -252 8t-282 -8l14 45q84 14 134 43t101 90q50 60 116 164t180 267q394 559 645 771l59 -29v-1191q0 -76 122 -102q30 -6 54 -13l-14 -45q-439 16 -649 0l14 45q135 19 175 54t40 116v350l-385 8
q-57 -77 -133 -229t-76 -207q0 -71 108 -88q26 -4 44 -4zM758 1417l280 303q60 64 110 65t72 -31t22 -70t-33 -60q-32 -22 -56 -35l-299 -172h-96z" />
    <glyph glyph-name="Acircumflex" unicode="&#xc2;" horiz-adv-x="1214" 
d="M696 631v463h-4q-214 -269 -350 -463h354zM231 -8q-80 8 -252 8t-282 -8l14 45q84 14 134 43t101 90q50 60 116 164t180 267q394 559 645 771l59 -29v-1191q0 -76 122 -102q30 -6 54 -13l-14 -45q-439 16 -649 0l14 45q135 19 175 54t40 116v350l-385 8
q-57 -77 -133 -229t-76 -207q0 -71 108 -88q26 -4 44 -4zM1104 1417l-166 207l-258 -207h-115l314 357h165l164 -357h-104z" />
    <glyph glyph-name="Atilde" unicode="&#xc3;" horiz-adv-x="1214" 
d="M696 631v463h-4q-214 -269 -350 -463h354zM231 -8q-80 8 -252 8t-282 -8l14 45q84 14 134 43t101 90q50 60 116 164t180 267q394 559 645 771l59 -29v-1191q0 -76 122 -102q30 -6 54 -13l-14 -45q-439 16 -649 0l14 45q135 19 175 54t40 116v350l-385 8
q-57 -77 -133 -229t-76 -207q0 -71 108 -88q26 -4 44 -4zM1092 1612q73 0 104 90h76q-15 -95 -53 -146q-37 -52 -73 -74t-79 -22t-95 19t-113 45q-62 26 -97 26q-63 0 -90 -90h-76q28 165 130 219q38 21 88 21t144 -44t134 -44z" />
    <glyph glyph-name="Adieresis" unicode="&#xc4;" horiz-adv-x="1214" 
d="M696 631v463h-4q-214 -269 -350 -463h354zM231 -8q-80 8 -252 8t-282 -8l14 45q84 14 134 43t101 90q50 60 116 164t180 267q394 559 645 771l59 -29v-1191q0 -76 122 -102q30 -6 54 -13l-14 -45q-439 16 -649 0l14 45q135 19 175 54t40 116v350l-385 8
q-57 -77 -133 -229t-76 -207q0 -71 108 -88q26 -4 44 -4zM1137 1702q55 0 94 -39t39 -94t-39 -94t-94 -39t-95 39q-39 39 -38 94q0 55 38 94q40 39 95 39zM729 1702q55 0 94 -39t39 -94t-39 -94t-94 -39t-94 39t-39 94t39 94t94 39z" />
    <glyph glyph-name="Aring" unicode="&#xc5;" horiz-adv-x="1214" 
d="M696 631v463h-4q-214 -269 -350 -463h354zM231 -8q-80 8 -252 8t-282 -8l14 45q84 14 134 43t101 90q50 60 116 164t180 267q394 559 645 771l59 -29v-1191q0 -76 122 -102q30 -6 54 -13l-14 -45q-439 16 -649 0l14 45q135 19 175 54t40 116v350l-385 8
q-57 -77 -133 -229t-76 -207q0 -71 108 -88q26 -4 44 -4zM821 1654q0 -48 34 -83t83 -35t85 35t36 83t-36 85t-85 37t-83 -37t-34 -85zM723 1655q-1 94 63 157q64 62 154 62t154 -64q63 -64 63 -156q0 -91 -65 -154q-65 -62 -153 -62q-89 0 -152 61q-64 62 -64 156z" />
    <glyph glyph-name="AE" unicode="&#xc6;" horiz-adv-x="1744" 
d="M735 631l174 524l-4 4q-291 -242 -540 -528h370zM1683 1127q0 -85 9 -191l-37 -6q-136 187 -166 348h-266l-183 -553q68 0 174 16q57 8 110.5 59.5t117.5 168.5l47 -25q-63 -138 -116.5 -315.5t-74.5 -243.5l-45 8l9 135q0 89 -24 116.5t-124 27.5h-92l-186 -549
q57 -10 115.5 -22.5t151.5 -30t124 -17.5t42 4.5t51 64.5t125 145t183 157l23 -27q-61 -92 -99.5 -196.5t-74.5 -208.5q-106 8 -213 8h-678q-124 0 -246 -8l14 45q31 8 108.5 24t108.5 95l144 409h-412l-207 -256q-84 -102 -84 -170q0 -52 79.5 -77t141.5 -25l-14 -45
q-141 8 -257 8t-210 -8l12 61q488 627 1135 1164q-9 49 -99.5 60t-109.5 17l15 37h987q-9 -119 -9 -204z" />
    <glyph glyph-name="Ccedilla" unicode="&#xc7;" horiz-adv-x="1327" 
d="M352 -213q-35 0 -65 -12l-25 26l117 169q-123 25 -201 109q-112 121 -112 319q1 385 275 676q126 134 293 216t371 82t324 -76l-121 -469h-45q0 476 -270 476q-107 0 -203 -77q-197 -157 -287 -473q-43 -151 -43 -261t18 -172q18 -64 53 -112q80 -106 229 -106
q150 0 279 113q55 49 107 111t103 120l39 -38q-246 -351 -509 -424q-87 -25 -145 -25t-77 1l-66 -99q32 4 80 4q48 -1 86 -25q72 -45 73 -104q2 -105 -77 -150t-191 -45t-212 51l45 66q66 -39 137 -39t106 44q12 15 13 38q0 86 -99 86z" />
    <glyph glyph-name="Egrave" unicode="&#xc8;" horiz-adv-x="1290" 
d="M1012 -8q-244 8 -673 8t-527 -8l12 45q169 20 222 139q26 60 81 221t94 271q172 483 172 538q-1 27 -25 39q-49 23 -155 49l14 37h1010q-10 -82 -10 -193q0 -112 10 -190l-37 -12q-120 125 -168 342h-323l-191 -553q175 0 251 28q106 36 224 220l37 -23
q-63 -135 -110 -277t-93 -290l-36 8q1 57 -5 107t-8 104t-45 62t-115 8t-116 -4l-195 -557l309 -48q117 -18 149 -18t49 16t64 87q47 70 120 132t141 115l28 -28q-108 -179 -155 -375zM616 1701q0 33 31 59t62 26q59 0 98 -53l244 -316h-105l-260 182q-70 47 -70 102z" />
    <glyph glyph-name="Eacute" unicode="&#xc9;" horiz-adv-x="1290" 
d="M1012 -8q-244 8 -673 8t-527 -8l12 45q169 20 222 139q26 60 81 221t94 271q172 483 172 538q-1 27 -25 39q-49 23 -155 49l14 37h1010q-10 -82 -10 -193q0 -112 10 -190l-37 -12q-120 125 -168 342h-323l-191 -553q175 0 251 28q106 36 224 220l37 -23
q-63 -135 -110 -277t-93 -290l-36 8q1 57 -5 107t-8 104t-45 62t-115 8t-116 -4l-195 -557l309 -48q117 -18 149 -18t49 16t64 87q47 70 120 132t141 115l28 -28q-108 -179 -155 -375zM1231 1684q0 -38 -32 -60t-56 -35l-299 -172h-96l280 303q60 66 123 66q37 0 59 -32
t21 -70z" />
    <glyph glyph-name="Ecircumflex" unicode="&#xca;" horiz-adv-x="1290" 
d="M1012 -8q-244 8 -673 8t-527 -8l12 45q169 20 222 139q26 60 81 221t94 271q172 483 172 538q-1 27 -25 39q-49 23 -155 49l14 37h1010q-10 -82 -10 -193q0 -112 10 -190l-37 -12q-120 125 -168 342h-323l-191 -553q175 0 251 28q106 36 224 220l37 -23
q-63 -135 -110 -277t-93 -290l-36 8q1 57 -5 107t-8 104t-45 62t-115 8t-116 -4l-195 -557l309 -48q117 -18 149 -18t49 16t64 87q47 70 120 132t141 115l28 -28q-108 -179 -155 -375zM1094 1417l-166 207l-258 -207h-115l313 357h166l164 -357h-104z" />
    <glyph glyph-name="Edieresis" unicode="&#xcb;" horiz-adv-x="1290" 
d="M1012 -8q-244 8 -673 8t-527 -8l12 45q169 20 222 139q26 60 81 221t94 271q172 483 172 538q-1 27 -25 39q-49 23 -155 49l14 37h1010q-10 -82 -10 -193q0 -112 10 -190l-37 -12q-120 125 -168 342h-323l-191 -553q175 0 251 28q106 36 224 220l37 -23
q-63 -135 -110 -277t-93 -290l-36 8q1 57 -5 107t-8 104t-45 62t-115 8t-116 -4l-195 -557l309 -48q117 -18 149 -18t49 16t64 87q47 70 120 132t141 115l28 -28q-108 -179 -155 -375zM1108 1702q55 0 94 -39t39 -94t-39 -94t-94 -39t-94 39t-39 94t39 94t94 39zM700 1702
q54 0 94 -39t40 -94t-39 -94t-95 -39t-94 39q-39 39 -39 94t39 94t94 39z" />
    <glyph glyph-name="Igrave" unicode="&#xcc;" horiz-adv-x="796" 
d="M375 135q0 -23 6 -33q16 -28 164 -65l-8 -45q-192 8 -361 8t-311 -8l8 45q169 20 222 139q21 48 79 215l96 276q172 485 172 518t-6 43q-16 28 -174 66l12 45l312 -8q194 0 358 8l-14 -45q-171 -20 -222 -139q-40 -93 -127 -366q-88 -273 -147 -452q-59 -180 -59 -202z
M389 1701q0 33 31 59q32 26 62 26q60 0 98 -53l243 -316h-104l-260 182q-70 47 -70 102z" />
    <glyph glyph-name="Iacute" unicode="&#xcd;" horiz-adv-x="796" 
d="M375 135q0 -23 6 -33q16 -28 164 -65l-8 -45q-192 8 -361 8t-311 -8l8 45q169 20 222 139q21 48 79 215l96 276q172 485 172 518t-6 43q-16 28 -174 66l12 45l312 -8q194 0 358 8l-14 -45q-171 -20 -222 -139q-40 -93 -127 -366q-88 -273 -147 -452q-59 -180 -59 -202z
M518 1417l281 303q60 64 110 65q49 1 71 -31t22 -70t-32 -60t-57 -35l-299 -172h-96z" />
    <glyph glyph-name="Icircumflex" unicode="&#xce;" horiz-adv-x="796" 
d="M375 135q0 -23 6 -33q16 -28 164 -65l-8 -45q-192 8 -361 8t-311 -8l8 45q169 20 222 139q21 48 79 215l96 276q172 485 172 518t-6 43q-16 28 -174 66l12 45l312 -8q194 0 358 8l-14 -45q-171 -20 -222 -139q-40 -93 -127 -366q-88 -273 -147 -452q-59 -180 -59 -202z
M864 1417l-166 207l-258 -207h-114l313 357h166l164 -357h-105z" />
    <glyph glyph-name="Idieresis" unicode="&#xcf;" horiz-adv-x="796" 
d="M375 135q0 -23 6 -33q16 -28 164 -65l-8 -45q-192 8 -361 8t-311 -8l8 45q169 20 222 139q21 48 79 215l96 276q172 485 172 518t-6 43q-16 28 -174 66l12 45l312 -8q194 0 358 8l-14 -45q-171 -20 -222 -139q-40 -93 -127 -366q-88 -273 -147 -452q-59 -180 -59 -202z
M881 1702q55 0 94 -39t39 -94t-39 -94t-94 -39t-95 39q-39 39 -38 94q0 55 38 94q40 39 95 39zM473 1702q55 0 94 -39t39 -94t-39 -94t-94 -39t-94 39t-39 94t39 94t94 39z" />
    <glyph glyph-name="Eth" unicode="&#xd0;" horiz-adv-x="1478" 
d="M287 725q153 428 153 461q0 32 -11 51.5t-169 56.5l16 45q122 -8 217 -8t200.5 10.5t214.5 10.5q240 0 372.5 -99t132.5 -354q0 -180 -62.5 -345t-179 -290t-283.5 -198.5t-376 -73.5l-231 8h-424l14 45q167 10 212 108.5t179 497.5h-172l25 74h172zM524 66
q158 0 271.5 85t187.5 213t108.5 276t34.5 252t-23.5 245t-266.5 141q-43 0 -86 -12l-187 -541h305l-24 -74h-307l-195 -561q103 -24 182 -24z" />
    <glyph glyph-name="Ntilde" unicode="&#xd1;" horiz-adv-x="1517" 
d="M496 1331q119 0 219 8l383 -972h4l184 604q16 53 35 105q18 52 18 84t-32 59t-101 45t-104 30l14 45q152 -8 298 -8t288 8l-14 -45q-54 -10 -114 -29t-99 -75t-61 -125q-22 -70 -155 -450t-208 -638h-97q-106 299 -224 589t-238 581h-5q-59 -221 -129 -441
q-139 -437 -139 -541q0 -68 87 -95q36 -12 76 -18t69 -15l-15 -45q-156 8 -309 8t-303 -8l14 45q98 6 156 35t74 65q47 104 157 432t157 463q46 134 46 156q0 39 -86 72q-35 12 -70 20t-53 14l14 45q144 -8 263 -8zM1175 1460q-43 0 -88 17t-113 45q-69 28 -104 28
q-63 0 -90 -90h-75q42 237 219 240q51 0 142 -44q92 -44 134 -44q75 0 105 90h75q-24 -157 -126 -219q-36 -23 -79 -23z" />
    <glyph glyph-name="Ograve" unicode="&#xd2;" horiz-adv-x="1402" 
d="M338 332q0 -291 180 -291q161 0 301 196q118 163 192 401t74 386q0 227 -101 269q-32 13 -69 14q-88 0 -189 -80q-214 -169 -331 -527q-57 -175 -57 -368zM43 334q0 226 127 471t334 406q208 161 442 161q194 0 304 -99t110 -287t-76 -368q-76 -182 -203 -328t-296 -238
t-351 -93q-182 0 -287 95q-104 96 -104 280zM735 1701q0 33 31 59q32 26 62 26q60 0 98 -53l243 -316h-104l-260 182q-70 47 -70 102z" />
    <glyph glyph-name="Oacute" unicode="&#xd3;" horiz-adv-x="1402" 
d="M338 332q0 -291 180 -291q161 0 301 196q118 163 192 401t74 386q0 227 -101 269q-32 13 -69 14q-88 0 -189 -80q-214 -169 -331 -527q-57 -175 -57 -368zM43 334q0 226 127 471t334 406q208 161 442 161q194 0 304 -99t110 -287t-76 -368q-76 -182 -203 -328t-296 -238
t-351 -93q-182 0 -287 95q-104 96 -104 280zM848 1417l280 303q60 64 110 65t72 -31t22 -70t-33 -60q-32 -22 -56 -35l-299 -172h-96z" />
    <glyph glyph-name="Ocircumflex" unicode="&#xd4;" horiz-adv-x="1402" 
d="M338 332q0 -291 180 -291q161 0 301 196q118 163 192 401t74 386q0 227 -101 269q-32 13 -69 14q-88 0 -189 -80q-214 -169 -331 -527q-57 -175 -57 -368zM43 334q0 226 127 471t334 406q208 161 442 161q194 0 304 -99t110 -287t-76 -368q-76 -182 -203 -328t-296 -238
t-351 -93q-182 0 -287 95q-104 96 -104 280zM1194 1417l-166 207l-258 -207h-115l314 357h166l163 -357h-104z" />
    <glyph glyph-name="Otilde" unicode="&#xd5;" horiz-adv-x="1402" 
d="M338 332q0 -291 180 -291q161 0 301 196q118 163 192 401t74 386q0 227 -101 269q-32 13 -69 14q-88 0 -189 -80q-214 -169 -331 -527q-57 -175 -57 -368zM43 334q0 226 127 471t334 406q208 161 442 161q194 0 304 -99t110 -287t-76 -368q-76 -182 -203 -328t-296 -238
t-351 -93q-182 0 -287 95q-104 96 -104 280zM1183 1612q72 0 103 90h76q-15 -95 -53 -146q-37 -52 -73 -74t-79 -22t-95 19t-113 45q-62 26 -97 26q-63 0 -90 -90h-76q28 165 130 219q38 21 88 21t145 -44q94 -44 134 -44z" />
    <glyph glyph-name="Odieresis" unicode="&#xd6;" horiz-adv-x="1402" 
d="M338 332q0 -291 180 -291q161 0 301 196q118 163 192 401t74 386q0 227 -101 269q-32 13 -69 14q-88 0 -189 -80q-214 -169 -331 -527q-57 -175 -57 -368zM43 334q0 226 127 471t334 406q208 161 442 161q194 0 304 -99t110 -287t-76 -368q-76 -182 -203 -328t-296 -238
t-351 -93q-182 0 -287 95q-104 96 -104 280zM1227 1702q55 0 94 -39t39 -94t-39 -94t-94 -39t-94 39t-39 94t39 94t94 39zM819 1702q55 0 94 -39t39 -94t-39 -94t-94 -39t-94 39t-39 94t39 94t94 39z" />
    <glyph glyph-name="multiply" unicode="&#xd7;" horiz-adv-x="1228" 
d="M594 281l-279 -281l-110 111l278 278l-278 279l110 110l279 -280l278 280l111 -110l-278 -279l278 -278l-111 -111z" />
    <glyph glyph-name="Oslash" unicode="&#xd8;" horiz-adv-x="1402" 
d="M43 334q0 226 126.5 470.5t334.5 406t442 161.5q141 0 236 -53l153 188h86l-182 -227q121 -98 121 -290t-76 -373t-203 -327.5t-296 -238.5t-353 -92q-131 0 -221 51l-164 -203h-90l197 244q-111 98 -111 283zM518 41q158 0 288 178t204.5 417.5t74.5 387.5v26
q0 25 -2 37l-729 -899q37 -147 164 -147zM915 1307q-88 0 -189 -80t-187 -215t-143.5 -311.5t-57.5 -368.5v-18q0 -19 2 -33l727 897q-32 129 -152 129z" />
    <glyph glyph-name="Ugrave" unicode="&#xd9;" horiz-adv-x="1478" 
d="M238 1339q160 -8 329 -8q168 0 348 8l-14 -45q-99 -6 -159 -47t-80 -100l-234 -682q-39 -115 -39 -197q0 -119 72 -175q71 -56 185 -56t191 47q137 84 228 304t221 660l30 100q11 40 11 44q0 43 -99 73q-40 11 -80 18t-58 11l14 45q160 -8 303 -8q142 0 262 8l-14 -45
q-90 -12 -120 -35q-30 -24 -60 -69q-40 -59 -157 -366q-117 -308 -160 -403q-103 -233 -209 -332q-140 -130 -380 -130q-295 0 -406 177q-40 65 -40 154t33 179l217 623q10 34 20 62t10 58q0 59 -180 82zM850 1786q59 0 98 -53l244 -316h-105l-260 182q-69 47 -69 102
q0 33 30 59t62 26z" />
    <glyph glyph-name="Uacute" unicode="&#xda;" horiz-adv-x="1478" 
d="M238 1339q160 -8 329 -8q168 0 348 8l-14 -45q-99 -6 -159 -47t-80 -100l-234 -682q-39 -115 -39 -197q0 -119 72 -175q71 -56 185 -56t191 47q137 84 228 304t221 660l30 100q11 40 11 44q0 43 -99 73q-40 11 -80 18t-58 11l14 45q160 -8 303 -8q142 0 262 8l-14 -45
q-90 -12 -120 -35q-30 -24 -60 -69q-40 -59 -157 -366q-117 -308 -160 -403q-103 -233 -209 -332q-140 -130 -380 -130q-295 0 -406 177q-40 65 -40 154t33 179l217 623q10 34 20 62t10 58q0 59 -180 82zM858 1417l281 303q60 64 109 65q50 1 72 -31t22 -70t-32 -60t-57 -35
l-299 -172h-96z" />
    <glyph glyph-name="Ucircumflex" unicode="&#xdb;" horiz-adv-x="1478" 
d="M238 1339q160 -8 329 -8q168 0 348 8l-14 -45q-99 -6 -159 -47t-80 -100l-234 -682q-39 -115 -39 -197q0 -119 72 -175q71 -56 185 -56t191 47q137 84 228 304t221 660l30 100q11 40 11 44q0 43 -99 73q-40 11 -80 18t-58 11l14 45q160 -8 303 -8q142 0 262 8l-14 -45
q-90 -12 -120 -35q-30 -24 -60 -69q-40 -59 -157 -366q-117 -308 -160 -403q-103 -233 -209 -332q-140 -130 -380 -130q-295 0 -406 177q-40 65 -40 154t33 179l217 623q10 34 20 62t10 58q0 59 -180 82zM1231 1417l-166 207l-258 -207h-115l314 357h165l164 -357h-104z" />
    <glyph glyph-name="Udieresis" unicode="&#xdc;" horiz-adv-x="1478" 
d="M238 1339q160 -8 329 -8q168 0 348 8l-14 -45q-99 -6 -159 -47t-80 -100l-234 -682q-39 -115 -39 -197q0 -119 72 -175q71 -56 185 -56t191 47q137 84 228 304t221 660l30 100q11 40 11 44q0 43 -99 73q-40 11 -80 18t-58 11l14 45q160 -8 303 -8q142 0 262 8l-14 -45
q-90 -12 -120 -35q-30 -24 -60 -69q-40 -59 -157 -366q-117 -308 -160 -403q-103 -233 -209 -332q-140 -130 -380 -130q-295 0 -406 177q-40 65 -40 154t33 179l217 623q10 34 20 62t10 58q0 59 -180 82zM1264 1702q55 0 94 -39t39 -94t-39 -94t-94 -39t-95 39
q-39 39 -39 94t39 94q40 39 95 39zM856 1702q55 0 94 -39t39 -94t-39 -94t-94 -39t-94 39t-39 94t39 94t94 39z" />
    <glyph glyph-name="Yacute" unicode="&#xdd;" horiz-adv-x="1290" 
d="M129 1339q188 -8 366 -8t336 8l-14 -45q-18 -6 -50 -10q-134 -17 -132 -82q0 -28 35 -127l102 -342q31 37 149 163t180 205q62 80 62 106t-21 39q-46 27 -104 34q-59 8 -94 14l14 45q152 -8 288 -8t263 8l-12 -45q-218 -149 -515 -430q-95 -90 -181 -182l-117 -369
q-16 -49 -28 -89t-13 -82q0 -42 71 -66t212 -39l-13 -45q-233 8 -443 8t-402 -8l8 45q110 16 186 42t98 91l166 481q-60 176 -108 327q-49 151 -86 222q-14 32 -82 61t-135 33zM1274 1684q0 -38 -32 -60t-56 -35l-299 -172h-96l280 303q60 66 123 66q36 0 58 -32t22 -70z
" />
    <glyph glyph-name="Thorn" unicode="&#xde;" horiz-adv-x="1251" 
d="M566 375q70 0 142 38t146 132.5t74 275.5q0 109 -46 161t-165 52q-27 0 -55 -6l-213 -641q47 -12 117 -12zM537 -8q-192 8 -360 8t-312 -8l8 45q170 20 205 99t94 250t164.5 467t105.5 331q0 34 -11 53.5t-169 56.5l12 45l312 -8q194 0 358 8l-14 -45
q-157 -15 -192.5 -83t-47.5 -101q40 6 106 6q164 0 285 -80.5t121 -249.5q0 -221 -168.5 -338.5t-408.5 -117.5q-74 0 -191 10l-28 -86q-31 -102 -31 -122q0 -34 35.5 -52t134.5 -43z" />
    <glyph glyph-name="germandbls" unicode="&#xdf;" horiz-adv-x="1138" 
d="M-426 -360q0 127 109 127q47 0 63 -23t22.5 -51.5t14.5 -51t40 -22.5t47.5 16.5t31.5 51.5t40.5 116.5t52.5 183t56.5 211t52 208t42 175t24.5 111.5h-180l16 86h193q99 270 305 481t461 211q98 0 168.5 -48t70.5 -167t-70.5 -167t-103.5 -67q-82 -47 -128 -96t-46 -130
q0 -37 19.5 -86.5t63.5 -152t44 -193.5q0 -166 -122 -277t-275 -111t-195.5 65.5t-42.5 107.5q0 79 38.5 135.5t109.5 56.5q43 0 76.5 -27.5t33.5 -82.5t-55 -85q8 -53 21.5 -78.5t60.5 -25.5q77 0 105 48.5t28 109.5q0 78 -49 235.5t-49 222.5q0 64 13 105t35.5 72.5
t51.5 56t84 66t95 92.5t40 143q0 136 -53 172.5t-105 36.5q-107 0 -207 -177.5t-221 -549.5l-180 -563q-48 -159 -151 -320t-197.5 -215.5t-162.5 -54.5t-102 26.5t-34 92.5z" />
    <glyph glyph-name="agrave" unicode="&#xe0;" horiz-adv-x="1099" 
d="M213 221q0 -53 16 -80t74 -27q105 1 216 182q74 121 126 286q-15 59 -71 81t-113 21q-93 -98 -171 -231q-77 -132 -77 -232zM1012 198q12 0 12 -19q0 -20 -51 -62q-78 -87 -210 -127q-180 -55 -306 71l102 207l-4 2q-74 -98 -160 -166q-164 -129 -252 -129t-144 38
t-56 125q0 158 129 311t290 254q162 100 209 100q45 0 81 -24t50 -54h5l10 53h237l-170 -436q-41 -104 -43 -186q0 -54 83 -56t162 83q14 15 26 15zM434 1192q0 34 31 58q31 26 61 26q62 0 99 -53l243 -316h-104l-260 183q-70 47 -70 102z" />
    <glyph glyph-name="aacute" unicode="&#xe1;" horiz-adv-x="1099" 
d="M213 221q0 -53 16 -80t74 -27q105 1 216 182q74 121 126 286q-15 59 -71 81t-113 21q-93 -98 -171 -231q-77 -132 -77 -232zM1012 198q12 0 12 -19q0 -20 -51 -62q-78 -87 -210 -127q-180 -55 -306 71l102 207l-4 2q-74 -98 -160 -166q-164 -129 -252 -129t-144 38
t-56 125q0 158 129 311t290 254q162 100 209 100q45 0 81 -24t50 -54h5l10 53h237l-170 -436q-41 -104 -43 -186q0 -54 83 -56t162 83q14 15 26 15zM547 907l280 303q60 64 110 65t72 -31q21 -32 21 -70t-32 -60t-56 -35l-299 -172h-96z" />
    <glyph glyph-name="acircumflex" unicode="&#xe2;" horiz-adv-x="1099" 
d="M213 221q0 -53 16 -80t74 -27q105 1 216 182q74 121 126 286q-15 59 -71 81t-113 21q-93 -98 -171 -231q-77 -132 -77 -232zM1012 198q12 0 12 -19q0 -20 -51 -62q-78 -87 -210 -127q-180 -55 -306 71l102 207l-4 2q-74 -98 -160 -166q-164 -129 -252 -129t-144 38
t-56 125q0 158 129 311t290 254q162 100 209 100q45 0 81 -24t50 -54h5l10 53h237l-170 -436q-41 -104 -43 -186q0 -54 83 -56t162 83q14 15 26 15zM893 907l-166 207l-258 -207h-115l314 357h166l163 -357h-104z" />
    <glyph glyph-name="atilde" unicode="&#xe3;" horiz-adv-x="1099" 
d="M213 221q0 -53 16 -80t74 -27q105 1 216 182q74 121 126 286q-15 59 -71 81t-113 21q-93 -98 -171 -231q-77 -132 -77 -232zM1012 198q12 0 12 -19q0 -20 -51 -62q-78 -87 -210 -127q-180 -55 -306 71l102 207l-4 2q-74 -98 -160 -166q-164 -129 -252 -129t-144 38
t-56 125q0 158 129 311t290 254q162 100 209 100q45 0 81 -24t50 -54h5l10 53h237l-170 -436q-41 -104 -43 -186q0 -54 83 -56t162 83q14 15 26 15zM881 1102q73 0 104 90h76q-15 -95 -53 -146q-38 -52 -74 -74t-78 -22q-43 0 -95 19t-113 45q-62 26 -97 26q-63 0 -90 -90
h-76q29 165 131 219q38 21 87 21q50 0 144 -44t134 -44z" />
    <glyph glyph-name="adieresis" unicode="&#xe4;" horiz-adv-x="1099" 
d="M213 221q0 -53 16 -80t74 -27q105 1 216 182q74 121 126 286q-15 59 -71 81t-113 21q-93 -98 -171 -231q-77 -132 -77 -232zM1012 198q12 0 12 -19q0 -20 -51 -62q-78 -87 -210 -127q-180 -55 -306 71l102 207l-4 2q-74 -98 -160 -166q-164 -129 -252 -129t-144 38
t-56 125q0 158 129 311t290 254q162 100 209 100q45 0 81 -24t50 -54h5l10 53h237l-170 -436q-41 -104 -43 -186q0 -54 83 -56t162 83q14 15 26 15zM926 1192q55 0 94 -39t39 -94t-39 -94t-94 -39t-95 39q-39 39 -38 94q0 55 38 94q40 39 95 39zM518 1192q55 0 94 -39
t39 -94t-39 -94t-94 -39t-94 39t-39 94t39 94t94 39z" />
    <glyph glyph-name="aring" unicode="&#xe5;" horiz-adv-x="1099" 
d="M213 221q0 -53 16 -80t74 -27q105 1 216 182q74 121 126 286q-15 59 -71 81t-113 21q-93 -98 -171 -231q-77 -132 -77 -232zM1012 198q12 0 12 -19q0 -20 -51 -62q-78 -87 -210 -127q-180 -55 -306 71l102 207l-4 2q-74 -98 -160 -166q-164 -129 -252 -129t-144 38
t-56 125q0 158 129 311t290 254q162 100 209 100q45 0 81 -24t50 -54h5l10 53h237l-170 -436q-41 -104 -43 -186q0 -54 83 -56t162 83q14 15 26 15zM610 1144q0 -48 34 -83t83 -35t85 35t36 83t-36 85t-85 37t-83 -37t-34 -85zM512 1145q0 94 64 157q64 62 153 62
q90 0 154 -64q63 -64 63 -156q0 -91 -65 -154q-65 -62 -153 -62q-89 0 -152 61q-64 62 -64 156z" />
    <glyph glyph-name="ae" unicode="&#xe6;" horiz-adv-x="1402" 
d="M1087 625q0 59 -58 59t-126.5 -111t-68.5 -180q90 17 171.5 82.5t81.5 149.5zM258 221q0 -55 16.5 -82.5t68.5 -27.5t106.5 52t101.5 131t119 273q-25 47 -69 76t-91 29t-90 -50.5t-79 -121t-59.5 -147.5t-23.5 -132zM1309 676q0 -68 -94 -166t-392 -168q-10 -37 -10 -68
q0 -84 34 -128t118 -44t139 25t91 53.5t57.5 53t37.5 24.5q8 0 8 -13t-35.5 -56.5t-148.5 -128.5t-293 -85q-117 0 -187.5 46.5t-70.5 171.5q0 14 6 32l-4 4q-124 -130 -206.5 -192t-202.5 -62q-74 0 -127.5 45.5t-53.5 125.5t42 159.5t131.5 181.5t253.5 209t209 107
q44 0 71 -34t37 -62h4l22 71h213l-32 -96l4 -4q106 125 239 125q57 0 98.5 -29.5t41.5 -97.5z" />
    <glyph glyph-name="ccedilla" unicode="&#xe7;" horiz-adv-x="720" 
d="M-37 209q0 95 54 199q55 104 139 192t186 145t188 57q172 1 175 -163q0 -55 -37 -101t-97 -46q-110 0 -110 88q0 28 12 54t23 50q-6 12 -28 28t-36 17q-58 0 -137 -196q-78 -196 -78 -304q0 -67 46 -97q45 -30 99 -30q116 0 206 103q13 14 22 14q18 0 18 -18
q0 -12 -34 -49t-90 -76q-145 -101 -271 -101q-7 0 -14 1l-76 -115q32 4 80 4q48 -1 86 -25q73 -46 73 -104q0 -106 -78 -151q-78 -44 -190 -44q-111 0 -213 51l45 66q66 -39 136 -39t108 44q12 15 12 38q0 86 -98 86q-35 0 -66 -12l-24 26l128 186q-159 42 -159 222z" />
    <glyph glyph-name="egrave" unicode="&#xe8;" horiz-adv-x="796" 
d="M217 246q1 -152 163 -152q139 0 273 118q41 36 41 7q0 -10 -37 -50t-101 -83q-168 -111 -344 -111q-103 0 -176 48t-73 162t65 224q133 224 368 340q112 54 191 54q154 0 154 -129q0 -70 -58 -126t-139 -96q-154 -76 -313 -98q-4 -26 -9 -54t-5 -54zM516 657q0 39 -43 39
q-95 0 -189 -216q-22 -50 -34 -77q154 49 210 117t56 137zM422 1276q61 0 98 -53l244 -316h-105l-260 183q-69 48 -69 102q0 34 30 58q30 26 62 26z" />
    <glyph glyph-name="eacute" unicode="&#xe9;" horiz-adv-x="796" 
d="M217 246q1 -152 163 -152q139 0 273 118q41 36 41 7q0 -10 -37 -50t-101 -83q-168 -111 -344 -111q-103 0 -176 48t-73 162t65 224q133 224 368 340q112 54 191 54q154 0 154 -129q0 -70 -58 -126t-139 -96q-154 -76 -313 -98q-4 -26 -9 -54t-5 -54zM516 657q0 39 -43 39
q-95 0 -189 -216q-22 -50 -34 -77q154 49 210 117t56 137zM926 1174q0 -38 -32 -60t-56 -35l-299 -172h-97l281 303q60 66 123 66q36 0 58 -32t22 -70z" />
    <glyph glyph-name="ecircumflex" unicode="&#xea;" horiz-adv-x="796" 
d="M217 246q1 -152 163 -152q139 0 273 118q41 36 41 7q0 -10 -37 -50t-101 -83q-168 -111 -344 -111q-103 0 -176 48t-73 162t65 224q133 224 368 340q112 54 191 54q154 0 154 -129q0 -70 -58 -126t-139 -96q-154 -76 -313 -98q-4 -26 -9 -54t-5 -54zM516 657q0 39 -43 39
q-95 0 -189 -216q-22 -50 -34 -77q154 49 210 117t56 137zM788 907l-165 207l-258 -207h-115l313 357h166l164 -357h-105z" />
    <glyph glyph-name="edieresis" unicode="&#xeb;" horiz-adv-x="796" 
d="M217 246q1 -152 163 -152q139 0 273 118q41 36 41 7q0 -10 -37 -50t-101 -83q-168 -111 -344 -111q-103 0 -176 48t-73 162t65 224q133 224 368 340q112 54 191 54q154 0 154 -129q0 -70 -58 -126t-139 -96q-154 -76 -313 -98q-4 -26 -9 -54t-5 -54zM516 657q0 39 -43 39
q-95 0 -189 -216q-22 -50 -34 -77q154 49 210 117t56 137zM821 1192q55 0 94 -39t39 -94t-39 -94t-94 -39t-94 39t-39 94t39 94t94 39zM414 1192q55 0 94 -39t39 -94t-39 -94t-94 -39t-95 39q-39 39 -38 94q0 55 38 94q40 39 95 39z" />
    <glyph glyph-name="igrave" unicode="&#xec;" horiz-adv-x="606" 
d="M242 173q0 -32 26 -51t84 -20q57 -1 110 51q22 19 35 34t23 16q12 0 12 -17q0 -6 -30 -40q-73 -81 -191 -140q-61 -31 -107 -31q-84 0 -148 34t-64 112q0 44 57 205l162 452h248l-178 -473q-15 -35 -27 -67t-12 -65zM135 1192q0 34 31 58q32 26 62 26q62 0 98 -53
l243 -316h-104l-260 183q-70 47 -70 102z" />
    <glyph glyph-name="iacute" unicode="&#xed;" horiz-adv-x="606" 
d="M242 173q0 -32 26 -51t84 -20q57 -1 110 51q22 19 35 34t23 16q12 0 12 -17q0 -6 -30 -40q-73 -81 -191 -140q-61 -31 -107 -31q-84 0 -148 34t-64 112q0 44 57 205l162 452h248l-178 -473q-15 -35 -27 -67t-12 -65zM248 907l280 303q60 64 110 65t72 -31t22 -70t-33 -60
q-32 -22 -56 -35l-299 -172h-96z" />
    <glyph glyph-name="icircumflex" unicode="&#xee;" horiz-adv-x="606" 
d="M242 173q0 -32 26 -51t84 -20q57 -1 110 51q22 19 35 34t23 16q12 0 12 -17q0 -6 -30 -40q-73 -81 -191 -140q-61 -31 -107 -31q-84 0 -148 34t-64 112q0 44 57 205l162 452h248l-178 -473q-15 -35 -27 -67t-12 -65zM594 907l-166 207l-258 -207h-115l314 357h166
l163 -357h-104z" />
    <glyph glyph-name="idieresis" unicode="&#xef;" horiz-adv-x="606" 
d="M242 173q0 -32 26 -51t84 -20q57 -1 110 51q22 19 35 34t23 16q12 0 12 -17q0 -6 -30 -40q-73 -81 -191 -140q-61 -31 -107 -31q-84 0 -148 34t-64 112q0 44 57 205l162 452h248l-178 -473q-15 -35 -27 -67t-12 -65zM627 1192q55 0 94 -39t39 -94t-39 -94t-94 -39t-95 39
q-39 39 -38 94q0 55 38 94q40 39 95 39zM219 1192q55 0 94 -39t39 -94t-39 -94t-94 -39t-94 39t-39 94t39 94t94 39z" />
    <glyph glyph-name="eth" unicode="&#xf0;" horiz-adv-x="948" 
d="M217 174q0 -125 82 -125q84 0 184 168.5t172 420t76 460.5l-248 -78l-34 76l266 84q-20 86 -75.5 145t-161.5 59t-195.5 -80.5t-121.5 -117.5t-38 -37q-12 1 -12 21t41 68t157.5 134t257.5 86q270 0 369 -209l250 78l35 -76l-254 -80q18 -61 18 -146t-27.5 -204
t-107.5 -307t-259.5 -363.5t-379.5 -175.5q-117 0 -182.5 49.5t-65.5 179.5t68.5 240.5t167 190.5t209 124t192.5 44q16 0 31.5 -7.5t15.5 -15.5q0 -18 -22 -22q-154 -39 -281 -204t-127 -380z" />
    <glyph glyph-name="ntilde" unicode="&#xf1;" horiz-adv-x="1099" 
d="M702 -25q-200 0 -200 117q0 48 90 252q90 205 90 242q0 61 -64 61q-95 0 -221 -187q-31 -46 -72 -111t-143 -349h-231l266 778h246l-148 -370l4 -2q119 176 186 245q149 152 281 152q66 0 116 -35t50 -99t-92 -271q-92 -208 -92 -234q0 -74 84 -74q50 0 102 42
q20 16 36 28t24 12q10 0 10 -10t-28 -40q-72 -77 -182 -121q-62 -26 -112 -26zM831 950q-43 0 -88 17t-113 45q-69 28 -104 28q-63 0 -90 -90h-76q28 165 130 219q38 21 88 21t145 -44q94 -44 134 -44q73 0 104 90h75q-24 -157 -126 -219q-36 -23 -79 -23z" />
    <glyph glyph-name="ograve" unicode="&#xf2;" horiz-adv-x="909" 
d="M295 41q99 -1 199 229q40 92 62 184t22 127q0 105 -47 142q-17 14 -44 14q-88 0 -187 -223q-40 -90 -66 -185t-26 -132t7 -76q6 -39 30 -60q23 -20 50 -20zM-45 168q0 108 57 222q56 114 148 206t206 149t226 58q241 0 239 -219q0 -113 -63 -223q-62 -109 -156 -195
t-200 -138t-208 -52t-176 42t-73 150zM430 1276q61 0 98 -53l244 -316h-104l-260 183q-70 48 -70 102q0 34 31 58q31 26 61 26z" />
    <glyph glyph-name="oacute" unicode="&#xf3;" horiz-adv-x="909" 
d="M295 41q99 -1 199 229q40 92 62 184t22 127q0 105 -47 142q-17 14 -44 14q-88 0 -187 -223q-40 -90 -66 -185t-26 -132t7 -76q6 -39 30 -60q23 -20 50 -20zM-45 168q0 108 57 222q56 114 148 206t206 149t226 58q241 0 239 -219q0 -113 -63 -223q-62 -109 -156 -195
t-200 -138t-208 -52t-176 42t-73 150zM934 1174q0 -38 -32 -60t-56 -35l-299 -172h-96l280 303q60 66 123 66q36 0 58 -32t22 -70z" />
    <glyph glyph-name="ocircumflex" unicode="&#xf4;" horiz-adv-x="909" 
d="M295 41q99 -1 199 229q40 92 62 184t22 127q0 105 -47 142q-17 14 -44 14q-88 0 -187 -223q-40 -90 -66 -185t-26 -132t7 -76q6 -39 30 -60q23 -20 50 -20zM-45 168q0 108 57 222q56 114 148 206t206 149t226 58q241 0 239 -219q0 -113 -63 -223q-62 -109 -156 -195
t-200 -138t-208 -52t-176 42t-73 150zM797 907l-166 207l-258 -207h-115l313 357h166l164 -357h-104z" />
    <glyph glyph-name="otilde" unicode="&#xf5;" horiz-adv-x="909" 
d="M295 41q99 -1 199 229q40 92 62 184t22 127q0 105 -47 142q-17 14 -44 14q-88 0 -187 -223q-40 -90 -66 -185t-26 -132t7 -76q6 -39 30 -60q23 -20 50 -20zM-45 168q0 108 57 222q56 114 148 206t206 149t226 58q241 0 239 -219q0 -113 -63 -223q-62 -109 -156 -195
t-200 -138t-208 -52t-176 42t-73 150zM784 1102q75 0 105 90h76q-15 -95 -53 -146q-38 -52 -74 -74t-78 -22q-43 0 -88 17t-114 45q-70 28 -104 28t-57 -28t-32 -62h-76q42 237 219 240q51 0 142 -44q93 -44 134 -44z" />
    <glyph glyph-name="odieresis" unicode="&#xf6;" horiz-adv-x="909" 
d="M295 41q99 -1 199 229q40 92 62 184t22 127q0 105 -47 142q-17 14 -44 14q-88 0 -187 -223q-40 -90 -66 -185t-26 -132t7 -76q6 -39 30 -60q23 -20 50 -20zM-45 168q0 108 57 222q56 114 148 206t206 149t226 58q241 0 239 -219q0 -113 -63 -223q-62 -109 -156 -195
t-200 -138t-208 -52t-176 42t-73 150zM829 1192q55 0 95 -39t39 -94q0 -55 -39 -94q-38 -39 -94 -39t-95 39t-39 94t39 94t94 39zM422 1192q55 0 94 -39t39 -94t-39 -94t-94 -39t-94 39t-39 94t39 94t94 39z" />
    <glyph glyph-name="divide" unicode="&#xf7;" horiz-adv-x="1228" 
d="M487 83q0 46 33 76.5t77 30.5t76 -31.5t32 -74.5t-32 -77t-76 -34t-77 32t-33 78zM487 697q0 46 33 77t77 31t76 -32t32 -75t-32 -76.5t-76 -33.5t-77 31.5t-33 77.5zM205 311v156h778v-156h-778z" />
    <glyph glyph-name="oslash" unicode="&#xf8;" horiz-adv-x="909" 
d="M222 -25q-83 0 -132 17l-147 -174h-80l168 200q-76 45 -76 152t57.5 220.5t148.5 205.5t204.5 149.5t226.5 57.5q53 0 88 -10l133 159h90l-158 -186q86 -61 86 -178t-63 -226.5t-156.5 -195.5t-200 -138.5t-189.5 -52.5zM213 137q11 -96 82 -96q95 0 179 185.5t104 334.5
l-7 4zM487 737q-43 0 -88 -53t-101.5 -172.5t-80.5 -269.5l2 -4l348 421q-20 78 -80 78z" />
    <glyph glyph-name="ugrave" unicode="&#xf9;" horiz-adv-x="1062" 
d="M721 189q0 -52 28 -67t80 -16t112 54q24 20 39 36t24 17q10 0 10 -14t-60 -75t-146 -105q-87 -44 -135 -44q-113 0 -178 95q-15 23 -28 36l92 220l-4 6q-95 -166 -164 -230q-69 -65 -136 -96t-133 -31t-107 23q-40 23 -40 83t21 104q20 44 37 87l194 506h234l-182 -461
q-53 -126 -54 -161q0 -48 54 -50q73 0 152 93t124 217l141 362h224l-166 -454q-33 -83 -33 -135zM457 1276q61 0 98 -53l244 -316h-105l-260 183q-70 48 -70 102q0 34 32 58q30 26 61 26z" />
    <glyph glyph-name="uacute" unicode="&#xfa;" horiz-adv-x="1062" 
d="M721 189q0 -52 28 -67t80 -16t112 54q24 20 39 36t24 17q10 0 10 -14t-60 -75t-146 -105q-87 -44 -135 -44q-113 0 -178 95q-15 23 -28 36l92 220l-4 6q-95 -166 -164 -230q-69 -65 -136 -96t-133 -31t-107 23q-40 23 -40 83t21 104q20 44 37 87l194 506h234l-182 -461
q-53 -126 -54 -161q0 -48 54 -50q73 0 152 93t124 217l141 362h224l-166 -454q-33 -83 -33 -135zM961 1174q0 -38 -32 -60t-57 -35l-299 -172h-96l281 303q60 66 123 66q37 0 59 -32t21 -70z" />
    <glyph glyph-name="ucircumflex" unicode="&#xfb;" horiz-adv-x="1062" 
d="M721 189q0 -52 28 -67t80 -16t112 54q24 20 39 36t24 17q10 0 10 -14t-60 -75t-146 -105q-87 -44 -135 -44q-113 0 -178 95q-15 23 -28 36l92 220l-4 6q-95 -166 -164 -230q-69 -65 -136 -96t-133 -31t-107 23q-40 23 -40 83t21 104q20 44 37 87l194 506h234l-182 -461
q-53 -126 -54 -161q0 -48 54 -50q73 0 152 93t124 217l141 362h224l-166 -454q-33 -83 -33 -135zM823 907l-166 207l-258 -207h-114l313 357h166l164 -357h-105z" />
    <glyph glyph-name="udieresis" unicode="&#xfc;" horiz-adv-x="1062" 
d="M721 189q0 -52 28 -67t80 -16t112 54q24 20 39 36t24 17q10 0 10 -14t-60 -75t-146 -105q-87 -44 -135 -44q-113 0 -178 95q-15 23 -28 36l92 220l-4 6q-95 -166 -164 -230q-69 -65 -136 -96t-133 -31t-107 23q-40 23 -40 83t21 104q20 44 37 87l194 506h234l-182 -461
q-53 -126 -54 -161q0 -48 54 -50q73 0 152 93t124 217l141 362h224l-166 -454q-33 -83 -33 -135zM856 1192q55 0 94 -39t39 -94t-39 -94t-94 -39t-94 39t-39 94t39 94t94 39zM449 1192q55 0 94 -39t39 -94t-39 -94t-94 -39t-95 39q-39 39 -39 94t39 94q40 39 95 39z" />
    <glyph glyph-name="yacute" unicode="&#xfd;" horiz-adv-x="1062" 
d="M414 670l-21 -418q0 -82 8 -97q7 -15 35 -15t65 31q37 32 80 102q42 70 69 146q28 76 63 188q34 112 59 171h248q-51 -128 -96 -282q-106 -360 -239 -586t-383 -327q-109 -46 -220 -46q-112 0 -156 74q-16 27 -16 65q0 133 121 131q63 0 83 -28q19 -29 29 -64
q9 -35 23 -63t74 -29q119 0 260 331q32 76 73 176q40 101 54 132h-4q-19 -20 -55 -66q-165 -208 -212 -208q-86 0 -137 28t-51 76v490q0 84 -68 86q-45 0 -129 -68q-16 -12 -27 -12q-12 0 -12 13t30 46q73 81 183 129q59 27 119 27t104 -34q46 -34 46 -99zM500 907l280 303
q60 64 110 65t72 -31t22 -70t-33 -60q-32 -22 -56 -35l-299 -172h-96z" />
    <glyph glyph-name="thorn" unicode="&#xfe;" horiz-adv-x="985" 
d="M335 -25q-97 0 -159 48q-20 -61 -82.5 -229t-83.5 -273h-231l649 1937h229l-313 -891l4 -4q35 43 115 141.5t225 98.5q106 0 163.5 -56.5t57.5 -157.5t-52 -209t-135 -198t-186.5 -148.5t-200.5 -58.5zM291.5 96.5q45.5 -63.5 107.5 -63.5q100 0 184.5 225.5t84.5 345.5
q0 35 -30 63.5t-80 28.5t-106.5 -57t-102.5 -136t-74.5 -159t-28.5 -132t45.5 -115.5z" />
    <glyph glyph-name="ydieresis" unicode="&#xff;" horiz-adv-x="1062" 
d="M414 670l-21 -418q0 -82 8 -97q7 -15 35 -15t65 31q37 32 80 102q42 70 69 146q28 76 63 188q34 112 59 171h248q-51 -128 -96 -282q-106 -360 -239 -586t-383 -327q-109 -46 -220 -46q-112 0 -156 74q-16 27 -16 65q0 133 121 131q63 0 83 -28q19 -29 29 -64
q9 -35 23 -63t74 -29q119 0 260 331q32 76 73 176q40 101 54 132h-4q-19 -20 -55 -66q-165 -208 -212 -208q-86 0 -137 28t-51 76v490q0 84 -68 86q-45 0 -129 -68q-16 -12 -27 -12q-12 0 -12 13t30 46q73 81 183 129q59 27 119 27t104 -34q46 -34 46 -99zM891 1192
q55 0 94 -39t39 -94t-39 -94t-94 -39t-94 39t-39 94t39 94t94 39zM483 1192q55 0 95 -39t38 -94q0 -55 -38 -94t-94 -39t-95 39t-39 94t39 94t94 39z" />
    <glyph glyph-name="dotlessi" unicode="&#x131;" horiz-adv-x="606" 
d="M242 173q0 -32 26.5 -51.5t67.5 -19.5t72.5 15.5t53 35t35 35t24.5 15.5q11 1 11 -11t-30.5 -45.5t-119.5 -102.5t-192 -69q-72 0 -135 35.5t-63 110.5q0 38 57 205l162 452h248l-178 -473q-14 -35 -26.5 -67.5t-12.5 -64.5z" />
    <glyph glyph-name="Lslash" unicode="&#x141;" horiz-adv-x="1251" 
d="M407 1237.5q-11 19.5 -169 56.5l14 45q204 -8 410 -8q205 0 413 8l-12 -45q-234 -17 -286 -54.5t-102 -141.5t-140 -381l284 71l-51 -92l-262 -67q-90 -284 -127 -383t-37 -137.5t82 -38.5q172 0 259 17t95 28q23 27 128.5 166t289.5 280l29 -29q-159 -220 -199 -540
q-485 16 -1194 0l16 45q170 20 211.5 114.5t145.5 401.5l-236 -61l51 92l216 55q182 519 182 549t-11 49.5z" />
    <glyph glyph-name="lslash" unicode="&#x142;" horiz-adv-x="606" 
d="M246 168q0 -35 30.5 -52.5t66.5 -17.5t68.5 17.5t56.5 39t39 39t23 17.5q14 0 14.5 -14.5t-32.5 -50t-126 -103.5t-204 -68q-69 0 -125.5 39.5t-56.5 106.5q0 44 36 148t79 222.5t86 239.5l-211 -47l30 84l209 45q59 162 115.5 321.5t116.5 323.5h252q-98 -261 -217 -588
l211 45l-29 -79l-213 -48q-95 -255 -144 -380t-62 -165t-13 -75z" />
    <glyph glyph-name="OE" unicode="&#x152;" horiz-adv-x="1933" 
d="M895 1290q-92 0 -196.5 -59.5t-197.5 -173t-157.5 -278.5t-64.5 -354t56 -292.5t210 -103.5q119 0 168 49t92 174l287 842q14 47 14 86t-59.5 74.5t-151.5 35.5zM1561 0h-687q-126 0 -255.5 -20.5t-188.5 -20.5q-211 0 -328.5 117t-117.5 311t74.5 365.5t200.5 304.5
t291 214t347 81q76 0 151.5 -10.5t153.5 -10.5h465q128 0 248 8v-397l-37 -16q-124 190 -162 338l-313 12l-180 -551h86q102 6 165 28q64 22 116 91t91 141l43 -22q-61 -145 -106 -290t-96 -306l-47 10q10 72 10 133q0 60 -11.5 108t-60.5 52q-20 2 -27 2h-184l-176 -551
l191 -37q25 -4 56.5 -9t83.5 -13.5t92 -8.5q64 0 110 66q83 115 160 184.5t130 114.5l29 -29q-57 -92 -87 -193.5t-62 -203.5q-82 8 -168 8z" />
    <glyph glyph-name="oe" unicode="&#x153;" horiz-adv-x="1366" 
d="M1073 645q0 59 -65 59t-133 -98.5t-80 -197.5q94 13 186 82t92 155zM602 614q0 123 -94 123q-33 0 -85 -54t-135 -199.5t-83 -321.5q0 -81 26.5 -103t60.5 -22t77 32.5t94 109t95 213.5t44 222zM539 100q-167 -125 -328 -125q-122 0 -191 60t-69 161t61.5 212.5
t157.5 198.5t213.5 141.5t228.5 54.5q185 0 228 -160q66 57 144.5 108.5t156.5 51.5t117.5 -25.5t39.5 -95.5t-59 -128t-174.5 -117.5t-286.5 -88.5q-20 -58 -20 -90q0 -86 43 -121t121 -35t132 21.5t94 48.5t64.5 48.5t38.5 21.5t15 -23q0 -10 -47.5 -50t-177.5 -117
t-275 -77q-78 0 -137.5 25t-89.5 100z" />
    <glyph glyph-name="Scaron" unicode="&#x160;" horiz-adv-x="1138" 
d="M90 395q0 -55 25 -129q51 -150 168 -204t235 -15q189 63 189 252q0 70 -34 126q-55 91 -196 191q-140 100 -197 200q-34 60 -34 147t48 163t122 130q159 116 338 116t393 -106q-64 -149 -107 -392l-36 11q-13 219 -62 306q-61 109 -217 107q-89 0 -159 -63t-70 -147
q0 -83 34 -138q58 -96 196 -192t197 -204q33 -62 33 -160t-49 -180q-49 -83 -127 -140q-157 -115 -370 -115q-103 0 -251 53t-218 68q34 113 112 471l43 -14q-6 -87 -6 -142zM602 1774h103l174 -211l258 211h118l-317 -357h-170z" />
    <glyph glyph-name="scaron" unicode="&#x161;" horiz-adv-x="796" 
d="M131 150q0 -121 86 -121q99 0 145 83t54 283q2 45 6 92q-52 -43 -102 -88t-107 -82q9 -43 -13 -86t-65 -53q-4 -16 -4 -28zM715 844q0 -28 -24 -76q-24 -47 -26 -145q-3 -97 -9 -175t-55 -161q-102 -178 -274 -268q-85 -44 -149 -44q-179 0 -239 115q-38 73 -12 162
q26 88 90 123q34 18 74 18q41 0 61 -9t45 -32q77 64 225 207t211 232q4 6 13 19q9 14 25 38t23 24q21 0 21 -28zM283 1264h102l174 -211l258 211h119l-318 -357h-169z" />
    <glyph glyph-name="Ydieresis" unicode="&#x178;" horiz-adv-x="1290" 
d="M129 1339q188 -8 366 -8t336 8l-14 -45q-18 -6 -50 -10q-134 -17 -132 -82q0 -28 35 -127l102 -342q31 37 149 163t180 205q62 80 62 106t-21 39q-46 27 -104 34q-59 8 -94 14l14 45q152 -8 288 -8t263 8l-12 -45q-218 -149 -515 -430q-95 -90 -181 -182l-117 -369
q-16 -49 -28 -89t-13 -82q0 -42 71 -66t212 -39l-13 -45q-233 8 -443 8t-402 -8l8 45q110 16 186 42t98 91l166 481q-60 176 -108 327q-49 151 -86 222q-14 32 -82 61t-135 33zM1169 1702q55 0 95 -39t39 -94q0 -55 -39 -94q-38 -39 -94 -39t-95 39t-39 94t39 94t94 39z
M762 1702q55 0 94 -39t39 -94t-39 -94t-94 -39t-94 39t-39 94t39 94t94 39z" />
    <glyph glyph-name="Zcaron" unicode="&#x17d;" horiz-adv-x="1327" 
d="M875 1331q279 0 563 8l10 -36q-892 -881 -1239 -1237l274 8q297 11 320 28q69 56 143 114q269 214 328 239l31 -31q-163 -209 -261 -432q-294 8 -590 8t-599 -8l-9 45q177 191 594 608q418 418 623 633l-256 -8q-175 0 -250 -25q-12 -4 -98 -97q-167 -181 -303 -280
l-37 37q152 260 203 434q274 -8 553 -8zM670 1774h102l174 -211l258 211h119l-317 -357h-170z" />
    <glyph glyph-name="zcaron" unicode="&#x17e;" horiz-adv-x="948" 
d="M809 803q53 0 53 -49q0 -27 -19 -45q-19 -17 -50 -35t-70 -40t-80 -54l-367 -295q70 -6 119 -30q49 -23 89 -49t78 -46q101 -53 219 26q28 18 48 32q21 14 31 15q10 0 10 -13t-30 -53t-84 -83q-134 -109 -269 -109q-134 0 -227 80q-36 31 -60 56t-48 25t-37 -26
q-13 -24 -27 -55t-32 -55t-42 -25q-22 0 -50 8t-48 28q-20 21 -20 43t31 41q148 88 327 231l299 247l-4 5q-27 -8 -83 -8t-107 14q-50 14 -101 14t-89 -19t-66 -42t-46 -42t-28 -20q-15 -1 -15 17t36 69t92 105q140 136 253 137q69 1 126 -23t85 -36t56 -11q29 0 46 11
t48 35q30 24 53 24zM342 1264h102l174 -211l259 211h118l-317 -357h-170z" />
    <glyph glyph-name="florin" unicode="&#x192;" 
d="M979 1350q0 21 -7 42t-38 21q-49 0 -82 -81t-78 -267l-65 -274h249l-14 -66h-248l-190 -662q-66 -237 -125 -332.5t-123.5 -144.5t-155.5 -49t-139.5 30t-69 62.5t-20.5 80.5t32 85t75 37t90 -20q-21 -116 -21 -140q0 -69 55 -69q44 0 67.5 57t31.5 91t14 54l238 920
h-201l20 66h197l31 98q49 158 90 269.5t87 182t107.5 104.5t152.5 34t145.5 -46.5t54.5 -132.5q0 -113 -105 -112q-41 0 -69 12q14 129 14 150z" />
    <glyph glyph-name="circumflex" unicode="&#x2c6;" horiz-adv-x="606" 
d="M645 907l-166 207l-258 -207h-115l314 357h166l164 -357h-105z" />
    <glyph glyph-name="caron" unicode="&#x2c7;" horiz-adv-x="606" 
d="M186 1264h103l174 -211l258 211h119l-318 -357h-170z" />
    <glyph glyph-name="breve" unicode="&#x2d8;" horiz-adv-x="606" 
d="M446 907q-211 0 -236.5 126t-25.5 206h82q12 -188 192 -188t244 188h72q-17 -142 -103.5 -237t-224.5 -95z" />
    <glyph glyph-name="dotaccent" unicode="&#x2d9;" horiz-adv-x="606" 
d="M475 1192q55 0 94 -39t39 -94t-39 -94t-94 -39t-94 39t-39 94t39 94t94 39z" />
    <glyph glyph-name="ring" unicode="&#x2da;" horiz-adv-x="606" 
d="M362 1144q0 -48 34 -83t83 -35t85 35t36 83t-36 85t-85 37t-83 -37t-34 -85zM479 928q-45 0 -84 17.5t-68.5 46t-46 68.5t-16.5 85t16.5 85t46 69.5t68.5 47t84 17.5t85 -17.5t70 -47t47 -69.5t17 -85t-17 -85t-47 -68.5t-70 -46t-85 -17.5z" />
    <glyph glyph-name="ogonek" unicode="&#x2db;" horiz-adv-x="606" 
d="M-12 -246q0 -110 118 -110q57 0 191 104l33 -67q-72 -47 -153 -89.5t-166 -42.5t-127 30t-59.5 58.5t-17.5 69.5q0 153 156.5 224t376.5 112v-25q-208 -67 -280 -141t-72 -123z" />
    <glyph glyph-name="tilde" unicode="&#x2dc;" horiz-adv-x="606" 
d="M627 1102q79 0 110 90h76q-15 -94 -52.5 -145.5t-73.5 -74t-79 -22.5q-53 0 -158 45t-144 45q-38 0 -60.5 -28.5t-32.5 -61.5h-76q29 165 98.5 202.5t110.5 37.5q58 0 151 -44t130 -44z" />
    <glyph glyph-name="hungarumlaut" unicode="&#x2dd;" horiz-adv-x="606" 
d="M444 1350q42 0 71.5 -20.5t29.5 -54.5q0 -62 -72 -130l-250 -238h-84l187 346q49 97 118 97zM750 1350q41 0 70.5 -20.5t29.5 -54.5q0 -62 -72 -130l-250 -238h-84l187 346q50 97 119 97z" />
    <glyph glyph-name="endash" unicode="&#x2013;" 
d="M-102 311l36 156h1024l-36 -156h-1024z" />
    <glyph glyph-name="emdash" unicode="&#x2014;" horiz-adv-x="2048" 
d="M1483 467q183 0 237 123l37 -17q-29 -63 -48 -129.5t-38 -132.5h-1169q-129 0 -174 -41t-64 -82l-37 17q36 78 86 262h1170z" />
    <glyph glyph-name="quoteleft" unicode="&#x2018;" horiz-adv-x="454" 
d="M438 1101q0 -46 25.5 -61.5t73.5 -19.5q-80 -80 -125 -100.5t-74 -20.5q-125 0 -125 125q0 188 401 369l19 -45q-70 -30 -114 -78.5t-62.5 -85.5t-18.5 -83z" />
    <glyph glyph-name="quoteright" unicode="&#x2019;" horiz-adv-x="454" 
d="M342 1170q0 46 -25.5 61.5t-72.5 19.5q60 60 104.5 90.5t93.5 30.5q125 0 125 -125q0 -115 -128 -211.5t-273 -156.5l-19 45q124 60 159.5 130t35.5 116z" />
    <glyph glyph-name="quotesinglbase" unicode="&#x201a;" horiz-adv-x="454" 
d="M121 274q125 0 125 -124q0 -116 -125.5 -210.5t-276.5 -158.5l-18 45q70 30 132 98.5t62 131.5t-25.5 78.5t-72.5 19.5q120 120 199 120z" />
    <glyph glyph-name="quotedblleft" unicode="&#x201c;" horiz-adv-x="909" 
d="M475 1101q0 -46 25.5 -61.5t72.5 -19.5q-60 -60 -105.5 -90.5t-92.5 -30.5q-125 0 -125 125q0 188 401 369l19 -45q-70 -30 -114 -78.5t-62.5 -85.5t-18.5 -83zM893 1101q0 -46 25.5 -61.5t72.5 -19.5q-60 -60 -105.5 -90.5t-92.5 -30.5q-125 0 -125 125q0 188 401 369
l18 -45q-69 -29 -113 -78t-62.5 -86t-18.5 -83z" />
    <glyph glyph-name="quotedblright" unicode="&#x201d;" horiz-adv-x="909" 
d="M760 1170q0 46 -25.5 61.5t-72.5 19.5q60 60 104.5 90.5t93.5 30.5q125 0 125 -125q0 -115 -128 -211.5t-273 -156.5l-19 45q124 60 159.5 130t35.5 116zM342 1170q0 46 -25.5 61.5t-72.5 19.5q60 60 104.5 90.5t93.5 30.5q125 0 125 -125q0 -115 -128 -211.5
t-273 -156.5l-19 45q124 60 159.5 130t35.5 116z" />
    <glyph glyph-name="quotedblbase" unicode="&#x201e;" horiz-adv-x="909" 
d="M438 73q0 46 -25.5 61.5t-72.5 19.5q82 82 127 101t72 19q125 0 125 -124q0 -116 -127.5 -212t-274.5 -157l-18 45q71 30 114 78.5t61.5 85.5t18.5 83zM121 274q125 0 125 -124q0 -116 -125.5 -210.5t-276.5 -158.5l-18 45q70 30 132 98.5t62 131.5t-25.5 78.5
t-72.5 19.5q120 120 199 120z" />
    <glyph glyph-name="dagger" unicode="&#x2020;" 
d="M627 693q0 -65 24 -161q-187 -232 -278.5 -484.5t-132.5 -362.5h-50q183 535 195 858q84 92 141 170.5t80 171.5q-75 0 -124.5 -28t-76 -41t-63.5 -13q-104 0 -104 106q0 41 25.5 72t69.5 31t75.5 -12.5t90 -39t124.5 -26.5q28 78 28 160l-8 137q0 63 36 102t92 39
t83 -27.5t27 -68.5t-25 -74t-57.5 -68.5t-66.5 -80.5t-50 -119q61 0 120.5 26.5t86 39t51.5 12.5q78 0 101.5 -32t23.5 -77t-28.5 -72.5t-72.5 -27.5t-74 13t-85 41t-143 28q-35 -127 -35 -192z" />
    <glyph glyph-name="daggerdbl" unicode="&#x2021;" 
d="M762 1372q56 0 83 -27.5t27 -68.5t-24.5 -74t-57 -68.5t-66.5 -80.5t-50 -119q59 0 119.5 26.5t87 39t51.5 12.5q78 0 101.5 -32t23.5 -77t-29 -72.5t-73 -27.5t-73.5 13t-84.5 41t-144 28q-35 -128 -35 -192q0 -65 25 -161q-23 -25 -111.5 -113.5t-117.5 -228.5
q8 2 34 1q44 -2 117.5 39.5t120.5 41.5q104 0 105 -106q0 -41 -26 -72t-70 -31t-75.5 12.5t-92 39t-134.5 26.5q-37 -72 -37 -159l9 -138q0 -63 -36.5 -102t-92.5 -39t-82.5 27.5t-26.5 68.5t27.5 74t64.5 68.5t74 81t53 118.5q-60 0 -125 -26.5t-96 -39t-65 -12.5t-65.5 26
t-31.5 81q0 102 109 102q49 0 103 -27.5t94 -41t98 -13.5q34 124 34 191q0 68 -24 162q84 92 141.5 172t79.5 170q-75 0 -124.5 -28t-76 -41t-63.5 -13q-104 0 -105 106q0 41 26 72t70 31t75.5 -12.5t90 -39t123.5 -26.5q29 81 29 160l-8 137q0 63 35.5 102t91.5 39z" />
    <glyph glyph-name="bullet" unicode="&#x2022;" 
d="M511 997q137 0 235 -96.5t98 -236t-98 -236t-235 -96.5t-235 96.5t-98 236t98 236t235 96.5z" />
    <glyph glyph-name="ellipsis" unicode="&#x2026;" horiz-adv-x="2048" 
d="M1522 -8q-47 0 -86 29.5t-39 98.5t40 126t110 57t105.5 -36t35.5 -83t-11.5 -78.5t-31 -57t-48 -41t-75.5 -15.5zM840 -8q-47 0 -86 29.5t-39 98.5t40 126t110 57t105.5 -36t35.5 -83t-11.5 -78.5t-31 -57t-48 -41t-75.5 -15.5zM158 -8q-47 0 -86 29.5t-39 98.5t40 126
t110 57t105.5 -36t35.5 -83t-11.5 -78.5t-31 -57t-48 -41t-75.5 -15.5z" />
    <glyph glyph-name="perthousand" unicode="&#x2030;" horiz-adv-x="2048" 
d="M1694 552q0 120 -61 120q-116 0 -181.5 -237.5t-65.5 -297.5q0 -125 63 -125t131 126.5t91 260t23 153.5zM1680 721q87 0 130 -54.5t43 -134.5t-36.5 -181t-99 -187t-146.5 -143.5t-175 -57.5t-130 56.5t-39 136.5t38 178t100 184t145 144.5t170 58.5zM766 137
q0 -125 63 -125t132.5 131.5t90.5 260t21 153.5q0 115 -59 115q-117 0 -182.5 -236t-65.5 -299zM1060 721q87 0 130 -54.5t43 -134.5t-37 -181t-99.5 -187t-146.5 -143.5t-175 -57.5t-130 56.5t-39 136.5t38 178t100.5 184t145.5 144.5t170 58.5zM262 784q0 -125 63 -125
t117.5 103.5t90.5 242t36 199.5q0 115 -61 115t-132 -132.5t-92.5 -256t-21.5 -146.5zM556 1368q87 0 130 -54t43 -135t-37 -181.5t-99.5 -186.5t-146.5 -143.5t-175 -57.5t-130 56.5t-39 136.5t38 178t100.5 184t145.5 144.5t170 58.5zM1036 1368h99l-840 -1405h-94z" />
    <glyph glyph-name="guilsinglleft" unicode="&#x2039;" horiz-adv-x="569" 
d="M74 420q0 35 26.5 54.5t55.5 35.5l315 197l37 -33l-246 -271l82 -301l-31 -30l-192 254q-47 59 -47 94z" />
    <glyph glyph-name="guilsinglright" unicode="&#x203a;" horiz-adv-x="569" 
d="M397 358q0 -35 -26.5 -54t-55.5 -36l-315 -196l-37 32l246 271l-82 301l31 31l192 -254q47 -60 47 -95z" />
    <glyph glyph-name="fraction" unicode="&#x2044;" horiz-adv-x="342" 
d="M563 1368h121l-909 -1405h-117z" />
    <glyph glyph-name="trademark" unicode="&#x2122;" horiz-adv-x="2027" 
d="M877 1331h297l282 -579l303 579h252v-49q-74 -4 -91 -25.5t-17 -68.5v-541q0 -61 13 -73.5t91 -20.5v-49h-412v49q78 8 89.5 19.5t12.5 28.5t1 46v447h-4l-297 -590h-29l-281 588h-4v-396q0 -86 18.5 -112.5t88.5 -30.5v-49h-275v49q68 4 86.5 30.5t18.5 112.5v480
q-50 106 -143 106v49zM520 1280v-633q0 -29 1 -46t13.5 -28.5t90.5 -19.5v-49h-414v49q77 8 89.5 19.5t13.5 28.5t1 46v633h-92q-104 0 -133 -129h-49v180h754v-180h-50q-29 129 -133 129h-92z" />
    <glyph glyph-name="minus" unicode="&#x2212;" horiz-adv-x="1228" 
d="M205 311v156h778v-156h-778z" />
    <glyph glyph-name="fi" unicode="&#xfb01;" horiz-adv-x="1214" 
d="M844 186q0 -92 82 -92q96 0 145 50.5t53 50.5q14 0 15 -19q0 -6 -27 -39t-110.5 -97.5t-208.5 -64.5t-163 40t-38 85t33 138l155 454h-325q-122 -519 -222 -722t-195.5 -326t-223.5 -123q-53 0 -91 24.5t-38 76.5q0 108 96 108q45 0 61.5 -17.5t22.5 -40t11 -38t33 -15.5
t52.5 27.5t39.5 67.5t24 84t29 131t42.5 193.5t41 200t35.5 181.5t42 188h-186l26 86h187q65 272 259 482t443 210q151 0 197.5 -62t46.5 -112t-34 -85t-84 -35t-82 25.5t-32 76.5q0 18 8.5 35.5t14.5 36.5q-35 51 -123 51t-146.5 -46t-95 -113.5t-57 -145.5t-37.5 -144
l-41 -174h570l-164 -436q-41 -111 -41 -156z" />
    <glyph glyph-name="fl" unicode="&#xfb02;" horiz-adv-x="1251" 
d="M1059 1284q-49 117 -183 117q-123 0 -186.5 -104.5t-118.5 -307.5l-57 -211h234l-23 -86h-231q-57 -240 -162 -565q-44 -155 -189 -380.5t-297 -225.5q-129 0 -129 110q0 47 26 77t79 30t71.5 -31t22.5 -74q18 -6 43 -6t50.5 42t44 97.5t29.5 110.5t37 173t60.5 307.5
t75.5 334.5h-195l29 86h186q77 273 261.5 482.5t437.5 209.5q84 0 151.5 -28.5t74.5 -28.5q12 0 60 11.5t103 21.5l-381 -1049q-8 -23 -36.5 -96t-28.5 -135q8 -72 83 -72t134 52.5t65 52.5q14 1 14 -13t-31.5 -49t-122.5 -98.5t-206 -63.5q-76 0 -131 30t-55 93t55 215z
" />
  </font>
</defs>
</svg>
