<?xml version="1.0" standalone="no"?>
<!DOCTYPE svg PUBLIC "-//W3C//DTD SVG 1.1//EN" "http://www.w3.org/Graphics/SVG/1.1/DTD/svg11.dtd" >
<svg xmlns="http://www.w3.org/2000/svg">
<metadata>
Created by FontPrep 20130207 at Mon Feb  9 16:57:58 2015
 By Sang Noh
 The digitally encoded machine readable software for producing the  Typefaces licensed to you is copyrighted (c) 1989 Adobe Systems.  All rights reserved. This software is the property of Adobe Systems  Incorporated and its licensors, and may not be reproduced, used,  displayed, modified, disclosed, or transferred  without the express  written approval of Adobe.   The digitally encoded machine readable outline data for producing  the Typefaces licensed to you is copyrighted (c) 1981 Linotype AG  and/or its subsidiaries. All Rights Reserved.  This data is the property of Linotype AG and/or its subsidiaries  and may not be reproduced, used, displayed, modified, disclosed or  transferred without the express written approval of Linotype AG  and/or its subsidiaries. 
</metadata>
<defs>
<font id="89271942b7cfa95d1b52e7bc588a74ec" horiz-adv-x='1024' >
  <font-face 
    font-family="Cochin-Italic"
    font-weight="400"
    font-style="italic"
    font-stretch="normal"
    units-per-em="2048"
    panose-1="0 0 0 0 0 0 0 0 0 0"
    ascent="1536"
    descent="-512"
    x-height="770"
    cap-height="1339"
    bbox="-391 -479 2114 1815.02"
    underline-thickness="102"
    underline-position="-102"
    slope="-20"
    unicode-range="U+000D-FB02"
  />
<missing-glyph horiz-adv-x="454" 
 />
    <glyph glyph-name=".notdef" horiz-adv-x="454" 
 />
    <glyph glyph-name=".null" horiz-adv-x="0" 
 />
    <glyph glyph-name=".null" horiz-adv-x="0" 
 />
    <glyph glyph-name="nonmarkingreturn" unicode="&#xd;" horiz-adv-x="512" 
 />
    <glyph glyph-name="space" unicode=" " horiz-adv-x="454" 
 />
    <glyph glyph-name="exclam" unicode="!" horiz-adv-x="681" 
d="M226 0q-103 0 -103 111q0 54 34 98.5t84 44.5q103 0 103 -112q0 -54 -34 -98t-84 -44zM266 313q6 133 44 258t83 250t85 251t52 259h177q-10 -143 -71 -267t-131.5 -244t-135 -242.5t-82.5 -264.5h-21z" />
    <glyph glyph-name="quotedbl" unicode="&#x22;" horiz-adv-x="681" 
d="M274 1206q-18 166 63 166t64 -166l-32 -418q-2 -12 -5.5 -37.5t-26 -25.5t-25.5 25.5t-5 37.5zM598 725q-23 0 -26 25.5t-5 37.5l-32 418q-18 166 63 166t64 -166l-33 -418q-2 -12 -5 -37.5t-26 -25.5z" />
    <glyph glyph-name="numbersign" unicode="#" 
d="M367 815l-41 -299h268l41 299h-268zM889 432h-211l-62 -432h-94l60 432h-269l-59 -432h-96l61 432h-209l13 84h208l41 299h-209l13 84h209l59 432h96l-61 -432h268l62 432h94l-62 -432h213l-12 -84h-211l-43 -299h213z" />
    <glyph glyph-name="dollar" unicode="$" 
d="M420 1059q0 -108 96 -248l162 481q-110 0 -184 -62.5t-74 -170.5zM381 23q102 0 167.5 93.5t65.5 186.5q0 94 -35.5 165t-76.5 128l-191 -563q17 -10 70 -10zM102 461q0 -161 27.5 -264t130.5 -146l201 592q-80 102 -128 184t-48 170q0 156 123.5 245t281.5 89l64 189h57
l-63 -193q47 -14 96 -29.5t94 -44.5q-34 -96 -74 -284h-20q0 121 -19.5 200t-93.5 113l-174 -516q88 -114 140.5 -211t52.5 -187q0 -162 -119 -269t-260 -107l-72 2l-59 -180h-60l64 190l-244 74l82 383h20z" />
    <glyph glyph-name="percent" unicode="%" horiz-adv-x="1705" 
d="M1047 172q0 -152 96 -152q76 0 138 66t106.5 156t69 184t24.5 136q0 83 -22.5 127t-86.5 44t-126 -65.5t-106 -155.5t-68.5 -185.5t-24.5 -154.5zM1085 -20q-165 0 -165 180q0 92 43 199.5t114.5 199.5t166 153.5t198.5 61.5q166 0 166 -180q0 -92 -43 -199.5t-115 -200
t-166 -153.5t-199 -61zM1421 1331l-979 -1351h-86l981 1351h84zM737 1137q0 153 -96 153q-76 0 -138.5 -65.5t-106.5 -155.5t-68.5 -185.5t-24.5 -154.5q0 -151 96 -151q76 0 138.5 65.5t106.5 155.5t68.5 184t24.5 154zM342 537q-166 0 -166 180q0 92 43 199.5t115 199.5
t166 153.5t198 61.5q166 0 166 -180q0 -92 -43 -199.5t-114.5 -200t-166 -153.5t-198.5 -61z" />
    <glyph glyph-name="ampersand" unicode="&#x26;" horiz-adv-x="1781" 
d="M635 672q0 78 -46 78q-86 0 -162.5 -108.5t-86.5 -190.5q79 14 187 86.5t108 134.5zM1562 1360q-64 0 -65 -55q0 -23 14.5 -60t28.5 -57q-37 0 -75 11t-38 54q0 76 72 118t157 42t133 -51t48 -134t-41 -134.5t-106.5 -85t-144.5 -58t-156.5 -50.5t-143 -59.5
t-102.5 -88.5l4 -4q77 47 183 47t178.5 -64.5t72.5 -158.5t-45 -172t-156.5 -176.5t-425 -215.5t-558 -9.5t-244.5 285.5q0 100 58 198t141 172.5t174 119.5t149 45t95.5 -28.5t37.5 -81.5t-52.5 -96.5t-135 -84t-289.5 -110.5q-23 -71 -23 -137t46 -118t187 -116t416 2.5
t374.5 198.5t99.5 244t-57.5 166.5t-146.5 54.5t-140 -57t-64 -144h-21q0 102 84.5 214t204.5 163q53 23 234.5 85t181.5 251q0 63 -40 99t-104 36z" />
    <glyph glyph-name="quotesingle" unicode="'" horiz-adv-x="454" 
d="M370.5 725q-22.5 0 -25.5 25.5t-5 37.5l-33 418q-18 166 63 166t64 -166l-33 -418q-2 -12 -5 -37.5t-25.5 -25.5z" />
    <glyph glyph-name="parenleft" unicode="(" 
d="M244 297q0 184 74.5 366.5t200.5 334t291 261t345 146.5l-2 -25q-199 -53 -342 -191t-234.5 -320.5t-134.5 -387.5t-43 -406t71 -313t120 -155l-15 -21q-331 296 -331 711z" />
    <glyph glyph-name="parenright" unicode=")" 
d="M645 694q0 -184 -74.5 -366.5t-200.5 -334t-291 -261t-345 -146.5l2 25q199 53 342 191.5t234 320.5t134 387t43 406t-70.5 313t-119.5 155l14 21q332 -297 332 -711z" />
    <glyph glyph-name="asterisk" unicode="*" horiz-adv-x="1024" 
d="M870 1282q23 0 43.5 -20t20.5 -46t-21.5 -47.5t-52.5 -38t-64.5 -28.5t-58.5 -25l-12 17q75 188 145 188zM924 782q0 -27 -21.5 -47t-46.5 -20t-46.5 21.5t-37.5 52t-27.5 64.5t-21.5 56l12 15q189 -66 189 -142zM940 1061q78 0 78 -64q0 -23 -15.5 -43t-63.5 -20
t-175 55v21q47 12 92 31.5t84 19.5zM348 942q-78 0 -78 64q0 23 15.5 43t63.5 20t175 -55v-21q-47 -12 -92 -31.5t-84 -19.5zM631 631q-61 0 -61 68t61 182h16q16 -43 34.5 -89.5t18.5 -85.5q0 -75 -69 -75zM653 1372q61 0 61 -68t-61 -182h-16q-16 43 -34.5 88.5
t-18.5 85.5t19.5 58t49.5 18zM362 1223q0 23 22 43t46 20q45 0 73 -53t60 -141l-12 -15q-189 66 -189 146zM420 721q-24 0 -45 20.5t-21 46.5t21.5 47t52.5 37.5t64.5 28.5t58.5 25l12 -17q-51 -127 -85 -157.5t-58 -30.5z" />
    <glyph glyph-name="plus" unicode="+" horiz-adv-x="1024" 
d="M422 770h102v-334h332v-102h-332v-334h-102v334h-332v102h332v334z" />
    <glyph glyph-name="comma" unicode="," horiz-adv-x="454" 
d="M127 254q35 0 62.5 -24.5t27.5 -59.5q0 -231 -379 -473l-14 18q144 100 184.5 196.5t40.5 141.5t-18.5 72t-46.5 53q54 76 143 76z" />
    <glyph glyph-name="hyphen" unicode="-" horiz-adv-x="681" 
d="M341 321q-77 13 -148 13t-142 -35q10 29 23.5 62.5t23.5 70.5q2 6 33 12.5t55 6.5l187 -15q87 0 111 6.5t38.5 10.5t40.5 8l-57 -139q-88 -14 -165 -1z" />
    <glyph glyph-name="period" unicode="." horiz-adv-x="454" 
d="M100 0q-104 0 -104 111q0 54 34 98.5t84 44.5q103 0 103 -112q0 -54 -33.5 -98t-83.5 -44z" />
    <glyph glyph-name="slash" unicode="/" horiz-adv-x="569" 
d="M-82 -41l682 1413h105l-682 -1413h-105z" />
    <glyph glyph-name="zero" unicode="0" 
d="M672 1298q-136 0 -247.5 -199.5t-176 -461t-64.5 -418.5q0 -186 109 -186q135 0 246 200t176 462.5t65 432.5t-108 170zM758 1368q186 0 186 -244q0 -251 -114 -524.5t-286 -455t-337 -181.5q-92 0 -139.5 66.5t-47.5 186.5t31 258t113.5 337t255.5 378t338 179z" />
    <glyph glyph-name="one" unicode="1" 
d="M266 0q-138 0 -268 -8v28q113 18 150 34t59 73q203 516 294 798.5t91 295.5q0 27 -25.5 31.5t-60.5 4.5l-113 -10v29q207 25 404 92l14 -14q-32 -54 -239 -638.5t-207 -626.5q0 -43 83.5 -53.5t102.5 -15.5v-28q-147 8 -285 8z" />
    <glyph glyph-name="two" unicode="2" 
d="M-58 0q-47 0 -79 -8h-4l-9 33v4q116 130 378 347.5t355 324t139 195t46 190.5t-33 171.5t-134 69.5t-144 -100.5t-53.5 -150.5t-16.5 -62l-151 43q4 138 120 224.5t256 86.5q141 0 222 -84t81 -210t-48 -217t-126.5 -169t-179 -146.5t-203 -135t-197.5 -133t-165 -140.5
h500q71 0 109.5 35t96.5 131l17 -14q-87 -169 -119 -285h-658z" />
    <glyph glyph-name="three" unicode="3" 
d="M401 768q-39 0 -112 -45v20l569 449l-4 4h-383q-76 0 -120 -35t-59.5 -55.5t-25.5 -32.5l-28 4l155 254h604l15 -53l-494 -395q118 -12 179 -104t61 -204t-45 -194t-148.5 -172t-316 -158.5t-412.5 -87.5l-4 37q275 30 440.5 126.5t242.5 195t77 233.5q0 88 -48 150.5
t-143 62.5z" />
    <glyph glyph-name="four" unicode="4" 
d="M-31 453v20q235 263 581.5 596.5t426.5 333.5q10 0 19.5 -7.5t9.5 -15.5t-6.5 -32.5t-17.5 -69t-21 -72.5q-150 0 -244 -67.5t-148.5 -118t-92.5 -78.5q-57 -43 -172 -163t-187 -208h479l158 467l161 62q-155 -432 -370 -1100h-150l160 453h-586z" />
    <glyph glyph-name="five" unicode="5" 
d="M449 928q154 0 251 -91t97 -244t-88 -270.5t-220.5 -195.5t-289 -118t-291.5 -46v35q279 14 435.5 115.5t223 206t66.5 230.5q0 253 -223 253q-61 0 -102.5 -19.5t-86.5 -60.5l-22 16q59 129 107 260t100 263q-20 29 -27 69h221q16 -47 66 -76.5t114 -29.5t109 32.5
t96 90.5l27 -27q-143 -191 -350 -191q-59 0 -125 27t-103 74l-131 -326q68 23 146 23z" />
    <glyph glyph-name="six" unicode="6" 
d="M297 618q-88 -261 -88 -382t13.5 -155t33.5 -50.5t57 -16.5q120 0 219 214t99 366q0 68 -37 123t-122 55t-115 -30t-60 -124zM532 821q138 0 198.5 -80.5t60.5 -179.5q0 -100 -35 -200.5t-94.5 -188.5t-139.5 -148.5t-164 -60.5q-143 0 -211.5 112t-68.5 277
q0 166 73.5 345.5t202.5 324.5t305.5 239.5t378.5 106.5v-37q-226 -15 -405.5 -172t-267.5 -383q85 45 167 45z" />
    <glyph glyph-name="seven" unicode="7" 
d="M455 1192q-83 0 -108 -37t-41.5 -84t-45.5 -119h-29l105 379h684l6 -37q-187 -222 -401.5 -601.5t-305.5 -692.5h-167q93 340 377 699.5t384 492.5h-458z" />
    <glyph glyph-name="eight" unicode="8" 
d="M592 342q0 82 -46 174t-95 180q-186 -125 -226.5 -255t-40.5 -182q0 -97 45 -176t115 -79t116 27.5t74.5 73t43 100.5t14.5 137zM739 370q0 -179 -112.5 -293t-257.5 -114q-144 0 -240 87.5t-96 215.5q0 217 169 315.5t234 137.5q-43 70 -74.5 142.5t-31.5 158.5
q0 166 98 257t260 91q121 0 191.5 -76.5t70.5 -195.5t-103.5 -201.5t-246.5 -134.5q51 -94 95 -194t44 -196zM819 1126q0 96 -43 148.5t-127 52.5t-132 -72t-48 -157q0 -141 119 -318q102 51 166.5 150.5t64.5 195.5z" />
    <glyph glyph-name="nine" unicode="9" 
d="M344 742q0 -68 37 -123.5t121 -55.5t125.5 40t90 236.5t48.5 266.5q0 114 -20.5 163.5t-85.5 49.5q-66 0 -123.5 -67.5t-100.5 -160t-67.5 -187t-24.5 -162.5zM442 514q-133 0 -195.5 74t-62.5 180t35 207.5t96.5 188.5t147.5 145.5t170 58.5t129 -31.5t88 -105
t43 -209.5q0 -217 -77 -398.5t-280 -389t-628 -271.5l-21 41q237 40 431 187t294 368q-104 -45 -170 -45z" />
    <glyph glyph-name="colon" unicode=":" horiz-adv-x="454" 
d="M272 532q-104 0 -104 112q0 54 34 98t84 44q103 0 103 -111q0 -54 -33.5 -98.5t-83.5 -44.5zM100 0q-104 0 -104 111q0 54 34 98.5t84 44.5q103 0 103 -112q0 -54 -33.5 -98t-83.5 -44z" />
    <glyph glyph-name="semicolon" unicode=";" horiz-adv-x="454" 
d="M272 532q-104 0 -104 112q0 54 34 98t84 44q103 0 103 -111q0 -54 -33.5 -98.5t-83.5 -44.5zM127 254q35 0 62.5 -24.5t27.5 -59.5q0 -231 -379 -473l-14 18q144 100 184.5 196.5t40.5 141.5t-18.5 72t-46.5 53q54 76 143 76z" />
    <glyph glyph-name="less" unicode="&#x3c;" horiz-adv-x="1024" 
d="M848 -4l-750 326v102l750 350v-102l-655 -299l655 -277v-100z" />
    <glyph glyph-name="equal" unicode="=" horiz-adv-x="1024" 
d="M856 190h-766v103h766v-103zM856 479h-766v103h766v-103z" />
    <glyph glyph-name="greater" unicode="&#x3e;" horiz-adv-x="1024" 
d="M98 96l656 277l-656 299v102l750 -350v-102l-750 -326v100z" />
    <glyph glyph-name="question" unicode="?" horiz-adv-x="796" 
d="M222 0q-103 0 -103 111q0 54 34 98.5t84 44.5q103 0 103 -112q0 -54 -34 -98t-84 -44zM580 1335q-82 0 -122 -82t-57 -112q-26 0 -63 38.5t-37 62.5q0 44 93.5 87t152.5 43q115 0 186.5 -68.5t71.5 -161.5q0 -92 -31 -156t-79 -123.5t-199.5 -206t-200.5 -326.5h-21
q10 131 75 251.5t136.5 231.5t130 211t58.5 185q0 126 -94 126z" />
    <glyph glyph-name="at" unicode="@" horiz-adv-x="1638" 
d="M920 -41q-201 0 -346.5 66.5t-238.5 168t-138 219t-45 253.5t59 270.5t161.5 232t239 150.5t282.5 53t269 -46t213 -126t142.5 -190t52.5 -214q0 -204 -106 -359.5t-275 -155.5q-88 0 -135 54.5t-47 90.5h-4q-47 -71 -156.5 -122.5t-194 13.5t-84.5 220q0 53 24.5 136
t111.5 218t270 135q90 0 112.5 -44t32.5 -62l23 81h137l-133 -528q-15 -76 12 -101.5t79 -25.5t103.5 41t105.5 134.5t54 246.5q0 88 -40 185.5t-116.5 178t-189.5 134t-246 53.5q-266 0 -432 -186.5t-166 -520.5q0 -232 169 -407.5t438 -175.5q204 0 405 98l29 -53
q-100 -43 -206 -79t-226 -36zM709 538q0 -95 39.5 -134t83.5 -39q83 0 159.5 120t95.5 326q0 129 -88 129q-37 0 -87 -26.5t-95 -79t-76.5 -127t-31.5 -169.5z" />
    <glyph glyph-name="A" unicode="A" horiz-adv-x="1214" 
d="M801 193v380h-424q-96 -133 -167 -285.5t-71 -179.5t16.5 -42t40 -23t49 -12t44.5 -11v-28q-84 8 -223 8t-259 -8v28q103 22 157.5 73.5t128.5 161.5q73 109 125 189t274.5 401.5t437.5 526.5l47 -12v-1227q0 -70 59.5 -86t81.5 -27v-28q-79 8 -258 8t-276 -8v28
q129 31 163.5 56.5t44 52.5t9.5 64zM801 631v543q-184 -211 -393 -543h393z" />
    <glyph glyph-name="B" unicode="B" horiz-adv-x="1214" 
d="M969 1139q0 68 -49.5 113.5t-141.5 45.5q-39 0 -67 -12l-187 -516q225 0 335 74.5t110 294.5zM810.5 671q-100.5 58 -296.5 58l-211 -631q72 -66 201 -65q171 0 289 127t118 290t-100.5 221zM1141 1054q0 -132 -84.5 -197t-247.5 -101v-6q133 -12 214 -82t81 -200
t-57.5 -218t-143.5 -145.5t-187.5 -85t-189.5 -27.5l-256 4q-255 4 -348 -4l4 28q106 21 134 38.5t42.5 41t28.5 61.5t46 126t175.5 491.5t143.5 437.5t-19.5 48t-46.5 22t-54.5 11t-43.5 6l4 28l448 8q245 0 301 -105.5t56 -179.5z" />
    <glyph glyph-name="C" unicode="C" horiz-adv-x="1290" 
d="M1194 918q-22 401 -285 401q-175 0 -312.5 -145.5t-215.5 -358t-78 -379.5q0 -264 114.5 -321.5t200.5 -57.5q283 0 535 387l27 -18q-91 -178 -275.5 -322.5t-373.5 -144.5q-188 0 -304 123.5t-116 310.5q0 188 73.5 363.5t200.5 312.5t296 220t331 83t286 -61
q-33 -128 -84 -393h-20z" />
    <glyph glyph-name="D" unicode="D" horiz-adv-x="1366" 
d="M1147 883q0 212 -70 320t-229 108q-76 0 -154 -17q-277 -796 -409 -1222q71 -31 178 -31q172 0 300 80t213 207t128 282.5t43 272.5zM473 1219q0 48 -75 66t-146 26v20l145 4q53 2 114.5 4t161.5 7.5t206 5.5q217 0 338.5 -103.5t121.5 -333.5q0 -310 -141 -501
t-283.5 -290t-281 -111.5t-153.5 -12.5h-597l4 29q192 11 226 112q18 37 124.5 335t171 491.5t64.5 251.5z" />
    <glyph glyph-name="E" unicode="E" horiz-adv-x="1214" 
d="M766 0h-615q-119 0 -249 -8v22q63 18 116.5 36t74.5 61t57 137t93 251.5t146.5 430t89.5 291.5q0 48 -180 82v28h930q-6 -141 -6 -184t6 -184h-25q-58 67 -83 174.5t-31 132.5q-98 12 -122 12h-266l-204 -549q234 0 294 30t91.5 76t81.5 126h43q-134 -319 -207 -572h-39
q14 133 14 212t-41 79h-252l-200 -604q45 -4 223.5 -25.5t312.5 -21.5q74 96 148.5 184t162.5 160l17 -21q-47 -88 -82 -180t-72 -184q-156 8 -227 8z" />
    <glyph glyph-name="F" unicode="F" horiz-adv-x="1138" 
d="M315 126q0 -30 38 -48.5t87 -30.5t96.5 -18t65.5 -9v-28q-399 16 -694 0l4 28q117 26 144.5 41t41 34.5t28.5 63.5t48 136t164 466t131 416t-30.5 61t-72.5 31.5t-83 20.5t-60 13l4 28h996q-6 -65 -6 -191t6 -208h-25q-16 39 -33.5 66.5t-45 81.5t-48.5 198l-383 8
l-176 -532q111 0 178.5 5t113.5 24.5t81 57.5t80 103l16 -20q-130 -296 -186 -514h-23l6 129q0 61 -8 96t-36.5 53.5t-84 23.5t-151.5 5q-12 -45 -42 -133t-85.5 -258t-55.5 -200z" />
    <glyph glyph-name="G" unicode="G" horiz-adv-x="1402" 
d="M98 428q0 197 79 369t207 300t292 201.5t314 73.5t249.5 -27.5t185.5 -66.5l-120 -336h-25q-5 185 -68.5 283t-244.5 98t-338.5 -154t-247.5 -369t-90 -399q0 -276 116.5 -334.5t184.5 -58.5q260 0 309 166q4 14 19.5 63.5t45 144.5t29.5 110t-23.5 29t-54 23t-60.5 16
t-42 13v25q180 -10 283 -10t268 10v-25q-66 -10 -106.5 -25.5t-82 -74t-112.5 -340.5q55 -12 78 -10v-21q-63 -23 -129 -48t-233.5 -78.5t-366 11.5t-257.5 196.5t-59 244.5z" />
    <glyph glyph-name="H" unicode="H" horiz-adv-x="1478" 
d="M166 0q-134 0 -275 -8v33q118 21 152 40.5t61 90.5q42 97 143 384t162.5 473t61.5 222q0 35 -45 49t-113 27v28q140 -8 281 -8t289 8v-28q-101 -13 -152.5 -47.5t-91.5 -132.5q-97 -239 -156 -426h582q8 31 35.5 106.5t81 227t53.5 181.5t-18.5 45t-44 24t-53 13.5
t-48.5 8.5v28q148 -8 295 -8l279 8v-28q-100 -15 -183 -70q-51 -36 -231 -572t-180 -557q0 -40 72 -66t114 -26v-28q-136 8 -282 8t-302 -8v28q118 16 149.5 43t49.5 65t43 103l149 416h-581q-8 -34 -94 -278t-86 -267q0 -38 59 -60t90 -22v-28q-132 8 -266 8z" />
    <glyph glyph-name="I" unicode="I" horiz-adv-x="757" 
d="M186 0q-138 0 -274 -8v28q131 34 161 54.5t48 70.5t50 137t177.5 486t145.5 459q0 43 -58 63.5t-108 20.5v28q144 -8 289 -8q146 0 278 8l-6 -28q-111 -12 -140.5 -34t-47 -52.5t-35.5 -74.5t-51 -132t-175.5 -489t-142.5 -433t21.5 -43.5t51 -17.5t58.5 -9t41 -6v-28
q-145 8 -283 8z" />
    <glyph glyph-name="J" unicode="J" horiz-adv-x="1024" 
d="M858 1331q160 0 336 8v-28q-142 -15 -178.5 -61t-52 -92t-59.5 -168t-105.5 -314.5t-120.5 -356.5q-48 -128 -192 -244t-279 -116q-100 0 -174 58t-74 160q0 101 51 132t91 31t69 -25.5t29 -73.5t-43 -77t-86 -29q2 -72 37.5 -103.5t108.5 -31.5t132.5 63.5t104.5 151.5
t75.5 181t56.5 165q31 87 120.5 370t89.5 305q0 39 -88.5 57t-155.5 18v28q147 -8 307 -8z" />
    <glyph glyph-name="K" unicode="K" horiz-adv-x="1402" 
d="M481 1223q0 56 -192 88v28q168 -8 253 -8t349 8v-28q-96 -12 -152.5 -33t-74.5 -84l-195 -530l4 -5q512 346 607.5 454t95.5 130q0 36 -62.5 48.5t-114.5 19.5v28q140 -8 278.5 -8t276.5 8v-28q-196 -71 -416 -237.5t-311 -227.5q66 -223 153 -447.5t101 -255.5t39 -50
t54.5 -31.5t63.5 -20.5t67 -21v-28q-152 8 -296 8t-288 -8v28q16 6 44 14.5t75 25.5t47 49q0 47 -87 303t-116 336l-233 -156q-20 -57 -88 -243.5t-68 -246.5q0 -20 73.5 -41.5t83.5 -23.5l85 -17v-28q-346 16 -639 0v35q20 6 97.5 22t96.5 60q58 124 223.5 601t165.5 513z
" />
    <glyph glyph-name="L" unicode="L" horiz-adv-x="1175" 
d="M180 0q-160 0 -293 -8v28q113 27 162 62.5t82 126.5q12 33 43 117t69 192.5t77.5 227t95 284t55.5 187.5t-16.5 37.5t-41 25.5t-51 16.5t-45.5 14.5v28l328 -8q187 0 375 8v-28q-317 -31 -352 -115q-56 -133 -160.5 -432t-164.5 -480.5t-60 -208.5q0 -26 194 -26t320 23
q132 233 362 479l25 -19q-84 -121 -121 -260t-66 -280q-36 6 -65 6h-150z" />
    <glyph glyph-name="M" unicode="M" horiz-adv-x="1744" 
d="M289 -8q-132 8 -259 8t-190 -8l6 41q135 145 516 637.5t381 542.5q0 64 -106.5 79t-124.5 19v28q132 -8 225 -8q94 0 147.5 3t106.5 5q-54 -172 -126 -518.5t-124 -533.5l4 -4q162 197 272.5 336t188.5 237t179.5 233.5t119.5 171.5t29 78l201 -8q90 0 180 8v-28
q-162 -38 -187.5 -69.5t-34.5 -55.5t-42 -110.5t-180.5 -498.5t-147.5 -473q0 -45 195 -84v-28q-104 8 -274 8t-306 -8l6 28q39 12 100.5 27t90.5 78q39 85 90 233t88 253.5t93 270t116 304.5l-4 6q-212 -280 -428 -552.5t-377 -476.5t-172 -204q-17 1 -17 19t14.5 85.5
t108.5 473.5t123 614l-4 4l-342 -479q-342 -479 -342 -557q0 -63 96 -77.5t111 -21.5v-28z" />
    <glyph glyph-name="N" unicode="N" horiz-adv-x="1441" 
d="M114.5 0q-138.5 0 -278.5 -8v28q219 34 262 139q46 110 101 267.5t98 278t100.5 290.5t57.5 192q0 41 -75 79t-140 45l6 28l209 -8l188 8q94 -273 391 -1050h4q-27 -90 70.5 207t155 480.5t57.5 212.5q0 30 -25.5 52.5t-61.5 35.5t-73 20.5t-61 13.5v28l274 -8q4 0 248 8
v-28q-99 -21 -148.5 -59.5t-88.5 -125.5q-38 -87 -161 -437.5t-233 -708.5h-37q-245 703 -446 1183q-63 -183 -99 -295t-75 -233t-92.5 -289t-53.5 -201t22.5 -52t55.5 -32.5t67 -23.5t56 -17v-28q-136 8 -274.5 8z" />
    <glyph glyph-name="O" unicode="O" horiz-adv-x="1327" 
d="M289 317q0 -292 231 -292q172 0 303 183t207 425.5t76 392.5q0 293 -238 293q-166 0 -300.5 -187.5t-206.5 -427.5t-72 -387zM1214.5 1262q83.5 -110 83.5 -305t-123 -435t-320.5 -401.5t-416.5 -161.5q-253 0 -297.5 154.5t-44.5 249.5t32 212t89 230t137 216t232 227
t348 124q197 0 280.5 -110z" />
    <glyph glyph-name="P" unicode="P" horiz-adv-x="1138" 
d="M1004 1052q0 124 -73 179t-194 55q-15 0 -45 -6q-59 -168 -114.5 -337t-114.5 -341q232 4 386.5 115t154.5 335zM498 0h-303q-151 0 -293 -8v28q167 24 223.5 129.5t202 561.5t145.5 486t-24.5 47.5t-58.5 29.5t-66.5 21.5t-49.5 15.5v28q148 -8 293 -8l217 8
q164 0 284 -77t120 -227q0 -270 -209 -368t-526 -98q-6 -27 -29 -92t-46.5 -138t-43 -133t-19.5 -84t38 -43.5t87 -31.5t97.5 -18t68.5 -9v-28q-72 8 -108 8z" />
    <glyph glyph-name="Q" unicode="Q" horiz-adv-x="1327" 
d="M289 317q0 -292 231 -292q172 0 303 183t207 425.5t76 392.5q0 293 -238 293q-166 0 -300.5 -187.5t-206.5 -427.5t-72 -387zM1214.5 1262q83.5 -110 83.5 -305t-123 -435t-320.5 -401.5t-416.5 -161.5q-253 0 -297.5 154.5t-44.5 249.5t32 212t89 230t137 216t232 227
t348 124q197 0 280.5 -110zM190 -49q109 0 200 -21.5t258.5 -69.5t279.5 -48q192 0 358 145l19 -20q-270 -248 -586 -248q-76 0 -155 32.5t-158.5 71.5t-159.5 72t-151 33t-154 -29l-4 25q144 57 253 57z" />
    <glyph glyph-name="R" unicode="R" horiz-adv-x="1251" 
d="M997 1096q0 92 -66.5 146t-162.5 54q-41 0 -70 -6l-213 -608q14 0 37 1t61 2.5t93 13.5q54 13 113 46t106 82.5t74.5 113t27.5 155.5zM301 109q0 -29 21.5 -41.5t49 -21.5t54.5 -15t39 -11v-28q-126 11 -305.5 8.5t-251.5 -8.5l4 28q68 14 105.5 25.5t64 37t52.5 101.5
t54.5 158t84 238t133 388t77.5 255t-20.5 37t-48 23t-55 15.5t-42.5 12.5v28q114 -8 226 -8l241 8q274 0 342 -95t68 -187t-83 -225t-406 -164v-4q166 -50 209.5 -142.5t62.5 -294.5q12 -123 61 -162t185 -45l-2 -20l-166 -8q-150 0 -206.5 60t-68.5 212q-8 92 -17 164
t-38 120t-86 72.5t-166 24.5q-11 -46 -91.5 -276.5t-80.5 -259.5z" />
    <glyph glyph-name="S" unicode="S" horiz-adv-x="1138" 
d="M754 1315q-119 0 -183.5 -72t-64.5 -161t33.5 -144t85 -101t112 -89t145.5 -127t85 -230q0 -92 -47.5 -172t-163.5 -170t-295 -90q-119 0 -227.5 35t-217.5 74l95 430h24q0 -228 77.5 -355t291.5 -127q115 0 203 76t88 178q0 101 -34 165.5t-85 115.5t-111.5 95
t-145.5 121.5t-85 191.5q0 203 160.5 308t359.5 105q144 0 291 -78q-48 -142 -80 -348h-25q-14 255 -116 312t-170 57z" />
    <glyph glyph-name="T" unicode="T" horiz-adv-x="1290" 
d="M350 1339q183 -8 544 -8t542 8q-25 -227 -31 -360h-29q-72 127 -112 299h-279q-8 -29 -41 -123t-77 -221t-160.5 -461t-116.5 -350q0 -58 287 -103v-28q-92 8 -125 8h-291q-166 0 -338 -8v28q61 12 125.5 25.5t118.5 44.5q24 14 165 405t263 783h-301
q-102 -134 -279 -264l-20 14z" />
    <glyph glyph-name="U" unicode="U" horiz-adv-x="1441" 
d="M568 1331q150 0 304 8v-28q-92 -4 -146 -36t-81 -97q-58 -127 -136.5 -350.5t-125.5 -375t-47 -210.5q0 -110 77.5 -172t175.5 -62q97 0 174 29.5t175 119.5t249.5 559.5t151.5 495.5q0 25 -24.5 41.5t-58 27.5t-68.5 17.5t-55 12.5v28q140 -8 265 -8q124 0 238 8v-28
q-34 -4 -87 -26.5t-74 -55.5q-27 -47 -155.5 -358t-198.5 -465q-71 -155 -113.5 -219t-146.5 -146t-310 -82q-155 0 -271 93.5t-116 246.5q0 75 64.5 257.5t148.5 403t84 255.5t-36 60t-155 42v22q148 -8 298 -8z" />
    <glyph glyph-name="V" unicode="V" horiz-adv-x="1214" 
d="M508 1120v-923l4 -4q250 321 460 659t210 374t-96.5 58.5t-133.5 26.5v28l250 -8q1 0 197 8v-28q-61 -61 -277.5 -364.5t-422 -585t-312.5 -402.5l-51 12v1241q0 61 -64.5 77t-87.5 22v28q156 -8 310 -8l231 8v-28q-104 -15 -160.5 -52t-56.5 -139z" />
    <glyph glyph-name="W" unicode="W" horiz-adv-x="1896" 
d="M1061 750h6q47 70 104.5 143.5t107.5 141t85 122.5t35 79q0 62 -136 62q-122 0 -162 -66.5t-40 -285.5v-196zM897 1227q0 29 -38.5 54t-72.5 30v28q161 -8 434 -8t388 8v-28q-156 -137 -289 -305t-258 -326v-510h6q809 950 809 1073q0 37 -83 51.5t-105 16.5v28
q118 -8 224 -8t202 8v-28q-324 -354 -613 -700.5t-569 -651.5l-35 18v533q-119 -141 -234.5 -281.5t-246.5 -269.5l-45 14q6 200 6 588l-2 668q0 53 -162 82v28q118 -8 238 -8l260 8v-28q-61 -12 -113.5 -50t-52.5 -87q-4 -524 -4 -1008l2 -4l354 422v643z" />
    <glyph glyph-name="X" unicode="X" horiz-adv-x="1327" 
d="M134 0q-162 0 -298 -8v28q177 49 299.5 161t183.5 169l318 297l-164 576q-13 52 -114 70t-117 18v28q136 -8 233 -8h81q81 0 321 8v-28q-20 -4 -110.5 -16t-90.5 -79t47 -253.5t55 -212.5q6 6 42 40.5t86 84t105.5 106.5t103.5 109.5t79 92.5t31 57.5t-83.5 42
t-135.5 28.5v28q244 -8 307 -8q64 0 190 8v-28q-176 -129 -355 -289t-360 -313q41 -150 81 -298.5t94 -295.5q17 -47 91 -65.5t111 -29.5v-28q-96 8 -290 8t-291 -8v28q31 10 63.5 17.5t75.5 22t43 55.5q0 34 -55.5 246t-61.5 245q-14 -16 -53 -54t-211 -210t-172 -220
q0 -28 19.5 -42t47 -25.5t58.5 -18.5t55 -16v-28q-97 8 -259 8z" />
    <glyph glyph-name="Y" unicode="Y" horiz-adv-x="1290" 
d="M472 1331q150 0 306 8v-28q-186 -12 -186 -82q0 -38 64.5 -263t78.5 -274q18 20 59.5 63.5t220.5 236.5t179 232q0 51 -217 87v28l287 -8q1 0 221 8v-28q-519 -401 -733 -664q-18 -63 -92 -269.5t-74 -271.5q0 -33 78 -50t208 -36v-28q-24 8 -334 8t-429 -8v28
q173 25 212 46.5t57.5 50t37.5 78.5l166 456q-14 43 -39 125t-72 236.5t-94 224.5q-20 36 -106.5 54t-100.5 20v28q152 -8 302 -8z" />
    <glyph glyph-name="Z" unicode="Z" horiz-adv-x="1290" 
d="M960 1331q294 0 476 8v-28q-158 -169 -597 -603t-659 -659q168 2 337 5t337 20q112 124 184 183.5t207 137.5l17 -20q-154 -183 -252 -383q-140 8 -181 8h-387q-347 0 -487 -8l-10 47q309 313 615 622.5t614 624.5q-150 -2 -298.5 -3t-297.5 -5q-110 -168 -306 -332
l-22 17q104 182 182 376q234 -8 528 -8z" />
    <glyph glyph-name="bracketleft" unicode="[" 
d="M1145 1372l-19 -61h-372l-555 -1626h372l-24 -62h-541l598 1749h541z" />
    <glyph glyph-name="backslash" unicode="\" horiz-adv-x="569" 
d="M-20 1372l712 -1413h-102l-713 1413h103z" />
    <glyph glyph-name="bracketright" unicode="]" 
d="M-260 -377l18 62h373l555 1626h-373l25 61h541l-598 -1749h-541z" />
    <glyph glyph-name="asciicircum" unicode="^" horiz-adv-x="1024" 
d="M131 584l377 747h94l377 -747h-113l-311 616l-311 -616h-113z" />
    <glyph glyph-name="underscore" unicode="_" horiz-adv-x="1024" 
d="M0 -256v102h1024v-102h-1024z" />
    <glyph glyph-name="grave" unicode="`" horiz-adv-x="530" 
d="M141 1170q0 24 19.5 46.5t59.5 22.5t71 -45l219 -307h-64l-264 217q-23 18 -32 30t-9 36z" />
    <glyph glyph-name="a" unicode="a" horiz-adv-x="948" 
d="M662 61q28 0 57 17.5t53.5 38t43 38t29.5 17.5t11 -7t-27.5 -38t-110.5 -91.5t-192 -60.5q-37 0 -77.5 21.5t-40.5 61.5t28.5 96.5t45 88t24.5 50.5l-4 4q-74 -114 -195.5 -218t-226.5 -104q-63 0 -93 48.5t-30 121.5q0 72 33 150t108.5 183t223 211t231.5 106
q35 0 60.5 -22.5t35.5 -55.5q18 35 29 65h135q-47 -91 -106.5 -263.5t-95.5 -274t-36 -129.5q0 -27 29.5 -40.5t57.5 -13.5zM117 171q0 -50 26.5 -73.5t68.5 -23.5q78 0 161.5 87.5t128.5 186.5q6 16 23.5 53t47 111t29.5 92q0 40 -51.5 76.5t-86.5 36.5q-36 0 -53.5 -4
t-29.5 -13.5t-22.5 -23.5t-36.5 -49t-63.5 -92.5t-69 -121t-52 -128t-20.5 -114.5z" />
    <glyph glyph-name="b" unicode="b" horiz-adv-x="872" 
d="M139 148q0 -38 12.5 -54t42.5 -34.5t64 -18.5q66 0 127 68.5t109.5 162t78 188.5t29.5 140t-18.5 79t-57.5 34q-72 0 -141.5 -70t-123.5 -165t-88 -193.5t-34 -136.5zM640 795q56 0 95 -38t39 -123t-61.5 -204t-154.5 -220t-206.5 -168t-203.5 -67t-134.5 53.5
t-44.5 88.5q0 8 48.5 121t66.5 169t90 245.5t295 805.5h152q-45 -115 -161.5 -429t-191.5 -478l4 -4q124 159 218 203.5t150 44.5z" />
    <glyph glyph-name="c" unicode="c" horiz-adv-x="681" 
d="M395 729q-95 0 -158 -146.5t-82.5 -231.5t-19.5 -132q0 -162 158 -162q83 0 153 73t81.5 73.5t11.5 -13.5t-36 -49t-134 -100.5t-197 -65.5q-100 0 -154.5 65.5t-54.5 157.5t51.5 195t131 193t177 149.5t171.5 59.5t106.5 -38t32.5 -87t-20.5 -88t-63.5 -39q-84 0 -84 69
q0 28 31 54q-18 63 -101 63z" />
    <glyph glyph-name="d" unicode="d" horiz-adv-x="833" 
d="M236 41q125 0 230.5 208.5t167.5 469.5t62 353q0 358 -241 358q-143 0 -214 -73t-92.5 -106.5t-32.5 -33.5q-12 0 -12 10t25 47t109.5 110.5t234.5 73.5q184 0 275.5 -127t91.5 -335q0 -209 -110.5 -454.5t-274.5 -406t-303 -160.5q-90 0 -131 58.5t-41 151.5t36.5 180.5
t121.5 188t237 181t223 80.5q16 0 16 -10t-15 -15.5t-73 -25.5t-131 -81.5t-164.5 -191t-91.5 -290.5q0 -160 97 -160z" />
    <glyph glyph-name="e" unicode="e" horiz-adv-x="681" 
d="M113 225q0 -159 145 -159q106 0 168 58t80 72t24.5 22.5t15.5 8.5t9 -9t-37 -49t-143.5 -117t-239.5 -77q-86 0 -136 46.5t-50 138.5t57 204.5t141 208t182.5 159t180.5 63.5q98 0 98 -99q0 -118 -146 -196t-310 -117q-39 -76 -39 -158zM457 659q0 36 -18.5 45t-52.5 9
q-61 0 -124 -93.5t-96 -195.5q87 14 157 65.5t102 92.5t32 77z" />
    <glyph glyph-name="f" unicode="f" horiz-adv-x="569" 
d="M708 1458q50 0 65 -40t15 -70q0 -47 -53 -133t-90 -121l-12 2q8 47 18.5 93t10.5 82q0 89 -48 89q-104 0 -164.5 -282t-72.5 -308h194l-10 -49h-196q-18 -63 -49 -174t-180 -548t-408 -437q-39 0 -66 19.5t-27 53.5t20.5 58t50.5 24t45.5 -14t24.5 -30.5t16 -31t29 -14.5
t43 17.5t36.5 44t27.5 56.5t32 81t54.5 170t69.5 248t66.5 256t58.5 221h-174l6 49h182q21 93 78 213.5t103.5 197t97.5 138t103.5 100.5t102.5 39z" />
    <glyph glyph-name="g" unicode="g" horiz-adv-x="872" 
d="M139 177q0 -111 87 -111q86 0 153.5 78t96.5 134q32 64 82 190t50 154q0 45 -51 68t-104 23t-109.5 -64.5t-101.5 -152.5t-74 -178.5t-29 -140.5zM12 -438q62 0 118 40t104.5 103.5t87 142t71.5 157.5t58.5 148.5t46.5 112.5l-4 4q-43 -96 -160.5 -195.5t-218.5 -99.5
q-70 0 -102.5 43.5t-32.5 131.5t61 205.5t151.5 215t193.5 161t187 63.5q33 0 56.5 -12.5t50.5 -20.5l143 51q-43 -109 -88 -245t-130 -376t-185 -382q-142 -201 -280 -245t-192 -44q-89 0 -141.5 33.5t-52.5 84.5q0 52 22.5 82.5t63.5 30.5q105 0 105 -98q0 -19 -6 -70
q11 -22 73 -22z" />
    <glyph glyph-name="h" unicode="h" horiz-adv-x="948" 
d="M440 117q0 -22 14 -36.5t36 -14.5t47.5 32.5t47 77.5t38 91t26.5 73q-61 -29 -111.5 -79t-74 -86t-23.5 -58zM705 795q74 0 113.5 -52.5t39.5 -110.5t-19.5 -122t-70.5 -173t-162.5 -227t-222.5 -118q-41 0 -61.5 16.5t-20.5 72t124 146.5t237 154q36 94 36 219
q0 41 -17 66.5t-63 25.5q-156 0 -298 -229.5t-199 -462.5h-139l514 1458h157l-383 -1022l4 -4q226 363 431 363z" />
    <glyph glyph-name="i" unicode="i" horiz-adv-x="530" 
d="M483 1159q-94 0 -94 88q0 45 28.5 79t69.5 34q95 0 95 -88q0 -45 -29 -79t-70 -34zM174 145q0 -39 27.5 -57t62.5 -18t71 22.5t65.5 50t51 50t30.5 22.5q10 0 10 -11t-32 -48t-120 -109t-184 -72q-54 0 -104 32t-50 87q0 22 97.5 285.5t148.5 415.5h158
q-16 -57 -55.5 -149.5t-78.5 -190t-68.5 -184.5t-29.5 -126z" />
    <glyph glyph-name="j" unicode="j" horiz-adv-x="493" 
d="M504 1159q-94 0 -94 88q0 45 28.5 79t69.5 34q94 0 94 -88q0 -45 -28.5 -79t-69.5 -34zM-282 -477q-46 0 -77.5 20.5t-31.5 58.5t20.5 62.5t55 24.5t49 -12.5t22.5 -28t16.5 -27.5t26.5 -12q32 0 70 51t58 91q19 40 47 117t58.5 174t63.5 205.5t61.5 210t53.5 186.5
t39 134h153q-33 -106 -134 -450.5t-242 -554.5q-104 -163 -183.5 -206.5t-125.5 -43.5z" />
    <glyph glyph-name="k" unicode="k" horiz-adv-x="985" 
d="M731 795q72 0 101.5 -32.5t29.5 -80.5t-4 -84l-123 -23q-10 72 -20 90.5t-28.5 29t-51.5 10.5t-65.5 -14.5t-64.5 -36t-61.5 -45t-54.5 -42.5q79 -227 161.5 -384.5t211.5 -157.5q45 0 73.5 15t35.5 15t7 -10q1 -21 -79.5 -45.5t-153.5 -24.5t-132.5 49.5t-101.5 124
t-70 160.5t-54 160l-37 -29q-37 -117 -78 -223t-70 -217h-139l510 1458h154q-92 -248 -181.5 -491.5t-187.5 -483.5l4 -4q41 37 94.5 90.5t114.5 103.5t124.5 86t135.5 36z" />
    <glyph glyph-name="l" unicode="l" horiz-adv-x="530" 
d="M162 131q0 -57 90 -57t153.5 55t69.5 55t6 -8t-34.5 -41t-131 -96.5t-161.5 -63.5q-64 0 -108 33t-44 88q0 19 179.5 538t273.5 824h153q-14 -47 -54 -156.5t-89 -250t-102.5 -293t-127 -366.5t-73.5 -261z" />
    <glyph glyph-name="m" unicode="m" horiz-adv-x="1478" 
d="M1112 133q0 -59 74 -59q63 0 126.5 66.5t73.5 66.5t11 -8q0 -8 -28 -40t-108.5 -99.5t-177.5 -67.5q-47 0 -90 29.5t-43 80.5q0 25 31 99.5t99.5 236t68.5 199.5q0 76 -83 76q-42 0 -96.5 -40t-122.5 -129.5t-143.5 -255t-113.5 -288.5h-144q12 53 46 141t97.5 256.5
t63.5 237.5q0 78 -80 78q-131 0 -254.5 -227t-164.5 -339t-50 -147h-133l252 770h152l-133 -358l4 -4q41 63 145 225t311 162q51 0 81 -33t30 -70t-14.5 -82t-34 -95t-38.5 -97t-28 -72l4 -4q43 70 88.5 149.5t136 191.5t259.5 112q47 0 85 -33t38 -76t-31 -123t-67.5 -166
t-67.5 -158.5t-31 -105.5z" />
    <glyph glyph-name="n" unicode="n" horiz-adv-x="985" 
d="M862 141q10 0 10 -9t-26.5 -31.5t-98.5 -65.5t-135 -43q-147 0 -147 96q0 53 68.5 204.5t99.5 228.5t31 114q0 70 -72 70t-146.5 -77t-173.5 -244t-163 -384h-138q59 195 124 385t130 385h156l-143 -389l4 -4q78 147 158.5 237.5t148 135.5t129.5 45t110 -28t48 -77
q0 -68 -99.5 -290.5t-99.5 -260.5q0 -37 20.5 -53t48.5 -16t52 11t44.5 24.5t35 24.5t24.5 11z" />
    <glyph glyph-name="o" unicode="o" horiz-adv-x="796" 
d="M434 729q-88 0 -157 -107.5t-112.5 -253.5t-43.5 -227q0 -117 115 -116q89 0 157 108t112 255.5t44 223.5q0 117 -115 117zM709 597q0 -93 -52.5 -204.5t-134.5 -204t-184 -153t-204 -60.5t-137.5 53.5t-35.5 145.5t60.5 203.5t147.5 204t186 153t191 60.5t127.5 -52.5
t35.5 -145.5z" />
    <glyph glyph-name="p" unicode="p" horiz-adv-x="872" 
d="M597 795q93 0 135 -60.5t42 -151.5t-56 -201t-139 -200t-178.5 -148.5t-173.5 -58.5q-35 0 -59.5 9.5t-56.5 19.5l-168 -483h-146q35 94 86 240.5t110.5 315.5t122 347t120.5 334h143q-50 -122 -80 -193l4 -4q76 116 138.5 175t155.5 59zM614 600q0 109 -112 109
q-84 0 -172.5 -135.5t-124 -265.5t-35.5 -144q0 -53 40 -92t89 -39t90 32.5t91.5 110.5t92 213t41.5 211z" />
    <glyph glyph-name="q" unicode="q" horiz-adv-x="872" 
d="M139 168q0 -107 97 -107q106 0 246 209q32 47 65 148.5t80 230.5q-16 35 -53 61.5t-88 26.5t-116 -68.5t-116 -161.5t-83 -188.5t-32 -150.5zM121 -25q-141 0 -141 150q0 106 60 224t155.5 217.5t210 164t214.5 64.5t179 -66q-106 -305 -219 -602t-215 -606h-150
q164 441 270 702l-4 4q-59 -87 -170.5 -169.5t-189.5 -82.5z" />
    <glyph glyph-name="r" unicode="r" horiz-adv-x="720" 
d="M505 696q-48 0 -91 -42t-94 -125.5t-113 -246t-96 -282.5h-140l252 770h152l-113 -297l4 -4q88 152 131 204t92.5 87t106.5 35t93 -34t36 -105t-36.5 -97.5t-66.5 -26.5t-51.5 20.5t-21.5 51.5t24 72q-20 20 -68 20z" />
    <glyph glyph-name="s" unicode="s" horiz-adv-x="720" 
d="M115 259q0 -26 -27 -50.5t-61 -36.5q0 -139 133 -139q90 0 148 68.5t69 156.5q12 88 15 164t11 151l-292 -280q4 -8 4 -34zM613.5 850q9.5 0 9.5 -19q0 -4 -23 -54t-34 -86t-12 -99.5t-7 -147.5t-55.5 -170t-117 -151.5t-143 -106.5t-150.5 -41t-124 49.5t-49 154.5
t42 141t75 36t47 -10t32 -29q190 176 283.5 285t132 155t52.5 60t23 23.5t18.5 9.5z" />
    <glyph glyph-name="t" unicode="t" horiz-adv-x="606" 
d="M166 129q0 -72 67 -72q56 0 106 35t67.5 51.5t19.5 16.5q12 0 12 -10t-30.5 -39t-114 -82.5t-147.5 -53.5t-104 30t-40 87q0 13 40 130.5t71.5 215t67.5 202.5t72 214t69 207l157 39l-112 -330h260l-13 -49h-264q-12 -47 -98 -291t-86 -301z" />
    <glyph glyph-name="u" unicode="u" horiz-adv-x="985" 
d="M637 113q0 -35 21.5 -45.5t52 -10.5t65.5 19.5t63.5 44t48 44t25.5 19.5q7 0 7 -6t-27 -37.5t-106.5 -98.5t-196.5 -67q-67 0 -93 34t-26 50q0 24 48.5 152.5t58.5 148.5l-5 5q-53 -122 -200.5 -256t-259.5 -134q-51 0 -85 25t-34 73t27.5 130t66.5 180t81 200.5
t71 186.5h151q-18 -51 -56 -142t-103.5 -255.5t-65.5 -215.5t19.5 -67t53.5 -16q62 0 178.5 105.5t185.5 288.5t116 302h151q-233 -583 -233 -657z" />
    <glyph glyph-name="v" unicode="v" horiz-adv-x="757" 
d="M78 432q0 72 28.5 140.5t66.5 117.5t76 77t55 28t18 -15q0 -10 -17.5 -22.5t-54.5 -61t-37 -160.5t19.5 -206t29.5 -189q49 43 165 139t116 265q0 47 -14.5 92t-14.5 83t21.5 58.5t48.5 20.5q63 0 86.5 -40t23.5 -115q0 -122 -122 -251.5t-218 -208.5
q-127 -114 -179.5 -169.5t-57.5 -55.5q-14 0 -15 25l4 49q0 113 -14 220t-14 179z" />
    <glyph glyph-name="w" unicode="w" horiz-adv-x="1138" 
d="M90 435q0 87 32 153.5t71.5 113t76.5 70t45 23.5q14 0 15 -15q0 -12 -54.5 -43t-54.5 -213q0 -72 13.5 -160t20.5 -140t13 -87l191 187q-4 23 -4 30v82q0 146 71.5 231t108.5 110.5t50 25.5t13 -10.5t-56 -50t-56 -191.5q0 -115 18.5 -210t22.5 -196q140 109 216.5 202.5
t76.5 209.5q0 47 -17.5 90t-17.5 77t24.5 56.5t46.5 22.5q43 0 79 -39.5t36 -108.5t-44 -139t-110.5 -141.5t-143.5 -139t-123 -108.5q-65 -58 -108 -113t-55 -55q-10 0 -10 16l6 113q-2 51 -7 102.5t-9 98.5q-200 -167 -270 -248.5t-78 -81.5t-8 16l6 113q0 88 -13.5 174
t-13.5 173z" />
    <glyph glyph-name="x" unicode="x" horiz-adv-x="1062" 
d="M760 721q-73 0 -140 -96t-75 -138q47 -358 101 -385.5t88 -27.5t65.5 17.5t55.5 36.5t39 36.5t21 17.5q30 0 -4 -40t-111.5 -103.5t-152.5 -63.5q-45 0 -74.5 7.5t-58 49.5t-63.5 265q-65 -112 -138 -182t-129 -105t-122 -35t-106 52.5t-40 132.5t43 108.5t74 28.5
t56.5 -21.5t25.5 -54.5t-13.5 -48t-35.5 -26q-3 -11 -3 -37t24.5 -43.5t64.5 -17.5q75 0 159 96t131 187q-33 243 -67.5 295.5t-63 60.5t-68.5 8t-68 -17t-46 -39t-29.5 -39t-19.5 -17t-8 13t24.5 46t95.5 92.5t162 59.5q41 0 69 -7.5t55 -44t57 -219.5h4q49 112 101 164.5
t97 79.5t97 27q135 0 135 -136q0 -41 -19.5 -79.5t-60.5 -38.5t-62.5 20.5t-21.5 53.5t33 87q-38 19 -78 19z" />
    <glyph glyph-name="y" unicode="y" 
d="M213 795q127 0 127 -100q0 -46 -9 -151.5t-9 -235.5t12 -157.5t53 -27.5t78 40t70.5 102.5t64.5 138t56.5 147.5t46 131t32.5 88h148q-53 -117 -96.5 -239.5t-142 -389t-227 -390t-216 -156.5t-131.5 -33q-81 0 -136 32t-55 86q0 95 98 95q43 0 60.5 -22.5t29 -49.5
t27.5 -49.5t62 -22.5q92 0 151.5 83t129 255t104.5 252l-4 4q-157 -225 -242 -225q-61 0 -85 27.5t-24 109.5l11 377q0 118 -13.5 143t-31 30t-46.5 5t-50 -13t-37.5 -29.5t-29 -30t-19.5 -13.5t-7 8t23.5 37t89 86.5t137.5 57.5z" />
    <glyph glyph-name="z" unicode="z" horiz-adv-x="833" 
d="M760 795q37 0 37 -33q0 -36 -118 -114q-118 -79 -229.5 -188.5t-226.5 -215.5q49 -6 89 -32t80 -52.5t82 -48t87 -21.5t83 21.5t69.5 47t53 47t27.5 21.5t7 -9q0 -9 -32 -44t-120 -108.5t-188 -73.5q-59 0 -103.5 25.5t-81.5 55.5t-68.5 54.5t-68.5 24.5t-52 -25
t-25.5 -55.5t-26 -55t-51.5 -24.5q-88 0 -88 37q0 22 43 52t68.5 46t77.5 53t144.5 117t169 150.5t129 120.5t60.5 55l-4 4q-27 -6 -65 -6t-103 13t-117 13q-53 0 -101 -28.5t-82 -64.5t-54.5 -64.5t-27.5 -28.5t-7 10t37.5 57t137 144.5t191.5 97.5q59 0 133 -30t99 -29
q24 0 42.5 13t35 28.5t31 29t26.5 13.5z" />
    <glyph glyph-name="braceleft" unicode="{" 
d="M477 377q0 -61 -33 -154l-120 -354q-12 -35 -22.5 -64.5t-10.5 -70.5q0 -96 78 -123l-9 -25q-107 0 -148.5 22.5t-57 54.5t-15.5 79t9.5 76.5t19.5 62.5l129 375q29 80 29 127q0 80 -95 113q136 39 172.5 113.5t55.5 125.5l129 375q63 181 151 238t242 57l-8 -25
q-82 -23 -133.5 -85t-87.5 -173l-121 -354q-37 -113 -78 -162t-83 -71.5t-101 -36.5v-4q108 -29 108 -117z" />
    <glyph glyph-name="bar" unicode="|" horiz-adv-x="454" 
d="M176 1458h103v-1458h-103v1458z" />
    <glyph glyph-name="braceright" unicode="}" 
d="M408 614q0 61 32 154l121 354q12 35 22.5 65t10.5 70q0 96 -78 123l8 25q109 0 150 -22.5t56 -54.5t15 -79t-9 -76.5t-19 -62.5l-129 -375q-29 -80 -29 -127q0 -80 94 -112q-136 -39 -172.5 -114t-54.5 -126l-129 -375q-63 -180 -151 -237.5t-242 -57.5l8 25
q82 23 133 85t88 173l121 354q39 118 79 164.5t82 69t101 37.5v4q-108 29 -108 116z" />
    <glyph glyph-name="asciitilde" unicode="~" horiz-adv-x="1024" 
d="M246 403q-68 0 -108 -47t-64 -100l-74 74q58 119 131.5 147.5t140.5 28.5t211 -66q57 -25 112.5 -49t106.5 -24t93.5 47t76.5 100l74 -74q-57 -82 -113.5 -129t-144.5 -47t-207 70q-120 70 -235 69z" />
    <glyph glyph-name="exclamdown" unicode="&#xa1;" horiz-adv-x="681" 
d="M456 893q103 1 103 -111q0 -54 -34 -98.5t-84 -44.5q-103 0 -103 111q0 54 34 98.5t84 44.5zM416 580q-6 -133 -44 -258t-83 -250t-85 -251t-52 -259h-177q10 143 70.5 267t131.5 244t135.5 242.5t82.5 264.5h21z" />
    <glyph glyph-name="cent" unicode="&#xa2;" 
d="M195 280q0 -150 84 -190l221 647q-82 0 -140.5 -50t-111.5 -153.5t-53 -253.5zM618 586q0 37 39 61q-10 45 -36.5 61.5t-61.5 20.5l-227 -655q18 -8 78 -8t115 25.5t92.5 56t60 56t36.5 25.5t13.5 -14t-38.5 -50t-140 -104.5t-213 -68.5q-23 0 -33 2l-63 -184l-54 16
l60 174q-96 4 -151.5 81.5t-55.5 174.5q0 189 143 340t334 188l66 191l59 -14l-59 -166q133 -8 168.5 -63.5t35.5 -96.5t-20.5 -79t-67.5 -38q-80 0 -80 68z" />
    <glyph glyph-name="sterling" unicode="&#xa3;" 
d="M784 1368q98 0 161 -49t63 -156q0 -53 -30 -97t-68 -44t-65.5 19.5t-27.5 57.5t23.5 57.5t56.5 23.5q9 155 -131 155q-211 0 -265.5 -296t-62.5 -339h264l-14 -49h-260q-33 -166 -131 -301t-240 -225l4 -6h457q83 0 131.5 42t128.5 136l17 -12q-88 -139 -160 -293
q-504 18 -748 -2h-4l-4 41v4q188 96 279.5 251.5t122.5 364.5h-158l14 49h154q16 106 43.5 224t119.5 281t330 163z" />
    <glyph glyph-name="currency" unicode="&#xa4;" 
d="M174 665.5q0 -127.5 92 -223.5t220 -96t219.5 96t91.5 223.5t-92 223.5t-219.5 96t-219.5 -96t-92 -223.5zM63 677q0 154 95 249l-95 96l66 65l94 -92q108 92 262 92t263 -92l94 92l65 -65l-92 -90q92 -107 92 -261t-90 -268l90 -94l-65 -65l-88 98q-113 -98 -270.5 -98
t-266.5 98l-88 -98l-66 65l93 97q-93 117 -93 271z" />
    <glyph glyph-name="yen" unicode="&#xa5;" 
d="M358 1331q113 0 230 8v-28q-16 -6 -40 -9.5t-61.5 -15t-37.5 -65.5q0 -30 7 -65l48 -226q41 -189 51 -238q342 489 342 531q0 43 -77 64.5t-87 23.5v28l215 -8l164 8v-28q-217 -203 -477 -574h246l-13 -49h-268l-35 -47l-35 -141h316l-12 -49h-316l-65 -269
q-9 -36 -9 -64t27 -45.5t62.5 -26.5t71.5 -14t54 -12v-28q-147 8 -293 8t-278 -8v28q41 8 113.5 22t91.5 91l92 318h-268l12 49h268l37 141l-8 47h-274l12 49h254q-81 413 -123 489q-33 60 -160 85v28q110 -8 223 -8z" />
    <glyph glyph-name="brokenbar" unicode="&#xa6;" horiz-adv-x="454" 
d="M176 1458h103v-563h-103v563zM176 563h103v-563h-103v563z" />
    <glyph glyph-name="section" unicode="&#xa7;" horiz-adv-x="1024" 
d="M475 805q-75 0 -122.5 -47.5t-47.5 -95.5t27.5 -115.5t70.5 -132t96.5 -111.5t96.5 -47q75 0 122.5 47t47.5 95t-27.5 116t-70.5 132.5t-96.5 111.5t-96.5 47zM446 1077q0 154 90.5 224.5t214.5 70.5t180 -32.5t80.5 -68.5t24.5 -90t-31 -90t-81 -36t-71.5 25.5
t-21.5 59.5t12.5 52t26 31.5t25.5 23t12 25.5q0 58 -145 59q-66 0 -129.5 -50t-63.5 -133t51.5 -156.5t113 -150.5t112.5 -159t51 -172q0 -135 -69.5 -219t-209.5 -84q-62 0 -87 15l-3 -3q35 -41 66 -106t31 -133q0 -143 -95.5 -225.5t-250.5 -82.5q-109 0 -189 58t-80 164
q0 49 29 83.5t82 34.5q94 0 94 -94q0 -59 -46 -88.5t-46 -47.5q0 -36 56.5 -52.5t101.5 -16.5q84 0 152.5 56t68.5 134q0 77 -51.5 152.5t-113 157.5t-112.5 170.5t-51 196.5t61.5 191t186.5 83q63 0 121 -20l4 4q-101 126 -101 239z" />
    <glyph glyph-name="dieresis" unicode="&#xa8;" horiz-adv-x="530" 
d="M600 1120q39 0 70.5 -28.5t31.5 -71.5t-29.5 -71.5t-68.5 -28.5t-70.5 28.5t-31.5 71.5t29.5 71.5t68.5 28.5zM238 1120q39 0 70.5 -28.5t31.5 -71.5t-29.5 -71.5t-68.5 -28.5t-71 28.5t-32 71.5t30 71.5t69 28.5z" />
    <glyph glyph-name="copyright" unicode="&#xa9;" horiz-adv-x="1638" 
d="M432 684q0 146 114 269.5t328 123.5q110 0 211 -37q45 -14 45 -43v-143h-36q-7 122 -86.5 152t-139.5 30q-143 0 -214.5 -97t-73.5 -249q0 -261 111.5 -317t201.5 -56t148.5 52.5t86.5 124.5h33l-31 -142q-2 -18 -16 -25.5t-39 -15.5q-101 -35 -202 -35
q-200 0 -320.5 101.5t-120.5 306.5zM820 45q120 0 225.5 50t183.5 136t124 198t46 236q0 251 -170 436t-410 185q-119 0 -225.5 -51t-184 -137t-123.5 -199t-46 -235.5t46 -234.5t124.5 -198t184 -136t225.5 -50zM820 -41q-144 0 -270 55.5t-220 150.5t-147.5 223
t-53.5 275.5t53.5 276.5t147.5 225.5t220 151.5t270 55t270.5 -55t219.5 -151.5t146 -225.5t53 -276.5t-53 -275.5t-146 -223t-219.5 -150.5t-270.5 -55.5z" />
    <glyph glyph-name="ordfeminine" unicode="&#xaa;" horiz-adv-x="569" 
d="M545 944q0 -14 19.5 -21.5t37.5 -7.5t37.5 10.5t37 23t30 22.5t20.5 10t8 -4t-18.5 -22.5t-74 -56.5t-130.5 -38q-27 0 -54.5 13.5t-27.5 33.5t8 39t19.5 40.5t23 39.5t17.5 31l-4 2q-41 -62 -127.5 -130.5t-145.5 -68.5t-78.5 34t-19.5 88t48 125t114.5 129t135 95
t114.5 37t57 -51h4l18 43h91q-50 -104 -105 -253t-55 -163zM301 946q50 0 101.5 49.5t66.5 82.5q16 32 46 88t30 81t-34.5 44.5t-62.5 19.5t-40.5 -9.5t-31.5 -33.5q-130 -168 -130 -265q0 -57 55 -57z" />
    <glyph glyph-name="guillemotleft" unicode="&#xab;" 
d="M147 411.5q0 16.5 28 40t77 57.5t116.5 80t147.5 103l25 -20l-271 -277q24 -92 109 -289l-31 -28q-59 98 -112.5 177t-71 109.5t-17.5 47zM430 411.5q0 16.5 27.5 40t77 57.5t117 80t147.5 103l24 -20l-270 -277q24 -92 109 -289l-31 -28q-40 65 -103 160.5t-80.5 126
t-17.5 47z" />
    <glyph glyph-name="logicalnot" unicode="&#xac;" horiz-adv-x="1024" 
d="M754 479h-664v103h766v-412h-102v309z" />
    <glyph glyph-name="registered" unicode="&#xae;" horiz-adv-x="1638" 
d="M820 45q120 0 225.5 50t183.5 136t124 198t46 236q0 251 -170 436t-410 185q-119 0 -225.5 -51t-184 -137t-123.5 -199t-46 -235.5t46 -234.5t124.5 -198t184 -136t225.5 -50zM820 -41q-144 0 -270 55.5t-220 150.5t-147.5 223t-53.5 275.5t53.5 276.5t147.5 225.5
t220 151.5t270 55t270.5 -55t219.5 -151.5t146 -225.5t53 -276.5t-53 -275.5t-146 -223t-219.5 -150.5t-270.5 -55.5zM809 672q141 0 141 184q0 90 -43 124t-102 34h-84v-342h88zM489 1055h363q156 0 197 -69.5t41 -133.5t-47.5 -120t-118.5 -81l118 -162q92 -123 156 -174
v-16h-131q-41 0 -84 68.5t-79 130t-85 133.5h-98v-199q0 -70 11 -81t89 -19v-33h-332v33q76 8 88.5 20t12.5 80v490q0 67 -13.5 80.5t-87.5 17.5v35z" />
    <glyph glyph-name="macron" unicode="&#xaf;" horiz-adv-x="530" 
d="M680 969h-549l21 98h553z" />
    <glyph glyph-name="degree" unicode="&#xb0;" horiz-adv-x="819" 
d="M561.5 782q-61.5 0 -115 22.5t-93.5 62.5t-62.5 93.5t-22.5 115t22.5 114.5t62.5 93t93.5 62.5t115 22.5t114.5 -22.5t93 -62.5t62.5 -93t22.5 -114.5t-22.5 -115t-62.5 -93.5t-93 -62.5t-114.5 -22.5zM561 872q41 0 76 16.5t60.5 44.5t40 64.5t14.5 77.5t-14.5 78
t-40 64.5t-60.5 44t-76 16.5t-75.5 -16.5t-60.5 -44t-40 -64.5t-14 -78t14 -77.5t40 -64.5t60.5 -44.5t75.5 -16.5z" />
    <glyph glyph-name="plusminus" unicode="&#xb1;" horiz-adv-x="1024" 
d="M90 102h766v-102h-766v102zM422 770h102v-235h332v-103h-332v-237h-102v237h-332v103h332v235z" />
    <glyph glyph-name="twosuperior" unicode="&#xb2;" horiz-adv-x="544" 
d="M92 547q-64 0 -84 -4h-4l-6 18v4q78 80 180.5 157t194.5 153.5t156.5 154.5t64.5 154t-21 115.5t-73 39.5t-76.5 -26.5t-38.5 -59t-20.5 -62.5t-10.5 -36l-106 27q6 125 105.5 155.5t144.5 30.5q100 0 155.5 -50t55.5 -142t-68 -167t-163 -137.5t-197.5 -119
t-169.5 -119.5h313q45 0 68.5 20.5t58.5 73.5l18 -10q-54 -96 -77 -170h-400z" />
    <glyph glyph-name="threesuperior" unicode="&#xb3;" horiz-adv-x="544" 
d="M381 1008q-45 0 -88 -27v12l366 262v5h-231q-59 0 -90 -28t-43 -42l-27 4l101 152h401l8 -33l-319 -236q80 -10 118.5 -65.5t38.5 -135.5t-64.5 -146t-199.5 -128.5t-346 -77.5l-2 25q176 15 330.5 100t154.5 232q0 53 -31.5 90t-76.5 37z" />
    <glyph glyph-name="acute" unicode="&#xb4;" horiz-adv-x="530" 
d="M646 1235q30 0 52.5 -22.5t22.5 -54.5t-37 -56.5t-88 -59.5l-238 -155h-71l305 323q24 25 54 25z" />
    <glyph glyph-name="mu" unicode="&#xb5;" horiz-adv-x="985" 
d="M637 113q0 -35 21.5 -45.5t52 -10.5t65.5 19.5t63.5 44t48 44t25.5 19.5q7 0 7 -6t-27 -37.5t-106.5 -98.5t-196.5 -67q-67 0 -93 34t-26 50q0 24 48.5 152.5t58.5 148.5l-5 5q-23 -51 -75 -119t-165 -169.5t-241 -101.5q-33 -68 -44.5 -150.5t-25.5 -144.5
q-24 -103 -61 -131t-76 -28t-55 26.5t-16 58.5q0 49 77.5 225t98.5 242q25 82 103.5 294.5t146.5 402.5h151q-18 -51 -56 -142t-103.5 -255.5t-65.5 -215.5t19.5 -67t53.5 -16q62 0 178.5 105.5t185.5 288.5t116 302h151q-233 -583 -233 -657z" />
    <glyph glyph-name="paragraph" unicode="&#xb6;" horiz-adv-x="1228" 
d="M270 752q0 126 46 236t169.5 226.5t386.5 116.5h492l-14 -45q-125 -8 -153 -24.5t-40 -39t-24 -59.5l-545 -1597h-103l582 1704h-121l-581 -1704h-103l316 926q-166 0 -237 67t-71 193z" />
    <glyph glyph-name="periodcentered" unicode="&#xb7;" horiz-adv-x="454" 
d="M182 500q45 0 80 -34t35 -81t-35 -81t-80 -34t-79.5 34t-34.5 81t34.5 81t79.5 34z" />
    <glyph glyph-name="cedilla" unicode="&#xb8;" horiz-adv-x="530" 
d="M14 -131q59 0 108.5 -34t49.5 -92q0 -102 -71 -145.5t-152 -43.5t-137 16t-72 27l33 55q82 -33 113 -33q143 0 143 87q0 46 -28.5 71.5t-56.5 25.5t-46.5 -7t-34.5 -11l-21 16l127 199h72l-88 -137q48 6 61 6z" />
    <glyph glyph-name="onesuperior" unicode="&#xb9;" horiz-adv-x="544" 
d="M324 612q0 -20 14 -26t33.5 -11.5t40 -7.5t32.5 -4v-20q-51 4 -68 4h-136q-119 0 -168 -4v20q66 10 93.5 18.5t43.5 45.5l225 577q10 29 17.5 45.5t7.5 20.5q0 16 -16.5 18t-39.5 2l-73 -6v27q141 18 274 57l8 -8q-16 -41 -34.5 -79t-32.5 -77l-205 -536q-16 -36 -16 -56
z" />
    <glyph glyph-name="ordmasculine" unicode="&#xba;" horiz-adv-x="477" 
d="M494 1041q57 132 57 206q0 68 -74 68t-132 -128.5t-58 -203.5q0 -74 75 -74t132 132zM670 1245q0 -57 -35 -126.5t-90.5 -127t-124 -94.5t-136.5 -37t-92 33t-24 90t40 126t99.5 126t126 95t128.5 38t85 -33t23 -90z" />
    <glyph glyph-name="guillemotright" unicode="&#xbb;" 
d="M676 358.5q0 -16.5 -27.5 -40t-77 -57.5t-117 -79t-147.5 -104l-24 20l270 277q-24 92 -109 289l31 28q40 -65 103 -160.5t80.5 -126t17.5 -47zM393 358.5q0 -16.5 -27.5 -40t-76.5 -57.5t-117 -79t-147 -104l-25 20l270 277q-26 98 -108 289l31 28q50 -83 107.5 -169.5
t75 -117t17.5 -47z" />
    <glyph glyph-name="onequarter" unicode="&#xbc;" horiz-adv-x="1363" 
d="M324 612q0 -20 14 -26t33.5 -11.5t40 -7.5t32.5 -4v-20q-51 4 -68 4h-136q-119 0 -168 -4v20q66 10 93.5 18.5t43.5 45.5l225 577q10 29 17.5 45.5t7.5 20.5q0 16 -16.5 18t-39.5 2l-73 -6v27q141 18 274 57l8 -8q-16 -41 -34.5 -79t-32.5 -77l-205 -536q-16 -36 -16 -56
zM285 -37h-92l933 1405h93zM662 272v7q250 261 436 412t216 151t29 -15q0 -4 -1 -7l-9 -32q-8 -28 -12 -43.5t-6 -21.5q-100 0 -159.5 -40t-94.5 -69.5t-61 -47.5q-29 -20 -112 -98t-122 -126h303l102 281l123 36l-241 -659h-115l104 272h-380z" />
    <glyph glyph-name="onehalf" unicode="&#xbd;" horiz-adv-x="1363" 
d="M324 612q0 -20 14 -26t33.5 -11.5t40 -7.5t32.5 -4v-20q-51 4 -68 4h-136q-119 0 -168 -4v20q66 10 93.5 18.5t43.5 45.5l225 577q10 29 17.5 45.5t7.5 20.5q0 16 -16.5 18t-39.5 2l-73 -6v27q141 18 274 57l8 -8q-16 -41 -34.5 -79t-32.5 -77l-205 -536q-16 -36 -16 -56
zM707 0q-64 0 -84 -4h-5l-6 18v4q78 80 180.5 157t194.5 154t156.5 154.5t64.5 153.5t-21.5 116t-72.5 40t-75.5 -27t-39 -59.5t-20.5 -62.5t-10 -36l-107 27q4 86 80.5 136t172.5 50q97 0 152.5 -50t55.5 -142t-67.5 -167t-163 -137.5t-197.5 -118.5t-170 -120h313
q45 0 68.5 20.5t58.5 73.5l19 -10q-56 -100 -78 -170h-399zM254 -37h-92l934 1405h92z" />
    <glyph glyph-name="threequarters" unicode="&#xbe;" horiz-adv-x="1363" 
d="M285 -37h-92l933 1405h93zM662 272v7q250 261 436 412t216 151t29 -15q0 -4 -1 -7l-9 -32q-8 -28 -12 -43.5t-6 -21.5q-100 0 -159.5 -40t-94.5 -69.5t-61 -47.5q-29 -20 -112 -98t-122 -126h303l102 281l123 36l-241 -659h-115l104 272h-380zM381 1008q-45 0 -88 -27v12
l366 262v5h-231q-59 0 -90 -28t-43 -42l-27 4l101 152h401l8 -33l-319 -236q80 -10 118.5 -65.5t38.5 -135.5t-64.5 -146t-199.5 -128.5t-346 -77.5l-2 25q176 15 330.5 100t154.5 232q0 53 -31.5 90t-76.5 37z" />
    <glyph glyph-name="questiondown" unicode="&#xbf;" horiz-adv-x="796" 
d="M574 893q104 1 104 -111q0 -54 -34 -98.5t-84 -44.5q-103 0 -103 111q0 54 33.5 98.5t83.5 44.5zM123 -316q0 -126 92 -126t180 194q25 0 63 -38t38 -62q0 -44 -94 -87.5t-152 -43.5q-116 0 -187 69t-71 160q0 92 30.5 156.5t79 124t107.5 117t155.5 164t137.5 251.5h20
q-10 -131 -73.5 -252t-136 -231.5t-131 -210.5t-58.5 -185z" />
    <glyph glyph-name="Agrave" unicode="&#xc0;" horiz-adv-x="1214" 
d="M801 193v380h-424q-94 -131 -207 -371q-31 -67 -31 -94q0 -60 106 -77q26 -4 44 -11v-28q-84 8 -223 8t-259 -8v28q105 23 161 76q55 53 127 161q71 107 123 187t190 277q319 454 522 651l47 -12v-1227q0 -70 93 -95q26 -7 48 -18v-28q-79 8 -258 8t-276 -8v28
q132 32 165 57q34 25 43 52t9 64zM801 631v543q-184 -211 -393 -543h393zM721 1691q0 25 19 47t59 22t71 -46l220 -307h-64l-264 217q-23 18 -32 30t-9 37z" />
    <glyph glyph-name="Aacute" unicode="&#xc1;" horiz-adv-x="1214" 
d="M801 193v380h-424q-94 -131 -207 -371q-31 -67 -31 -94q0 -60 106 -77q26 -4 44 -11v-28q-84 8 -223 8t-259 -8v28q105 23 161 76q55 53 127 161q71 107 123 187t190 277q319 454 522 651l47 -12v-1227q0 -70 93 -95q26 -7 48 -18v-28q-79 8 -258 8t-276 -8v28
q132 32 165 57q34 25 43 52t9 64zM801 631v543q-184 -211 -393 -543h393zM1226 1755q30 -1 52 -23t22 -54t-36 -56t-88 -59l-238 -156h-72l305 324q25 24 55 24z" />
    <glyph glyph-name="Acircumflex" unicode="&#xc2;" horiz-adv-x="1214" 
d="M801 193v380h-424q-94 -131 -207 -371q-31 -67 -31 -94q0 -60 106 -77q26 -4 44 -11v-28q-84 8 -223 8t-259 -8v28q105 23 161 76q55 53 127 161q71 107 123 187t190 277q319 454 522 651l47 -12v-1227q0 -70 93 -95q26 -7 48 -18v-28q-79 8 -258 8t-276 -8v28
q132 32 165 57q34 25 43 52t9 64zM801 631v543q-184 -211 -393 -543h393zM1157 1407l-149 213l-260 -213h-80l303 348h100l162 -348h-76z" />
    <glyph glyph-name="Atilde" unicode="&#xc3;" horiz-adv-x="1214" 
d="M801 193v380h-424q-94 -131 -207 -371q-31 -67 -31 -94q0 -60 106 -77q26 -4 44 -11v-28q-84 8 -223 8t-259 -8v28q105 23 161 76q55 53 127 161q71 107 123 187t190 277q319 454 522 651l47 -12v-1227q0 -70 93 -95q26 -7 48 -18v-28q-79 8 -258 8t-276 -8v28
q132 32 165 57q34 25 43 52t9 64zM801 631v543q-184 -211 -393 -543h393zM846 1554q-49 0 -80 -96h-55q16 96 40 137q49 80 130 80q50 -1 121 -31t108 -44t75 -15q38 0 53 28t26 62h53q-25 -210 -158 -213q-35 0 -243 78q-40 14 -70 14z" />
    <glyph glyph-name="Adieresis" unicode="&#xc4;" horiz-adv-x="1214" 
d="M801 193v380h-424q-94 -131 -207 -371q-31 -67 -31 -94q0 -60 106 -77q26 -4 44 -11v-28q-84 8 -223 8t-259 -8v28q105 23 161 76q55 53 127 161q71 107 123 187t190 277q319 454 522 651l47 -12v-1227q0 -70 93 -95q26 -7 48 -18v-28q-79 8 -258 8t-276 -8v28
q132 32 165 57q34 25 43 52t9 64zM801 631v543q-184 -211 -393 -543h393zM1081 1540q0 44 30 72t69 28q38 0 70 -28t32 -72q0 -43 -30 -72q-30 -28 -68 -28t-71 28q-32 28 -32 72zM719 1540q-1 44 29 72t69 28t71 -28t32 -72q0 -43 -30 -72q-30 -28 -69 -28t-71 28t-31 72z
" />
    <glyph glyph-name="Aring" unicode="&#xc5;" horiz-adv-x="1214" 
d="M801 193v380h-424q-94 -131 -207 -371q-31 -67 -31 -94q0 -60 106 -77q26 -4 44 -11v-28q-84 8 -223 8t-259 -8v28q105 23 161 76q55 53 127 161q71 107 123 187t190 277q319 454 522 651l47 -12v-1227q0 -70 93 -95q26 -7 48 -18v-28q-79 8 -258 8t-276 -8v28
q132 32 165 57q34 25 43 52t9 64zM801 631v543q-184 -211 -393 -543h393zM1001 1745q-55 0 -94 -38t-39 -94t39 -96t94 -40t95 37q39 38 39 94t-39 97q-40 40 -95 40zM1002 1815q84 1 142 -59q60 -60 60 -146t-59 -144q-59 -59 -143 -59t-144 59q-59 59 -59 146
q-1 87 59 145t144 58z" />
    <glyph glyph-name="AE" unicode="&#xc6;" horiz-adv-x="1820" 
d="M1372 -4h-598q-99 6 -266 -4v28q106 19 140 41.5t48.5 46t26.5 56.5l154 420h-420q-51 -38 -188.5 -234.5t-137.5 -249.5q0 -43 62.5 -57t98.5 -16t54 -7v-28q-288 20 -420 0v35q47 113 464.5 553t649.5 632q27 22 27 40t-15.5 27t-39 15t-51 10.5t-52.5 10.5v24
q98 -8 123 -8h266q357 0 537 8l-1 -47l1 -325h-25q-79 112 -118 309q-98 8 -195.5 9t-196.5 5l-196 -561q125 0 195.5 6t115.5 29.5t79 70t85 126.5h35q-134 -319 -207 -572h-37q2 37 7 87t5 127t-41 77h-251l-201 -604q45 -4 223.5 -25.5t312.5 -21.5q74 96 149 184
t163 160l16 -21q-47 -88 -82 -180t-72 -184q-156 8 -227 8zM891 629l199 571l-5 4q-308 -270 -589 -575h395z" />
    <glyph glyph-name="Ccedilla" unicode="&#xc7;" horiz-adv-x="1290" 
d="M620 57q281 0 533 387l27 -18q-92 -179 -276 -323t-369 -144q-18 0 -36 1l-63 -97q48 6 62 6q59 0 108 -34t49 -92q0 -100 -70 -145q-70 -44 -152 -44q-83 0 -139 16q-55 16 -71 27l33 55q82 -33 113 -33q143 0 143 92q0 41 -36 74t-95 11q-18 -7 -35 -11l-20 16l107 168
q-125 26 -208 115q-116 124 -115 311q0 185 74 361t201 313t296 220t334 83t283 -61q-33 -128 -84 -393h-20q-10 179 -62 272q-72 129 -236 129q-163 0 -310 -158q-128 -135 -204 -344q-77 -209 -79 -381q0 -264 169 -349q60 -30 148 -30z" />
    <glyph glyph-name="Egrave" unicode="&#xc8;" horiz-adv-x="1214" 
d="M299 1331h930q-6 -141 -6 -184t6 -184h-25q-52 60 -98 239q-10 43 -16 68q-98 12 -194 12h-194l-204 -549q124 0 194 7t115 30t77 69t81 126h43q-134 -319 -207 -572h-39q14 133 14 212t-41 79h-252l-200 -604q45 -4 234 -26t302 -21q74 96 149 184t162 160l17 -21
q-47 -88 -82 -180t-72 -184q-155 8 -439 8h-386q-136 0 -266 -8v22q63 18 116 36q52 18 74 60q80 162 234 630q154 467 153 481q0 48 -180 82v28zM631 1691q0 25 19 47t59 22t71 -46l219 -307h-63l-264 217q-23 18 -32 30t-9 37z" />
    <glyph glyph-name="Eacute" unicode="&#xc9;" horiz-adv-x="1214" 
d="M299 1331h930q-6 -141 -6 -184t6 -184h-25q-52 60 -98 239q-10 43 -16 68q-98 12 -194 12h-194l-204 -549q124 0 194 7t115 30t77 69t81 126h43q-134 -319 -207 -572h-39q14 133 14 212t-41 79h-252l-200 -604q45 -4 234 -26t302 -21q74 96 149 184t162 160l17 -21
q-47 -88 -82 -180t-72 -184q-155 8 -439 8h-386q-136 0 -266 -8v22q63 18 116 36q52 18 74 60q80 162 234 630q154 467 153 481q0 48 -180 82v28zM1136 1755q30 -1 52 -23t22 -54t-36 -56t-89 -59l-237 -156h-72l305 324q25 24 55 24z" />
    <glyph glyph-name="Ecircumflex" unicode="&#xca;" horiz-adv-x="1214" 
d="M299 1331h930q-6 -141 -6 -184t6 -184h-25q-52 60 -98 239q-10 43 -16 68q-98 12 -194 12h-194l-204 -549q124 0 194 7t115 30t77 69t81 126h43q-134 -319 -207 -572h-39q14 133 14 212t-41 79h-252l-200 -604q45 -4 234 -26t302 -21q74 96 149 184t162 160l17 -21
q-47 -88 -82 -180t-72 -184q-155 8 -439 8h-386q-136 0 -266 -8v22q63 18 116 36q52 18 74 60q80 162 234 630q154 467 153 481q0 48 -180 82v28zM1067 1407l-149 213l-261 -213h-79l303 348h100l162 -348h-76z" />
    <glyph glyph-name="Edieresis" unicode="&#xcb;" horiz-adv-x="1214" 
d="M299 1331h930q-6 -141 -6 -184t6 -184h-25q-52 60 -98 239q-10 43 -16 68q-98 12 -194 12h-194l-204 -549q124 0 194 7t115 30t77 69t81 126h43q-134 -319 -207 -572h-39q14 133 14 212t-41 79h-252l-200 -604q45 -4 234 -26t302 -21q74 96 149 184t162 160l17 -21
q-47 -88 -82 -180t-72 -184q-155 8 -439 8h-386q-136 0 -266 -8v22q63 18 116 36q52 18 74 60q80 162 234 630q154 467 153 481q0 48 -180 82v28zM991 1540q0 44 30 72t69 28q38 0 70 -28t32 -72q0 -43 -30 -72q-30 -28 -68 -28t-71 28q-32 28 -32 72zM727 1640q39 0 71 -28
t32 -72q0 -43 -30 -72q-30 -28 -69 -28t-71 28t-32 72q0 43 30 72q30 28 69 28z" />
    <glyph glyph-name="Igrave" unicode="&#xcc;" horiz-adv-x="757" 
d="M186 0q-140 0 -274 -8v28q131 34 160 54q29 19 48 70q287 779 331 924q43 145 43 166t-27 41t-74 28t-65 8v28q144 -8 290 -8q147 0 277 8l-6 -28q-110 -12 -141 -34q-30 -21 -47 -52q-49 -89 -124 -305t-119 -340q-163 -458 -162 -494q2 -47 132 -60q29 -3 41 -6v-28
q-143 8 -283 8zM709 1407l-265 217q-72 56 -22 114q20 22 60 22t71 -46l219 -307h-63z" />
    <glyph glyph-name="Iacute" unicode="&#xcd;" horiz-adv-x="757" 
d="M186 0q-140 0 -274 -8v28q131 34 160 54q29 19 48 70q287 779 331 924q43 145 43 166t-27 41t-74 28t-65 8v28q144 -8 290 -8q147 0 277 8l-6 -28q-110 -12 -141 -34q-30 -21 -47 -52q-49 -89 -124 -305t-119 -340q-163 -458 -162 -494q2 -47 132 -60q29 -3 41 -6v-28
q-143 8 -283 8zM908 1755q30 -1 53 -23t23 -54t-38 -56q-37 -24 -88 -59l-237 -156h-72l305 324q24 24 54 24z" />
    <glyph glyph-name="Icircumflex" unicode="&#xce;" horiz-adv-x="757" 
d="M186 0q-140 0 -274 -8v28q131 34 160 54q29 19 48 70q287 779 331 924q43 145 43 166t-27 41t-74 28t-65 8v28q144 -8 290 -8q147 0 277 8l-6 -28q-110 -12 -141 -34q-30 -21 -47 -52q-49 -89 -124 -305t-119 -340q-163 -458 -162 -494q2 -47 132 -60q29 -3 41 -6v-28
q-143 8 -283 8zM840 1407l-150 213l-260 -213h-80l303 348h101l161 -348h-75z" />
    <glyph glyph-name="Idieresis" unicode="&#xcf;" horiz-adv-x="757" 
d="M186 0q-140 0 -274 -8v28q131 34 160 54q29 19 48 70q287 779 331 924q43 145 43 166t-27 41t-74 28t-65 8v28q144 -8 290 -8q147 0 277 8l-6 -28q-110 -12 -141 -34q-30 -21 -47 -52q-49 -89 -124 -305t-119 -340q-163 -458 -162 -494q2 -47 132 -60q29 -3 41 -6v-28
q-143 8 -283 8zM764 1540q0 44 30 72t68 28q39 0 71 -28t32 -72q0 -43 -30 -72q-30 -28 -69 -28q-38 0 -70 28t-32 72zM401 1540q0 44 30 72t69 28q38 0 70 -28t32 -72q0 -43 -30 -72q-30 -28 -68 -28t-71 28q-32 28 -32 72z" />
    <glyph glyph-name="Eth" unicode="&#xd0;" horiz-adv-x="1366" 
d="M1147 883q0 212 -70 320t-229 108q-76 0 -154 -17q-94 -262 -202 -589h278v-58h-299q-135 -412 -186 -575q71 -31 178 -31q172 0 300 80t213 207t128 282.5t43 272.5zM473 1221q0 65 -221 90v20l145 4q53 2 114.5 4t161.5 7.5t206 5.5q217 0 338.5 -103.5t121.5 -333.5
q0 -310 -141 -501t-283.5 -290t-281 -111.5t-153.5 -12.5h-597l4 29q192 11 226 112q2 6 19.5 51.5t43 115t58 157.5t65.5 182h-213v58h231q156 443 156 516z" />
    <glyph glyph-name="Ntilde" unicode="&#xd1;" horiz-adv-x="1441" 
d="M114 0q-140 0 -278 -8v28q219 34 261 136t99 265q58 163 158 446t101 312q0 50 -88 94q-53 26 -127 38l6 28l209 -8l188 8q94 -273 391 -1050h4q-8 -27 10 24l49 147q224 664 224 734q0 24 -26 48q-25 22 -61 35t-73 20t-61 14v28l274 -8l248 8v-28q-100 -21 -149 -59
t-87 -125q-39 -87 -95 -247q-56 -159 -128 -366t-172 -534h-37q-236 679 -446 1183q-64 -185 -99 -297q-36 -111 -127 -391t-92 -322q-2 -41 21 -60t55 -33t67 -23q34 -10 56 -17v-28q-135 8 -275 8zM1216 1585q38 0 53 28t25 62h54q-25 -210 -158 -213q-35 0 -243 78
q-41 14 -71 14q-52 0 -79 -96h-56q35 217 170 217q51 -1 122 -31t108 -44t75 -15z" />
    <glyph glyph-name="Ograve" unicode="&#xd2;" horiz-adv-x="1327" 
d="M1106 1026q0 293 -238 293q-169 0 -312 -203q-120 -165 -193 -407q-74 -242 -74 -392q0 -206 119 -269q44 -24 124 -24t160 57q210 147 344 571q70 224 70 374zM944 1372q354 0 354 -404q0 -95 -32 -212q-65 -240 -229 -451q-164 -210 -375 -300q-108 -46 -210 -46
q-186 0 -270 108t-85 303t120 435t312 397q208 170 415 170zM719 1691q0 25 19 47t59 22t71 -46l219 -307h-63l-264 217q-23 18 -32 30t-9 37z" />
    <glyph glyph-name="Oacute" unicode="&#xd3;" horiz-adv-x="1327" 
d="M1106 1026q0 293 -238 293q-169 0 -312 -203q-120 -165 -193 -407q-74 -242 -74 -392q0 -206 119 -269q44 -24 124 -24t160 57q210 147 344 571q70 224 70 374zM944 1372q354 0 354 -404q0 -95 -32 -212q-65 -240 -229 -451q-164 -210 -375 -300q-108 -46 -210 -46
q-186 0 -270 108t-85 303t120 435t312 397q208 170 415 170zM1224 1755q30 -1 52 -23t22 -54t-36 -56t-88 -59l-238 -156h-72l305 324q25 24 55 24z" />
    <glyph glyph-name="Ocircumflex" unicode="&#xd4;" horiz-adv-x="1327" 
d="M1106 1026q0 293 -238 293q-169 0 -312 -203q-120 -165 -193 -407q-74 -242 -74 -392q0 -206 119 -269q44 -24 124 -24t160 57q210 147 344 571q70 224 70 374zM944 1372q354 0 354 -404q0 -95 -32 -212q-65 -240 -229 -451q-164 -210 -375 -300q-108 -46 -210 -46
q-186 0 -270 108t-85 303t120 435t312 397q208 170 415 170zM1155 1407l-149 213l-261 -213h-79l303 348h100l162 -348h-76z" />
    <glyph glyph-name="Otilde" unicode="&#xd5;" horiz-adv-x="1327" 
d="M1106 1026q0 293 -238 293q-169 0 -312 -203q-120 -165 -193 -407q-74 -242 -74 -392q0 -206 119 -269q44 -24 124 -24t160 57q210 147 344 571q70 224 70 374zM944 1372q354 0 354 -404q0 -95 -32 -212q-65 -240 -229 -451q-164 -210 -375 -300q-108 -46 -210 -46
q-186 0 -270 108t-85 303t120 435t312 397q208 170 415 170zM844 1554q-49 0 -80 -96h-55q16 96 40 137q49 80 130 80q50 -1 121 -31t108 -44t75 -15q38 0 53 28t26 62h53q-17 -143 -88 -192q-54 -37 -142 -5q-43 16 -87 31q-44 17 -84 31t-70 14z" />
    <glyph glyph-name="Odieresis" unicode="&#xd6;" horiz-adv-x="1327" 
d="M1106 1026q0 293 -238 293q-169 0 -312 -203q-120 -165 -193 -407q-74 -242 -74 -392q0 -206 119 -269q44 -24 124 -24t160 57q210 147 344 571q70 224 70 374zM944 1372q354 0 354 -404q0 -95 -32 -212q-65 -240 -229 -451q-164 -210 -375 -300q-108 -46 -210 -46
q-186 0 -270 108t-85 303t120 435t312 397q208 170 415 170zM1079 1540q0 44 30 72t69 28q38 0 70 -28t32 -72q0 -43 -30 -72q-30 -28 -68 -28t-71 28q-32 28 -32 72zM815 1640q39 0 71 -28t32 -72q0 -43 -30 -72q-30 -28 -69 -28t-71 28t-31 72q0 43 29 72q30 28 69 28z
" />
    <glyph glyph-name="multiply" unicode="&#xd7;" horiz-adv-x="1024" 
d="M471 313l-309 -313l-72 74l307 311l-307 311l72 74l309 -313l309 313l72 -74l-307 -311l307 -311l-72 -74z" />
    <glyph glyph-name="Oslash" unicode="&#xd8;" horiz-adv-x="1327" 
d="M180 70q-84 104 -84 299q0 196 121.5 436.5t321 403.5t417.5 163q133 0 222 -72l133 164h80l-170 -211q77 -100 77 -295q0 -196 -123 -436t-320.5 -401.5t-416.5 -161.5q-126 0 -213 66l-162 -199h-81zM289 317q0 -60 10 -102l782 965q-52 139 -216 139
q-163 0 -297.5 -187.5t-206.5 -427.5t-72 -387zM1106 1026q0 41 -6 78l-778 -961q51 -118 198 -118q172 0 303 183t207 425.5t76 392.5z" />
    <glyph glyph-name="Ugrave" unicode="&#xd9;" horiz-adv-x="1441" 
d="M568 1331q150 0 304 8v-28q-92 -4 -146 -36t-81 -97q-56 -122 -135 -348q-174 -492 -174 -595q0 -104 76 -164q76 -61 175 -62t174 27t179 122q71 66 239 543q163 465 161 517q-1 34 -84 63q-34 11 -68 17t-55 13v28q140 -8 265 -8q124 0 238 8v-28q-42 -5 -92 -28
t-70 -56q-26 -45 -160 -371q-135 -326 -200 -465q-64 -141 -106 -205t-106 -114q-146 -114 -351 -113q-153 0 -270 94t-117 246q0 77 67 265t149 402q81 214 81 249q1 34 -23 51q-46 32 -168 51v22q148 -8 298 -8zM776 1691q0 25 20 47t59 22q40 0 71 -46l219 -307h-64
l-264 217q-23 18 -32 30t-9 37z" />
    <glyph glyph-name="Uacute" unicode="&#xda;" horiz-adv-x="1441" 
d="M568 1331q150 0 304 8v-28q-92 -4 -146 -36t-81 -97q-56 -122 -135 -348q-174 -492 -174 -595q0 -104 76 -164q76 -61 175 -62t174 27t179 122q71 66 239 543q163 465 161 517q-1 34 -84 63q-34 11 -68 17t-55 13v28q140 -8 265 -8q124 0 238 8v-28q-42 -5 -92 -28
t-70 -56q-26 -45 -160 -371q-135 -326 -200 -465q-64 -141 -106 -205t-106 -114q-146 -114 -351 -113q-153 0 -270 94t-117 246q0 77 67 265t149 402q81 214 81 249q1 34 -23 51q-46 32 -168 51v22q148 -8 298 -8zM1281 1755q31 -1 53 -23t22 -54t-37 -56t-88 -59l-238 -156
h-71l305 324q24 24 54 24z" />
    <glyph glyph-name="Ucircumflex" unicode="&#xdb;" horiz-adv-x="1441" 
d="M568 1331q150 0 304 8v-28q-92 -4 -146 -36t-81 -97q-56 -122 -135 -348q-174 -492 -174 -595q0 -104 76 -164q76 -61 175 -62t174 27t179 122q71 66 239 543q163 465 161 517q-1 34 -84 63q-34 11 -68 17t-55 13v28q140 -8 265 -8q124 0 238 8v-28q-42 -5 -92 -28
t-70 -56q-26 -45 -160 -371q-135 -326 -200 -465q-64 -141 -106 -205t-106 -114q-146 -114 -351 -113q-153 0 -270 94t-117 246q0 77 67 265t149 402q81 214 81 249q1 34 -23 51q-46 32 -168 51v22q148 -8 298 -8zM1212 1407l-149 213l-260 -213h-80l303 348h100l162 -348
h-76z" />
    <glyph glyph-name="Udieresis" unicode="&#xdc;" horiz-adv-x="1441" 
d="M568 1331q150 0 304 8v-28q-92 -4 -146 -36t-81 -97q-56 -122 -135 -348q-174 -492 -174 -595q0 -104 76 -164q76 -61 175 -62t174 27t179 122q71 66 239 543q163 465 161 517q-1 34 -84 63q-34 11 -68 17t-55 13v28q140 -8 265 -8q124 0 238 8v-28q-42 -5 -92 -28
t-70 -56q-26 -45 -160 -371q-135 -326 -200 -465q-64 -141 -106 -205t-106 -114q-146 -114 -351 -113q-153 0 -270 94t-117 246q0 77 67 265t149 402q81 214 81 249q1 34 -23 51q-46 32 -168 51v22q148 -8 298 -8zM1235 1640q39 0 71 -28t32 -72q0 -43 -30 -72
q-30 -28 -69 -28t-71 28t-32 72q0 43 30 72q30 28 69 28zM774 1540q0 44 30 72t68 28q39 0 71 -28t32 -72q0 -43 -30 -72q-30 -28 -69 -28q-38 0 -70 28t-32 72z" />
    <glyph glyph-name="Yacute" unicode="&#xdd;" horiz-adv-x="1290" 
d="M473 1331q151 0 305 8v-28q-186 -12 -186 -82q0 -40 47 -203t96 -334q18 20 98 104t221 244q140 159 140 182q0 52 -217 89v28l287 -8l221 8v-28q-322 -249 -550 -468q-110 -105 -183 -196q-18 -63 -47 -144q-119 -332 -119 -397q0 -41 189 -71q50 -8 97 -15v-28
q-24 8 -334 8t-429 -8v28q173 25 213 46q39 22 57 51t37 78l166 456q-14 43 -39 125q-119 391 -166 461q-19 34 -162 66q-31 6 -45 8v28q152 -8 303 -8zM1174 1755q30 -1 54 -23q22 -22 22 -54t-38 -56q-37 -24 -88 -59l-237 -156h-72l305 324q24 24 54 24z" />
    <glyph glyph-name="Thorn" unicode="&#xde;" horiz-adv-x="1138" 
d="M911 807q0 123 -72.5 178t-193.5 55q-14 0 -22 -2q-129 -332 -240 -680q228 4 378 116t150 333zM186 0q-138 0 -274 -8v28q131 34 161 54.5t48 70.5t50 137t177.5 486t145.5 459q0 43 -58 63.5t-108 20.5v28q144 -8 290 -8t279 8l-8 -28q-101 -4 -149 -46.5t-97 -172.5
q12 2 15 2h34q163 0 283.5 -77.5t120.5 -222.5q0 -265 -199.5 -364t-523.5 -104q-2 -8 -14.5 -43t-37 -104.5t-24.5 -91.5q0 -23 21.5 -34.5t51 -17.5t58.5 -8t41 -7v-28q-145 8 -283 8z" />
    <glyph glyph-name="germandbls" unicode="&#xdf;" horiz-adv-x="1099" 
d="M961 1458q81 0 134.5 -60.5t53.5 -130.5t-23.5 -114.5t-57.5 -77.5t-75 -59.5t-98 -75t-57 -130.5t30.5 -188t45 -160t14.5 -114q0 -124 -112.5 -248.5t-242.5 -124.5q-86 0 -136 53.5t-50 123.5q0 146 115 147q25 0 47 -21.5t22 -51.5t-16 -53t-37 -28q6 -61 37 -84.5
t105 -23.5t105.5 54.5t31.5 122.5t-15.5 122.5t-33.5 108.5t-34 108.5t-16 118.5t22.5 111.5t55.5 84.5t127 111.5t94 212.5q0 102 -35.5 151.5t-117.5 49.5t-142.5 -54.5t-110.5 -139.5t-89 -187.5t-69 -197.5t-50.5 -171.5t-36.5 -120.5t-48 -140.5t-104.5 -288
t-183.5 -361.5t-241 -170q-35 0 -64 18.5t-29 53.5t20.5 57t52.5 22t45 -13t20.5 -28.5t14.5 -28t36 -12.5t58.5 32t63.5 103.5t114.5 410.5t142.5 544h-178l14 49h182q35 109 103.5 230.5t162 223t205 168t228.5 66.5z" />
    <glyph glyph-name="agrave" unicode="&#xe0;" horiz-adv-x="948" 
d="M80 -25q-123 0 -123 190q0 52 33 130q94 222 336 397q145 103 227 103q35 0 61 -23t35 -55q18 35 29 65h135q-48 -92 -107 -264t-93 -266t-38 -133q0 -31 29 -44t55 -14q60 -1 156 93q17 18 29 18t12 -7t-28 -38q-70 -78 -179 -125q-59 -27 -109 -27t-92 22
q-40 22 -40 63t28 96t45 87l25 50l-4 4q-71 -111 -194 -216q-123 -106 -228 -106zM117 171q1 -50 27 -74q26 -23 68 -23q78 1 164 90q86 90 126 184q6 16 23 53t34 77l30 75q13 35 13 53t-22 48q-22 31 -63 47q-42 16 -77 16q-50 0 -82 -41q-50 -66 -99 -141
q-142 -213 -142 -364zM350 1170q0 24 20 47t59 23q40 0 71 -46l219 -307h-64l-264 217q-23 18 -32 30t-9 36z" />
    <glyph glyph-name="aacute" unicode="&#xe1;" horiz-adv-x="948" 
d="M80 -25q-123 0 -123 190q0 52 33 130q94 222 336 397q145 103 227 103q35 0 61 -23t35 -55q18 35 29 65h135q-48 -92 -107 -264t-93 -266t-38 -133q0 -31 29 -44t55 -14q60 -1 156 93q17 18 29 18t12 -7t-28 -38q-70 -78 -179 -125q-59 -27 -109 -27t-92 22
q-40 22 -40 63t28 96t45 87l25 50l-4 4q-71 -111 -194 -216q-123 -106 -228 -106zM117 171q1 -50 27 -74q26 -23 68 -23q78 1 164 90q86 90 126 184q6 16 23 53t34 77l30 75q13 35 13 53t-22 48q-22 31 -63 47q-42 16 -77 16q-50 0 -82 -41q-50 -66 -99 -141
q-142 -213 -142 -364zM856 1235q30 0 52 -23q22 -22 22 -54t-37 -56t-88 -60l-238 -155h-71l305 323q25 25 55 25z" />
    <glyph glyph-name="acircumflex" unicode="&#xe2;" horiz-adv-x="948" 
d="M80 -25q-123 0 -123 190q0 52 33 130q94 222 336 397q145 103 227 103q35 0 61 -23t35 -55q18 35 29 65h135q-48 -92 -107 -264t-93 -266t-38 -133q0 -31 29 -44t55 -14q60 -1 156 93q17 18 29 18t12 -7t-28 -38q-70 -78 -179 -125q-59 -27 -109 -27t-92 22
q-40 22 -40 63t28 96t45 87l25 50l-4 4q-71 -111 -194 -216q-123 -106 -228 -106zM117 171q1 -50 27 -74q26 -23 68 -23q78 1 164 90q86 90 126 184q6 16 23 53t34 77l30 75q13 35 13 53t-22 48q-22 31 -63 47q-42 16 -77 16q-50 0 -82 -41q-50 -66 -99 -141
q-142 -213 -142 -364zM786 887l-149 213l-260 -213h-80l303 348h100l162 -348h-76z" />
    <glyph glyph-name="atilde" unicode="&#xe3;" horiz-adv-x="948" 
d="M80 -25q-123 0 -123 190q0 52 33 130q94 222 336 397q145 103 227 103q35 0 61 -23t35 -55q18 35 29 65h135q-48 -92 -107 -264t-93 -266t-38 -133q0 -31 29 -44t55 -14q60 -1 156 93q17 18 29 18t12 -7t-28 -38q-70 -78 -179 -125q-59 -27 -109 -27t-92 22
q-40 22 -40 63t28 96t45 87l25 50l-4 4q-71 -111 -194 -216q-123 -106 -228 -106zM117 171q1 -50 27 -74q26 -23 68 -23q78 1 164 90q86 90 126 184q6 16 23 53t34 77l30 75q13 35 13 53t-22 48q-22 31 -63 47q-42 16 -77 16q-50 0 -82 -41q-50 -66 -99 -141
q-142 -213 -142 -364zM477 1034q-33 0 -52 -30t-30 -66h-55q16 97 40 137q50 80 130 80q51 -1 122 -31q72 -30 108 -44t74 -15q38 0 53 28t26 62h53q-25 -210 -158 -213q-38 0 -158 46t-153 46z" />
    <glyph glyph-name="adieresis" unicode="&#xe4;" horiz-adv-x="948" 
d="M80 -25q-123 0 -123 190q0 52 33 130q94 222 336 397q145 103 227 103q35 0 61 -23t35 -55q18 35 29 65h135q-48 -92 -107 -264t-93 -266t-38 -133q0 -31 29 -44t55 -14q60 -1 156 93q17 18 29 18t12 -7t-28 -38q-70 -78 -179 -125q-59 -27 -109 -27t-92 22
q-40 22 -40 63t28 96t45 87l25 50l-4 4q-71 -111 -194 -216q-123 -106 -228 -106zM117 171q1 -50 27 -74q26 -23 68 -23q78 1 164 90q86 90 126 184q6 16 23 53t34 77l30 75q13 35 13 53t-22 48q-22 31 -63 47q-42 16 -77 16q-50 0 -82 -41q-50 -66 -99 -141
q-142 -213 -142 -364zM809 1120q39 0 71 -28t32 -72q0 -43 -30 -72q-30 -28 -69 -28t-71 28t-32 72q0 43 30 72q30 28 69 28zM348 1020q0 44 30 72t69 28t71 -28t31 -72q0 -43 -30 -72q-31 -28 -69 -28t-70 28t-32 72z" />
    <glyph glyph-name="aring" unicode="&#xe5;" horiz-adv-x="948" 
d="M80 -25q-123 0 -123 190q0 52 33 130q94 222 336 397q145 103 227 103q35 0 61 -23t35 -55q18 35 29 65h135q-48 -92 -107 -264t-93 -266t-38 -133q0 -31 29 -44t55 -14q60 -1 156 93q17 18 29 18t12 -7t-28 -38q-70 -78 -179 -125q-59 -27 -109 -27t-92 22
q-40 22 -40 63t28 96t45 87l25 50l-4 4q-71 -111 -194 -216q-123 -106 -228 -106zM117 171q1 -50 27 -74q26 -23 68 -23q78 1 164 90q86 90 126 184q6 16 23 53t34 77l30 75q13 35 13 53t-22 48q-22 31 -63 47q-42 16 -77 16q-50 0 -82 -41q-50 -66 -99 -141
q-142 -213 -142 -364zM631 1225q-55 0 -94 -38t-39 -94q0 -57 39 -97t94 -40t94 38t39 94t-39 97q-39 40 -94 40zM632 1294q86 0 142 -58q57 -58 59 -144q1 -86 -59 -146t-144 -59q-84 0 -143 59q-59 58 -59 144t59 145t145 59z" />
    <glyph glyph-name="ae" unicode="&#xe6;" horiz-adv-x="1175" 
d="M934 641q0 66 -66 66q-34 0 -93.5 -56t-102.5 -239q84 25 173 97t89 132zM374 155.5q101 77.5 161.5 257t60.5 188.5q0 29 -35.5 66.5t-97.5 37.5q-63 0 -89 -33t-58 -78q-72 -102 -130.5 -220.5t-58.5 -183.5t28.5 -88.5t72.5 -23.5q45 0 146 77.5zM982 795
q112 -1 112 -115q0 -54 -49.5 -106t-118 -93t-142 -68.5t-122.5 -45.5q-23 -50 -23 -129t29.5 -117.5t100.5 -38.5t126 32.5t95 71.5t65.5 72t31.5 33q14 0 15 -12q0 -14 -40 -64.5t-152.5 -145t-241.5 -94.5q-92 0 -140.5 50.5t-48.5 130.5t15 104l-5 4
q-43 -88 -174 -188.5t-208 -100.5q-140 0 -140 161q0 138 111 291.5t260 260.5t211 107q61 0 75.5 -27t20.5 -49h4l15 61h145l-41 -96l4 -4q51 41 101.5 78t108.5 37z" />
    <glyph glyph-name="ccedilla" unicode="&#xe7;" horiz-adv-x="681" 
d="M395 729q-96 0 -185 -209q-36 -84 -56 -169t-19 -132q0 -162 158 -162q79 0 202 123q22 23 27 23q17 1 17 -13t-36 -49q-83 -81 -177 -122q-93 -42 -149 -43l-73 -113q48 6 62 6q59 0 108 -34q50 -34 50 -92q1 -99 -70 -144q-70 -45 -151 -45t-139 16q-57 16 -73 27
l33 55q83 -33 113 -33q143 0 143 92q0 41 -36 74t-95 11q-18 -7 -35 -11l-20 16l116 182q-56 15 -93 58q-54 66 -54 157t51 194q111 224 309 343q97 59 189 60q55 0 88 -38t33 -87q-1 -49 -21 -88t-73 -39q-74 0 -74 69q0 28 31 54q-18 63 -101 63z" />
    <glyph glyph-name="egrave" unicode="&#xe8;" horiz-adv-x="681" 
d="M113 225q0 -159 145 -159q109 0 205 92q27 25 44 39t23 22t16 8t9 -9q0 -9 -37 -49t-96 -83q-152 -111 -287 -111q-86 1 -136 47t-50 138t57 205q117 232 324 366q98 63 180 64q98 0 98 -99q0 -118 -177 -213q-115 -61 -279 -100q-39 -76 -39 -158zM457 659q-1 37 -19 45
q-94 43 -190 -105q-42 -62 -82 -175q83 13 155 65t104 93t32 77zM264 1170q0 24 20 47t59 23q40 0 71 -46l219 -307h-64l-264 217q-23 18 -32 30t-9 36z" />
    <glyph glyph-name="eacute" unicode="&#xe9;" horiz-adv-x="681" 
d="M113 225q0 -159 145 -159q109 0 205 92q27 25 44 39t23 22t16 8t9 -9q0 -9 -37 -49t-96 -83q-152 -111 -287 -111q-86 1 -136 47t-50 138t57 205q117 232 324 366q98 63 180 64q98 0 98 -99q0 -118 -177 -213q-115 -61 -279 -100q-39 -76 -39 -158zM457 659q-1 37 -19 45
q-94 43 -190 -105q-42 -62 -82 -175q83 13 155 65t104 93t32 77zM770 1235q30 0 52 -23q22 -22 22 -54t-37 -56t-88 -60l-238 -155h-71l305 323q25 25 55 25z" />
    <glyph glyph-name="ecircumflex" unicode="&#xea;" horiz-adv-x="681" 
d="M113 225q0 -159 145 -159q109 0 205 92q27 25 44 39t23 22t16 8t9 -9q0 -9 -37 -49t-96 -83q-152 -111 -287 -111q-86 1 -136 47t-50 138t57 205q117 232 324 366q98 63 180 64q98 0 98 -99q0 -118 -177 -213q-115 -61 -279 -100q-39 -76 -39 -158zM457 659q-1 37 -19 45
q-94 43 -190 -105q-42 -62 -82 -175q83 13 155 65t104 93t32 77zM700 887l-149 213l-260 -213h-80l303 348h100l162 -348h-76z" />
    <glyph glyph-name="edieresis" unicode="&#xeb;" horiz-adv-x="681" 
d="M113 225q0 -159 145 -159q109 0 205 92q27 25 44 39t23 22t16 8t9 -9q0 -9 -37 -49t-96 -83q-152 -111 -287 -111q-86 1 -136 47t-50 138t57 205q117 232 324 366q98 63 180 64q98 0 98 -99q0 -118 -177 -213q-115 -61 -279 -100q-39 -76 -39 -158zM457 659q-1 37 -19 45
q-94 43 -190 -105q-42 -62 -82 -175q83 13 155 65t104 93t32 77zM723 1120q39 0 71 -28t32 -72q0 -43 -30 -72q-30 -28 -69 -28t-71 28t-32 72q0 43 30 72q30 28 69 28zM262 1020q0 44 30 72t68 28q39 0 71 -28t32 -72q0 -43 -30 -72q-30 -28 -69 -28q-38 0 -70 28t-32 72z
" />
    <glyph glyph-name="igrave" unicode="&#xec;" horiz-adv-x="530" 
d="M174 145q0 -39 28 -57t62 -18q70 0 188 123q38 39 40 10q0 -10 -32 -47q-77 -88 -190 -149q-59 -32 -99 -32q-114 0 -155 68q-14 23 -14 44q0 24 96 287t150 421h158q-16 -57 -86 -222t-108 -277t-38 -151zM117 1170q0 24 19 47t59 23t71 -46l219 -307h-63l-264 217
q-23 18 -32 30t-9 36z" />
    <glyph glyph-name="iacute" unicode="&#xed;" horiz-adv-x="530" 
d="M174 145q0 -39 28 -57t62 -18q70 0 188 123q38 39 40 10q0 -10 -32 -47q-77 -88 -190 -149q-59 -32 -99 -32q-114 0 -155 68q-14 23 -14 44q0 24 96 287t150 421h158q-16 -57 -86 -222t-108 -277t-38 -151zM622 1235q30 0 52 -23q22 -22 22 -54t-37 -56t-88 -60
l-237 -155h-72l305 323q25 25 55 25z" />
    <glyph glyph-name="icircumflex" unicode="&#xee;" horiz-adv-x="530" 
d="M174 145q0 -39 28 -57t62 -18q70 0 188 123q38 39 40 10q0 -10 -32 -47q-77 -88 -190 -149q-59 -32 -99 -32q-114 0 -155 68q-14 23 -14 44q0 24 96 287t150 421h158q-16 -57 -86 -222t-108 -277t-38 -151zM553 887l-150 213l-260 -213h-80l304 348h100l162 -348h-76z
" />
    <glyph glyph-name="idieresis" unicode="&#xef;" horiz-adv-x="530" 
d="M174 145q0 -39 28 -57t62 -18q70 0 188 123q38 39 40 10q0 -10 -32 -47q-77 -88 -190 -149q-59 -32 -99 -32q-114 0 -155 68q-14 23 -14 44q0 24 96 287t150 421h158q-16 -57 -86 -222t-108 -277t-38 -151zM477 1020q0 44 30 72t69 28q38 0 70 -28t32 -72q0 -43 -30 -72
q-30 -28 -68 -28t-71 28q-32 28 -32 72zM213 1120q39 0 71 -28t32 -72q0 -43 -30 -72q-30 -28 -69 -28t-71 28t-32 72q0 43 30 72q30 28 69 28z" />
    <glyph glyph-name="eth" unicode="&#xf0;" horiz-adv-x="833" 
d="M236 41q117 0 221 190t171.5 449.5t67.5 445.5l-239 -79l-27 61l260 86q-21 166 -98.5 201t-149.5 35t-133 -33t-100 -73t-60.5 -73.5t-32.5 -33.5q-12 0 -12 10t25 47t109.5 110.5t223.5 73.5q252 0 341 -227l235 78l27 -62l-244 -80q44 -173 -17 -411.5t-203.5 -445
t-260.5 -271t-198 -64.5t-121 58.5t-41 151.5t36.5 180.5t121.5 188t237 181t223 80.5q16 0 16 -10t-15 -15.5t-73 -25.5t-131 -81.5t-164.5 -191t-91.5 -290.5q0 -160 97 -160z" />
    <glyph glyph-name="ntilde" unicode="&#xf1;" horiz-adv-x="985" 
d="M705 70q57 0 133 60q14 12 24 11q10 0 10 -12q0 -6 -26 -29q-26 -24 -68 -48q-101 -61 -165 -60q-148 0 -148 96q1 50 69 203t99 230t31 114q0 70 -72 70t-147 -77q-138 -141 -258 -419q-52 -121 -78 -209h-138q59 195 124 385t130 385h156l-143 -389l4 -4
q82 156 181 263q138 155 263 155q53 0 101 -28q49 -28 49 -77t-31 -128t-99 -232t-69 -191q0 -37 20 -53t48 -16zM471 1034q-33 0 -52 -30t-30 -66h-55q16 97 40 137q50 80 130 80q52 -1 122 -31t107 -44t75 -15q38 0 53 28t26 62h53q-25 -210 -158 -213q-38 0 -158 46
t-153 46z" />
    <glyph glyph-name="ograve" unicode="&#xf2;" horiz-adv-x="796" 
d="M434 729q-87 0 -172 -131t-131 -366q-10 -56 -10 -91q0 -117 115 -116q89 0 173 132t130 364q10 56 10 91q0 117 -115 117zM709 597q-1 -93 -53 -205t-134 -204t-184 -152t-204 -60t-138 52q-35 54 -35 146t61 204q122 228 333 356q99 60 191 60t128 -52t35 -145z
M299 1170q0 24 19 47q20 23 60 23t71 -46l219 -307h-64l-264 217q-23 18 -32 30t-9 36z" />
    <glyph glyph-name="oacute" unicode="&#xf3;" horiz-adv-x="796" 
d="M434 729q-87 0 -172 -131t-131 -366q-10 -56 -10 -91q0 -117 115 -116q89 0 173 132t130 364q10 56 10 91q0 117 -115 117zM709 597q-1 -93 -53 -205t-134 -204t-184 -152t-204 -60t-138 52q-35 54 -35 146t61 204q122 228 333 356q99 60 191 60t128 -52t35 -145z
M804 1235q30 0 52 -23q22 -22 23 -54q0 -32 -37 -56t-88 -60l-238 -155h-72l306 323q24 25 54 25z" />
    <glyph glyph-name="ocircumflex" unicode="&#xf4;" horiz-adv-x="796" 
d="M434 729q-87 0 -172 -131t-131 -366q-10 -56 -10 -91q0 -117 115 -116q89 0 173 132t130 364q10 56 10 91q0 117 -115 117zM709 597q-1 -93 -53 -205t-134 -204t-184 -152t-204 -60t-138 52q-35 54 -35 146t61 204q122 228 333 356q99 60 191 60t128 -52t35 -145z
M735 887l-149 213l-260 -213h-80l303 348h100l162 -348h-76z" />
    <glyph glyph-name="otilde" unicode="&#xf5;" horiz-adv-x="796" 
d="M434 729q-87 0 -172 -131t-131 -366q-10 -56 -10 -91q0 -117 115 -116q89 0 173 132t130 364q10 56 10 91q0 117 -115 117zM709 597q-1 -93 -53 -205t-134 -204t-184 -152t-204 -60t-138 52q-35 54 -35 146t61 204q122 228 333 356q99 60 191 60t128 -52t35 -145z
M426 1034q-33 0 -52 -30t-30 -66h-55q16 97 40 137q50 80 130 80q52 -1 122 -31t107 -44t75 -15q38 0 53 28t26 62h53q-25 -210 -158 -213q-38 0 -158 46t-153 46z" />
    <glyph glyph-name="odieresis" unicode="&#xf6;" horiz-adv-x="796" 
d="M434 729q-87 0 -172 -131t-131 -366q-10 -56 -10 -91q0 -117 115 -116q89 0 173 132t130 364q10 56 10 91q0 117 -115 117zM709 597q-1 -93 -53 -205t-134 -204t-184 -152t-204 -60t-138 52q-35 54 -35 146t61 204q122 228 333 356q99 60 191 60t128 -52t35 -145z
M659 1020q0 44 30 72t69 28q38 0 70 -28t32 -72q0 -43 -30 -72q-30 -28 -68 -28t-71 28q-32 28 -32 72zM297 1020q-1 44 29 72t69 28t71 -28t32 -72q0 -43 -30 -72q-30 -28 -69 -28t-71 28t-31 72z" />
    <glyph glyph-name="divide" unicode="&#xf7;" horiz-adv-x="1024" 
d="M375 74q0 39 29.5 67.5t67.5 28.5t67.5 -28.5t29.5 -67.5t-29.5 -69t-67.5 -30t-67.5 30t-29.5 69zM375 698q0 39 29.5 68t67.5 29t67.5 -29t29.5 -68t-29.5 -68.5t-67.5 -29.5t-67.5 29.5t-29.5 68.5zM856 334h-766v102h766v-102z" />
    <glyph glyph-name="oslash" unicode="&#xf8;" horiz-adv-x="796" 
d="M-39 167q0 99 60.5 210.5t147.5 204t186.5 153t162.5 60.5t105 -15l118 144h68l-143 -174q43 -46 43 -146t-52.5 -211.5t-134.5 -204t-184 -153t-181 -60.5t-114 19l-137 -168h-68l162 199q-39 43 -39 142zM127 96q18 -72 109 -71q125 0 202.5 184.5t94 273t16.5 121.5
l-4 4zM439 729q-122 0 -211 -195.5t-105 -355.5l4 -4l410 500q-27 55 -98 55z" />
    <glyph glyph-name="ugrave" unicode="&#xf9;" horiz-adv-x="985" 
d="M335 628q-169 -405 -169 -479q0 -75 72 -75q64 0 145 74q80 74 141 172q60 98 104 215t91 235h151q-233 -582 -233 -657q-1 -35 21 -45q57 -27 114 5q56 32 96 72q39 39 45 39q7 0 7 -6t-27 -38t-71 -68q-116 -96 -232 -97q-67 0 -107 52q-12 16 -12 44t50 152
q50 123 57 137l-5 5q-54 -125 -202 -257q-148 -133 -258 -133q-51 0 -85 25t-34 83t66 228q66 171 109 273q42 102 71 186h151q-18 -51 -56 -142zM369 1170q0 24 19 47t59 23t71 -46l219 -307h-63l-264 217q-23 18 -32 30t-9 36z" />
    <glyph glyph-name="uacute" unicode="&#xfa;" horiz-adv-x="985" 
d="M335 628q-169 -405 -169 -479q0 -75 72 -75q64 0 145 74q80 74 141 172q60 98 104 215t91 235h151q-233 -582 -233 -657q-1 -35 21 -45q57 -27 114 5q56 32 96 72q39 39 45 39q7 0 7 -6t-27 -38t-71 -68q-116 -96 -232 -97q-67 0 -107 52q-12 16 -12 44t50 152
q50 123 57 137l-5 5q-54 -125 -202 -257q-148 -133 -258 -133q-51 0 -85 25t-34 83t66 228q66 171 109 273q42 102 71 186h151q-18 -51 -56 -142zM874 1235q30 0 52 -23q22 -22 22 -54t-37 -56t-88 -60l-237 -155h-72l305 323q25 25 55 25z" />
    <glyph glyph-name="ucircumflex" unicode="&#xfb;" horiz-adv-x="985" 
d="M335 628q-169 -405 -169 -479q0 -75 72 -75q64 0 145 74q80 74 141 172q60 98 104 215t91 235h151q-233 -582 -233 -657q-1 -35 21 -45q57 -27 114 5q56 32 96 72q39 39 45 39q7 0 7 -6t-27 -38t-71 -68q-116 -96 -232 -97q-67 0 -107 52q-12 16 -12 44t50 152
q50 123 57 137l-5 5q-54 -125 -202 -257q-148 -133 -258 -133q-51 0 -85 25t-34 83t66 228q66 171 109 273q42 102 71 186h151q-18 -51 -56 -142zM805 887l-150 213l-260 -213h-80l303 348h101l162 -348h-76z" />
    <glyph glyph-name="udieresis" unicode="&#xfc;" horiz-adv-x="985" 
d="M335 628q-169 -405 -169 -479q0 -75 72 -75q64 0 145 74q80 74 141 172q60 98 104 215t91 235h151q-233 -582 -233 -657q-1 -35 21 -45q57 -27 114 5q56 32 96 72q39 39 45 39q7 0 7 -6t-27 -38t-71 -68q-116 -96 -232 -97q-67 0 -107 52q-12 16 -12 44t50 152
q50 123 57 137l-5 5q-54 -125 -202 -257q-148 -133 -258 -133q-51 0 -85 25t-34 83t66 228q66 171 109 273q42 102 71 186h151q-18 -51 -56 -142zM729 1020q-1 44 29 72t69 28t71 -28t32 -72q0 -43 -30 -72q-30 -28 -69 -28t-71 28t-31 72zM465 1120q39 0 71 -28t32 -72
q0 -43 -30 -72q-30 -28 -69 -28t-71 28t-32 72q0 43 30 72q30 28 69 28z" />
    <glyph glyph-name="yacute" unicode="&#xfd;" 
d="M155 -369q124 0 210 179q44 90 92 210q49 121 84 201l-4 4q-157 -225 -242 -225q-61 0 -85 28t-24 109l11 377q1 121 -13 144q-14 24 -31 29t-56 5t-79 -43q-16 -16 -28 -29q-12 -14 -20 -14t-7 8q0 8 24 37q119 144 236 144t117 -115q0 -31 -9 -136q-9 -106 -9 -236
t12 -158t53 -27q41 0 78 40q90 97 191 388q26 72 46 131t33 88h148q-53 -117 -97 -240l-88 -244q-45 -122 -98 -241q-92 -207 -202 -312t-234 -153q-124 -47 -225 11q-58 32 -60 98q0 84 98 86q43 0 61 -23q18 -24 28 -50q12 -26 27 -48t62 -23zM812 1235q30 0 52 -23
q22 -22 23 -54q0 -32 -37 -56t-88 -60l-238 -155h-71l305 323q24 25 54 25z" />
    <glyph glyph-name="thorn" unicode="&#xfe;" horiz-adv-x="872" 
d="M597 795q93 0 135 -60.5t42 -151.5t-56 -201t-139 -200t-178.5 -148.5t-173.5 -58.5q-35 0 -59.5 9.5t-56.5 19.5l-168 -483h-146q77 208 662 1937h151l-311 -893l4 -4q76 116 138.5 175t155.5 59zM614 600q0 109 -112 109q-84 0 -172.5 -135.5t-124 -265.5t-35.5 -144
q0 -53 40 -92t89 -39t90 32.5t91.5 110.5t92 213t41.5 211z" />
    <glyph glyph-name="ydieresis" unicode="&#xff;" 
d="M155 -369q124 0 210 179q44 90 92 210q49 121 84 201l-4 4q-157 -225 -242 -225q-61 0 -85 28t-24 109l11 377q1 121 -13 144q-14 24 -31 29t-56 5t-79 -43q-16 -16 -28 -29q-12 -14 -20 -14t-7 8q0 8 24 37q119 144 236 144t117 -115q0 -31 -9 -136q-9 -106 -9 -236
t12 -158t53 -27q41 0 78 40q90 97 191 388q26 72 46 131t33 88h148q-53 -117 -97 -240l-88 -244q-45 -122 -98 -241q-92 -207 -202 -312t-234 -153q-124 -47 -225 11q-58 32 -60 98q0 84 98 86q43 0 61 -23q18 -24 28 -50q12 -26 27 -48t62 -23zM766 1120q39 0 71 -28
q31 -28 31 -72q0 -43 -30 -72q-30 -28 -68 -28q-39 0 -71 28q-31 28 -31 72q0 43 29 72q30 28 69 28zM305 1020q0 44 30 72t69 28q38 0 70 -28t32 -72q0 -43 -30 -72q-30 -28 -68 -28t-71 28q-32 28 -32 72z" />
    <glyph glyph-name="dotlessi" unicode="&#x131;" horiz-adv-x="530" 
d="M174 145q0 -39 27.5 -57t62.5 -18t71 22.5t65.5 50t51 50t30.5 22.5q10 0 10 -11t-32 -48t-120 -109t-184 -72q-54 0 -104 32t-50 87q0 22 97.5 285.5t148.5 415.5h158q-16 -57 -55.5 -149.5t-78.5 -190t-68.5 -184.5t-29.5 -126z" />
    <glyph glyph-name="Lslash" unicode="&#x141;" horiz-adv-x="1175" 
d="M145 0q-126 0 -258 -8v28q113 27 162 62.5t82 126.5q35 80 148 416l-195 -45l25 63l190 45q82 226 127 372t45 162t-16.5 32t-41 26t-51 16.5t-45.5 14.5v28l328 -8q187 0 375 8v-28q-166 -16 -250 -44t-117.5 -105t-154.5 -429l272 62l-25 -62l-270 -61
q-35 -98 -68.5 -199.5t-78.5 -236.5t-45 -161t194 -26t320 23q132 233 362 479l25 -19q-84 -121 -121 -260t-66 -280q-36 6 -65 6h-150z" />
    <glyph glyph-name="lslash" unicode="&#x142;" horiz-adv-x="530" 
d="M475 184q6 0 6 -8t-34.5 -41t-131 -96.5t-161.5 -63.5q-64 0 -108 33t-44 88q0 23 83 262.5t128 370.5l-170 -29l16 70l177 27q127 361 219 661h153q-23 -74 -105.5 -304t-119.5 -335l182 29l-16 -70l-191 -28q-196 -558 -196 -617t90 -59t153.5 55t69.5 55z" />
    <glyph glyph-name="OE" unicode="&#x152;" horiz-adv-x="1972" 
d="M1970 1155q0 -49 6 -190h-24q-62 100 -79 147t-42 158l-387 12q-76 -198 -197 -549q230 0 290 30t95 76t90 126h27q-119 -279 -209 -572h-27l11 189q0 63 -13.5 82.5t-44.5 19.5h-233q-97 -257 -209 -604q45 -4 223.5 -25.5t313.5 -21.5q74 96 148.5 184t162.5 160
l16 -21q-47 -88 -81.5 -180t-71.5 -184q-156 8 -219 8h-504q-91 0 -229.5 -20.5t-227.5 -20.5q-207 0 -323.5 118t-116.5 311t74.5 364.5t197.5 306.5t281.5 218t317.5 83t220 -17q72 -12 332 -12t438 8q-6 -135 -6 -184zM629 4q112 0 156 40.5t76 116.5q32 75 62.5 156.5
t165 458.5t134.5 421t-31 64.5t-84 37t-141 16.5t-180.5 -44t-202.5 -152t-195.5 -322.5t-85.5 -394.5t78 -289t248 -109z" />
    <glyph glyph-name="oe" unicode="&#x153;" horiz-adv-x="1175" 
d="M920 632q0 60 -63 60q-30 0 -96.5 -59t-101.5 -232q79 14 141 64.5t91 92.5t29 74zM168.5 71q16.5 -38 79.5 -38q62 0 119 66.5t98 156.5t63.5 185.5t22.5 152.5t-18.5 92t-82.5 35t-117.5 -67.5t-93.5 -157.5t-63.5 -182.5t-23.5 -148.5t16.5 -94zM156 -33
q-164 0 -164 207q0 90 54 199.5t139 202t189.5 151.5t207.5 59q63 0 96 -48.5t33 -116.5q96 105 163.5 135t100.5 30q96 0 96 -94q0 -120 -133 -204t-289 -134q-24 -58 -24 -145q0 -135 137 -135q106 0 182 72.5t100.5 105.5t32.5 33.5t8 -15.5t-38.5 -66t-148 -143.5
t-251.5 -93.5t-178 166q-85 -105 -179.5 -135.5t-133.5 -30.5z" />
    <glyph glyph-name="Scaron" unicode="&#x160;" horiz-adv-x="1138" 
d="M754 1315q-118 0 -183 -71t-65 -161t34 -145t85 -101t111 -89q60 -44 112 -94q120 -117 119 -263q0 -92 -47 -172t-121 -137q-160 -123 -338 -123q-119 0 -228 35t-217 74l95 430h24q0 -228 69 -340q86 -142 300 -142q112 0 202 75q89 75 89 178t-34 167
q-58 110 -198 212t-195 193q-34 56 -34 144t48 164t123 125q153 100 349 98q147 0 291 -78q-44 -129 -80 -348h-25q-14 254 -163 338q-55 31 -123 31zM780 1407l-178 346h76l166 -215l272 215h74l-316 -346h-94z" />
    <glyph glyph-name="scaron" unicode="&#x161;" horiz-adv-x="720" 
d="M115 259q0 -27 -27 -51t-61 -36q0 -139 133 -139q92 0 148 67t68 156q13 90 16 166t11 151l-292 -280q4 -8 4 -34zM608 850q14 0 15 -19q0 -3 -16 -38t-40 -97q-12 -41 -13 -104t-7 -147q-6 -85 -55 -171t-117 -152t-144 -106q-77 -41 -151 -41q-74 -1 -123 49t-49 156
t61 157q23 19 56 19t47 -10t32 -29q188 173 282 284q95 110 133 156q39 46 53 60q14 13 23 23t13 10zM436 887l-178 346h76l166 -215l272 215h74l-316 -346h-94z" />
    <glyph glyph-name="Ydieresis" unicode="&#x178;" horiz-adv-x="1290" 
d="M473 1331q151 0 305 8v-28q-186 -12 -186 -82q0 -40 47 -203t96 -334q18 20 98 104t221 244q140 159 140 182q0 52 -217 89v28l287 -8l221 8v-28q-322 -249 -550 -468q-110 -105 -183 -196q-18 -63 -47 -144q-119 -332 -119 -397q0 -41 189 -71q50 -8 97 -15v-28
q-24 8 -334 8t-429 -8v28q173 25 213 46q39 22 57 51t37 78l166 456q-14 43 -39 125q-119 391 -166 461q-19 34 -162 66q-31 6 -45 8v28q152 -8 303 -8zM1030 1540q0 44 30 72t68 28q39 0 71 -28t32 -72q0 -43 -30 -72q-30 -28 -69 -28q-38 0 -70 28t-32 72zM766 1640
q39 0 71 -28q31 -28 31 -72q0 -43 -30 -72q-30 -28 -68 -28q-39 0 -71 28q-31 28 -31 72q0 43 29 72q30 28 69 28z" />
    <glyph glyph-name="Zcaron" unicode="&#x17d;" horiz-adv-x="1290" 
d="M960 1331q294 0 476 8v-28q-186 -198 -597 -603q-411 -404 -659 -659q168 2 337 5t337 20q112 124 190 188t201 133l17 -20q-154 -183 -252 -383q-140 8 -305 8h-389q-225 0 -361 -8l-10 47q309 313 615 623t614 624q-150 -2 -298 -3t-298 -5q-110 -168 -306 -332l-22 17
q104 182 182 376q234 -8 528 -8zM868 1407l-178 346h76l166 -215l272 215h74l-315 -346h-95z" />
    <glyph glyph-name="zcaron" unicode="&#x17e;" horiz-adv-x="833" 
d="M309 647q-137 0 -255 -168q-28 -39 -27 -6q0 8 38 55q38 48 93 102q142 140 235 140q59 0 133 -30t104 -29t59 29t49 46t39 6q60 -38 -63 -120q-17 -12 -24 -17q-128 -85 -240 -195t-227 -216q49 -6 89 -32l80 -52q105 -70 169 -70q90 0 206 116q34 34 34 9q0 -6 -32 -41
q-85 -93 -168 -138q-83 -44 -141 -44t-102 26t-82 55q-36 31 -68 55t-69 24t-52 -25t-25 -55t-26 -56q-15 -25 -52 -24q-90 0 -88 37q0 20 43 51q43 30 69 46t95 67q70 50 221 188q151 137 203 187t61 55l-4 4q-27 -6 -65 -6t-103 13t-107 13zM467 887l-178 346h76l165 -215
l273 215h74l-316 -346h-94z" />
    <glyph glyph-name="florin" unicode="&#x192;" 
d="M846 1409q-45 0 -77 -42t-58.5 -106.5t-48 -142.5t-38 -149.5t-28.5 -129t-21 -79.5h248l-22 -62h-240q-20 -68 -43.5 -160t-72.5 -278t-114 -363t-147 -264q-80 -94 -208 -94q-68 0 -118.5 37t-50.5 119q0 43 20.5 76.5t68.5 33.5q59 0 59 -63l-12 -90q0 -25 14 -44.5
t43 -19.5q104 0 150 156q45 156 79.5 277.5t64.5 232.5t57.5 218.5t58.5 225.5h-209l20 62h205q20 57 38.5 131t60 210.5t125 246.5t222.5 110q66 0 108 -34.5t42 -106.5t-11.5 -93.5t-50.5 -21.5t-60 3t-21 24l12 137q0 43 -45 43z" />
    <glyph glyph-name="circumflex" unicode="&#x2c6;" horiz-adv-x="530" 
d="M578 887l-150 213l-260 -213h-80l303 348h101l161 -348h-75z" />
    <glyph glyph-name="caron" unicode="&#x2c7;" horiz-adv-x="530" 
d="M340 887l-178 346h76l165 -215l273 215h74l-316 -346h-94z" />
    <glyph glyph-name="breve" unicode="&#x2d8;" horiz-adv-x="530" 
d="M225 1210q0 -92 49.5 -146t145.5 -54q118 0 169.5 82t63.5 118h60q-52 -213 -147 -264t-188 -51t-151.5 95.5t-58.5 219.5h57z" />
    <glyph glyph-name="dotaccent" unicode="&#x2d9;" horiz-adv-x="530" 
d="M420 1120q39 0 70.5 -28.5t31.5 -71.5t-29.5 -71.5t-68.5 -28.5t-70.5 28.5t-31.5 71.5t29.5 71.5t68.5 28.5z" />
    <glyph glyph-name="ring" unicode="&#x2da;" horiz-adv-x="530" 
d="M422 1225q-55 0 -94 -38t-39 -94t39 -96.5t94 -40.5t94 38t39 94t-39 96.5t-94 40.5zM566.5 1234q58.5 -60 58.5 -144t-59.5 -143.5t-143.5 -59.5t-143.5 59.5t-59.5 143.5t58.5 144t144.5 60t144.5 -60z" />
    <glyph glyph-name="ogonek" unicode="&#x2db;" horiz-adv-x="530" 
d="M-133 -254q0 -88 108 -88q47 0 106.5 29.5t111.5 58.5l28 -57q-80 -45 -158.5 -83t-157.5 -38t-130 40.5t-51 98.5q0 152 132 214.5t219 83t152 34.5v-19q-231 -72 -295.5 -149.5t-64.5 -124.5z" />
    <glyph glyph-name="tilde" unicode="&#x2dc;" horiz-adv-x="530" 
d="M131 938q35 217 170 217q44 0 118.5 -30.5t111 -45t74.5 -14.5t53.5 27.5t25.5 62.5h53q-17 -142 -66.5 -177.5t-84.5 -35.5t-78 16t-127 46t-115 30q-50 0 -80 -96h-55z" />
    <glyph glyph-name="hungarumlaut" unicode="&#x2dd;" horiz-adv-x="530" 
d="M448 1251q32 0 54 -18.5t22 -46.5t-20.5 -48t-42.5 -36l-299 -215h-74l301 336q27 28 59 28zM854 1178q0 -38 -68 -78l-352 -213h-55l340 334q35 31 65 30q70 0 70 -73z" />
    <glyph glyph-name="endash" unicode="&#x2013;" horiz-adv-x="1024" 
d="M-23 334l33 102h1024l-33 -102h-1024z" />
    <glyph glyph-name="emdash" unicode="&#x2014;" horiz-adv-x="2048" 
d="M444 334q-63 0 -95 -23.5t-60 -77.5h-27q61 161 72 211q62 -8 125 -8h1145q63 0 95 23.5t60 77.5h27q-61 -160 -72 -211q-62 8 -125 8h-1145z" />
    <glyph glyph-name="quoteleft" unicode="&#x2018;" horiz-adv-x="454" 
d="M410 1165q0 -33 25.5 -57.5t56.5 -28.5v-6q-35 -33 -70 -57.5t-78 -24.5t-68.5 26.5t-25.5 78.5t36 108t101.5 113t218.5 129l17 -21q-213 -122 -213 -260z" />
    <glyph glyph-name="quoteright" unicode="&#x2019;" horiz-adv-x="454" 
d="M428 1245q0 39 -25.5 63.5t-56.5 28.5v6q35 33 70 57.5t78 24.5t68.5 -26.5t25.5 -78.5t-36 -107.5t-106 -116.5t-215 -125l-16 20q108 71 140 105t52.5 72t20.5 77z" />
    <glyph glyph-name="quotesinglbase" unicode="&#x201a;" horiz-adv-x="454" 
d="M16 39q0 33 -25.5 57.5t-56.5 28.5v6q35 33 70 57.5t78 24.5t68.5 -26.5t25.5 -78.5t-36 -107.5t-103 -113.5t-217 -129l-17 21q213 122 213 260z" />
    <glyph glyph-name="quotedblleft" unicode="&#x201c;" horiz-adv-x="796" 
d="M410 1165q0 -33 25.5 -57.5t56.5 -28.5v-6q-35 -33 -70 -57.5t-78 -24.5t-68.5 26.5t-25.5 78.5t36 108t101.5 113t218.5 129l17 -21q-213 -122 -213 -260zM752 1165q0 -33 25.5 -57.5t56.5 -28.5v-6q-35 -33 -70 -57.5t-78 -24.5t-68.5 26.5t-25.5 78.5t36 108
t101.5 113t218.5 129l17 -21q-213 -122 -213 -260z" />
    <glyph glyph-name="quotedblright" unicode="&#x201d;" horiz-adv-x="796" 
d="M770 1245q0 39 -25.5 63.5t-56.5 28.5v6q35 33 70 57.5t78 24.5t68.5 -26.5t25.5 -78.5t-36 -107.5t-106 -116.5t-215 -125l-16 20q108 71 140 105t52.5 72t20.5 77zM428 1245q0 39 -25.5 63.5t-56.5 28.5v6q35 33 70 57.5t78 24.5t68.5 -26.5t25.5 -78.5t-36 -107.5
t-106 -116.5t-215 -125l-16 20q108 71 140 105t52.5 72t20.5 77z" />
    <glyph glyph-name="quotedblbase" unicode="&#x201e;" horiz-adv-x="796" 
d="M358 39q0 33 -25.5 57.5t-56.5 28.5v6q35 33 70 57.5t78 24.5t68.5 -26.5t25.5 -78.5t-36 -107.5t-103 -113.5t-217 -129l-17 21q213 122 213 260zM16 39q0 33 -25.5 57.5t-56.5 28.5v6q35 33 70 57.5t78 24.5t68.5 -26.5t25.5 -78.5t-36 -107.5t-103 -113.5t-217 -129
l-17 21q213 122 213 260z" />
    <glyph glyph-name="dagger" unicode="&#x2020;" horiz-adv-x="1024" 
d="M770 1372q94 0 94 -85q0 -36 -20.5 -66.5t-78.5 -105t-93 -189.5q64 0 157.5 28.5t134.5 28.5q83 0 83 -92q0 -39 -28 -57.5t-62 -18.5t-58.5 9.5t-81 31t-162.5 21.5q-49 -107 -49 -242q0 -40 10 -107q-115 -161 -178 -309.5t-106 -267.5t-101 -277h-47q29 92 130 364.5
t92 487.5q55 63 111 141t93 210q-87 0 -136.5 -21.5t-74 -31t-58.5 -9.5t-61.5 18.5t-27.5 61.5q0 88 88 88q34 0 129 -28.5t158 -28.5q49 145 49 250q0 196 94 196z" />
    <glyph glyph-name="daggerdbl" unicode="&#x2021;" horiz-adv-x="1024" 
d="M240 -317q-78 0 -78 85q0 36 20.5 66.5t78.5 105t93 189.5q-64 0 -157.5 -28.5t-134.5 -28.5q-82 0 -82 92q0 39 27.5 57.5t61.5 18.5t58.5 -9.5t81 -31t162.5 -21.5q51 117 51 242q0 28 -12 106q55 63 111.5 141t92.5 210q-87 0 -136.5 -21.5t-74 -31t-58.5 -9.5
t-61.5 18.5t-27.5 61.5q0 88 88 88q34 0 129 -28.5t158 -28.5q49 145 49 250q0 196 78 196t94 -24.5t16 -60.5t-20.5 -66.5t-78.5 -105t-93 -189.5q64 0 157.5 28.5t135.5 28.5q82 0 82 -92q0 -39 -27.5 -57.5t-61.5 -18.5t-58.5 9.5t-82 31t-162.5 21.5q-49 -107 -49 -242
q0 -48 11 -107q-55 -63 -111.5 -140t-93.5 -210q87 0 136.5 21.5t74 31t58.5 9.5t61.5 -18.5t27.5 -61.5q0 -88 -88 -88q-34 0 -129 28.5t-158 28.5q-49 -145 -49 -256q0 -190 -110 -190z" />
    <glyph glyph-name="bullet" unicode="&#x2022;" horiz-adv-x="1024" 
d="M514 997q70 0 130.5 -25.5t105.5 -70.5t70.5 -105.5t25.5 -130t-25.5 -130t-70.5 -105.5t-105.5 -71.5t-130.5 -26.5t-131 26.5t-106.5 71.5t-71 105.5t-25.5 130t25.5 130t71 105.5t106.5 70.5t131 25.5z" />
    <glyph glyph-name="ellipsis" unicode="&#x2026;" horiz-adv-x="2048" 
d="M1600 0q-104 0 -103 111q0 54 34 98.5t84 44.5q103 0 103 -112q0 -54 -34 -98t-84 -44zM918 0q-104 0 -103 111q0 54 34 98.5t84 44.5q103 0 103 -112q0 -54 -34 -98t-84 -44zM236 2q-104 0 -103 112q0 54 34 98t84 44q103 0 103 -111q0 -54 -34 -98.5t-84 -44.5z" />
    <glyph glyph-name="perthousand" unicode="&#x2030;" horiz-adv-x="2048" 
d="M1566 18q64 0 126.5 66t106.5 156t68.5 184t24.5 136q0 82 -21.5 126.5t-86.5 44.5q-64 0 -126.5 -65.5t-106.5 -155.5t-68.5 -185.5t-24.5 -158.5q0 -148 108 -148zM1497 -23q-166 0 -166 181q0 92 43 199.5t115 199.5t166 153.5t198 61.5q166 0 166 -180
q0 -92 -43 -199.5t-114.5 -200t-165.5 -154t-199 -61.5zM884 18q64 0 126.5 66t106.5 156t68.5 184t24.5 136q0 82 -21.5 126.5t-86.5 44.5q-64 0 -126.5 -65.5t-106.5 -155.5t-68.5 -185.5t-24.5 -158.5q0 -148 108 -148zM815 -23q-166 0 -166 181q0 92 43 199.5t115 199.5
t166 153.5t198 61.5q166 0 166 -180q0 -92 -43 -199.5t-114.5 -200t-165.5 -154t-199 -61.5zM1217 1331l-945 -1351h-82l945 1351h82zM195 729q0 -151 96 -151q76 0 138.5 65.5t106.5 155.5t68.5 184.5t24.5 136.5q0 82 -22.5 126t-86.5 44t-126 -65.5t-106 -155.5
t-68.5 -185.5t-24.5 -154.5zM233 537q-165 0 -165 180q0 92 43 199.5t114.5 199.5t166 153.5t198.5 61.5q166 0 166 -180q0 -92 -43 -199.5t-115 -200t-166 -153.5t-199 -61z" />
    <glyph glyph-name="guilsinglleft" unicode="&#x2039;" horiz-adv-x="569" 
d="M72 411.5q0 16.5 27.5 40t76.5 57.5t116.5 80t147.5 103l25 -20l-270 -277q26 -98 108 -289l-31 -28q-59 98 -112.5 177t-70.5 109.5t-17 47z" />
    <glyph glyph-name="guilsinglright" unicode="&#x203a;" horiz-adv-x="569" 
d="M381 358.5q0 -16.5 -27.5 -40t-77 -57.5t-117 -79t-147.5 -104l-24 20l270 277q-21 81 -108 289l30 28q40 -65 103 -160.5t80.5 -126t17.5 -47z" />
    <glyph glyph-name="fraction" unicode="&#x2044;" horiz-adv-x="342" 
d="M-250 -41h-92l934 1405h92z" />
    <glyph glyph-name="trademark" unicode="&#x2122;" horiz-adv-x="2027" 
d="M1061 1135v-459q0 -66 20.5 -94.5t85.5 -36.5v-41h-266v41q68 8 87.5 36.5t19.5 94.5v512q-16 47 -56.5 74.5t-83.5 27.5v41h236l321 -645l336 645h201v-41q-66 -4 -90.5 -33.5t-24.5 -82.5v-515q0 -79 11 -92.5t90 -21.5v-41h-334v41q78 8 89 20.5t12 34t1 59.5v482h-4
l-317 -643h-19l-311 637h-4zM494 659q0 -79 11.5 -92.5t90.5 -21.5v-41h-336v41q79 8 89.5 20.5t11.5 34t1 59.5v631h-106q-66 0 -95.5 -41t-43.5 -98h-37v180h696v-180h-37q-14 57 -44.5 98t-94.5 41h-106v-631z" />
    <glyph glyph-name="minus" unicode="&#x2212;" horiz-adv-x="1024" 
d="M90 436h766v-102h-766v102z" />
    <glyph glyph-name="fi" unicode="&#xfb01;" horiz-adv-x="1062" 
d="M786 82q81 0 150.5 72.5t75.5 72.5t6 -9t-30 -44t-112.5 -108.5t-183.5 -73.5t-126 44t-25 68t20.5 82t51 144t67.5 189.5t68 201.5h-363q-169 -676 -296 -868.5t-197 -241.5t-121 -49q-103 0 -103 90q0 29 25.5 51.5t58.5 22.5t45.5 -13.5t17.5 -30t10 -29.5t25 -13
q45 0 80 52t61.5 120.5t44.5 138t46 171.5t65 265.5t86 333.5h-176l9 49h184q130 463 321 575.5t333 112.5t181 -56t39 -101t-29.5 -68t-70.5 -23t-64.5 29t-23.5 66t14 51q-47 57 -157 57q-222 0 -298.5 -299t-91.5 -344h510q-14 -49 -111 -295.5t-97 -319.5t81 -73z" />
    <glyph glyph-name="fl" unicode="&#xfb02;" horiz-adv-x="1062" 
d="M690 149q0 -55 98 -55q68 0 122.5 42t72.5 61.5t21 19.5q14 0 14 -10t-36 -45t-128.5 -102.5t-172.5 -67.5q-81 0 -113.5 40t-32.5 75t141.5 454.5t255.5 773.5q-43 37 -80 57.5t-97 20.5t-108.5 -35t-86.5 -91t-66.5 -128t-51 -142.5t-40 -136t-31.5 -110.5h198l-16 -49
h-201q-126 -435 -186 -591.5t-128.5 -280t-162.5 -218.5q-64 -69 -143 -69q-35 0 -66 21.5t-31 57.5t19.5 60.5t56.5 24.5t54.5 -18.5t27.5 -59.5q12 -4 21 -4q124 0 181.5 246.5t83.5 339.5t56.5 226.5t71.5 264.5h-178l10 49h184q54 261 226.5 474.5t412.5 213.5l119 -10
q37 0 76 10t73 15q0 -9 -51 -151t-90 -257t-169 -493.5t-130 -422.5z" />
  </font>
</defs>
</svg>
