<?xml version="1.0" standalone="no"?>
<!DOCTYPE svg PUBLIC "-//W3C//DTD SVG 1.1//EN" "http://www.w3.org/Graphics/SVG/1.1/DTD/svg11.dtd" >
<svg>
<metadata>
Created by FontForge 20110222 at Sun Jun  1 01:30:01 2014
 By Orthosie Webhosting
Copyright (c) 1989, 1994 Adobe Systems Incorporated.  All Rights Reserved.
</metadata>
<defs>
<font id="FranklinGothic-ExtraCond" horiz-adv-x="352" >
  <font-face 
    font-family="Franklin Gothic"
    font-weight="400"
    font-stretch="condensed"
    units-per-em="1000"
    panose-1="2 0 5 6 5 0 0 2 0 4"
    ascent="800"
    descent="-200"
    x-height="502"
    cap-height="712"
    bbox="-78 -250 1000 886"
    underline-thickness="50"
    underline-position="-50"
    unicode-range="U+0020-FB02"
  />
<missing-glyph horiz-adv-x="194" 
 />
    <glyph glyph-name="fi" unicode="fi" horiz-adv-x="389" 
d="M248 712h116v-116h-116v116zM248 502h116v-502h-116v502zM46 412h-58v90h58v109q0 52 31 80.5t84 28.5q15 0 26.5 -1.5t25.5 -3.5v-91h-6q-16 0 -25 -5.5t-13.5 -14.5t-5.5 -20.5t-1 -23.5v-58h51v-90h-51v-412h-116v412z" />
    <glyph glyph-name="fl" unicode="fl" horiz-adv-x="389" 
d="M248 712h116v-712h-116v712zM46 412h-58v90h58v109q0 52 31 80.5t84 28.5q15 0 26.5 -1.5t25.5 -3.5v-91h-6q-16 0 -25 -5.5t-13.5 -14.5t-5.5 -20.5t-1 -23.5v-58h51v-90h-51v-412h-116v412z" />
    <glyph glyph-name=".notdef" horiz-adv-x="194" 
 />
    <glyph glyph-name=".null" horiz-adv-x="0" 
 />
    <glyph glyph-name="nonmarkingreturn" horiz-adv-x="194" 
 />
    <glyph glyph-name="space" unicode=" " horiz-adv-x="194" 
 />
    <glyph glyph-name="space" unicode="&#xa0;" horiz-adv-x="194" 
 />
    <glyph glyph-name="dollar" unicode="$" horiz-adv-x="388" 
d="M226 88q51 23 51 79q0 29 -14 53t-37 39v-171zM166 636q-3 0 -10.5 -6.5t-15.5 -18t-14 -27.5t-6 -36q0 -61 46 -94v182zM166 301q-67 43 -101.5 95.5t-34.5 132.5q0 31 9.5 61.5t27 56.5t42.5 45.5t57 27.5v60h60v-60q63 -10 92.5 -48.5t37.5 -99.5l-78 -21q0 18 -5 34
t-13 27t-17 17.5t-17 6.5v-223q36 -24 63.5 -46.5t46 -48.5t28 -59.5t9.5 -79.5q0 -33 -10.5 -64t-30 -56t-46.5 -42.5t-60 -24.5v-66h-60v66q-65 8 -103.5 53t-47.5 107l87 21q4 -28 18.5 -54.5t45.5 -30.5v213z" />
    <glyph glyph-name="percent" unicode="%" horiz-adv-x="464" 
d="M278 197q0 22 2 49.5t10.5 51.5t25 41t46.5 18q30 -1 46.5 -18t25 -41t10.5 -51.5t2 -49.5v-45q0 -22 -2 -49.5t-10.5 -51.5t-25 -41t-46.5 -18q-30 1 -46.5 18t-25 41t-10.5 51.5t-2 49.5v45zM361 303q-12 0 -17.5 -28t-5.5 -101q1 -72 6.5 -100t17.5 -28t17.5 28
t6.5 100q0 73 -5.5 101t-19.5 28zM310 711h74l-231 -711h-76zM18 560q0 22 2 49.5t10.5 51.5t25 41t46.5 18q30 -1 46.5 -18t25 -41t10.5 -51.5t2 -49.5v-45q0 -22 -2 -49.5t-10.5 -51.5t-25 -41t-46.5 -18q-30 1 -46.5 18t-25 41t-10.5 51.5t-2 49.5v45zM101 666
q-12 0 -17.5 -28t-5.5 -101q1 -72 6.5 -100t17.5 -28t17.5 28t6.5 100q0 73 -5.5 101t-19.5 28z" />
    <glyph glyph-name="ampersand" unicode="&#x26;" horiz-adv-x="444" 
d="M167 288q-17 -18 -26.5 -39t-9.5 -49q0 -16 4 -34t13 -33.5t22.5 -26t32.5 -10.5q17 0 28.5 12t20.5 24zM444 0q-44 0 -77 13.5t-59 44.5q-24 -32 -59.5 -52t-77.5 -20q-40 0 -69.5 16t-48.5 41.5t-28.5 56.5t-9.5 61q0 63 29.5 118t77.5 109q-12 25 -22 47.5t-17.5 45.5
t-12 47t-4.5 51q0 67 40.5 107t106.5 40q33 0 58.5 -12.5t42.5 -32.5t26 -46t9 -53q0 -35 -7.5 -60t-21 -46t-32 -41.5t-39.5 -45.5q12 -34 29.5 -64.5t34.5 -62.5q9 28 15 57t10 58l86 -19q-7 -52 -20 -103t-35 -97q12 -20 30 -34.5t45 -19.5v-104zM176 579q0 -26 9.5 -55
t19.5 -52q17 22 31.5 45.5t14.5 55.5q0 23 -8.5 40t-30.5 17q-20 0 -28 -15.5t-8 -35.5z" />
    <glyph glyph-name="quoteright" unicode="&#x2019;" horiz-adv-x="186" 
d="M28 712h130v-120l-77 -160h-52l47 150h-48v130z" />
    <glyph glyph-name="parenleft" unicode="(" horiz-adv-x="296" 
d="M275 697q-60 -97 -93 -198.5t-33 -217.5t33 -217.5t93 -198.5l-71 -46q-32 45 -61 101t-51 117t-34.5 123.5t-12.5 120.5t12.5 120.5t34.5 123.5t51 117t61 101z" />
    <glyph glyph-name="parenright" unicode=")" horiz-adv-x="296" 
d="M21 -135q60 97 93 198.5t33 217.5t-33 217.5t-93 198.5l71 46q32 -45 61 -101t50.5 -117t34.5 -123.5t13 -120.5t-13 -120.5t-34.5 -123.5t-50.5 -117t-61 -101z" />
    <glyph glyph-name="asterisk" unicode="*" horiz-adv-x="185" 
d="M9 648l57 -6l-32 48l37 20l22 -55l23 57l37 -24l-35 -46l58 6v-42l-58 6l35 -47l-37 -24l-25 57l-23 -55l-38 22l38 47l-59 -6v42z" />
    <glyph glyph-name="plus" unicode="+" horiz-adv-x="600" 
d="M47 301h205v205h96v-205h205v-96h-205v-205h-96v205h-205v96z" />
    <glyph glyph-name="comma" unicode="," horiz-adv-x="194" 
d="M80 0h-48v130h130v-120l-77 -160h-52z" />
    <glyph glyph-name="hyphen" unicode="-" horiz-adv-x="242" 
d="M22 318h198v-96h-198v96z" />
    <glyph glyph-name="hyphen" unicode="&#xad;" horiz-adv-x="242" 
d="M22 318h198v-96h-198v96z" />
    <glyph glyph-name="period" unicode="." horiz-adv-x="194" 
d="M32 130h130v-130h-130v130z" />
    <glyph glyph-name="slash" unicode="/" horiz-adv-x="296" 
d="M214 726h90l-224 -740h-88z" />
    <glyph glyph-name="zero" unicode="0" horiz-adv-x="388" 
d="M364 356q0 -111 -15 -182t-39 -111.5t-54.5 -55.5t-61.5 -15q-32 0 -62.5 14.5t-54.5 54.5t-38.5 111t-14.5 184t14.5 184t38.5 111t54.5 54.5t62.5 14.5q31 0 61.5 -15.5t54.5 -56t39 -111t15 -181.5zM240 356q0 93 -3.5 146.5t-9.5 80.5t-14.5 34t-18.5 7t-18.5 -7
t-14.5 -34t-9.5 -80.5t-3.5 -146.5t3.5 -146.5t9.5 -80.5t14.5 -34t18.5 -7t18.5 7t14.5 34t9.5 80.5t3.5 146.5z" />
    <glyph glyph-name="one" unicode="1" horiz-adv-x="278" 
d="M3 96h78v473l-78 -13v79q16 7 34 15.5t36.5 18t35.5 20.5t31 23h57v-616h78v-96h-272v96z" />
    <glyph glyph-name="two" unicode="2" 
d="M7 92q34 58 71 115t67.5 112.5t50 108.5t19.5 102q0 14 -1 30.5t-5 30.5t-12 23.5t-23 9.5q-20 0 -33 -27.5t-14 -98.5l-110 10q0 43 10.5 81.5t31.5 67.5t52.5 46t73.5 17q39 0 69 -14.5t50 -39.5t30.5 -58.5t10.5 -71.5q0 -59 -24 -116t-58.5 -111t-73 -102.5
t-67.5 -90.5h206v-116h-321v92z" />
    <glyph glyph-name="three" unicode="3" 
d="M105 410q33 -2 53.5 8t32.5 27t16.5 40.5t4.5 50.5q0 17 -1.5 33t-6.5 28t-14 19.5t-24 7.5q-8 0 -15.5 -3.5t-13.5 -13t-10.5 -26t-5.5 -42.5l-102 10q3 36 13.5 67t30 54t48 36.5t67.5 13.5q38 0 66 -14.5t47 -39t28 -56.5t9 -67q0 -58 -21 -103t-78 -67v-2
q65 -17 91.5 -66t26.5 -113q0 -97 -51 -148.5t-137 -51.5q-39 0 -68 13.5t-48 37t-28.5 55.5t-9.5 69l110 7q0 -12 1.5 -26.5t6.5 -28t14 -22.5t25 -9q28 0 41.5 29.5t13.5 81.5q0 64 -23.5 89.5t-88.5 25.5v96z" />
    <glyph glyph-name="four" unicode="4" 
d="M173 588h-2l-97 -322h99v322zM1 280l137 432h145v-448h68v-88h-68v-176h-110v176h-172v104z" />
    <glyph glyph-name="five" unicode="5" 
d="M123 177q0 -53 11 -71t33 -18q23 0 35.5 31t12.5 106q0 61 -12 94t-46 33q-24 0 -37 -13.5t-24 -33.5l-80 25l26 382h280l-8 -110h-184l-12 -167q17 8 34.5 14.5t36.5 6.5q32 0 60.5 -12t49.5 -38t33.5 -67t12.5 -98q0 -69 -15.5 -117t-40.5 -77t-57 -42t-65 -13
q-43 0 -73 12.5t-49 36t-28 56t-10 73.5z" />
    <glyph glyph-name="six" unicode="6" horiz-adv-x="388" 
d="M154 229q1 -63 9 -102t34 -39q12 0 20 6.5t13.5 22t7.5 42.5t2 68q0 37 -4 60.5t-10 36.5t-14.5 18t-17.5 5q-16 0 -26 -7t-14 -12v-99zM246 526q-4 48 -10 73t-28 25q-18 0 -28 -16t-15.5 -46t-8 -72.5t-5.5 -96.5h2q16 24 37 37t52 13q22 0 43.5 -10.5t39 -34t28.5 -62
t11 -94.5q0 -60 -12.5 -107t-35 -78.5t-53 -48t-66.5 -16.5q-34 0 -65 13t-55 49.5t-38.5 102t-14.5 170.5q0 108 14 183t39 121.5t59 67.5t74 21q39 0 66 -16.5t44 -42.5t25.5 -59t10.5 -67z" />
    <glyph glyph-name="seven" unicode="7" horiz-adv-x="315" 
d="M0 712h316v-83q-67 -143 -92 -300.5t-26 -328.5h-148q5 85 18.5 160.5t34 147.5t47 143t56.5 145h-206v116z" />
    <glyph glyph-name="eight" unicode="8" horiz-adv-x="370" 
d="M139 566q0 -35 18 -71t44 -55q17 25 29 54t12 59q0 12 -2.5 25t-8.5 23t-16.5 16.5t-26.5 6.5q-23 0 -36 -19t-13 -39zM121 172q0 -28 5.5 -45.5t14 -27.5t19 -13.5t21.5 -3.5q10 0 21 4t20 14t15 25.5t6 38.5q0 22 -7 40.5t-18.5 35t-26 31.5t-30.5 30q-8 -10 -15 -25
t-12.5 -32.5t-9 -36t-3.5 -35.5zM11 172q0 58 29.5 100.5t74.5 74.5q-38 32 -62 81t-24 100q0 38 10 73t30.5 61.5t51 42t72.5 15.5q34 0 60.5 -13.5t45.5 -36t29 -52t10 -60.5q0 -57 -21.5 -95t-66.5 -71q22 -23 41.5 -45.5t34.5 -48t24 -54t9 -61.5t-10 -67t-31.5 -61.5
t-55.5 -45t-82 -17.5q-41 0 -72 13.5t-53 37.5t-33 57t-11 72z" />
    <glyph glyph-name="nine" unicode="9" horiz-adv-x="388" 
d="M234 483q-1 63 -9 102t-34 39q-12 0 -20 -6.5t-13.5 -22t-7.5 -42.5t-2 -68q0 -37 4 -60.5t10 -36.5t14.5 -18t17.5 -5q16 0 26 7t14 12v99zM142 186q4 -48 10 -73t28 -25q18 0 28 16t15.5 46t8 72.5t5.5 96.5h-2q-16 -24 -37 -37t-52 -13q-22 0 -43.5 10.5t-39 34
t-28.5 62t-11 94.5q0 60 12.5 107t35 78.5t53 48t66.5 16.5q34 0 65 -13t55 -49.5t38.5 -102t14.5 -170.5q0 -108 -14 -183t-39 -121.5t-59 -67.5t-74 -21q-39 0 -66 16t-44 42.5t-25.5 59.5t-10.5 67z" />
    <glyph glyph-name="colon" unicode=":" horiz-adv-x="194" 
d="M32 130h130v-130h-130v130zM32 506h130v-130h-130v130z" />
    <glyph glyph-name="semicolon" unicode=";" horiz-adv-x="194" 
d="M32 506h130v-130h-130v130zM32 130h130v-120l-77 -160h-52l47 150h-48v130z" />
    <glyph glyph-name="semicolon" unicode="&#x37e;" horiz-adv-x="194" 
d="M32 506h130v-130h-130v130zM32 130h130v-120l-77 -160h-52l47 150h-48v130z" />
    <glyph glyph-name="less" unicode="&#x3c;" horiz-adv-x="600" 
d="M47 293l506 221v-95l-383 -166l383 -166v-95l-506 221v80z" />
    <glyph glyph-name="equal" unicode="=" horiz-adv-x="600" 
d="M47 194h506v-96h-506v96zM47 408h506v-96h-506v96z" />
    <glyph glyph-name="greater" unicode="&#x3e;" horiz-adv-x="600" 
d="M553 213l-506 -221v95l383 166l-383 166v95l506 -221v-80z" />
    <glyph glyph-name="question" unicode="?" 
d="M115 130h130v-130h-130v130zM128 252q0 67 13.5 109t29.5 73q8 15 16 29t14.5 28.5t10.5 30t4 34.5q0 32 -11 53t-36 21q-28 0 -40.5 -32t-12.5 -86l-96 7q0 41 8 77.5t27 64t49 43.5t75 16q31 0 58.5 -10.5t48.5 -29.5t33.5 -46.5t12.5 -61.5q0 -27 -4.5 -48t-11.5 -39
t-16 -34.5t-18 -33.5t-18 -35t-16 -40.5t-11.5 -50t-4.5 -62.5v-18h-104v41z" />
    <glyph glyph-name="at" unicode="@" horiz-adv-x="666" 
d="M508 431l-50 -204q-5 -18 -5 -35q0 -8 2.5 -13t10.5 -5q15 0 30.5 10.5t28.5 30.5t21.5 48t8.5 63q0 42 -14.5 77t-42 60.5t-69 40t-95.5 14.5q-38 0 -76.5 -15.5t-69.5 -45.5t-51 -74t-20 -101q0 -54 17.5 -97.5t49 -74t75 -47.5t95.5 -17q50 0 94.5 18.5t76.5 50.5h66
q-41 -63 -103.5 -96t-137.5 -33q-63 0 -119 22.5t-97 62t-65 94t-24 117.5q0 69 25.5 123.5t66.5 93t92.5 59t104.5 20.5q62 0 114.5 -18t91 -50t60 -75t21.5 -93q0 -61 -21.5 -105.5t-52.5 -73.5t-65 -43t-59 -14q-18 0 -31 11.5t-14 34.5h-2q-17 -18 -40 -32t-46 -14
q-26 0 -48.5 11t-39.5 29.5t-26.5 43t-9.5 51.5q0 37 12 73t34.5 64t54.5 45t71 17q29 0 53 -12t41 -41l12 44h64zM244 252q0 -30 17.5 -52t46.5 -22q22 0 40 11.5t31 29.5t20.5 40t7.5 42q0 29 -17.5 48t-44.5 19q-22 0 -40.5 -11t-32 -27.5t-21 -37.5t-7.5 -40z" />
    <glyph glyph-name="A" unicode="A" horiz-adv-x="388" 
d="M106 712h188l88 -712h-125l-19 158h-105l-18 -158h-109zM189 602h-2l-41 -340h81z" />
    <glyph glyph-name="B" unicode="B" horiz-adv-x="407" 
d="M42 712h160q30 0 61 -9t56.5 -30t42 -55.5t16.5 -85.5q0 -60 -28 -103t-88 -56v-2q67 -16 98.5 -60.5t31.5 -112.5q0 -49 -15.5 -86t-41 -62t-58.5 -37.5t-69 -12.5h-166v712zM172 420q49 0 65.5 23t16.5 71q0 30 -3.5 49t-13 29t-25.5 13t-40 3v-188zM172 104q29 0 47 6
t27.5 18.5t12.5 32.5t3 48q0 24 -3.5 43t-13.5 32t-27.5 19.5t-45.5 6.5v-206z" />
    <glyph glyph-name="C" unicode="C" horiz-adv-x="407" 
d="M260 454q0 89 -11.5 125.5t-35.5 36.5q-10 0 -20 -6.5t-17.5 -32.5t-12 -78t-4.5 -143q0 -88 3 -139.5t9 -78.5t16.5 -34.5t25.5 -7.5q32 0 42.5 45.5t12.5 123.5l110 -5q0 -47 -5 -95.5t-23 -88t-51.5 -65t-90.5 -25.5q-52 0 -87.5 25t-57 72.5t-31 116t-9.5 156.5
q0 102 14.5 172.5t39.5 114.5t58.5 63.5t72.5 19.5q56 0 89.5 -23.5t51 -61.5t22.5 -86t5 -97z" />
    <glyph glyph-name="D" unicode="D" horiz-adv-x="426" 
d="M172 110q31 0 48 8.5t25.5 34.5t10.5 74.5t2 129.5t-2 129t-10.5 73.5t-25.5 34t-48 8.5v-492zM42 712h113q82 0 129.5 -25.5t72 -72t31 -112t6.5 -146.5q0 -77 -6 -142.5t-28 -113t-65.5 -74t-118.5 -26.5h-134v712z" />
    <glyph glyph-name="E" unicode="E" 
d="M42 712h294v-110h-164v-182h121v-116h-121v-194h171v-110h-301v712z" />
    <glyph glyph-name="F" unicode="F" horiz-adv-x="333" 
d="M42 712h291v-110h-161v-190h119v-116h-119v-296h-130v712z" />
    <glyph glyph-name="G" unicode="G" horiz-adv-x="407" 
d="M263 458q0 12 0.5 38.5t-3.5 53t-14 46.5t-31 20q-12 0 -22.5 -8.5t-18 -35.5t-11.5 -78t-4 -137q0 -88 4 -139.5t12 -78.5t19.5 -35t26.5 -8q18 0 29 16t16 37.5t6.5 43.5t1.5 35h-48v104h158v-332h-55l-18 47q-15 -23 -42 -42t-61 -19q-52 0 -87.5 25t-57 72.5t-31 116
t-9.5 156.5q0 102 14.5 172.5t39.5 114.5t58.5 63.5t72.5 19.5q31 0 62 -9t55 -33.5t39 -68t15 -111.5v-46h-116z" />
    <glyph glyph-name="H" unicode="H" horiz-adv-x="426" 
d="M42 712h130v-286h82v286h130v-712h-130v302h-82v-302h-130v712z" />
    <glyph glyph-name="I" unicode="I" horiz-adv-x="204" 
d="M37 712h130v-712h-130v712z" />
    <glyph glyph-name="J" unicode="J" horiz-adv-x="259" 
d="M222 137q0 -41 -8.5 -69t-26 -45t-45 -24t-66.5 -7q-20 0 -37 2t-33 4v113q21 -3 44 -3q20 0 31 16.5t11 45.5v542h130v-575z" />
    <glyph glyph-name="K" unicode="K" horiz-adv-x="426" 
d="M42 712h130v-298h2l108 298h116l-97 -239l117 -473h-125l-72 319h-2l-47 -112v-207h-130v712z" />
    <glyph glyph-name="L" unicode="L" 
d="M42 712h130v-602h166v-110h-296v712z" />
    <glyph glyph-name="M" unicode="M" horiz-adv-x="537" 
d="M37 712h173l58 -365h2l61 365h169v-712h-116v522h-2l-88 -522h-72l-87 522h-2v-522h-96v712z" />
    <glyph glyph-name="N" unicode="N" horiz-adv-x="426" 
d="M37 712h127l119 -376h2v376h104v-712h-101l-139 431h-2v-431h-110v712z" />
    <glyph glyph-name="O" unicode="O" horiz-adv-x="426" 
d="M165 281q0 -58 3.5 -94t9.5 -56.5t15 -27.5t20 -7t20 7t15 27.5t9.5 56.5t3.5 94v150q0 58 -3.5 94t-9.5 56t-15 27.5t-20 7.5t-20 -7.5t-15 -27.5t-9.5 -56t-3.5 -94v-150zM23 356q0 105 13.5 176t38.5 114t60 61.5t78 18.5t78 -18.5t60 -61.5t38.5 -114t13.5 -176
t-13.5 -176t-38.5 -114t-60 -61.5t-78 -18.5t-78 18.5t-60 61.5t-38.5 114t-13.5 176z" />
    <glyph glyph-name="P" unicode="P" horiz-adv-x="389" 
d="M42 712h130q110 0 167 -49t57 -164q0 -48 -9.5 -87.5t-30.5 -67.5t-53.5 -43.5t-78.5 -15.5h-52v-285h-130v712zM173 389h11q20 0 35 4.5t25.5 16.5t16 33t5.5 53q0 39 -7 60t-18.5 31.5t-26.5 12.5t-31 2h-10v-213z" />
    <glyph glyph-name="Q" unicode="Q" horiz-adv-x="426" 
d="M165 281q0 -58 3.5 -94t9.5 -56.5t15 -27.5t20 -7t20 7t15 27.5t9.5 56.5t3.5 94v150q0 58 -3.5 94t-9.5 56t-15 27.5t-20 7.5t-20 -7.5t-15 -27.5t-9.5 -56t-3.5 -94v-150zM23 356q0 105 13.5 176t38.5 114t60 61.5t78 18.5t78 -18.5t60 -61.5t38.5 -114t13.5 -176
q0 -124 -18.5 -200.5t-52.5 -116.5q8 -20 24 -27.5t30 -7.5q5 0 9 0.5t8 1.5v-118h-28q-21 0 -41.5 3.5t-38.5 14t-33 30t-25 52.5q-5 -2 -11.5 -2h-12.5q-43 0 -78 18.5t-60 61.5t-38.5 114t-13.5 176z" />
    <glyph glyph-name="R" unicode="R" horiz-adv-x="407" 
d="M42 712h146q46 0 84 -10.5t65 -34.5t42 -62.5t15 -94.5q0 -23 -3.5 -48t-12.5 -49t-23.5 -44t-36.5 -33l77 -336h-131l-61 306h-31v-306h-130v712zM172 410h26q18 0 30.5 8.5t20.5 22t11.5 31.5t3.5 37q0 58 -19.5 78.5t-52.5 20.5h-20v-198z" />
    <glyph glyph-name="S" unicode="S" horiz-adv-x="370" 
d="M131 206q0 -15 1 -34t6 -36t16.5 -28.5t32.5 -11.5q16 0 27 6.5t18 17t10 22.5t3 23q0 32 -17.5 57t-43.5 48t-57 47t-57 54t-43.5 69t-17.5 92q0 40 11 75.5t32 61.5t52.5 41.5t72.5 15.5q44 0 75 -16t50.5 -44.5t29 -68.5t10.5 -88h-116q0 15 -1 33.5t-5.5 35
t-15.5 27.5t-30 11q-23 0 -36 -18t-13 -47q0 -30 17.5 -55t43.5 -48.5t57 -48.5t57 -56t43.5 -70t17.5 -91q0 -41 -11.5 -76.5t-34 -62t-56 -42t-77.5 -15.5q-52 0 -84.5 20.5t-51 52.5t-25 71t-6.5 76h116z" />
    <glyph glyph-name="T" unicode="T" horiz-adv-x="334" 
d="M102 602h-112v110h354v-110h-112v-602h-130v602z" />
    <glyph glyph-name="U" unicode="U" horiz-adv-x="407" 
d="M37 712h130v-551q0 -12 1.5 -23.5t6.5 -21t14 -15t23 -5.5q27 0 37.5 19.5t10.5 45.5v551h110v-534q0 -105 -44 -148.5t-122 -43.5q-38 0 -68.5 10.5t-52.5 33t-34 59t-12 89.5v534z" />
    <glyph glyph-name="V" unicode="V" horiz-adv-x="370" 
d="M4 712h127l61 -500h2l67 500h105l-107 -712h-149z" />
    <glyph glyph-name="W" unicode="W" horiz-adv-x="556" 
d="M4 712h118l46 -418h2l62 418h117l57 -418h2l51 418h93l-93 -712h-118l-62 451h-2l-64 -451h-114z" />
    <glyph glyph-name="X" unicode="X" 
d="M108 363l-114 349h130l54 -191h2l48 191h111l-106 -331l126 -381h-131l-63 214h-2l-60 -214h-110z" />
    <glyph glyph-name="Y" unicode="Y" horiz-adv-x="334" 
d="M102 275l-119 437h129l62 -279h2l66 279h109l-119 -425v-287h-130v275z" />
    <glyph glyph-name="Z" unicode="Z" horiz-adv-x="315" 
d="M2 73l164 529h-150v110h297v-66l-169 -536h164v-110h-306v73z" />
    <glyph glyph-name="bracketleft" unicode="[" horiz-adv-x="408" 
d="M152 712h218v-84h-114v-694h114v-84h-218v862z" />
    <glyph glyph-name="backslash" unicode="\" horiz-adv-x="296" 
d="M-8 726h90l222 -740h-88z" />
    <glyph glyph-name="bracketright" unicode="]" horiz-adv-x="408" 
d="M256 -150h-218v84h114v694h-114v84h218v-862z" />
    <glyph glyph-name="asciicircum" unicode="^" horiz-adv-x="600" 
d="M256 712h88l193 -394h-97l-141 298l-139 -298h-97z" />
    <glyph glyph-name="underscore" unicode="_" horiz-adv-x="500" 
d="M0 -125v50h500v-50h-500z" />
    <glyph glyph-name="quoteleft" unicode="&#x2018;" horiz-adv-x="186" 
d="M28 552l77 160h52l-47 -150h48v-130h-130v120z" />
    <glyph glyph-name="a" unicode="a" 
d="M211 245q-47 -8 -61 -35.5t-14 -70.5q0 -9 2 -19t7 -18.5t12.5 -14t19.5 -5.5q14 0 22.5 6.5t11.5 13.5v143zM41 368q0 66 39 104t105 38q47 0 75 -13.5t43 -34.5t19.5 -47t4.5 -51v-270q0 -12 3.5 -41t8.5 -53h-114l-8 46q-18 -30 -46.5 -42t-47.5 -12q-31 0 -51 12.5
t-31.5 31.5t-16 41.5t-4.5 42.5q0 89 52 140.5t139 56.5v57q0 29 -8 37.5t-23 8.5q-12 0 -20 -6t-12.5 -15t-7 -20t-3.5 -20z" />
    <glyph glyph-name="b" unicode="b" horiz-adv-x="370" 
d="M146 121q0 -29 10.5 -43t23.5 -14q15 0 23.5 14t12 38.5t4.5 58.5t1 75q0 50 -1.5 85t-6 56.5t-13 31t-23.5 9.5q-23 0 -31 -17v-294zM30 712h116v-238q17 17 35 26.5t45 9.5q24 0 45.5 -10.5t38 -39t26 -78.5t9.5 -129q0 -89 -15 -141t-37.5 -78.5t-48.5 -34t-48 -7.5
q-32 0 -55 15t-38 42l-25 -49h-48v712z" />
    <glyph glyph-name="c" unicode="c" horiz-adv-x="334" 
d="M221 319q-2 59 -8.5 83t-25.5 24q-10 0 -16 -7t-9.5 -27.5t-5 -57.5t-1.5 -96q0 -47 2 -77.5t6.5 -48t11.5 -24t17 -6.5q13 0 20.5 10t12 25.5t6.5 35t5 39.5l89 -3q-1 -35 -6 -70t-20 -63t-42 -45.5t-71 -18.5q-34 0 -63.5 13.5t-51 44.5t-34 80.5t-12.5 120.5
t12.5 120.5t34 80t51 44.5t63.5 14q42 0 68 -15.5t40.5 -41t21 -60t9.5 -71.5z" />
    <glyph glyph-name="d" unicode="d" horiz-adv-x="370" 
d="M224 416q-4 7 -12.5 11.5t-19.5 4.5q-13 0 -21 -6t-13 -24.5t-7 -54t-2 -94.5q0 -58 1.5 -93t6 -53.5t12 -24.5t20.5 -6t21.5 4.5t13.5 11.5v324zM229 40h-2q-17 -20 -35.5 -34t-52.5 -14q-63 0 -88.5 68t-25.5 192q0 125 30 191.5t94 66.5q26 0 44 -11t29 -25h2v238h116
v-712h-111v40z" />
    <glyph glyph-name="e" unicode="e" 
d="M224 305v14q0 55 -9 78t-30 23q-20 0 -28 -21.5t-8 -79.5v-14h75zM149 215v-22q0 -33 3.5 -53.5t10 -32t14.5 -15.5t17 -4q16 0 26 6t16.5 15.5t10.5 22t8 25.5l81 -24q-13 -71 -51.5 -106t-98.5 -35q-34 0 -63.5 13.5t-51 44.5t-34 80.5t-12.5 120.5t12.5 120.5t34 80
t51 44.5t63.5 14q44 0 72.5 -24.5t45.5 -60.5t23.5 -79t6.5 -80v-51h-185z" />
    <glyph glyph-name="f" unicode="f" horiz-adv-x="222" 
d="M46 412h-58v90h58v105q0 53 29 83t91 30q15 0 34 -1.5t34 -4.5v-90h-12q-33 0 -46.5 -13t-13.5 -34v-75h68v-90h-68v-412h-116v412z" />
    <glyph glyph-name="g" unicode="g" horiz-adv-x="334" 
d="M120 349q0 -46 10.5 -67t31.5 -21q20 0 30.5 21t10.5 67q0 47 -10.5 68t-30.5 21q-21 0 -31.5 -21t-10.5 -68zM247 -23q0 12 -12 20.5t-27.5 13.5t-30 8t-18.5 3q-7 -1 -19 -4.5t-24 -10t-20.5 -16.5t-8.5 -23q0 -19 16.5 -29.5t62.5 -10.5q39 0 60 13t21 36zM343 460
q-8 3 -18.5 4.5t-16.5 1.5q-8 0 -17.5 -3.5t-17.5 -9.5q18 -23 26 -47t8 -55q0 -32 -10.5 -61.5t-29.5 -52t-46.5 -35.5t-61.5 -13q-11 0 -21 1t-20 4q-7 -4 -9 -9.5t-2 -13.5q0 -15 17.5 -22.5t43.5 -13t57 -13t57 -22t43.5 -40t17.5 -67.5q0 -27 -9.5 -52.5t-30.5 -46
t-55.5 -32.5t-85.5 -12q-50 0 -83 10.5t-52.5 26t-27.5 32t-8 28.5q0 21 7.5 36t20.5 25.5t28.5 18t32.5 13.5v2q-27 8 -48 26.5t-21 49.5q0 35 19 57t47 39q-37 26 -49 61.5t-12 78.5q0 30 10 58t28.5 50t45.5 35t62 13q17 0 36.5 -4t41.5 -20q14 30 42 51t61 25v-102z" />
    <glyph glyph-name="h" unicode="h" horiz-adv-x="354" 
d="M25 711h116v-257h2q20 21 46.5 38.5t58.5 17.5q42 0 61.5 -27t19.5 -77v-406h-116v364q0 29 -9 39.5t-24 10.5q-12 0 -22.5 -5.5t-16.5 -13.5v-395h-116v711z" />
    <glyph glyph-name="i" unicode="i" horiz-adv-x="166" 
d="M25 712h116v-116h-116v116zM25 502h116v-502h-116v502z" />
    <glyph glyph-name="j" unicode="j" horiz-adv-x="166" 
d="M25 712h116v-116h-116v116zM141 0q0 -52 -13.5 -81.5t-37 -44.5t-54.5 -19t-67 -5v96q56 0 56 56v500h116v-502z" />
    <glyph glyph-name="k" unicode="k" 
d="M30 712h116v-385h2l89 175h96l-80 -152l94 -350h-116l-57 226h-1l-27 -55v-171h-116v712z" />
    <glyph glyph-name="l" unicode="l" horiz-adv-x="166" 
d="M25 712h116v-712h-116v712z" />
    <glyph glyph-name="m" unicode="m" horiz-adv-x="540" 
d="M25 502h116v-50h2q15 22 44.5 40t59.5 18q32 0 49.5 -15.5t24.5 -44.5q17 23 43.5 41.5t63.5 18.5q49 0 68 -27t19 -72v-411h-116v369q0 24 -9 34.5t-24 10.5t-24 -7.5t-14 -12.5v-394h-116v373q0 23 -10 32t-23 9t-23 -6t-15 -14v-394h-116v502z" />
    <glyph glyph-name="n" unicode="n" horiz-adv-x="354" 
d="M25 502h116v-48h2q20 21 46.5 38.5t58.5 17.5q42 0 61.5 -27t19.5 -77v-406h-116v364q0 29 -9 39.5t-24 10.5q-12 0 -22.5 -5.5t-16.5 -13.5v-395h-116v502z" />
    <glyph glyph-name="o" unicode="o" horiz-adv-x="370" 
d="M221 251q0 57 -2 91.5t-6 53t-11 24.5t-17 6t-17 -6t-11 -24.5t-6 -53t-2 -91.5t2 -91.5t6 -53t11 -24.5t17 -6t17 6t11 24.5t6 53t2 91.5zM345 251q0 -71 -12.5 -120.5t-34 -80.5t-50.5 -44.5t-63 -13.5t-63 13.5t-50.5 44.5t-34 80.5t-12.5 120.5t12.5 120.5t34 80
t50.5 44.5t63 14t63 -14t50.5 -44.5t34 -80t12.5 -120.5z" />
    <glyph glyph-name="p" unicode="p" horiz-adv-x="370" 
d="M221 249q0 58 -1.5 92.5t-6 53.5t-12 25t-20.5 6q-11 0 -20 -5.5t-15 -10.5v-324q4 -7 12.5 -11.5t19.5 -4.5q13 0 21 5.5t13 24.5t7 54.5t2 94.5zM141 462h2q9 10 17 18.5t18 15t23 10.5t30 4q63 0 88.5 -68t25.5 -192q0 -125 -30 -191.5t-94 -66.5q-26 0 -44 11t-29 25
h-2v-178h-116v652h111v-40z" />
    <glyph glyph-name="q" unicode="q" horiz-adv-x="370" 
d="M224 381q0 57 -34 57q-15 0 -23.5 -14t-12 -38.5t-4.5 -59t-1 -74.5q0 -50 1 -85t5.5 -56.5t13.5 -31t24 -9.5q22 0 31 17v294zM340 -150h-116v178q-17 -17 -35 -26.5t-45 -9.5q-24 0 -45.5 10.5t-38 39t-26 78.5t-9.5 129q0 89 15 141t37.5 78.5t48.5 34t48 7.5
q32 0 55 -15t38 -42l25 49h48v-652z" />
    <glyph glyph-name="r" unicode="r" horiz-adv-x="260" 
d="M25 502h116v-88h2q10 16 21.5 31.5t26 28.5t31 21t37.5 10v-133q-12 4 -23 5t-22 1q-22 0 -43.5 -15t-29.5 -31v-332h-116v502z" />
    <glyph glyph-name="s" unicode="s" horiz-adv-x="316" 
d="M202 362q-2 12 -4.5 23.5t-7.5 20.5t-14.5 14.5t-24.5 5.5q-17 0 -26 -13t-9 -30q0 -21 14 -36t35 -29.5t45 -29.5t45 -35t35 -47.5t14 -65.5q0 -66 -40 -107t-108 -41q-71 0 -104 39.5t-40 106.5l91 14q6 -41 17.5 -58.5t40.5 -17.5q18 0 28.5 12t10.5 29
q0 20 -13.5 34.5t-33.5 28.5t-43 30t-43 37.5t-33.5 51.5t-13.5 72q0 30 10 55.5t28.5 44t44 29t55.5 10.5t53 -10.5t38.5 -28.5t24.5 -42.5t12 -52.5z" />
    <glyph glyph-name="t" unicode="t" horiz-adv-x="259" 
d="M9 502h54v183h116v-183h73v-90h-72v-275q0 -6 1.5 -13.5t6 -14t13.5 -11t25 -4.5q11 0 19.5 1t13.5 1v-94q-26 -7 -53.5 -8.5t-45.5 -1.5q-20 0 -37.5 5t-30.5 16t-21 29t-8 44v326h-54v90z" />
    <glyph glyph-name="u" unicode="u" horiz-adv-x="354" 
d="M329 0h-116v48h-2q-20 -21 -45.5 -38.5t-54.5 -17.5q-40 0 -63 28t-23 76v406h116v-364q0 -29 9 -39.5t24 -10.5q12 0 22.5 5.5t16.5 13.5v395h116v-502z" />
    <glyph glyph-name="v" unicode="v" horiz-adv-x="316" 
d="M6 502h115l45 -272h2l47 272h95l-97 -502h-104z" />
    <glyph glyph-name="w" unicode="w" horiz-adv-x="446" 
d="M6 502h104l30 -266h2l44 266h91l41 -266h2l36 266h84l-75 -502h-98l-44 290h-2l-46 -290h-99z" />
    <glyph glyph-name="x" unicode="x" horiz-adv-x="334" 
d="M110 255l-94 247h117l40 -122h2l41 122h95l-91 -227l105 -275h-118l-49 153h-2l-51 -153h-96z" />
    <glyph glyph-name="y" unicode="y" horiz-adv-x="314" 
d="M216 8q-8 -45 -21.5 -75t-33.5 -48.5t-48 -26.5t-66 -8q-11 0 -21 1t-21 3v94q13 -2 25 -2h24q27 0 41.5 16.5t14.5 43.5q0 17 -5 37l-96 459h111l51 -264h2l41 264h94z" />
    <glyph glyph-name="z" unicode="z" horiz-adv-x="296" 
d="M20 502h270v-67l-155 -345h152v-90h-281v70l152 342h-138v90z" />
    <glyph glyph-name="braceleft" unicode="{" horiz-adv-x="333" 
d="M318 -150h-83q-26 0 -48 10t-37.5 27t-24 39t-8.5 46v172q0 18 -6.5 36t-18 32t-28 22.5t-37.5 8.5v76q21 0 37.5 8.5t28 22.5t18 32t6.5 36v172q0 24 8.5 46t24 39t37.5 27t48 10h83v-72h-53q-34 -1 -43 -20t-9 -46v-169q-1 -48 -23.5 -81t-72.5 -42v-2q50 -9 72.5 -42
t23.5 -81v-169q0 -27 9 -46t43 -20h53v-72z" />
    <glyph glyph-name="bar" unicode="|" horiz-adv-x="222" 
d="M159 750v-1000h-96v1000h96z" />
    <glyph glyph-name="braceright" unicode="}" horiz-adv-x="333" 
d="M15 712h83q26 0 48 -10t37.5 -27t24 -39t8.5 -46v-172q0 -18 6.5 -36t18 -32t28 -22.5t37.5 -8.5v-76q-21 0 -37.5 -8.5t-28 -22.5t-18 -32t-6.5 -36v-172q0 -24 -8.5 -46t-24 -39t-37.5 -27t-48 -10h-83v72h53q34 1 43 20t9 46v169q1 48 23.5 81t72.5 42v2
q-50 9 -72.5 42t-23.5 81v169q0 27 -9 46t-43 20h-53v72z" />
    <glyph glyph-name="asciitilde" unicode="~" horiz-adv-x="600" 
d="M69 246q8 16 19.5 31.5t26.5 27.5t34.5 19.5t44.5 7.5q26 0 55.5 -11t59.5 -24q29 -13 54.5 -23t43.5 -10q15 0 27.5 6.5t23 16.5t19.5 23l18 26l36 -76q-11 -16 -23.5 -31.5t-27 -27.5t-33 -19.5t-41.5 -7.5q-29 0 -55 12t-54 26q-23 11 -49.5 20.5t-58.5 9.5
q-17 0 -29.5 -6.5t-23 -16.5t-18 -23t-13.5 -26z" />
    <glyph glyph-name="exclamdown" unicode="&#xa1;" horiz-adv-x="260" 
d="M201 -142h-142l35 500h72zM195 440h-130v130h130v-130z" />
    <glyph glyph-name="cent" unicode="&#xa2;" horiz-adv-x="388" 
d="M180 -5q-45 7 -71.5 34t-41.5 64q-14 38 -18.5 80t-4.5 78q0 64 10 111t28 77.5t43 47t55 21.5v60h48v-60q34 -5 55.5 -21.5t34 -41.5t18 -57t8.5 -66l-104 -3q-2 59 -8.5 83t-25.5 24q-10 0 -16 -7t-9.5 -27.5t-5 -57.5t-1.5 -96q0 -47 2 -77.5t6.5 -48t11.5 -24
t17 -6.5q13 0 20.5 10t12 25.5t6.5 35t5 39.5l89 -3q-1 -32 -5.5 -64.5t-16.5 -59.5t-34.5 -46t-59.5 -24v-61h-48v61z" />
    <glyph glyph-name="sterling" unicode="&#xa3;" horiz-adv-x="388" 
d="M8 67q19 12 37 31t31.5 41t21.5 45.5t8 44.5q0 22 -5.5 40.5t-10.5 34.5h-57v48h42q-17 40 -35 90.5t-18 110.5q0 82 42.5 124.5t111.5 42.5q47 0 78.5 -16t50.5 -43t27.5 -64t10.5 -79l-104 -10q-1 11 -2 30.5t-6 38.5t-15 33t-29 14q-12 0 -20 -7.5t-12.5 -20.5
t-6.5 -29t-2 -33q0 -26 2.5 -49t7.5 -44.5t12 -43t15 -45.5h115v-48h-107q2 -11 3.5 -23t1.5 -29q0 -30 -6 -53.5t-16.5 -42.5t-23.5 -35.5t-28 -32.5l2 -2q8 2 16 3t16 1q15 0 26.5 -4t28.5 -4q22 0 41 16t27 37l101 -46q-22 -45 -55.5 -71t-91.5 -26q-32 0 -61.5 10
t-61.5 10q-14 0 -25.5 -2t-27.5 -10z" />
    <glyph glyph-name="fraction" unicode="&#x2044;" horiz-adv-x="168" 
d="M167 726h79l-243 -740h-81z" />
    <glyph glyph-name="fraction" unicode="&#x2215;" horiz-adv-x="168" 
d="M167 726h79l-243 -740h-81z" />
    <glyph glyph-name="yen" unicode="&#xa5;" horiz-adv-x="388" 
d="M139 156h-122v66h122v54h-122v66h98l-135 370h125l95 -332h2l100 332h106l-133 -370h102v-66h-122v-54h122v-66h-122v-156h-116v156z" />
    <glyph glyph-name="florin" unicode="&#x192;" horiz-adv-x="388" 
d="M64 419h84l14 165q4 42 15 68.5t29 41.5t43 20.5t57 5.5q26 0 54 -5v-97q-9 2 -18.5 4t-18.5 2q-27 0 -36 -19t-10 -39l-13 -147h79v-54h-84l-29 -370q-3 -42 -13 -70t-27 -44.5t-41.5 -23.5t-55.5 -7q-16 0 -32 1.5t-33 3.5v96q11 -3 20.5 -4t20.5 -1q22 0 32.5 19.5
t13.5 52.5l29 347h-80v54z" />
    <glyph glyph-name="section" unicode="&#xa7;" horiz-adv-x="388" 
d="M129 12q0 -14 2 -29.5t8.5 -29t18 -22.5t30.5 -9q33 0 49.5 24.5t16.5 62.5q0 30 -17 52t-43 41.5t-55.5 39t-55.5 42.5t-43 52.5t-17 70.5q0 45 19.5 75t42.5 54q-23 20 -39 52t-16 64q0 37 12.5 68.5t34.5 55t53 37t69 13.5q43 0 72 -11t47 -30t25.5 -44t7.5 -53v-28
h-90v15q0 79 -55 79q-36 0 -54 -24.5t-18 -63.5q0 -29 17 -51.5t43 -42.5t55.5 -40t55.5 -43.5t43 -53t17 -68.5q0 -48 -17.5 -77t-40.5 -54q24 -23 37.5 -52.5t13.5 -63.5q0 -39 -13 -70.5t-36 -53.5t-54.5 -34t-68.5 -12q-79 0 -113 44.5t-34 117.5h90zM275 242
q0 20 -15.5 40.5t-38 39t-46.5 36t-42 31.5q-10 -11 -18 -22t-8 -30q0 -20 18 -43t42 -44.5t49 -39.5t39 -27q8 9 14 23.5t6 35.5z" />
    <glyph glyph-name="currency" unicode="&#xa4;" horiz-adv-x="388" 
d="M84 355q0 -23 8.5 -44t23.5 -37t35.5 -25t44.5 -9q23 0 43 9.5t34.5 26t22.5 37.5t8 44q0 22 -8 43t-22.5 37t-34.5 25.5t-43 9.5q-24 0 -44.5 -9.5t-35.5 -25.5t-23.5 -37t-8.5 -45zM6 356q0 29 8.5 59t28.5 50l-43 44l42 42l42 -43q22 18 52 27t58 9t58 -9t52 -27
l42 43l42 -42l-43 -44q20 -20 28.5 -50t8.5 -59t-8.5 -57.5t-28.5 -51.5l43 -44l-40 -40l-43 43q-23 -20 -52.5 -29t-58.5 -9t-58.5 9t-52.5 29l-43 -43l-40 40l43 44q-20 23 -28.5 51.5t-8.5 57.5z" />
    <glyph glyph-name="quotesingle" unicode="'" horiz-adv-x="222" 
d="M63 712h96v-280h-96v280z" />
    <glyph glyph-name="quotedblleft" unicode="&#x201c;" horiz-adv-x="370" 
d="M28 552l77 160h52l-47 -150h48v-130h-130v120zM212 552l77 160h52l-47 -150h48v-130h-130v120z" />
    <glyph glyph-name="guillemotleft" unicode="&#xab;" horiz-adv-x="296" 
d="M88 430h56l-39 -156l39 -164h-56l-54 164zM206 430h56l-39 -156l39 -164h-56l-54 164z" />
    <glyph glyph-name="guilsinglleft" unicode="&#x2039;" horiz-adv-x="166" 
d="M28 266l54 164h56l-39 -164l39 -156h-56z" />
    <glyph glyph-name="guilsinglright" unicode="&#x203a;" horiz-adv-x="166" 
d="M84 110h-56l39 156l-39 164h56l54 -164z" />
    <glyph glyph-name="endash" unicode="&#x2013;" horiz-adv-x="500" 
d="M0 318h500v-96h-500v96z" />
    <glyph glyph-name="dagger" unicode="&#x2020;" horiz-adv-x="592" 
d="M254 442h-44q-42 0 -81 -2t-92 -11v104q53 -9 92 -11t81 -2h44v132q0 28 -3.5 46.5t-8.5 37.5h108q-5 -19 -8.5 -37.5t-3.5 -46.5v-132h44q42 0 81 2t92 11v-104q-53 9 -92 11t-81 2h-44v-476q0 -20 3 -52t13 -64h-116q10 32 13 64t3 52v476z" />
    <glyph glyph-name="daggerdbl" unicode="&#x2021;" horiz-adv-x="592" 
d="M254 462h-44q-42 0 -81 -2t-92 -11v104q53 -9 92 -11t81 -2h44v108q0 27 -3.5 47.5t-8.5 40.5h108q-4 -15 -8 -35.5t-4 -52.5v-108h44q42 0 81 2t92 11v-104q-53 9 -92 11t-81 2h-44v-332h44q42 0 81 2t92 11v-104q-53 9 -92 11t-81 2h-44v-86q0 -20 3 -52t13 -64h-116
q10 32 13 64t3 52v86h-44q-42 0 -81 -2t-92 -11v104q53 -9 92 -11t81 -2h44v332z" />
    <glyph glyph-name="periodcentered" unicode="&#xb7;" horiz-adv-x="194" 
d="M17 284q0 33 23.5 56.5t56.5 23.5t56.5 -23.5t23.5 -56.5t-23.5 -56.5t-56.5 -23.5t-56.5 23.5t-23.5 56.5z" />
    <glyph glyph-name="periodcentered" unicode="&#x2219;" horiz-adv-x="194" 
d="M17 284q0 33 23.5 56.5t56.5 23.5t56.5 -23.5t23.5 -56.5t-23.5 -56.5t-56.5 -23.5t-56.5 23.5t-23.5 56.5z" />
    <glyph glyph-name="paragraph" unicode="&#xb6;" horiz-adv-x="600" 
d="M273 362q-44 0 -84 9t-71 30t-49 54.5t-18 82.5q0 51 18.5 84.5t51 53.5t77.5 28t98 8h253v-848h-96v770h-84v-770h-96v498z" />
    <glyph glyph-name="bullet" unicode="&#x2022;" horiz-adv-x="500" 
d="M72 356q0 37 14 69.5t38 56.5t56.5 38t69.5 14t69.5 -14t56.5 -38t38 -56.5t14 -69.5t-14 -69.5t-38 -56.5t-56.5 -38t-69.5 -14t-69.5 14t-56.5 38t-38 56.5t-14 69.5z" />
    <glyph glyph-name="quotesinglbase" unicode="&#x201a;" horiz-adv-x="186" 
d="M28 130h130v-120l-77 -160h-52l47 150h-48v130z" />
    <glyph glyph-name="quotedblbase" unicode="&#x201e;" horiz-adv-x="370" 
d="M28 130h130v-120l-77 -160h-52l47 150h-48v130zM212 130h130v-120l-77 -160h-52l47 150h-48v130z" />
    <glyph glyph-name="quotedblright" unicode="&#x201d;" horiz-adv-x="370" 
d="M212 712h130v-120l-77 -160h-52l47 150h-48v130zM28 712h130v-120l-77 -160h-52l47 150h-48v130z" />
    <glyph glyph-name="guillemotright" unicode="&#xbb;" horiz-adv-x="296" 
d="M208 110h-56l39 156l-39 164h56l54 -164zM90 110h-56l39 156l-39 164h56l54 -164z" />
    <glyph glyph-name="ellipsis" unicode="&#x2026;" horiz-adv-x="1000" 
d="M768 130h130v-130h-130v130zM435 130h130v-130h-130v130zM102 130h130v-130h-130v130z" />
    <glyph glyph-name="perthousand" unicode="&#x2030;" horiz-adv-x="667" 
d="M481 197q0 22 2 49.5t10.5 51.5t25 41t46.5 18q30 -1 46.5 -18t25 -41t10.5 -51.5t2 -49.5v-45q0 -22 -2 -49.5t-10.5 -51.5t-25 -41t-46.5 -18q-30 1 -46.5 18t-25 41t-10.5 51.5t-2 49.5v45zM564 303q-12 0 -17.5 -28t-5.5 -101q1 -72 6.5 -100t17.5 -28t17.5 28
t6.5 100q0 73 -5.5 101t-19.5 28zM278 197q0 22 2 49.5t10.5 51.5t25 41t46.5 18q30 -1 46.5 -18t25 -41t10.5 -51.5t2 -49.5v-45q0 -22 -2 -49.5t-10.5 -51.5t-25 -41t-46.5 -18q-30 1 -46.5 18t-25 41t-10.5 51.5t-2 49.5v45zM361 303q-12 0 -17.5 -28t-5.5 -101
q1 -72 6.5 -100t17.5 -28t17.5 28t6.5 100q0 73 -5.5 101t-19.5 28zM310 711h74l-231 -711h-76zM18 560q0 22 2 49.5t10.5 51.5t25 41t46.5 18q30 -1 46.5 -18t25 -41t10.5 -51.5t2 -49.5v-45q0 -22 -2 -49.5t-10.5 -51.5t-25 -41t-46.5 -18q-30 1 -46.5 18t-25 41
t-10.5 51.5t-2 49.5v45zM101 666q-12 0 -17.5 -28t-5.5 -101q1 -72 6.5 -100t17.5 -28t17.5 28t6.5 100q0 73 -5.5 101t-19.5 28z" />
    <glyph glyph-name="questiondown" unicode="&#xbf;" 
d="M237 440h-130v130h130v-130zM224 318q0 -34 -4 -61t-10 -48.5t-13.5 -39.5t-15.5 -33q-17 -31 -31 -58t-14 -64q0 -32 11 -53t36 -21q28 0 40.5 32t12.5 86l96 -7q0 -41 -8 -77.5t-27 -64t-49 -43.5t-75 -16q-31 0 -58.5 10.5t-48.5 29.5t-33.5 46.5t-12.5 61.5
q0 27 4.5 48t11.5 39t16 34.5t18 33.5q9 16 18 34.5t16 41t11.5 50t4.5 62.5v18h104v-41z" />
    <glyph glyph-name="grave" unicode="`" horiz-adv-x="166" 
d="M-51 702h112l61 -136h-65z" />
    <glyph glyph-name="acute" unicode="&#xb4;" horiz-adv-x="166" 
d="M105 702h112l-108 -136h-65z" />
    <glyph glyph-name="circumflex" unicode="&#x2c6;" horiz-adv-x="166" 
d="M40 690h86l88 -124h-99l-33 65l-31 -65h-99z" />
    <glyph glyph-name="tilde" unicode="&#x2dc;" horiz-adv-x="166" 
d="M-48 593q6 16 12.5 29.5t16 23.5t23 15.5t33.5 5.5q10 0 23 -2.5t26.5 -6t26.5 -6t23 -2.5q13 0 18.5 4.5t8.5 12.5l51 -10q-12 -73 -89 -73q-27 0 -51.5 8.5t-39.5 8.5q-21 0 -32 -18z" />
    <glyph glyph-name="macron" unicode="&#xaf;" horiz-adv-x="166" 
d="M-42 661h250v-66h-250v66z" />
    <glyph glyph-name="macron" unicode="&#x2c9;" horiz-adv-x="166" 
d="M-42 661h250v-66h-250v66z" />
    <glyph glyph-name="breve" unicode="&#x2d8;" horiz-adv-x="166" 
d="M28 674q5 -21 20 -29.5t36 -8.5q40 0 54 38h56q-10 -43 -37.5 -71.5t-74.5 -28.5q-50 0 -75.5 27t-34.5 73h56z" />
    <glyph glyph-name="dotaccent" unicode="&#x2d9;" horiz-adv-x="166" 
d="M31 670h104v-104h-104v104z" />
    <glyph glyph-name="dieresis" unicode="&#xa8;" horiz-adv-x="166" 
d="M110 670h104v-104h-104v104zM-48 670h104v-104h-104v104z" />
    <glyph glyph-name="ring" unicode="&#x2da;" horiz-adv-x="166" 
d="M50 622q0 -14 9.5 -23.5t23.5 -9.5t23.5 9.5t9.5 23.5t-9.5 23.5t-23.5 9.5t-23.5 -9.5t-9.5 -23.5zM8 622q0 31 21.5 53t53.5 22q31 0 53 -22t22 -53t-22 -53t-53 -22q-32 0 -53.5 22t-21.5 53z" />
    <glyph glyph-name="cedilla" unicode="&#xb8;" horiz-adv-x="166" 
d="M61 6h46l-19 -42q16 3 27.5 -1.5t18.5 -14t10 -23t3 -26.5q0 -11 -2.5 -24.5t-9.5 -26t-20 -21t-34 -8.5q-30 0 -46 21.5t-16 44.5h48q0 -6 3.5 -14.5t12.5 -8.5q5 0 7.5 5.5t2.5 24.5q0 20 -2.5 25t-7.5 5t-7.5 -3t-5.5 -8l-43 23z" />
    <glyph glyph-name="hungarumlaut" unicode="&#x2dd;" horiz-adv-x="166" 
d="M165 702h112l-108 -136h-65zM23 702h112l-108 -136h-65z" />
    <glyph glyph-name="ogonek" unicode="&#x2db;" horiz-adv-x="166" 
d="M132 -144q-24 -6 -51 -6q-42 0 -67 18t-25 53q0 15 8 27.5t20.5 23t28 19t30.5 16.5h61q-10 -7 -23 -16.5t-25 -20t-20 -22t-8 -21.5q0 -14 10 -21.5t21 -7.5q12 0 20.5 1t19.5 4v-47z" />
    <glyph glyph-name="caron" unicode="&#x2c7;" horiz-adv-x="166" 
d="M-48 690h99l31 -65l33 65h99l-88 -124h-86z" />
    <glyph glyph-name="emdash" unicode="&#x2014;" horiz-adv-x="1000" 
d="M0 318h1000v-96h-1000v96z" />
    <glyph glyph-name="AE" unicode="&#xc6;" horiz-adv-x="519" 
d="M157 712h362v-110h-153v-182h109v-116h-109v-194h153v-110h-283v169h-98l-34 -169h-104zM161 273h75v355h-2z" />
    <glyph glyph-name="ordfeminine" unicode="&#xaa;" horiz-adv-x="253" 
d="M148 567q-31 -5 -39.5 -21.5t-8.5 -42.5q0 -10 5.5 -21.5t20.5 -11.5q9 0 15.5 4t6.5 9v84zM226 476q0 -7 1 -24.5t4 -31.5h-74l-5 24q-11 -15 -30 -22t-31 -7q-20 0 -33 7.5t-21 19t-11.5 25t-3.5 25.5q0 54 35 84.5t91 32.5v35q0 17 -5 22.5t-15 5.5q-16 0 -21 -13
t-7 -24l-62 6q0 40 25.5 62.5t67.5 22.5q31 0 49.5 -8t28.5 -20.5t13.5 -28.5t3.5 -31v-162z" />
    <glyph glyph-name="Oslash" unicode="&#xd8;" horiz-adv-x="426" 
d="M47 136q-24 81 -24 220q0 105 13.5 176t38.5 114t60 61.5t78 18.5q47 0 83.5 -21.5t60.5 -72.5l46 73l41 -26l-65 -104q24 -80 24 -219q0 -105 -13.5 -176t-38.5 -114t-60 -61.5t-78 -18.5q-47 0 -83.5 21t-60.5 72l-46 -73l-41 26zM167 235q1 -43 4.5 -70t9.5 -42.5
t14 -21t18 -5.5q11 0 20 7t15 27.5t9.5 56.5t3.5 94v105h-2zM259 476q-1 43 -4.5 70.5t-9.5 43t-14 21t-18 5.5q-11 0 -20 -7.5t-15 -27.5t-9.5 -56t-3.5 -94v-106h2z" />
    <glyph glyph-name="OE" unicode="&#x152;" horiz-adv-x="574" 
d="M165 356q0 -71 2 -120.5t7.5 -80.5t15 -45t23.5 -14q16 0 26.5 14t15.5 45t7 80.5t2 120.5q0 85 -3 136t-9 78.5t-16 36.5t-23 9q-11 0 -20 -9t-15 -36.5t-9.5 -78.5t-3.5 -136zM526 304h-120v-194h168v-110h-286q-8 0 -29.5 -7t-45.5 -7q-43 0 -78 18.5t-60 61.5
t-38.5 114t-13.5 176t13.5 176t38.5 114t60 61.5t78 18.5q34 0 50.5 -7t27.5 -7h279v-110h-164v-182h120v-116z" />
    <glyph glyph-name="ordmasculine" unicode="&#xba;" horiz-adv-x="240" 
d="M96 571q0 -35 1 -56t4 -32.5t7.5 -15.5t11.5 -4t11.5 4t7.5 15.5t4 32.5t1 56q0 34 -1 55t-4 32.5t-7.5 15.5t-11.5 4t-11.5 -4t-7.5 -15.5t-4 -32.5t-1 -55zM228 571q0 -43 -8.5 -72.5t-23 -48t-34.5 -27t-42 -8.5q-23 0 -42.5 8.5t-34 27t-23 48t-8.5 72.5q0 85 31 120
t77 35q22 0 42 -8t34.5 -26.5t23 -48t8.5 -72.5z" />
    <glyph glyph-name="ae" unicode="&#xe6;" horiz-adv-x="536" 
d="M404 307v12q0 55 -9 78t-30 23q-20 0 -29.5 -21.5t-9.5 -79.5v-12h78zM210 234q-30 -5 -48 -23.5t-18 -55.5q0 -9 1 -21t4.5 -22.5t11 -17.5t21.5 -7q9 0 18.5 6.5t9.5 19.5v121zM42 368q0 66 39 104t105 38q25 2 51 -11t43 -31q17 23 37 32.5t49 9.5q44 0 72.5 -24
t45.5 -60t23.5 -78.5t6.5 -81.5v-37h-188v-36q0 -33 4 -53.5t10.5 -32t15.5 -15.5t18 -4q16 0 26 6t16.5 15.5t10.5 22t8 25.5l81 -24q-13 -71 -51.5 -106t-98.5 -35q-41 2 -68 17.5t-53 44.5q-25 -29 -54.5 -45t-66.5 -17q-31 0 -51 12.5t-32 31.5t-16.5 41.5t-4.5 42.5
q0 89 52 138t138 49v67q0 29 -7 37.5t-22 8.5q-12 0 -20 -6t-12.5 -15t-7 -20t-3.5 -20z" />
    <glyph glyph-name="dotlessi" unicode="&#x131;" horiz-adv-x="166" 
d="M25 502h116v-502h-116v502z" />
    <glyph glyph-name="oslash" unicode="&#xf8;" horiz-adv-x="370" 
d="M52 84q-13 30 -20 71t-7 96q0 71 12.5 120.5t34 80t50.5 44.5t63 14q32 0 59 -12t49 -38l34 53l34 -22l-45 -70q14 -30 21.5 -72t7.5 -98q0 -71 -12.5 -120.5t-34 -80.5t-50.5 -44.5t-63 -13.5q-32 0 -60.5 12.5t-49.5 40.5l-33 -51l-33 23zM151 162q1 -28 4 -45t7 -26
t9.5 -12t13.5 -3q10 0 17 6t11 24.5t6 53t2 91.5v23h-2zM219 346q-2 26 -4.5 41.5t-7 24t-10 11.5t-12.5 3q-10 0 -17 -6t-11 -24.5t-6 -53t-2 -91.5v-17h2z" />
    <glyph glyph-name="oe" unicode="&#x153;" horiz-adv-x="556" 
d="M424 305v14q0 55 -8.5 78t-29.5 23q-20 0 -29.5 -21.5t-9.5 -79.5v-14h77zM149 251q0 -57 2 -91.5t6 -53t11 -24.5t17 -6q11 0 18 6t11.5 24.5t6.5 53t2 91.5t-2 91.5t-6.5 53t-11.5 24.5t-18 6q-10 0 -17 -6t-11 -24.5t-6 -53t-2 -91.5zM536 133q-12 -71 -50.5 -106
t-98.5 -35q-32 0 -54 11t-45 32q-21 -26 -47.5 -34.5t-55.5 -8.5q-34 0 -63 13.5t-50.5 44.5t-34 80.5t-12.5 120.5t12.5 120.5t34 80t50.5 44.5t63 14q29 0 57 -11t48 -31q21 21 43.5 31.5t53.5 10.5q44 0 72.5 -24t45 -60t23 -78.5t6.5 -81.5v-51h-187v-22q0 -33 4 -53.5
t10.5 -32t15.5 -15.5t18 -4q16 0 26 6t16 15.5t10 22t8 25.5z" />
    <glyph glyph-name="germandbls" unicode="&#xdf;" horiz-adv-x="370" 
d="M337 533q0 -50 -17 -87t-66 -56v-2q31 -10 51.5 -31.5t32.5 -49.5t16.5 -59.5t4.5 -60.5q0 -57 -12.5 -93t-36.5 -56.5t-58.5 -28.5t-77.5 -9v90q23 1 35.5 12t18 27.5t6.5 37t1 40.5q0 19 -2 42t-8 43t-17.5 34.5t-31.5 16.5v74q15 4 24 14.5t13.5 25t6 31t1.5 31.5
q0 47 -9.5 79t-33.5 32q-11 0 -21.5 -9t-10.5 -35v-586h-116v572q0 80 40 117t108 37q35 0 64 -10.5t50 -33.5t33 -60t12 -89z" />
    <glyph glyph-name="divide" unicode="&#xf7;" horiz-adv-x="600" 
d="M220 45q0 33 23.5 56.5t56.5 23.5t56.5 -23.5t23.5 -56.5t-23.5 -56.5t-56.5 -23.5t-56.5 23.5t-23.5 56.5zM218 461q0 33 23.5 56.5t56.5 23.5t56.5 -23.5t23.5 -56.5t-23.5 -56.5t-56.5 -23.5t-56.5 23.5t-23.5 56.5zM47 301h506v-96h-506v96z" />
    <glyph glyph-name="registered" unicode="&#xae;" horiz-adv-x="666" 
d="M284 461h64q24 0 39 9t15 32t-19 30t-39 7h-60v-78zM284 269h-66v324h132q57 0 87.5 -21.5t30.5 -74.5q0 -45 -24 -64.5t-62 -22.5l86 -141h-76l-79 138h-29v-138zM108 430q0 -50 17.5 -92t48 -72.5t71.5 -48t88 -17.5q46 0 87 17.5t72 48t48.5 72.5t17.5 92t-18 92
t-48.5 73t-71.5 48t-87 17q-47 0 -88 -17t-71.5 -48t-48 -73t-17.5 -92zM30 430q0 67 25 122t66.5 93.5t96.5 59.5t115 21t115 -21t96.5 -59.5t66.5 -93.5t25 -122q0 -68 -25 -122.5t-66.5 -93t-96.5 -59.5t-115 -21t-115 21t-96.5 59.5t-66.5 93t-25 122.5z" />
    <glyph glyph-name="ccedilla" unicode="&#xe7;" horiz-adv-x="334" 
d="M221 319q-2 59 -8.5 83t-25.5 24q-10 0 -16 -7t-9.5 -27.5t-5 -57.5t-1.5 -96q0 -47 2 -77.5t6.5 -48t11.5 -24t17 -6.5q13 0 20.5 10t12 25.5t6.5 35t5 39.5l89 -3q-1 -34 -6 -67.5t-18.5 -61.5t-38.5 -46t-65 -20l-13 -30q16 3 27.5 -1.5t18.5 -14t10 -23t3 -26.5
q0 -11 -2.5 -24.5t-9.5 -26t-20 -21t-34 -8.5q-30 0 -46 21.5t-16 44.5h48q0 -6 3.5 -14.5t12.5 -8.5q5 0 7.5 5.5t2.5 24.5q0 20 -2.5 25t-7.5 5t-7.5 -3t-5.5 -8l-43 23l29 62q-27 6 -50.5 23t-40.5 48t-26.5 76.5t-9.5 107.5q0 71 12.5 120.5t34 80t51 44.5t63.5 14
q42 0 68 -15.5t40.5 -41t21 -60t9.5 -71.5z" />
    <glyph glyph-name="plusminus" unicode="&#xb1;" horiz-adv-x="600" 
d="M47 96h506v-96h-506v96zM47 366h205v140h96v-140h205v-96h-205v-140h-96v140h-205v96z" />
    <glyph glyph-name="Ccedilla" unicode="&#xc7;" horiz-adv-x="407" 
d="M260 454q0 89 -11.5 125.5t-35.5 36.5q-10 0 -20 -6.5t-17.5 -32.5t-12 -78t-4.5 -143q0 -88 3 -139.5t9 -78.5t16.5 -34.5t25.5 -7.5q32 0 42.5 45.5t12.5 123.5l110 -5q0 -44 -4.5 -90t-20 -84.5t-44.5 -65.5t-78 -32l-10 -24q16 3 27.5 -1.5t18.5 -14t10 -23t3 -26.5
q0 -11 -2.5 -24.5t-9.5 -26t-20 -21t-34 -8.5q-30 0 -46 21.5t-16 44.5h48q0 -6 3.5 -14.5t12.5 -8.5q5 0 7.5 5.5t2.5 24.5q0 20 -2.5 25t-7.5 5t-7.5 -3t-5.5 -8l-43 23l25 54q-45 5 -76 32.5t-50 74.5t-27.5 112.5t-8.5 148.5q0 102 14.5 172.5t39.5 114.5t58.5 63.5
t72.5 19.5q56 0 89.5 -23.5t51 -61.5t22.5 -86t5 -97z" />
    <glyph glyph-name="copyright" unicode="&#xa9;" horiz-adv-x="666" 
d="M488 381q-9 -60 -50.5 -93t-97.5 -33q-37 0 -67 13.5t-51.5 37t-33.5 55.5t-12 70t11 70.5t32 56t51 36.5t68 13q59 0 99 -30.5t49 -90.5h-66q-6 26 -28 40.5t-54 14.5q-38 0 -61 -29t-23 -79q0 -23 6.5 -43.5t18.5 -35.5t27.5 -24t33.5 -9q33 0 54 16t26 44h68zM558 430
q0 50 -18 92t-48.5 73t-71.5 48t-87 17q-47 0 -88 -17t-71.5 -48t-48 -73t-17.5 -92t17.5 -92t48 -72.5t71.5 -48t88 -17.5q46 0 87 17.5t72 48t48.5 72.5t17.5 92zM30 430q0 67 25 122t66.5 93.5t96.5 59.5t115 21t115 -21t96.5 -59.5t66.5 -93.5t25 -122q0 -68 -25 -122.5
t-66.5 -93t-96.5 -59.5t-115 -21t-115 21t-96.5 59.5t-66.5 93t-25 122.5z" />
    <glyph glyph-name="logicalnot" unicode="&#xac;" horiz-adv-x="600" 
d="M47 408h506v-300h-96v204h-410v96z" />
    <glyph glyph-name="trademark" unicode="&#x2122;" horiz-adv-x="851" 
d="M143 634h-90v78h276v-78h-90v-334h-96v334zM381 712h136l72 -272h2l72 272h135v-412h-90v302h-2l-82 -302h-69l-82 302h-2v-302h-90v412z" />
    <glyph glyph-name="degree" unicode="&#xb0;" horiz-adv-x="400" 
d="M117 577q0 -34 24.5 -58.5t58.5 -24.5t58.5 24.5t24.5 58.5t-24.5 58.5t-58.5 24.5t-58.5 -24.5t-24.5 -58.5zM57 577q0 30 11 56t30.5 45.5t45.5 30.5t56 11t56 -11t45.5 -30.5t30.5 -45.5t11 -56t-11 -56t-30.5 -45.5t-45.5 -30.5t-56 -11t-56 11t-45.5 30.5
t-30.5 45.5t-11 56z" />
    <glyph glyph-name="mu" unicode="&#xb5;" horiz-adv-x="354" 
d="M25 502h116v-375q0 -20 9.5 -29.5t19.5 -9.5q17 0 30 8.5t13 16.5v389h116v-502h-116v50h-2q-11 -24 -27 -37t-43 -13v-150h-116v652z" />
    <glyph glyph-name="mu" unicode="&#x3bc;" horiz-adv-x="354" 
d="M25 502h116v-375q0 -20 9.5 -29.5t19.5 -9.5q17 0 30 8.5t13 16.5v389h116v-502h-116v50h-2q-11 -24 -27 -37t-43 -13v-150h-116v652z" />
    <glyph glyph-name="numbersign" unicode="#" horiz-adv-x="388" 
d="M144 282h79l22 149h-80zM0 282h79l22 149h-72v60h82l32 221h61l-30 -221h78l32 221h64l-32 -221h72v-60h-79l-23 -149h73v-60h-82l-28 -222h-63l29 222h-79l-30 -222h-64l30 222h-72v60z" />
    <glyph glyph-name="Aacute" unicode="&#xc1;" horiz-adv-x="388" 
d="M106 712h188l88 -712h-125l-19 158h-105l-18 -158h-109zM189 602h-2l-41 -340h81zM216 886h112l-108 -136h-65z" />
    <glyph glyph-name="Acircumflex" unicode="&#xc2;" horiz-adv-x="388" 
d="M106 712h188l88 -712h-125l-19 158h-105l-18 -158h-109zM189 602h-2l-41 -340h81zM151 874h86l88 -124h-99l-33 65l-31 -65h-99z" />
    <glyph glyph-name="Adieresis" unicode="&#xc4;" horiz-adv-x="388" 
d="M106 712h188l88 -712h-125l-19 158h-105l-18 -158h-109zM189 602h-2l-41 -340h81zM221 854h104v-104h-104v104zM63 854h104v-104h-104v104z" />
    <glyph glyph-name="Agrave" unicode="&#xc0;" horiz-adv-x="388" 
d="M106 712h188l88 -712h-125l-19 158h-105l-18 -158h-109zM189 602h-2l-41 -340h81zM60 886h112l61 -136h-65z" />
    <glyph glyph-name="Aring" unicode="&#xc5;" horiz-adv-x="388" 
d="M106 712h188l88 -712h-125l-19 158h-105l-18 -158h-109zM189 602h-2l-41 -340h81zM161 806q0 -14 9.5 -23.5t23.5 -9.5t23.5 9.5t9.5 23.5t-9.5 23.5t-23.5 9.5t-23.5 -9.5t-9.5 -23.5zM119 806q0 31 21.5 53t53.5 22q31 0 53 -22t22 -53t-22 -53t-53 -22q-32 0 -53.5 22
t-21.5 53z" />
    <glyph glyph-name="Atilde" unicode="&#xc3;" horiz-adv-x="388" 
d="M106 712h188l88 -712h-125l-19 158h-105l-18 -158h-109zM189 602h-2l-41 -340h81zM63 777q6 16 12.5 29.5t16 23.5t23 15.5t33.5 5.5q10 0 23 -2.5t26.5 -6t26.5 -6t23 -2.5q13 0 18.5 4.5t8.5 12.5l51 -10q-12 -73 -89 -73q-27 0 -51.5 8.5t-39.5 8.5q-21 0 -32 -18z
" />
    <glyph glyph-name="Eacute" unicode="&#xc9;" 
d="M42 712h294v-110h-164v-182h121v-116h-121v-194h171v-110h-301v712zM198 886h112l-108 -136h-65z" />
    <glyph glyph-name="Ecircumflex" unicode="&#xca;" 
d="M42 712h294v-110h-164v-182h121v-116h-121v-194h171v-110h-301v712zM133 874h86l88 -124h-99l-33 65l-31 -65h-99z" />
    <glyph glyph-name="Edieresis" unicode="&#xcb;" 
d="M42 712h294v-110h-164v-182h121v-116h-121v-194h171v-110h-301v712zM203 854h104v-104h-104v104zM45 854h104v-104h-104v104z" />
    <glyph glyph-name="Egrave" unicode="&#xc8;" 
d="M42 712h294v-110h-164v-182h121v-116h-121v-194h171v-110h-301v712zM42 886h112l61 -136h-65z" />
    <glyph glyph-name="Iacute" unicode="&#xcd;" horiz-adv-x="204" 
d="M37 712h130v-712h-130v712zM124 886h112l-108 -136h-65z" />
    <glyph glyph-name="Icircumflex" unicode="&#xce;" horiz-adv-x="204" 
d="M37 712h130v-712h-130v712zM59 874h86l88 -124h-99l-33 65l-31 -65h-99z" />
    <glyph glyph-name="Idieresis" unicode="&#xcf;" horiz-adv-x="204" 
d="M37 712h130v-712h-130v712zM129 854h104v-104h-104v104zM-29 854h104v-104h-104v104z" />
    <glyph glyph-name="Igrave" unicode="&#xcc;" horiz-adv-x="204" 
d="M37 712h130v-712h-130v712zM-32 886h112l61 -136h-65z" />
    <glyph glyph-name="Ntilde" unicode="&#xd1;" horiz-adv-x="426" 
d="M37 712h127l119 -376h2v376h104v-712h-101l-139 431h-2v-431h-110v712zM82 777q6 16 12.5 29.5t16 23.5t23 15.5t33.5 5.5q10 0 23 -2.5t26.5 -6t26.5 -6t23 -2.5q13 0 18.5 4.5t8.5 12.5l51 -10q-12 -73 -89 -73q-27 0 -51.5 8.5t-39.5 8.5q-21 0 -32 -18z" />
    <glyph glyph-name="Oacute" unicode="&#xd3;" horiz-adv-x="426" 
d="M165 281q0 -58 3.5 -94t9.5 -56.5t15 -27.5t20 -7t20 7t15 27.5t9.5 56.5t3.5 94v150q0 58 -3.5 94t-9.5 56t-15 27.5t-20 7.5t-20 -7.5t-15 -27.5t-9.5 -56t-3.5 -94v-150zM23 356q0 105 13.5 176t38.5 114t60 61.5t78 18.5t78 -18.5t60 -61.5t38.5 -114t13.5 -176
t-13.5 -176t-38.5 -114t-60 -61.5t-78 -18.5t-78 18.5t-60 61.5t-38.5 114t-13.5 176zM235 886h112l-108 -136h-65z" />
    <glyph glyph-name="Ocircumflex" unicode="&#xd4;" horiz-adv-x="426" 
d="M165 281q0 -58 3.5 -94t9.5 -56.5t15 -27.5t20 -7t20 7t15 27.5t9.5 56.5t3.5 94v150q0 58 -3.5 94t-9.5 56t-15 27.5t-20 7.5t-20 -7.5t-15 -27.5t-9.5 -56t-3.5 -94v-150zM23 356q0 105 13.5 176t38.5 114t60 61.5t78 18.5t78 -18.5t60 -61.5t38.5 -114t13.5 -176
t-13.5 -176t-38.5 -114t-60 -61.5t-78 -18.5t-78 18.5t-60 61.5t-38.5 114t-13.5 176zM170 874h86l88 -124h-99l-33 65l-31 -65h-99z" />
    <glyph glyph-name="Odieresis" unicode="&#xd6;" horiz-adv-x="426" 
d="M165 281q0 -58 3.5 -94t9.5 -56.5t15 -27.5t20 -7t20 7t15 27.5t9.5 56.5t3.5 94v150q0 58 -3.5 94t-9.5 56t-15 27.5t-20 7.5t-20 -7.5t-15 -27.5t-9.5 -56t-3.5 -94v-150zM23 356q0 105 13.5 176t38.5 114t60 61.5t78 18.5t78 -18.5t60 -61.5t38.5 -114t13.5 -176
t-13.5 -176t-38.5 -114t-60 -61.5t-78 -18.5t-78 18.5t-60 61.5t-38.5 114t-13.5 176zM240 854h104v-104h-104v104zM82 854h104v-104h-104v104z" />
    <glyph glyph-name="Ograve" unicode="&#xd2;" horiz-adv-x="426" 
d="M165 281q0 -58 3.5 -94t9.5 -56.5t15 -27.5t20 -7t20 7t15 27.5t9.5 56.5t3.5 94v150q0 58 -3.5 94t-9.5 56t-15 27.5t-20 7.5t-20 -7.5t-15 -27.5t-9.5 -56t-3.5 -94v-150zM23 356q0 105 13.5 176t38.5 114t60 61.5t78 18.5t78 -18.5t60 -61.5t38.5 -114t13.5 -176
t-13.5 -176t-38.5 -114t-60 -61.5t-78 -18.5t-78 18.5t-60 61.5t-38.5 114t-13.5 176zM79 886h112l61 -136h-65z" />
    <glyph glyph-name="Otilde" unicode="&#xd5;" horiz-adv-x="426" 
d="M165 281q0 -58 3.5 -94t9.5 -56.5t15 -27.5t20 -7t20 7t15 27.5t9.5 56.5t3.5 94v150q0 58 -3.5 94t-9.5 56t-15 27.5t-20 7.5t-20 -7.5t-15 -27.5t-9.5 -56t-3.5 -94v-150zM23 356q0 105 13.5 176t38.5 114t60 61.5t78 18.5t78 -18.5t60 -61.5t38.5 -114t13.5 -176
t-13.5 -176t-38.5 -114t-60 -61.5t-78 -18.5t-78 18.5t-60 61.5t-38.5 114t-13.5 176zM82 777q6 16 12.5 29.5t16 23.5t23 15.5t33.5 5.5q10 0 23 -2.5t26.5 -6t26.5 -6t23 -2.5q13 0 18.5 4.5t8.5 12.5l51 -10q-12 -73 -89 -73q-27 0 -51.5 8.5t-39.5 8.5q-21 0 -32 -18z
" />
    <glyph glyph-name="Uacute" unicode="&#xda;" horiz-adv-x="407" 
d="M37 712h130v-551q0 -12 1.5 -23.5t6.5 -21t14 -15t23 -5.5q27 0 37.5 19.5t10.5 45.5v551h110v-534q0 -105 -44 -148.5t-122 -43.5q-38 0 -68.5 10.5t-52.5 33t-34 59t-12 89.5v534zM226 886h112l-108 -136h-65z" />
    <glyph glyph-name="Ucircumflex" unicode="&#xdb;" horiz-adv-x="407" 
d="M37 712h130v-551q0 -12 1.5 -23.5t6.5 -21t14 -15t23 -5.5q27 0 37.5 19.5t10.5 45.5v551h110v-534q0 -105 -44 -148.5t-122 -43.5q-38 0 -68.5 10.5t-52.5 33t-34 59t-12 89.5v534zM161 874h86l88 -124h-99l-33 65l-31 -65h-99z" />
    <glyph glyph-name="Udieresis" unicode="&#xdc;" horiz-adv-x="407" 
d="M37 712h130v-551q0 -12 1.5 -23.5t6.5 -21t14 -15t23 -5.5q27 0 37.5 19.5t10.5 45.5v551h110v-534q0 -105 -44 -148.5t-122 -43.5q-38 0 -68.5 10.5t-52.5 33t-34 59t-12 89.5v534zM231 854h104v-104h-104v104zM73 854h104v-104h-104v104z" />
    <glyph glyph-name="Ugrave" unicode="&#xd9;" horiz-adv-x="407" 
d="M37 712h130v-551q0 -12 1.5 -23.5t6.5 -21t14 -15t23 -5.5q27 0 37.5 19.5t10.5 45.5v551h110v-534q0 -105 -44 -148.5t-122 -43.5q-38 0 -68.5 10.5t-52.5 33t-34 59t-12 89.5v534zM70 886h112l61 -136h-65z" />
    <glyph glyph-name="Ydieresis" unicode="&#x178;" horiz-adv-x="334" 
d="M102 275l-119 437h129l62 -279h2l66 279h109l-119 -425v-287h-130v275zM194 854h104v-104h-104v104zM36 854h104v-104h-104v104z" />
    <glyph glyph-name="aacute" unicode="&#xe1;" 
d="M211 245q-47 -8 -61 -35.5t-14 -70.5q0 -9 2 -19t7 -18.5t12.5 -14t19.5 -5.5q14 0 22.5 6.5t11.5 13.5v143zM41 368q0 66 39 104t105 38q47 0 75 -13.5t43 -34.5t19.5 -47t4.5 -51v-270q0 -12 3.5 -41t8.5 -53h-114l-8 46q-18 -30 -46.5 -42t-47.5 -12q-31 0 -51 12.5
t-31.5 31.5t-16 41.5t-4.5 42.5q0 89 52 140.5t139 56.5v57q0 29 -8 37.5t-23 8.5q-12 0 -20 -6t-12.5 -15t-7 -20t-3.5 -20zM198 702h112l-108 -136h-65z" />
    <glyph glyph-name="acircumflex" unicode="&#xe2;" 
d="M211 245q-47 -8 -61 -35.5t-14 -70.5q0 -9 2 -19t7 -18.5t12.5 -14t19.5 -5.5q14 0 22.5 6.5t11.5 13.5v143zM41 368q0 66 39 104t105 38q47 0 75 -13.5t43 -34.5t19.5 -47t4.5 -51v-270q0 -12 3.5 -41t8.5 -53h-114l-8 46q-18 -30 -46.5 -42t-47.5 -12q-31 0 -51 12.5
t-31.5 31.5t-16 41.5t-4.5 42.5q0 89 52 140.5t139 56.5v57q0 29 -8 37.5t-23 8.5q-12 0 -20 -6t-12.5 -15t-7 -20t-3.5 -20zM133 690h86l88 -124h-99l-33 65l-31 -65h-99z" />
    <glyph glyph-name="adieresis" unicode="&#xe4;" 
d="M211 245q-47 -8 -61 -35.5t-14 -70.5q0 -9 2 -19t7 -18.5t12.5 -14t19.5 -5.5q14 0 22.5 6.5t11.5 13.5v143zM41 368q0 66 39 104t105 38q47 0 75 -13.5t43 -34.5t19.5 -47t4.5 -51v-270q0 -12 3.5 -41t8.5 -53h-114l-8 46q-18 -30 -46.5 -42t-47.5 -12q-31 0 -51 12.5
t-31.5 31.5t-16 41.5t-4.5 42.5q0 89 52 140.5t139 56.5v57q0 29 -8 37.5t-23 8.5q-12 0 -20 -6t-12.5 -15t-7 -20t-3.5 -20zM203 670h104v-104h-104v104zM45 670h104v-104h-104v104z" />
    <glyph glyph-name="agrave" unicode="&#xe0;" 
d="M211 245q-47 -8 -61 -35.5t-14 -70.5q0 -9 2 -19t7 -18.5t12.5 -14t19.5 -5.5q14 0 22.5 6.5t11.5 13.5v143zM41 368q0 66 39 104t105 38q47 0 75 -13.5t43 -34.5t19.5 -47t4.5 -51v-270q0 -12 3.5 -41t8.5 -53h-114l-8 46q-18 -30 -46.5 -42t-47.5 -12q-31 0 -51 12.5
t-31.5 31.5t-16 41.5t-4.5 42.5q0 89 52 140.5t139 56.5v57q0 29 -8 37.5t-23 8.5q-12 0 -20 -6t-12.5 -15t-7 -20t-3.5 -20zM42 702h112l61 -136h-65z" />
    <glyph glyph-name="aring" unicode="&#xe5;" 
d="M211 245q-47 -8 -61 -35.5t-14 -70.5q0 -9 2 -19t7 -18.5t12.5 -14t19.5 -5.5q14 0 22.5 6.5t11.5 13.5v143zM41 368q0 66 39 104t105 38q47 0 75 -13.5t43 -34.5t19.5 -47t4.5 -51v-270q0 -12 3.5 -41t8.5 -53h-114l-8 46q-18 -30 -46.5 -42t-47.5 -12q-31 0 -51 12.5
t-31.5 31.5t-16 41.5t-4.5 42.5q0 89 52 140.5t139 56.5v57q0 29 -8 37.5t-23 8.5q-12 0 -20 -6t-12.5 -15t-7 -20t-3.5 -20zM158 622q0 -14 9.5 -23.5t23.5 -9.5t23.5 9.5t9.5 23.5t-9.5 23.5t-23.5 9.5t-23.5 -9.5t-9.5 -23.5zM116 622q0 31 21.5 53t53.5 22q31 0 53 -22
t22 -53t-22 -53t-53 -22q-32 0 -53.5 22t-21.5 53z" />
    <glyph glyph-name="atilde" unicode="&#xe3;" 
d="M211 245q-47 -8 -61 -35.5t-14 -70.5q0 -9 2 -19t7 -18.5t12.5 -14t19.5 -5.5q14 0 22.5 6.5t11.5 13.5v143zM41 368q0 66 39 104t105 38q47 0 75 -13.5t43 -34.5t19.5 -47t4.5 -51v-270q0 -12 3.5 -41t8.5 -53h-114l-8 46q-18 -30 -46.5 -42t-47.5 -12q-31 0 -51 12.5
t-31.5 31.5t-16 41.5t-4.5 42.5q0 89 52 140.5t139 56.5v57q0 29 -8 37.5t-23 8.5q-12 0 -20 -6t-12.5 -15t-7 -20t-3.5 -20zM45 593q6 16 12.5 29.5t16 23.5t23 15.5t33.5 5.5q10 0 23 -2.5t26.5 -6t26.5 -6t23 -2.5q13 0 18.5 4.5t8.5 12.5l51 -10q-12 -73 -89 -73
q-27 0 -51.5 8.5t-39.5 8.5q-21 0 -32 -18z" />
    <glyph glyph-name="eacute" unicode="&#xe9;" 
d="M224 305v14q0 55 -9 78t-30 23q-20 0 -28 -21.5t-8 -79.5v-14h75zM149 215v-22q0 -33 3.5 -53.5t10 -32t14.5 -15.5t17 -4q16 0 26 6t16.5 15.5t10.5 22t8 25.5l81 -24q-13 -71 -51.5 -106t-98.5 -35q-34 0 -63.5 13.5t-51 44.5t-34 80.5t-12.5 120.5t12.5 120.5t34 80
t51 44.5t63.5 14q44 0 72.5 -24.5t45.5 -60.5t23.5 -79t6.5 -80v-51h-185zM198 702h112l-108 -136h-65z" />
    <glyph glyph-name="ecircumflex" unicode="&#xea;" 
d="M224 305v14q0 55 -9 78t-30 23q-20 0 -28 -21.5t-8 -79.5v-14h75zM149 215v-22q0 -33 3.5 -53.5t10 -32t14.5 -15.5t17 -4q16 0 26 6t16.5 15.5t10.5 22t8 25.5l81 -24q-13 -71 -51.5 -106t-98.5 -35q-34 0 -63.5 13.5t-51 44.5t-34 80.5t-12.5 120.5t12.5 120.5t34 80
t51 44.5t63.5 14q44 0 72.5 -24.5t45.5 -60.5t23.5 -79t6.5 -80v-51h-185zM133 690h86l88 -124h-99l-33 65l-31 -65h-99z" />
    <glyph glyph-name="edieresis" unicode="&#xeb;" 
d="M224 305v14q0 55 -9 78t-30 23q-20 0 -28 -21.5t-8 -79.5v-14h75zM149 215v-22q0 -33 3.5 -53.5t10 -32t14.5 -15.5t17 -4q16 0 26 6t16.5 15.5t10.5 22t8 25.5l81 -24q-13 -71 -51.5 -106t-98.5 -35q-34 0 -63.5 13.5t-51 44.5t-34 80.5t-12.5 120.5t12.5 120.5t34 80
t51 44.5t63.5 14q44 0 72.5 -24.5t45.5 -60.5t23.5 -79t6.5 -80v-51h-185zM203 670h104v-104h-104v104zM45 670h104v-104h-104v104z" />
    <glyph glyph-name="egrave" unicode="&#xe8;" 
d="M224 305v14q0 55 -9 78t-30 23q-20 0 -28 -21.5t-8 -79.5v-14h75zM149 215v-22q0 -33 3.5 -53.5t10 -32t14.5 -15.5t17 -4q16 0 26 6t16.5 15.5t10.5 22t8 25.5l81 -24q-13 -71 -51.5 -106t-98.5 -35q-34 0 -63.5 13.5t-51 44.5t-34 80.5t-12.5 120.5t12.5 120.5t34 80
t51 44.5t63.5 14q44 0 72.5 -24.5t45.5 -60.5t23.5 -79t6.5 -80v-51h-185zM42 702h112l61 -136h-65z" />
    <glyph glyph-name="iacute" unicode="&#xed;" horiz-adv-x="166" 
d="M25 502h116v-502h-116v502zM105 702h112l-108 -136h-65z" />
    <glyph glyph-name="icircumflex" unicode="&#xee;" horiz-adv-x="166" 
d="M25 502h116v-502h-116v502zM40 690h86l88 -124h-99l-33 65l-31 -65h-99z" />
    <glyph glyph-name="idieresis" unicode="&#xef;" horiz-adv-x="166" 
d="M25 502h116v-502h-116v502zM110 670h104v-104h-104v104zM-48 670h104v-104h-104v104z" />
    <glyph glyph-name="igrave" unicode="&#xec;" horiz-adv-x="166" 
d="M25 502h116v-502h-116v502zM-51 702h112l61 -136h-65z" />
    <glyph glyph-name="ntilde" unicode="&#xf1;" horiz-adv-x="354" 
d="M25 502h116v-48h2q20 21 46.5 38.5t58.5 17.5q42 0 61.5 -27t19.5 -77v-406h-116v364q0 29 -9 39.5t-24 10.5q-12 0 -22.5 -5.5t-16.5 -13.5v-395h-116v502zM46 593q6 16 12.5 29.5t16 23.5t23 15.5t33.5 5.5q10 0 23 -2.5t26.5 -6t26.5 -6t23 -2.5q13 0 18.5 4.5
t8.5 12.5l51 -10q-12 -73 -89 -73q-27 0 -51.5 8.5t-39.5 8.5q-21 0 -32 -18z" />
    <glyph glyph-name="oacute" unicode="&#xf3;" horiz-adv-x="370" 
d="M221 251q0 57 -2 91.5t-6 53t-11 24.5t-17 6t-17 -6t-11 -24.5t-6 -53t-2 -91.5t2 -91.5t6 -53t11 -24.5t17 -6t17 6t11 24.5t6 53t2 91.5zM345 251q0 -71 -12.5 -120.5t-34 -80.5t-50.5 -44.5t-63 -13.5t-63 13.5t-50.5 44.5t-34 80.5t-12.5 120.5t12.5 120.5t34 80
t50.5 44.5t63 14t63 -14t50.5 -44.5t34 -80t12.5 -120.5zM207 702h112l-108 -136h-65z" />
    <glyph glyph-name="ocircumflex" unicode="&#xf4;" horiz-adv-x="370" 
d="M221 251q0 57 -2 91.5t-6 53t-11 24.5t-17 6t-17 -6t-11 -24.5t-6 -53t-2 -91.5t2 -91.5t6 -53t11 -24.5t17 -6t17 6t11 24.5t6 53t2 91.5zM345 251q0 -71 -12.5 -120.5t-34 -80.5t-50.5 -44.5t-63 -13.5t-63 13.5t-50.5 44.5t-34 80.5t-12.5 120.5t12.5 120.5t34 80
t50.5 44.5t63 14t63 -14t50.5 -44.5t34 -80t12.5 -120.5zM142 690h86l88 -124h-99l-33 65l-31 -65h-99z" />
    <glyph glyph-name="odieresis" unicode="&#xf6;" horiz-adv-x="370" 
d="M221 251q0 57 -2 91.5t-6 53t-11 24.5t-17 6t-17 -6t-11 -24.5t-6 -53t-2 -91.5t2 -91.5t6 -53t11 -24.5t17 -6t17 6t11 24.5t6 53t2 91.5zM345 251q0 -71 -12.5 -120.5t-34 -80.5t-50.5 -44.5t-63 -13.5t-63 13.5t-50.5 44.5t-34 80.5t-12.5 120.5t12.5 120.5t34 80
t50.5 44.5t63 14t63 -14t50.5 -44.5t34 -80t12.5 -120.5zM212 670h104v-104h-104v104zM54 670h104v-104h-104v104z" />
    <glyph glyph-name="ograve" unicode="&#xf2;" horiz-adv-x="370" 
d="M221 251q0 57 -2 91.5t-6 53t-11 24.5t-17 6t-17 -6t-11 -24.5t-6 -53t-2 -91.5t2 -91.5t6 -53t11 -24.5t17 -6t17 6t11 24.5t6 53t2 91.5zM345 251q0 -71 -12.5 -120.5t-34 -80.5t-50.5 -44.5t-63 -13.5t-63 13.5t-50.5 44.5t-34 80.5t-12.5 120.5t12.5 120.5t34 80
t50.5 44.5t63 14t63 -14t50.5 -44.5t34 -80t12.5 -120.5zM51 702h112l61 -136h-65z" />
    <glyph glyph-name="otilde" unicode="&#xf5;" horiz-adv-x="370" 
d="M221 251q0 57 -2 91.5t-6 53t-11 24.5t-17 6t-17 -6t-11 -24.5t-6 -53t-2 -91.5t2 -91.5t6 -53t11 -24.5t17 -6t17 6t11 24.5t6 53t2 91.5zM345 251q0 -71 -12.5 -120.5t-34 -80.5t-50.5 -44.5t-63 -13.5t-63 13.5t-50.5 44.5t-34 80.5t-12.5 120.5t12.5 120.5t34 80
t50.5 44.5t63 14t63 -14t50.5 -44.5t34 -80t12.5 -120.5zM54 593q6 16 12.5 29.5t16 23.5t23 15.5t33.5 5.5q10 0 23 -2.5t26.5 -6t26.5 -6t23 -2.5q13 0 18.5 4.5t8.5 12.5l51 -10q-12 -73 -89 -73q-27 0 -51.5 8.5t-39.5 8.5q-21 0 -32 -18z" />
    <glyph glyph-name="uacute" unicode="&#xfa;" horiz-adv-x="354" 
d="M329 0h-116v48h-2q-20 -21 -45.5 -38.5t-54.5 -17.5q-40 0 -63 28t-23 76v406h116v-364q0 -29 9 -39.5t24 -10.5q12 0 22.5 5.5t16.5 13.5v395h116v-502zM199 702h112l-108 -136h-65z" />
    <glyph glyph-name="ucircumflex" unicode="&#xfb;" horiz-adv-x="354" 
d="M329 0h-116v48h-2q-20 -21 -45.5 -38.5t-54.5 -17.5q-40 0 -63 28t-23 76v406h116v-364q0 -29 9 -39.5t24 -10.5q12 0 22.5 5.5t16.5 13.5v395h116v-502zM134 690h86l88 -124h-99l-33 65l-31 -65h-99z" />
    <glyph glyph-name="udieresis" unicode="&#xfc;" horiz-adv-x="354" 
d="M329 0h-116v48h-2q-20 -21 -45.5 -38.5t-54.5 -17.5q-40 0 -63 28t-23 76v406h116v-364q0 -29 9 -39.5t24 -10.5q12 0 22.5 5.5t16.5 13.5v395h116v-502zM204 670h104v-104h-104v104zM46 670h104v-104h-104v104z" />
    <glyph glyph-name="ugrave" unicode="&#xf9;" horiz-adv-x="354" 
d="M329 0h-116v48h-2q-20 -21 -45.5 -38.5t-54.5 -17.5q-40 0 -63 28t-23 76v406h116v-364q0 -29 9 -39.5t24 -10.5q12 0 22.5 5.5t16.5 13.5v395h116v-502zM43 702h112l61 -136h-65z" />
    <glyph glyph-name="ydieresis" unicode="&#xff;" horiz-adv-x="314" 
d="M216 8q-8 -45 -21.5 -75t-33.5 -48.5t-48 -26.5t-66 -8q-11 0 -21 1t-21 3v94q13 -2 25 -2h24q27 0 41.5 16.5t14.5 43.5q0 17 -5 37l-96 459h111l51 -264h2l41 264h94zM184 670h104v-104h-104v104zM26 670h104v-104h-104v104z" />
    <glyph glyph-name="exclam" unicode="!" horiz-adv-x="260" 
d="M59 712h142l-35 -500h-72zM65 130h130v-130h-130v130z" />
    <glyph glyph-name="quotedbl" unicode="&#x22;" horiz-adv-x="332" 
d="M39 712h96v-280h-96v280zM197 712h96v-280h-96v280z" />
    <glyph glyph-name="Lslash" unicode="&#x141;" 
d="M42 264l-62 -46v89l62 46v359h130v-262l114 85v-89l-114 -85v-251h166v-110h-296v264z" />
    <glyph glyph-name="lslash" unicode="&#x142;" horiz-adv-x="166" 
d="M25 271l-45 -45v93l45 45v348h116v-247l45 45v-92l-45 -45v-373h-116v271z" />
    <glyph glyph-name="threequarters" unicode="&#xbe;" horiz-adv-x="629" 
d="M407 726h79l-243 -740h-81zM489 349h-2l-63 -183h65v183zM373 170l89 257h111v-261h46v-66h-46v-100h-84v100h-116v70zM77 537q43 -2 57 18t14 51q0 6 -1 14t-4 15.5t-9.5 13t-16.5 5.5q-11 0 -16 -5t-7.5 -12t-3 -15t-1.5 -15l-70 6q2 21 9.5 40.5t21 34.5t32.5 23.5
t44 8.5q24 0 43 -9.5t31.5 -24.5t19 -35t6.5 -41q0 -35 -14 -61.5t-53 -35.5v-2q45 -11 62.5 -40.5t17.5 -67.5q0 -58 -34.5 -90.5t-91.5 -32.5q-51 0 -76.5 31.5t-26.5 76.5l76 4q0 -7 0.5 -15t3.5 -15t9 -11.5t16 -4.5q20 0 27 13t7 48q0 32 -16 49t-56 15v66z" />
    <glyph glyph-name="onequarter" unicode="&#xbc;" horiz-adv-x="629" 
d="M394 726h79l-243 -740h-81zM59 620l-49 -8v54q22 8 48 20t43 26h42v-358h48v-66h-181v66h49v266zM489 349h-2l-63 -183h65v183zM489 100h-116v70l89 257h111v-261h46v-66h-46v-100h-84v100z" />
    <glyph glyph-name="onesuperior" unicode="&#xb9;" horiz-adv-x="240" 
d="M29 354h49v266l-49 -8v54q22 8 48 20t43 26h42v-358h49v-66h-182v66z" />
    <glyph glyph-name="multiply" unicode="&#xd7;" horiz-adv-x="600" 
d="M67 87l166 166l-166 166l67 67l166 -167l166 167l67 -67l-166 -166l166 -166l-67 -67l-166 167l-166 -167z" />
    <glyph glyph-name="Thorn" unicode="&#xde;" horiz-adv-x="389" 
d="M42 712h130v-142q110 0 167 -49t57 -164q0 -48 -9.5 -87.5t-30.5 -67.5t-53.5 -43.5t-78.5 -15.5h-52v-143h-130v712zM173 247h11q20 0 35 4.5t25.5 16.5t16 33t5.5 53q0 39 -7 60t-18.5 31.5t-26.5 12.5t-31 2h-10v-213z" />
    <glyph glyph-name="brokenbar" unicode="&#xa6;" horiz-adv-x="222" 
d="M159 175v-350h-96v350h96zM159 675v-350h-96v350h96z" />
    <glyph glyph-name="Eth" unicode="&#xd0;" horiz-adv-x="426" 
d="M172 110q31 0 48 8.5t25.5 34.5t10.5 74.5t2 129.5t-2 129t-10.5 73.5t-25.5 34t-48 8.5v-150h54v-78h-54v-264zM42 374h-49v78h49v260h113q82 0 129.5 -25.5t72 -72t31 -112t6.5 -146.5q0 -77 -6 -142.5t-28 -113t-65.5 -74t-118.5 -26.5h-134v374z" />
    <glyph glyph-name="onehalf" unicode="&#xbd;" horiz-adv-x="629" 
d="M387 726h79l-243 -740h-81zM390 54q23 34 47.5 67.5t45 66.5t33.5 64t13 60q0 9 -1 18.5t-4 17.5t-8.5 13t-15.5 5q-13 0 -21.5 -15t-9.5 -55l-78 4q0 25 8 48.5t23 42t36.5 30t48.5 11.5q25 0 46 -9.5t35.5 -26t22.5 -37.5t8 -43q0 -34 -15 -67t-36.5 -63t-46 -57
t-43.5 -49v-2h122v-78h-210v54zM59 620l-49 -8v54q22 8 48 20t43 26h42v-358h48v-66h-181v66h49v266z" />
    <glyph glyph-name="minus" unicode="&#x2212;" horiz-adv-x="600" 
d="M47 301h506v-96h-506v96z" />
    <glyph glyph-name="eth" unicode="&#xf0;" horiz-adv-x="370" 
d="M221 251q0 51 -2 83t-6.5 49t-10.5 23t-15 6q-11 0 -18 -5t-11.5 -21.5t-6.5 -48.5t-2 -86q0 -57 2 -91.5t6 -53t11 -24.5t17 -6t17 6t11 24.5t6 53t2 91.5zM46 581l75 44q-14 10 -28 18l-28 16l66 75q22 -14 44 -27t40 -31l82 47l41 -47l-81 -45q30 -40 47.5 -84.5
t26.5 -92t11.5 -98.5t2.5 -105q0 -71 -12.5 -120.5t-34 -80.5t-50.5 -44.5t-63 -13.5t-63 13.5t-50.5 44.5t-34 80.5t-12.5 120.5q0 64 11.5 110.5t30.5 76.5t42.5 44t46.5 14q20 0 35 -3.5t27 -14.5l2 2q-7 27 -18.5 52.5t-32.5 48.5l-82 -46z" />
    <glyph glyph-name="thorn" unicode="&#xfe;" horiz-adv-x="370" 
d="M146 86q4 -7 12.5 -11.5t19.5 -4.5q13 0 21 5.5t13 24.5t7 54.5t2 94.5q0 58 -1.5 92.5t-6 53.5t-12 25t-20.5 6t-21.5 -4.5t-13.5 -11.5v-324zM141 462h2q9 10 17 18.5t18 15t23 10.5t30 4q63 0 88.5 -68t25.5 -192q0 -125 -30 -191.5t-94 -66.5q-26 0 -44 11t-29 25h-2
v-178h-116v862h111v-250z" />
    <glyph glyph-name="twosuperior" unicode="&#xb2;" horiz-adv-x="278" 
d="M26 343q22 34 46.5 67.5t45 66t33.5 63.5t13 60q0 9 -1 18.5t-4 17.5t-8.5 13t-15.5 5q-13 0 -22 -15t-11 -57l-78 5q0 25 8 49t23.5 42.5t37.5 30t49 11.5q25 0 46 -9.5t35.5 -26t22.5 -37.5t8 -43q0 -35 -15.5 -68.5t-38 -64t-47 -57.5t-43.5 -48h125v-78h-209v55z" />
    <glyph glyph-name="threesuperior" unicode="&#xb3;" horiz-adv-x="278" 
d="M91 537q43 -2 57 18t14 51q0 6 -1 14t-4 15.5t-9.5 13t-16.5 5.5t-15.5 -5t-8 -12t-3 -15t-0.5 -15l-70 6q4 43 30 75t76 32q24 0 43 -9.5t31.5 -24.5t19 -35t6.5 -41q0 -35 -14 -61.5t-53 -35.5v-2q45 -11 62.5 -40.5t17.5 -67.5q0 -58 -34.5 -90.5t-91.5 -32.5
q-51 0 -76 31.5t-26 76.5l76 4q0 -7 1 -15t4 -15t8.5 -11.5t14.5 -4.5q20 0 27 13t7 48q0 32 -16 49t-56 15v66z" />
    <glyph glyph-name="Scaron" unicode="&#x160;" horiz-adv-x="370" 
d="M131 206q0 -15 1 -34t6 -36t16.5 -28.5t32.5 -11.5q16 0 27 6.5t18 17t10 22.5t3 23q0 32 -17.5 57t-43.5 48t-57 47t-57 54t-43.5 69t-17.5 92q0 40 11 75.5t32 61.5t52.5 41.5t72.5 15.5q44 0 75 -16t50.5 -44.5t29 -68.5t10.5 -88h-116q0 15 -1 33.5t-5.5 35
t-15.5 27.5t-30 11q-23 0 -36 -18t-13 -47q0 -30 17.5 -55t43.5 -48.5t57 -48.5t57 -56t43.5 -70t17.5 -91q0 -41 -11.5 -76.5t-34 -62t-56 -42t-77.5 -15.5q-52 0 -84.5 20.5t-51 52.5t-25 71t-6.5 76h116zM54 874h99l31 -65l33 65h99l-88 -124h-86z" />
    <glyph glyph-name="Yacute" unicode="&#xdd;" horiz-adv-x="334" 
d="M102 275l-119 437h129l62 -279h2l66 279h109l-119 -425v-287h-130v275zM189 886h112l-108 -136h-65z" />
    <glyph glyph-name="Zcaron" unicode="&#x17d;" horiz-adv-x="315" 
d="M2 73l164 529h-150v110h297v-66l-169 -536h164v-110h-306v73zM27 874h99l31 -65l33 65h99l-88 -124h-86z" />
    <glyph glyph-name="scaron" unicode="&#x161;" horiz-adv-x="316" 
d="M202 362q-2 12 -4.5 23.5t-7.5 20.5t-14.5 14.5t-24.5 5.5q-17 0 -26 -13t-9 -30q0 -21 14 -36t35 -29.5t45 -29.5t45 -35t35 -47.5t14 -65.5q0 -66 -40 -107t-108 -41q-71 0 -104 39.5t-40 106.5l91 14q6 -41 17.5 -58.5t40.5 -17.5q18 0 28.5 12t10.5 29
q0 20 -13.5 34.5t-33.5 28.5t-43 30t-43 37.5t-33.5 51.5t-13.5 72q0 30 10 55.5t28.5 44t44 29t55.5 10.5t53 -10.5t38.5 -28.5t24.5 -42.5t12 -52.5zM27 690h99l31 -65l33 65h99l-88 -124h-86z" />
    <glyph glyph-name="yacute" unicode="&#xfd;" horiz-adv-x="314" 
d="M216 8q-8 -45 -21.5 -75t-33.5 -48.5t-48 -26.5t-66 -8q-11 0 -21 1t-21 3v94q13 -2 25 -2h24q27 0 41.5 16.5t14.5 43.5q0 17 -5 37l-96 459h111l51 -264h2l41 264h94zM179 702h112l-108 -136h-65z" />
    <glyph glyph-name="zcaron" unicode="&#x17e;" horiz-adv-x="296" 
d="M20 502h270v-67l-155 -345h152v-90h-281v70l152 342h-138v90zM17 690h99l31 -65l33 65h99l-88 -124h-86z" />
  </font>
</defs>
</svg>
